<?xml version="1.0" encoding="utf-8"?>
<!-- Generator: Adobe Illustrator 18.1.0, SVG Export Plug-In . SVG Version: 6.00 Build 0)  -->
<!DOCTYPE svg PUBLIC "-//W3C//DTD SVG 1.1//EN" "http://www.w3.org/Graphics/SVG/1.1/DTD/svg11.dtd">
<svg version="1.1" id="Layer_1" xmlns="http://www.w3.org/2000/svg" xmlns:xlink="http://www.w3.org/1999/xlink" x="0px" y="0px"
	 viewBox="-363 275 64 64" enable-background="new -363 275 64 64" xml:space="preserve">
<g id="Layer_1_1_">
	<g>
		<circle fill="#7EC9E4" cx="-331" cy="307" r="32"/>
	</g>
	<g opacity="0.2">
		<path fill="#231F20" d="M-311,307c0-9.9-9-18-20-18s-20,8.1-20,18c0,9.6,8.3,17.4,18.8,17.9c0.7,3.7,1.2,6.1,1.2,6.1s5-3,9.6-8.2
			C-315.2,319.7-311,313.8-311,307z"/>
	</g>
	<g>
		<path fill="#FFFFFF" d="M-314,303.8c0,15-17,25.2-17,25.2s-9.4-42,0-42S-314,294.5-314,303.8z"/>
	</g>
	<g>
		<ellipse fill="#FFFFFF" cx="-331" cy="305" rx="20" ry="18"/>
	</g>
	<g>
		<circle fill="#6C708D" cx="-331" cy="305" r="2"/>
	</g>
	<g>
		<circle fill="#6C708D" cx="-323" cy="305" r="2"/>
	</g>
	<g>
		<circle fill="#6C708D" cx="-339" cy="305" r="2"/>
	</g>
</g>
<g id="Layer_2">
</g>
</svg>
