<?xml version="1.0" encoding="utf-8"?>
<!-- Generator: Adobe Illustrator 18.1.0, SVG Export Plug-In . SVG Version: 6.00 Build 0)  -->
<!DOCTYPE svg PUBLIC "-//W3C//DTD SVG 1.1//EN" "http://www.w3.org/Graphics/SVG/1.1/DTD/svg11.dtd">
<svg version="1.1" id="Layer_1_copy" xmlns="http://www.w3.org/2000/svg" xmlns:xlink="http://www.w3.org/1999/xlink" x="0px"
	 y="0px" viewBox="-363 275 64 64" enable-background="new -363 275 64 64" xml:space="preserve">
<g id="Layer_1_3_">
	<g>
		<circle fill="#7EC9E4" cx="-331" cy="307" r="32"/>
	</g>
</g>
<g>
	<g>
		<g id="miu" opacity="0.2">
			<g id="Artboard-1" transform="translate(-899.000000, -515.000000)">
				<g id="slice" transform="translate(215.000000, 119.000000)">
				</g>
				<path id="food-pizza-fastfood-glyph" d="M579.1,809.5l0.7,36.4L548.7,827c2.7-3,7.7-8.2,13.6-11.6
					C568.2,812.1,575.2,810.3,579.1,809.5L579.1,809.5L579.1,809.5z M566.9,831.6c1.2-0.7,1.6-2.2,0.8-3.5c-0.7-1.2-2.2-1.7-3.4-1
					c-1.2,0.7-1.6,2.2-0.8,3.5C564.2,831.8,565.7,832.3,566.9,831.6L566.9,831.6z M565.6,824.4c1.2-0.7,1.6-2.2,0.8-3.5
					c-0.7-1.2-2.2-1.7-3.4-1c-1.2,0.7-1.6,2.2-0.8,3.5S564.4,825.1,565.6,824.4L565.6,824.4z M575.7,835.4c1.2-0.7,1.6-2.2,0.8-3.5
					c-0.7-1.2-2.2-1.7-3.4-1c-1.2,0.7-1.6,2.2-0.8,3.5S574.5,836.1,575.7,835.4L575.7,835.4z M574.2,821.4c1.2-0.7,1.6-2.2,0.8-3.5
					c-0.7-1.2-2.2-1.7-3.4-1c-1.2,0.7-1.6,2.2-0.8,3.5C571.5,821.7,573.1,822.1,574.2,821.4L574.2,821.4z"/>
			</g>
		</g>
		<path opacity="0.2" d="M-352,310.4l-3.8-2.3c0,0,7.4-8.8,15.8-13.7c8.4-4.9,19.7-6.8,19.7-6.8l0.1,4.4c-0.4,0.1-9,1.3-17.6,6.2
			C-346.4,303.3-351.6,310.1-352,310.4z"/>
	</g>
	<g>
		<g id="miu_1_">
			<g id="Artboard-1_1_" transform="translate(-899.000000, -515.000000)">
				<g id="slice_1_" transform="translate(215.000000, 119.000000)">
				</g>
				<path id="food-pizza-fastfood-glyph_1_" fill="#FFFFFF" d="M579.1,807.9l0.7,36.4l-31.2-18.8c2.7-3,7.7-8.2,13.6-11.6
					C568.2,810.5,575.2,808.7,579.1,807.9L579.1,807.9L579.1,807.9z M566.9,830.1c1.2-0.7,1.6-2.2,0.8-3.5c-0.7-1.2-2.2-1.7-3.4-1
					c-1.2,0.7-1.6,2.2-0.8,3.5C564.2,830.3,565.7,830.8,566.9,830.1L566.9,830.1z M565.6,822.9c1.2-0.7,1.6-2.2,0.8-3.5
					c-0.7-1.2-2.2-1.7-3.4-1c-1.2,0.7-1.6,2.2-0.8,3.5C562.9,823.2,564.4,823.6,565.6,822.9L565.6,822.9z M575.7,833.9
					c1.2-0.7,1.6-2.2,0.8-3.5c-0.7-1.2-2.2-1.7-3.4-1c-1.2,0.7-1.6,2.2-0.8,3.5S574.5,834.6,575.7,833.9L575.7,833.9z M574.2,819.9
					c1.2-0.7,1.6-2.2,0.8-3.5c-0.7-1.2-2.2-1.7-3.4-1c-1.2,0.7-1.6,2.2-0.8,3.5C571.5,820.1,573.1,820.6,574.2,819.9L574.2,819.9z"
					/>
			</g>
		</g>
		<path fill="#E07913" d="M-352,308.9l-3.8-2.3c0,0,7.4-8.8,15.8-13.7c8.4-4.9,19.7-6.8,19.7-6.8l0.1,4.4c-0.4,0.1-9,1.3-17.6,6.2
			C-346.4,301.8-351.6,308.5-352,308.9z"/>
		<g>
			<circle fill="#6C708D" cx="-334.7" cy="305.7" r="2.8"/>
		</g>
		<g>
			<circle fill="#6C708D" cx="-325.9" cy="302.6" r="2.8"/>
		</g>
		<g>
			<circle fill="#6C708D" cx="-333.4" cy="313" r="3.2"/>
		</g>
		<g>
			<circle fill="#6C708D" cx="-324.4" cy="316.2" r="2.8"/>
		</g>
	</g>
</g>
</svg>
