<?xml version="1.0" encoding="utf-8"?>
<!-- Generator: Adobe Illustrator 18.1.0, SVG Export Plug-In . SVG Version: 6.00 Build 0)  -->
<!DOCTYPE svg PUBLIC "-//W3C//DTD SVG 1.1//EN" "http://www.w3.org/Graphics/SVG/1.1/DTD/svg11.dtd">
<svg version="1.1" id="Layer_1" xmlns="http://www.w3.org/2000/svg" xmlns:xlink="http://www.w3.org/1999/xlink" x="0px" y="0px"
	 viewBox="-360.8 277.7 58.7 58.7" enable-background="new -360.8 277.7 58.7 58.7" xml:space="preserve">
<g id="Layer_1_1_">
	<g>
		<circle fill="#7FCAE5" cx="-331.5" cy="307" r="29.3"/>
	</g>
	<g>
		<g opacity="0.2">
			<path fill="#231F20" d="M-349.8,300.6v22.9c0,2,1.6,3.7,3.7,3.7h29.3c2,0,3.7-1.6,3.7-3.7v-22.9H-349.8z"/>
		</g>
		<g>
			<path fill="#FFFFFF" d="M-349.8,298.8v22.9c0,2,1.6,3.7,3.7,3.7h29.3c2,0,3.7-1.6,3.7-3.7v-22.9H-349.8z"/>
		</g>
		<g opacity="0.2">
			<path fill="#818699" d="M-316.8,290.5h-29.3c-2,0-3.7,1.6-3.7,3.7v6.4h36.7v-6.4C-313.2,292.1-314.8,290.5-316.8,290.5z"/>
		</g>
		<g>
			<path fill="#E07913" d="M-316.8,288.7h-29.3c-2,0-3.7,1.6-3.7,3.7v6.4h36.7v-6.4C-313.2,290.3-314.8,288.7-316.8,288.7z"/>
		</g>
		<g opacity="0.2">
			<path fill="#231F20" d="M-342.5,296.9c-1,0-1.8-0.8-1.8-1.8v-6.4c0-1,0.8-1.8,1.8-1.8l0,0c1,0,1.8,0.8,1.8,1.8v6.4
				C-340.7,296.1-341.5,296.9-342.5,296.9L-342.5,296.9z"/>
		</g>
		<g opacity="0.2">
			<path fill="#231F20" d="M-319.6,296.9c-1,0-1.8-0.8-1.8-1.8v-6.4c0-1,0.8-1.8,1.8-1.8l0,0c1,0,1.8,0.8,1.8,1.8v6.4
				C-317.8,296.1-318.6,296.9-319.6,296.9L-319.6,296.9z"/>
		</g>
		<g>
			<path fill="#DADCE5" d="M-342.5,295.1c-1,0-1.8-0.8-1.8-1.8v-6.4c0-1,0.8-1.8,1.8-1.8l0,0c1,0,1.8,0.8,1.8,1.8v6.4
				C-340.7,294.3-341.5,295.1-342.5,295.1L-342.5,295.1z"/>
		</g>
		<g>
			<path fill="#DADCE5" d="M-319.6,295.1c-1,0-1.8-0.8-1.8-1.8v-6.4c0-1,0.8-1.8,1.8-1.8l0,0c1,0,1.8,0.8,1.8,1.8v6.4
				C-317.8,294.3-318.6,295.1-319.6,295.1L-319.6,295.1z"/>
		</g>
	</g>
</g>
<g id="Layer_1_2_">
	<g opacity="0.2">
		<g>
			<g>
				<path fill="#231F20" d="M-327,317.2c-0.3,0-0.6-0.1-0.7-0.4c-0.2-0.4-0.1-0.9,0.3-1.2l4.3-2.7c0,0,0,0,0,0s0,0,0,0l-4.3-2.7
					c-0.4-0.2-0.5-0.8-0.3-1.2c0.2-0.4,0.8-0.5,1.2-0.3l4.5,2.8l0.1,0.1c0.3,0.3,0.5,0.8,0.5,1.3c0,0.5-0.2,0.9-0.5,1.3l-0.1,0.1
					l-4.5,2.8C-326.7,317.2-326.9,317.2-327,317.2z"/>
			</g>
		</g>
		<g>
			<g>
				<path fill="#231F20" d="M-335.9,317.2c-0.2,0-0.3,0-0.4-0.1l-4.5-2.8l-0.1-0.1c-0.3-0.3-0.5-0.8-0.5-1.3c0-0.5,0.2-0.9,0.5-1.3
					l0.1-0.1l4.5-2.8c0.4-0.2,0.9-0.1,1.2,0.3c0.2,0.4,0.1,0.9-0.3,1.2l-4.3,2.7c0,0,0,0,0,0s0,0,0,0l4.3,2.7
					c0.4,0.2,0.5,0.8,0.3,1.2C-335.4,317.1-335.6,317.2-335.9,317.2z"/>
			</g>
		</g>
	</g>
	<g opacity="0.2">
		<g>
			<path fill="#231F20" d="M-334.2,321.1c-0.1,0-0.2,0-0.3-0.1c-0.4-0.2-0.7-0.7-0.5-1.1l5.5-14.5c0.2-0.4,0.7-0.7,1.1-0.5
				s0.7,0.7,0.5,1.1l-5.5,14.5C-333.6,320.9-333.9,321.1-334.2,321.1z"/>
		</g>
	</g>
	<g>
		<g>
			<path fill="#6C708D" d="M-327,316.4c-0.3,0-0.6-0.1-0.7-0.4c-0.2-0.4-0.1-0.9,0.3-1.2l4.3-2.7c0,0,0,0,0,0l-4.3-2.7
				c-0.4-0.2-0.5-0.8-0.3-1.2c0.2-0.4,0.8-0.5,1.2-0.3l4.5,2.8l0.1,0.1c0.7,0.7,0.7,1.8,0,2.5l-0.1,0.1l-4.5,2.8
				C-326.7,316.3-326.9,316.4-327,316.4z"/>
		</g>
		<g>
			<path fill="#6C708D" d="M-335.9,316.4c-0.2,0-0.3,0-0.4-0.1l-4.5-2.8l-0.1-0.1c-0.7-0.7-0.7-1.8,0-2.5l0.1-0.1l4.5-2.8
				c0.4-0.2,0.9-0.1,1.2,0.3c0.2,0.4,0.1,0.9-0.3,1.2l-4.3,2.7c0,0,0,0,0,0l4.3,2.7c0.4,0.2,0.5,0.8,0.3,1.2
				C-335.4,316.2-335.6,316.4-335.9,316.4z"/>
		</g>
	</g>
	<g>
		<path fill="#6C708D" d="M-334.2,320.2c-0.1,0-0.2,0-0.3-0.1c-0.4-0.2-0.7-0.7-0.5-1.1l5.5-14.5c0.2-0.4,0.7-0.7,1.1-0.5
			c0.4,0.2,0.7,0.7,0.5,1.1l-5.5,14.5C-333.6,320-333.9,320.2-334.2,320.2z"/>
	</g>
</g>
</svg>
