<?xml version="1.0" encoding="utf-8"?>
<!-- Generator: Adobe Illustrator 18.1.0, SVG Export Plug-In . SVG Version: 6.00 Build 0)  -->
<!DOCTYPE svg PUBLIC "-//W3C//DTD SVG 1.1//EN" "http://www.w3.org/Graphics/SVG/1.1/DTD/svg11.dtd">
<svg version="1.1" id="Isolation_Mode" xmlns="http://www.w3.org/2000/svg" xmlns:xlink="http://www.w3.org/1999/xlink" x="0px"
	 y="0px" viewBox="90 0 612 612" enable-background="new 90 0 612 612" xml:space="preserve">
<g id="Github_1_">
	<rect x="90" fill="none" width="612" height="612"/>
	<path id="Github" fill="#9497A8" d="M396,6.4C227,6.4,90,143.9,90,313.6c0,135.7,87.7,250.9,209.3,291.5
		c15.3,2.8,20.9-6.7,20.9-14.8c0-7.3-0.3-26.6-0.4-52.2c-85.1,18.6-103.1-41.2-103.1-41.2c-13.9-35.5-34-44.9-34-44.9
		c-27.8-19.1,2.1-18.7,2.1-18.7c30.7,2.2,46.9,31.7,46.9,31.7c27.3,46.9,71.6,33.4,89.1,25.5c2.8-19.9,10.7-33.4,19.4-41.1
		c-68-7.8-139.4-34.1-139.4-151.8c0-33.5,11.9-61,31.5-82.4c-3.2-7.8-13.7-39,3-81.3c0,0,25.7-8.3,84.2,31.5
		c24.4-6.8,50.6-10.2,76.6-10.4c26,0.1,52.2,3.5,76.6,10.4c58.4-39.7,84.1-31.5,84.1-31.5c16.7,42.3,6.2,73.5,3,81.3
		c19.6,21.5,31.5,48.9,31.5,82.4c0,118-71.5,144-139.7,151.6c11,9.5,20.8,28.2,20.8,56.9c0,41.1-0.4,74.2-0.4,84.3
		c0,8.2,5.5,17.8,21,14.8C614.4,564.4,702,449.3,702,313.6C702,143.9,565,6.4,396,6.4"/>
</g>
</svg>
