<?xml version="1.0" encoding="utf-8"?>
<!-- Generator: Adobe Illustrator 18.1.0, SVG Export Plug-In . SVG Version: 6.00 Build 0)  -->
<!DOCTYPE svg PUBLIC "-//W3C//DTD SVG 1.1//EN" "http://www.w3.org/Graphics/SVG/1.1/DTD/svg11.dtd">
<svg version="1.1" id="Layer_1" xmlns="http://www.w3.org/2000/svg" xmlns:xlink="http://www.w3.org/1999/xlink" x="0px" y="0px"
	 viewBox="90 0 612 612" enable-background="new 90 0 612 612" xml:space="preserve">
<circle fill="#E17913" cx="396" cy="306" r="306"/>
<path fill="#FFFFFF" d="M538.8,235.9c0-1.3,0-2.6-1.3-3.8v-1.3c-3.8-11.5-14-19.1-26.8-19.1h2.5c0,0-49.7-7.7-117.3-7.7
	c-66.3,0-117.3,7.7-117.3,7.7h2.5c-12.8,0-23,7.6-26.8,19.1v1.3c0,1.3,0,2.6-1.3,3.8c-1.3,12.8-5.1,39.5-5.1,70.1s3.8,57.4,5.1,70.1
	c0,1.3,0,2.6,1.3,3.8v1.3c3.8,11.5,14,19.1,26.8,19.1h-2.5c0,0,49.7,7.6,117.3,7.6c66.3,0,117.3-7.6,117.3-7.6h-2.5
	c12.8,0,23-7.7,26.8-19.1v-1.3c0-1.3,0-2.5,1.3-3.8c1.3-12.8,5.1-39.5,5.1-70.1S541.4,248.6,538.8,235.9z M439.4,312.4l-59.9,43.4
	c-1.3,1.3-2.6,1.3-3.8,1.3c-1.3,0-2.6,0-3.8-1.3c-2.5-1.3-3.8-3.8-3.8-6.4v-86.7c0-2.6,1.3-5.1,3.8-6.4c2.6-1.3,5.1-1.3,7.7,0
	l59.9,43.3c1.3,1.3,2.6,3.8,2.6,6.4C443.2,308.6,441.9,311.1,439.4,312.4z"/>
</svg>
