<?xml version="1.0" encoding="utf-8"?>
<!-- Generator: Adobe Illustrator 18.1.0, SVG Export Plug-In . SVG Version: 6.00 Build 0)  -->
<!DOCTYPE svg PUBLIC "-//W3C//DTD SVG 1.1//EN" "http://www.w3.org/Graphics/SVG/1.1/DTD/svg11.dtd">
<svg version="1.1" id="Isolation_Mode" xmlns="http://www.w3.org/2000/svg" xmlns:xlink="http://www.w3.org/1999/xlink" x="0px"
	 y="0px" viewBox="-363 275 64 64" enable-background="new -363 275 64 64" xml:space="preserve">
<g id="Layer_1_3_">
	<g>
		<circle fill="#7EC9E4" cx="-331" cy="307" r="32"/>
	</g>
	<path opacity="0.2" d="M-314.5,321.7l-8-8c1.5-2.1,2.4-4.7,2.4-7.5c0-7-5.7-12.7-12.7-12.7s-12.7,5.7-12.7,12.7s5.7,12.7,12.7,12.7
		c2.8,0,5.4-0.9,7.5-2.4l8,8L-314.5,321.7z M-332.8,314.9c-4.8,0-8.7-3.9-8.7-8.7s3.9-8.7,8.7-8.7c4.8,0,8.7,3.9,8.7,8.7
		S-328,314.9-332.8,314.9z"/>
	<path fill="#FFFFFF" d="M-314.5,320.7l-8-8c1.5-2.1,2.4-4.7,2.4-7.5c0-7-5.7-12.7-12.7-12.7s-12.7,5.7-12.7,12.7
		s5.7,12.7,12.7,12.7c2.8,0,5.4-0.9,7.5-2.4l8,8L-314.5,320.7z M-332.8,313.9c-4.8,0-8.7-3.9-8.7-8.7c0-4.8,3.9-8.7,8.7-8.7
		c4.8,0,8.7,3.9,8.7,8.7C-324.1,310-328,313.9-332.8,313.9z"/>
</g>
</svg>
