<?xml version="1.0" encoding="utf-8"?>
<!-- Generator: Adobe Illustrator 18.1.0, SVG Export Plug-In . SVG Version: 6.00 Build 0)  -->
<!DOCTYPE svg PUBLIC "-//W3C//DTD SVG 1.1//EN" "http://www.w3.org/Graphics/SVG/1.1/DTD/svg11.dtd">
<svg version="1.1" id="Layer_2" xmlns="http://www.w3.org/2000/svg" xmlns:xlink="http://www.w3.org/1999/xlink" x="0px" y="0px"
	 viewBox="0 0 223.3 119.1" enable-background="new 0 0 223.3 119.1" xml:space="preserve">
<g id="XMLID_271_" opacity="0.6">
	<g id="XMLID_308_">
		<path id="XMLID_309_" fill="#FF9100" d="M118.4,76.7c-0.4,0-0.8-0.1-1-0.4c-0.3-0.3-0.4-0.8-0.4-1.3c0-0.5,0.2-1,0.4-1.4
			c0.5-0.8,1.5-0.9,2.1-0.3c0.3,0.3,0.4,0.8,0.4,1.3c0,0.5-0.2,1-0.4,1.4C119.1,76.4,118.8,76.6,118.4,76.7z"/>
	</g>
	<g id="XMLID_303_">
		<path id="XMLID_307_" fill="#FF9100" d="M127.3,71.6c-1,0.1-1.7,1.2-1.7,2.3c0,1.1,0.8,1.9,1.7,1.8c1-0.1,1.8-1.1,1.8-2.3
			C129.1,72.3,128.3,71.4,127.3,71.6z"/>
		<path id="XMLID_306_" fill="#FF9100" d="M138,70c-1.2,0.2-2.1,1.3-2.1,2.5c0,1.2,0.9,2.1,2.1,2c1.2-0.1,2.1-1.3,2.1-2.5
			C140.1,70.7,139.2,69.8,138,70z"/>
		<path id="XMLID_305_" fill="#FF9100" d="M188.7,62.6c-2.4,0.3-4.3,2-4.3,3.8c0,1.8,1.9,3,4.3,2.7c2.4-0.3,4.5-2,4.5-3.8
			C193.2,63.5,191.2,62.3,188.7,62.6z"/>
		<path id="XMLID_304_" fill="#FF9100" d="M151.1,68.1c-1.4,0.2-2.6,1.5-2.6,2.9c0,1.4,1.1,2.4,2.6,2.2c1.5-0.2,2.7-1.4,2.7-2.9
			C153.8,68.9,152.6,67.9,151.1,68.1z"/>
	</g>
	<path id="XMLID_302_" fill="#FF9100" d="M217.1,66.1c-1.5,0.2-3.1-0.1-4.1-0.7c-1.1-0.6-1.7-1.5-1.7-2.4c0-1,0.6-2,1.7-2.8
		c2.2-1.7,6.1-2.3,8.4-1.2c1.2,0.6,1.8,1.5,1.8,2.5c0,1-0.7,2.1-1.8,3C220.3,65.3,218.7,65.9,217.1,66.1z"/>
	<g id="XMLID_300_">
		<path id="XMLID_301_" fill="#FF9100" d="M118.4,84.8c-0.4,0-0.8-0.2-1-0.5c-0.3-0.3-0.4-0.8-0.4-1.3c0-0.5,0.2-1,0.4-1.3
			c0.5-0.7,1.5-0.8,2.1-0.1c0.3,0.3,0.4,0.8,0.4,1.3c0,0.5-0.2,1-0.4,1.4C119.1,84.6,118.8,84.8,118.4,84.8z"/>
	</g>
	<g id="XMLID_295_">
		<path id="XMLID_299_" fill="#FF9100" d="M138,79.9c-1.2,0.1-2.1,1.1-2.1,2.4c0,1.2,0.9,2.2,2.1,2.2c1.2,0,2.1-1.1,2.1-2.4
			C140.1,80.8,139.2,79.8,138,79.9z"/>
		<path id="XMLID_298_" fill="#FF9100" d="M127.3,80.5c-1,0.1-1.7,1-1.7,2.1c0,1.1,0.8,2,1.7,2c1,0,1.8-1,1.8-2.1
			S128.3,80.5,127.3,80.5z"/>
		<path id="XMLID_297_" fill="#FF9100" d="M151.1,79c-1.4,0.1-2.6,1.3-2.6,2.6c0,1.4,1.1,2.4,2.6,2.4c1.5,0,2.7-1.2,2.7-2.6
			S152.6,79,151.1,79z"/>
		<path id="XMLID_296_" fill="#FF9100" d="M188.7,76.7c-2.4,0.1-4.3,1.7-4.3,3.4s1.9,3.1,4.3,3.1c2.4-0.1,4.5-1.6,4.5-3.4
			C193.2,77.9,191.2,76.6,188.7,76.7z"/>
	</g>
	<path id="XMLID_294_" fill="#FF9100" d="M217.1,82.6c-1.5,0-3.1-0.3-4.1-1c-1.1-0.7-1.7-1.6-1.7-2.6c0-1,0.6-2,1.7-2.7
		c2.2-1.5,6.1-1.8,8.4-0.5c1.2,0.7,1.8,1.7,1.8,2.7c0,1-0.7,2.1-1.8,2.8C220.3,82.1,218.7,82.6,217.1,82.6z"/>
	<g id="XMLID_291_">
		<g id="XMLID_292_">
			<path id="XMLID_293_" fill="#FF9100" d="M118.4,93c-0.4,0-0.8-0.2-1-0.6c-0.3-0.4-0.4-0.9-0.4-1.3c0-0.5,0.2-1,0.4-1.3
				c0.5-0.7,1.5-0.7,2.1,0.1c0.3,0.4,0.4,0.9,0.4,1.4c0,0.5-0.2,1-0.4,1.3C119.1,92.9,118.8,93,118.4,93z"/>
		</g>
	</g>
	<g id="XMLID_286_">
		<path id="XMLID_290_" fill="#FF9100" d="M127.3,89.4c-1,0-1.7,0.9-1.7,2c0,1.1,0.8,2.1,1.7,2.1c1,0.1,1.8-0.8,1.8-2
			C129.1,90.4,128.3,89.5,127.3,89.4z"/>
		<path id="XMLID_289_" fill="#FF9100" d="M138,89.7c-1.2,0-2.1,0.9-2.1,2.2c0,1.2,0.9,2.3,2.1,2.4c1.2,0.1,2.1-0.9,2.1-2.2
			C140.1,90.8,139.2,89.7,138,89.7z"/>
		<path id="XMLID_288_" fill="#FF9100" d="M188.7,90.8c-2.4-0.1-4.3,1.3-4.3,3.1c0,1.8,1.9,3.3,4.3,3.4c2.4,0.1,4.5-1.2,4.5-3.1
			C193.2,92.4,191.2,90.9,188.7,90.8z"/>
		<path id="XMLID_287_" fill="#FF9100" d="M151.1,90c-1.4,0-2.6,1-2.6,2.4c0,1.4,1.1,2.5,2.6,2.6c1.5,0.1,2.7-1,2.7-2.4
			C153.8,91.2,152.6,90,151.1,90z"/>
	</g>
	<g id="XMLID_284_">
		<path id="XMLID_285_" fill="#FF9100" d="M217.1,99.1c-1.5-0.1-3.1-0.6-4.1-1.3c-1.1-0.8-1.7-1.7-1.7-2.7c0-1,0.6-1.9,1.7-2.6
			c2.2-1.3,6.1-1.3,8.4,0.2c1.2,0.8,1.8,1.8,1.8,2.8c0,1-0.7,2-1.8,2.7C220.3,98.9,218.7,99.2,217.1,99.1z"/>
	</g>
	<g id="XMLID_282_">
		<path id="XMLID_283_" fill="#FF9100" d="M118.4,101.2c-0.4-0.1-0.8-0.3-1-0.7c-0.3-0.4-0.4-0.9-0.4-1.4c0-0.5,0.2-1,0.4-1.3
			c0.5-0.6,1.5-0.5,2.1,0.2c0.3,0.4,0.4,0.9,0.4,1.4c0,0.5-0.2,1-0.4,1.3C119.1,101.1,118.8,101.3,118.4,101.2z"/>
	</g>
	<g id="XMLID_273_">
		<path id="XMLID_281_" fill="#FF9100" d="M167.5,65.7c-1.8,0.3-3.3,1.7-3.3,3.3c0,1.5,1.4,2.6,3.3,2.4c1.9-0.2,3.4-1.7,3.4-3.3
			C170.9,66.5,169.4,65.4,167.5,65.7z"/>
		<path id="XMLID_280_" fill="#FF9100" d="M167.5,78c-1.8,0.1-3.3,1.4-3.3,3c0,1.5,1.4,2.7,3.3,2.7c1.9,0,3.4-1.4,3.4-3
			C170.9,79.1,169.4,77.9,167.5,78z"/>
		<path id="XMLID_279_" fill="#FF9100" d="M167.5,90.4c-1.8,0-3.3,1.2-3.3,2.7s1.4,2.9,3.3,3c1.9,0.1,3.4-1.1,3.4-2.7
			C170.9,91.7,169.4,90.4,167.5,90.4z"/>
		<path id="XMLID_278_" fill="#FF9100" d="M138,99.5c-1.2-0.1-2.1,0.8-2.1,2c0,1.2,0.9,2.4,2.1,2.5c1.2,0.2,2.1-0.7,2.1-2
			C140.1,100.8,139.2,99.7,138,99.5z"/>
		<path id="XMLID_277_" fill="#FF9100" d="M188.7,105c-2.4-0.3-4.3,1-4.3,2.7c0,1.8,1.9,3.5,4.3,3.8c2.4,0.4,4.5-0.8,4.5-2.7
			C193.2,106.9,191.2,105.2,188.7,105z"/>
		<path id="XMLID_276_" fill="#FF9100" d="M127.3,98.4c-1-0.1-1.7,0.7-1.7,1.8c0,1.1,0.8,2.1,1.7,2.3c1,0.1,1.8-0.7,1.8-1.8
			S128.3,98.5,127.3,98.4z"/>
		<path id="XMLID_275_" fill="#FF9100" d="M167.5,102.7c-1.8-0.2-3.3,0.9-3.3,2.4s1.4,3,3.3,3.3c1.9,0.3,3.4-0.8,3.4-2.4
			C170.9,104.4,169.4,102.9,167.5,102.7z"/>
		<path id="XMLID_274_" fill="#FF9100" d="M151.1,100.9c-1.4-0.2-2.6,0.8-2.6,2.2c0,1.4,1.1,2.6,2.6,2.9c1.5,0.2,2.7-0.8,2.7-2.2
			S152.6,101.1,151.1,100.9z"/>
	</g>
	<path id="XMLID_272_" fill="#FF9100" d="M217.1,115.6c-1.5-0.2-3.1-0.8-4.1-1.7c-1.1-0.8-1.7-1.9-1.7-2.8c0-1,0.6-1.9,1.7-2.4
		c2.2-1.2,6.1-0.7,8.4,1c1.2,0.9,1.8,2,1.8,3c0,1-0.7,1.9-1.8,2.5C220.3,115.7,218.7,115.8,217.1,115.6z"/>
</g>
<g id="XMLID_241_">
	<path id="XMLID_268_" fill="#5E676D" d="M0,1.1h35.8v5.2H5.6v17.8h27v5.1h-27v21.7H0V1.1z"/>
	<path id="XMLID_265_" fill="#5E676D" d="M56.7,47c5.1,0,8.6-2.1,11.6-5.2l3.4,3.1c-3.7,4.1-8.2,6.9-15.2,6.9
		c-10.1,0-18.4-7.8-18.4-19.2c0-10.7,7.5-19.2,17.7-19.2C66.7,13.3,73,22,73,32.8c0,0.5,0,1.1-0.1,1.9H43.7
		C44.5,42.5,50.2,47,56.7,47z M67.4,30.3c-0.6-6.7-4.5-12.4-11.7-12.4c-6.3,0-11.2,5.3-12,12.4H67.4z"/>
	<path id="XMLID_263_" fill="#5E676D" d="M78.3,14.1h5.5v9.6c2.7-6.1,8-10.5,15-10.3v5.9h-0.4c-8,0-14.6,5.8-14.6,16.9v14.7h-5.5
		V14.1z"/>
	<path id="XMLID_261_" fill="#5E676D" d="M105.7,14.1h5.5v9.6c2.7-6.1,8-10.5,15-10.3v5.9h-0.4c-8,0-14.6,5.8-14.6,16.9v14.7h-5.5
		V14.1z"/>
	<path id="XMLID_258_" fill="#5E676D" d="M145,47c5.1,0,8.6-2.1,11.6-5.2l3.4,3.1c-3.7,4.1-8.2,6.9-15.2,6.9
		c-10.1,0-18.4-7.8-18.4-19.2c0-10.7,7.5-19.2,17.7-19.2c10.9,0,17.2,8.7,17.2,19.5c0,0.5,0,1.1-0.1,1.9H132
		C132.8,42.5,138.5,47,145,47z M155.7,30.3c-0.6-6.7-4.5-12.4-11.7-12.4c-6.3,0-11.2,5.3-12,12.4H155.7z"/>
	<path id="XMLID_256_" fill="#5E676D" d="M168.5,41.2V18.9h-5.1v-4.8h5.1V3h5.5v11.1h11.7v4.8H174v21.5c0,4.5,2.5,6.1,6.2,6.1
		c1.9,0,3.4-0.4,5.3-1.3V50c-1.9,1-4,1.6-6.6,1.6C173,51.5,168.5,48.6,168.5,41.2z"/>
	<path id="XMLID_254_" fill="#5E676D" d="M193,41.2V18.9h-5.1v-4.8h5.1V3h5.5v11.1h11.7v4.8h-11.7v21.5c0,4.5,2.5,6.1,6.2,6.1
		c1.9,0,3.4-0.4,5.3-1.3V50c-1.9,1-4,1.6-6.6,1.6C197.5,51.5,193,48.6,193,41.2z"/>
	<path id="XMLID_251_" fill="#5E676D" d="M215.7,0h6.3v6.1h-6.3V0z M216.1,14.1h5.5v36.8h-5.5V14.1z"/>
</g>
<rect id="XMLID_310_" x="0.2" y="60.9" fill="#5E676D" width="110.7" height="58.2"/>
<text transform="matrix(1 0 0 1 5.9433 102.4485)" fill="#FFFFFF" font-family="'Gotham-Bold'" font-size="36" letter-spacing="-2">BLOG</text>
</svg>
