<?xml version="1.0" encoding="utf-8"?>
<!-- Generator: Adobe Illustrator 21.1.0, SVG Export Plug-In . SVG Version: 6.00 Build 0)  -->
<svg version="1.1" xmlns="http://www.w3.org/2000/svg" xmlns:xlink="http://www.w3.org/1999/xlink" x="0px" y="0px"
	 viewBox="0 0 411.7 411" style="enable-background:new 0 0 411.7 411;" xml:space="preserve">
<style type="text/css">
	.st0{fill:#38793B;}
	.st1{fill:url(#SVGID_1_);}
	.st2{fill:url(#SVGID_2_);}
</style>
<g id="Artwork">
	<path class="st0" d="M122.6,170.5l-34.7-14.8c2.2-5.2,4.7-10.2,7.5-15l32.4,19.2C125.9,163.3,124.2,166.7,122.6,170.5z M44.3,247.8
		l-37.8,9.7c2.2,8.7,5,17.3,8.4,25.6l36.2-14.6C48.4,261.8,46.2,255,44.3,247.8z M123.9,60.3l-19-33.5c7.9-4.4,15.9-8.3,24.3-11.7
		l14.5,35.7C136.9,53.5,130.3,56.8,123.9,60.3z M310.2,74.4l23.7-30c-7-5.5-14.5-10.7-22.2-15.2L292.1,62
		C298.5,65.7,304.5,69.9,310.2,74.4z M45.1,161.3L7.7,150.9l0,0.1c-2.4,8.8-4.3,17.5-5.5,26.2l38.5,5.5
		C41.7,175.6,43.1,168.5,45.1,161.3z M251.5,44.6c0.1,0,0.2,0.1,0.4,0.1l10.3-36.9c-0.2-0.1-0.4-0.1-0.6-0.2
		c-8.8-2.4-17.6-4.3-26.4-5.6L229.8,40C237,41.1,244.3,42.6,251.5,44.6z M224.3,78.4l5.5-38.2c-7.3-1-14.6-1.6-21.9-1.6l-0.4,38.6
		C213.1,77.1,218.7,77.5,224.3,78.4z M158.1,86.6l-14.4-35.8c-6.8,2.8-13.4,5.9-19.8,9.5l19,33.6C147.8,91.2,152.9,88.7,158.1,86.6z
		 M309.8,128.9l30.9-23.1c-4.4-5.9-9.2-11.5-14.2-16.7l-27.6,27C302.7,120,306.4,124.3,309.8,128.9z M95.4,140.7L62.2,121
		c-3.7,6.2-7,12.7-9.8,19.6l35.6,15.1C90.1,150.5,92.6,145.5,95.4,140.7z M134.5,150.1l-29.6-23.3c-3.4,4.3-6.5,9-9.5,13.9
		l32.4,19.2C129.9,156.5,132.1,153.2,134.5,150.1z M195.2,115.5l-4.5-37.4c-5.6,0.7-11.1,1.8-16.6,3.2l9.5,36.5
		C187.4,116.8,191.3,116,195.2,115.5z M116,217.2l-37.5,4.5c0.7,5.6,1.8,11.1,3.1,16.4l36.6-9.4C117.3,224.9,116.5,221.1,116,217.2z
		 M62.2,121l-33.4-19.7c-4.5,7.7-8.6,15.7-12.2,24l35.7,15.1C55.2,133.8,58.5,127.3,62.2,121z M81.8,238.2l-37.4,9.6
		c1.8,7.2,4.1,14,6.9,20.8l35.9-14.4C84.9,248.9,83.1,243.7,81.8,238.2z M218.9,115.7l5.3-37.3c-5.6-0.8-11.3-1.2-16.8-1.2
		l-0.4,37.7C211.1,114.9,215,115.1,218.9,115.7z"/>
	
		<radialGradient id="SVGID_1_" cx="206.3137" cy="152.6143" r="205.9912" fx="206.4519" fy="152.7357" gradientTransform="matrix(0.9633 0.2683 -0.2683 0.9633 62.6858 -47.7053)" gradientUnits="userSpaceOnUse">
		<stop  offset="0" style="stop-color:#FFFFFF"/>
		<stop  offset="7.311704e-02" style="stop-color:#F9FBF5"/>
		<stop  offset="0.1917" style="stop-color:#EDF5E2"/>
		<stop  offset="0.341" style="stop-color:#DCECC5"/>
		<stop  offset="0.515" style="stop-color:#C5DF9C"/>
		<stop  offset="0.7074" style="stop-color:#A7D16A"/>
		<stop  offset="0.8611" style="stop-color:#8DC63F"/>
		<stop  offset="1" style="stop-color:#8DC63F"/>
	</radialGradient>
	<path class="st1" d="M105.6,72.4l-23.2-31c-7.2,5.4-14,11.2-20.5,17.6L89,86.7C94.2,81.5,99.7,76.8,105.6,72.4z M39,204.6l-39-0.5
		c0.1-8.9,0.7-17.9,2.1-26.9l38.5,5.5C39.6,190,39,197.3,39,204.6z M60.6,288.4l-34,19.2c-4.4-7.9-8.3-15.9-11.7-24.3l36.2-14.6
		C53.9,275.4,57,282,60.6,288.4z M326.6,89l27.3-26.6c6.3,6.4,12.2,13.4,17.5,20.6l-30.6,22.8C336.4,99.8,331.6,94.2,326.6,89z
		 M186,39.7l-4.6-38.1c8.9-1,17.9-1.6,26.9-1.5l-0.4,38.4C200.5,38.4,193.2,38.8,186,39.7z M241.5,81.9l10.4-37.2
		c7.1,2,14,4.4,20.7,7.3l-15.2,35.5C252.3,85.3,247,83.4,241.5,81.9z M116,114.3L89,86.7c5.3-5.2,10.7-9.9,16.6-14.3l23.2,30.8
		C124.3,106.7,120,110.4,116,114.3z M77.6,205L39,204.5c0-7.3,0.6-14.5,1.6-21.8l38.2,5.5C78.1,193.9,77.7,199.5,77.6,205z
		 M95.4,140.7L62.2,121c3.7-6.3,7.8-12.4,12.3-18.1l30.4,23.8C101.4,131.2,98.3,135.9,95.4,140.7z M190.7,78L186,39.7
		c7.2-0.9,14.5-1.4,21.8-1.3L207.5,77C201.9,77.1,196.2,77.4,190.7,78z M158.1,86.6l-14.4-35.8c6.8-2.8,13.8-5.1,20.8-6.9l9.7,37.5
		C168.7,82.7,163.4,84.5,158.1,86.6z M103.5,283.5l-30.9,23.1c-4.4-5.9-8.4-12-12-18.3l33.6-19C97,274.3,100.1,279,103.5,283.5z
		 M253.1,127.6l19.2-32.4c4.9,2.9,9.5,6.1,13.9,9.5l-23.4,29.6C259.8,131.9,256.6,129.6,253.1,127.6z M115.4,205.4L77.7,205
		c0.1-5.5,0.5-11.1,1.2-16.7l37.3,5.4C115.7,197.6,115.4,201.5,115.4,205.4z M121.9,240l-35,14.1c-2.1-5.2-3.8-10.5-5.2-16l36.6-9.4
		C119.2,232.6,120.5,236.4,121.9,240z M218.9,115.7l5.3-37.3c5.6,0.7,11.3,1.9,16.9,3.5c0.1,0,0.3,0.1,0.4,0.1l-10.1,36.3
		c-0.1,0-0.3-0.1-0.4-0.1C227.1,117,223.1,116.2,218.9,115.7z M195.2,115.5l-4.5-37.4c5.5-0.7,11.2-1,16.8-0.9l-0.4,37.7
		C203.1,114.8,199.2,115.1,195.2,115.5z M151.4,133.4l-22.6-30.2c4.5-3.4,9.2-6.6,14.1-9.4l18.6,32.9
		C157.9,128.8,154.6,131,151.4,133.4z M116.3,193.6l-37.3-5.3c0.8-5.5,1.8-11.1,3.4-16.6l36.3,10.1
		C117.6,185.7,116.7,189.7,116.3,193.6z"/>
	<path d="M183.6,117.8l-9.5-36.5c-5.5,1.4-10.9,3.2-16,5.3l14.1,35C175.9,120,179.7,118.8,183.6,117.8z M94.2,269.4l-33.6,19
		c-3.6-6.4-6.8-13-9.4-19.8l35.9-14.4C89,259.4,91.5,264.5,94.2,269.4z M241.1,81.8c0.1,0,0.3,0.1,0.4,0.1l10.4-37.2
		c-0.1,0-0.2-0.1-0.4-0.1c-7.2-2-14.5-3.5-21.8-4.5l-5.5,38.2C230,79.1,235.6,80.3,241.1,81.8z M116,114.3L89,86.7
		c-5.2,5.1-10,10.6-14.5,16.3l30.4,23.8C108.3,122.4,112,118.2,116,114.3z M298.8,115.9l27.6-27c-5.1-5.3-10.6-10.1-16.3-14.7
		l-23.9,30.4C290.7,108.2,294.9,111.9,298.8,115.9z M77.6,205L39,204.5c-0.1,7.3,0.4,14.6,1.2,21.8l38.4-4.7
		C77.9,216.2,77.6,210.7,77.6,205z M151.4,133.4l-22.6-30.2c-4.5,3.4-8.7,7.1-12.7,11.1l26.3,27
		C145.2,138.5,148.2,135.9,151.4,133.4z M118.7,181.6c1.1-3.9,2.4-7.5,3.9-11.2l-34.7-14.8c-2.1,5.1-4,10.3-5.5,15.8
		c0,0.1,0,0.1-0.1,0.2l36.3,10.1C118.7,181.7,118.7,181.6,118.7,181.6z M253.1,127.6l19.2-32.4c-4.8-2.8-9.8-5.4-15-7.6l-14.8,34.7
		C246.2,123.8,249.7,125.6,253.1,127.6z"/>
</g>
<g id="Layer_2">
	<path class="st0" d="M295.4,218.9l37.3,5.8c-0.8,5.6-2.1,11.1-3.6,16.4l-36.2-10.6C294,226.7,294.8,222.9,295.4,218.9z
		 M352.3,124.7l34.2-18.7c-4.3-7.9-9.1-15.5-14.5-22.7l-31.5,23.1C344.9,112.2,348.7,118.2,352.3,124.7z M321.2,326.1l26.7,27.8
		c-6.5,6.3-13.4,12-20.7,17.3l-22.8-31C310.3,335.8,315.9,331,321.2,326.1z M137.3,358.3l-15.6,35c8.1,3.6,16.6,6.8,25.3,9.3
		l10.8-36.7C150.7,363.8,143.9,361.2,137.3,358.3z M372.8,208.7l38.9,0.9l0-0.1c0.2-9.1-0.2-18-1.1-26.7l-38.7,4.1
		C372.6,194,372.9,201.3,372.8,208.7z M201.4,372.6c-0.1,0-0.2,0-0.4,0l-0.9,38.3c0.2,0,0.4,0,0.6,0c9.1,0.2,18.1-0.2,26.9-1.1
		l-4.1-38.1C216.4,372.5,208.9,372.8,201.4,372.6z M219.5,333.2l4.1,38.4c7.3-0.8,14.6-2.1,21.6-3.8l-9.1-37.5
		C230.7,331.7,225.2,332.7,219.5,333.2z M281.6,309l22.8,31.1c5.9-4.4,11.5-9,16.8-14.1L294.6,298C290.5,302,286.2,305.7,281.6,309z
		 M124.2,305.3l-24.3,30c5.7,4.6,11.7,8.9,17.9,12.7l20.2-32.9C133.2,312.1,128.6,308.9,124.2,305.3z M329.1,241.1l37.1,10.9
		c2.1-7,3.6-14,4.7-21.4l-38.2-5.9C331.9,230.3,330.6,235.8,329.1,241.1z M288.9,241.6l34.5,15.3c2.2-5.1,4.1-10.3,5.8-15.8
		l-36.2-10.6C291.7,234.3,290.5,238,288.9,241.6z M238.6,290.1l13.6,35.1c5.2-2.1,10.3-4.5,15.3-7.2l-18.1-33
		C245.8,286.9,242.2,288.6,238.6,290.1z M290.3,172l35.2-13.6c-2.1-5.2-4.5-10.3-7.1-15.2l-33.1,18.1
		C287.1,164.8,288.9,168.4,290.3,172z M366.2,252l37.3,10.9c2.5-8.5,4.5-17.3,5.9-26.3l-38.4-5.9C369.8,237.9,368.2,245,366.2,252z
		 M318.3,143.3l33.9-18.5c-3.6-6.5-7.4-12.6-11.8-18.5L309.3,129C312.7,133.6,315.7,138.3,318.3,143.3z M215.5,295.7l4,37.5
		c5.6-0.6,11.2-1.6,16.6-2.9l-8.9-36.6C223.3,294.6,219.4,295.3,215.5,295.7z"/>
	
		<radialGradient id="SVGID_2_" cx="197.0125" cy="31.9084" r="205.9912" fx="197.1508" fy="32.0298" gradientTransform="matrix(-0.9997 -2.297685e-02 2.297685e-02 -0.9997 400.6493 294.7779)" gradientUnits="userSpaceOnUse">
		<stop  offset="0" style="stop-color:#FFFFFF"/>
		<stop  offset="7.311704e-02" style="stop-color:#F9FBF5"/>
		<stop  offset="0.1917" style="stop-color:#EDF5E2"/>
		<stop  offset="0.341" style="stop-color:#DCECC5"/>
		<stop  offset="0.515" style="stop-color:#C5DF9C"/>
		<stop  offset="0.7074" style="stop-color:#A7D16A"/>
		<stop  offset="0.8611" style="stop-color:#8DC63F"/>
		<stop  offset="1" style="stop-color:#8DC63F"/>
	</radialGradient>
	<path class="st2" d="M336,309.8l30.1,24.3c5.7-7,10.8-14.4,15.5-22l-33-20.2C344.8,298.2,340.7,304.1,336,309.8z M368.1,165.3
		l37.9-9.1c2.1,8.7,3.7,17.5,4.6,26.6l-38.7,4.1C371,179.6,369.8,172.3,368.1,165.3z M326.5,89.4l28.2-27c6.3,6.5,12,13.4,17.3,20.7
		l-31.5,23.1C336.2,100.4,331.6,94.7,326.5,89.4z M117.8,348.1l-20,32.6c-7.7-4.7-15.1-9.9-22-15.6l24.1-29.7
		C105.6,340,111.6,344.3,117.8,348.1z M266.1,361.3l13.9,35.8c-8.4,3.2-16.9,5.9-25.7,8.1l-9-37.3
		C252.4,366.1,259.4,364,266.1,361.3z M201.9,334l-0.9,38.6c-7.4-0.2-14.7-0.8-21.9-2l6-38.2C190.6,333.4,196.2,333.9,201.9,334z
		 M315.6,271.7l33,20.2c-3.8,6.3-8,12.2-12.6,17.9L306,285.6C309.5,281.2,312.7,276.6,315.6,271.7z M330.5,174.4l37.5-9
		c1.7,7,3,14.2,3.8,21.5l-38.4,4.1C332.8,185.3,331.8,179.8,330.5,174.4z M329.1,241.1l37.1,10.9c-2.1,7.1-4.5,13.9-7.5,20.5
		l-35.4-15.6C325.7,251.8,327.5,246.5,329.1,241.1z M252.1,325.3l14,36c-6.8,2.6-13.7,4.9-20.9,6.6l-9.1-37.5
		C241.6,328.9,247,327.3,252.1,325.3z M281.6,309l22.8,31.1c-5.9,4.4-12.1,8.3-18.5,11.8l-18.6-33.9
		C272.4,315.3,277.1,312.4,281.6,309z M286.1,104.7l24.3-30c5.7,4.6,11.1,9.6,16.2,14.8l-27.9,26.7
		C294.7,112,290.5,108.2,286.1,104.7z M179.5,292.6l-10.6,36.2c-5.5-1.6-10.7-3.5-15.8-5.8l15.4-34.5
		C171.9,290.1,175.6,291.5,179.5,292.6z M293.8,183.3l36.6-8.9c1.3,5.3,2.3,10.9,2.9,16.5l-37.5,3.9
		C295.4,190.9,294.7,187.1,293.8,183.3z M279,151.4l30.4-22.3c3.3,4.5,6.3,9.2,9,14.2l-33.1,18.1C283.4,157.9,281.3,154.5,279,151.4
		z M215.5,295.7l4,37.5c-5.6,0.7-11.4,0.9-17.2,0.8c-0.1,0-0.3,0-0.4,0l0.9-37.7c0.1,0,0.3,0,0.4,0
		C207.3,296.4,211.4,296.2,215.5,295.7z M238.6,290.1l13.6,35.1c-5.1,2-10.6,3.8-16,5l-8.9-36.6
		C231.1,292.7,234.8,291.5,238.6,290.1z M276.6,261.9l29.4,23.7c-3.5,4.4-7.3,8.6-11.4,12.5l-26.1-27.3
		C271.5,268,274.1,265.1,276.6,261.9z M295.9,195l37.5-4c0.6,5.5,0.9,11.2,0.8,16.9l-37.7-0.9C296.6,203,296.4,198.9,295.9,195z"/>
	<path d="M249.3,285l18.1,33c5-2.7,9.7-5.8,14.2-9.1l-22.3-30.4C256.2,281,252.8,283.1,249.3,285z M298.6,116.1l27.9-26.7
		c5.1,5.3,9.8,10.9,14,16.8L309.3,129C306.1,124.5,302.5,120.2,298.6,116.1z M202.3,334c-0.1,0-0.3,0-0.4,0l-0.9,38.6
		c0.1,0,0.2,0,0.4,0c7.5,0.2,14.9-0.2,22.2-1l-4.1-38.4C213.8,333.9,208.1,334.2,202.3,334z M315.6,271.7l33,20.2
		c3.7-6.2,7.1-12.7,10-19.4l-35.4-15.6C321.1,262,318.5,267,315.6,271.7z M138.1,315.2l-20.2,32.9c6.2,3.8,12.7,7.2,19.4,10.2
		L153,323C147.8,320.7,142.8,318.1,138.1,315.2z M330.5,174.4l37.5-9c-1.7-7.1-4-14.1-6.5-20.9l-36,14
		C327.5,163.6,329.2,168.9,330.5,174.4z M276.6,261.9l29.4,23.7c3.5-4.4,6.7-9,9.6-13.9l-32.2-19.6
		C281.4,255.5,279.1,258.8,276.6,261.9z M296.5,207.2c-0.1,4-0.5,7.9-1.1,11.8l37.3,5.8c0.8-5.5,1.4-11,1.5-16.7c0-0.1,0-0.1,0-0.2
		l-37.7-0.9C296.5,207.1,296.5,207.2,296.5,207.2z M179.5,292.6l-10.6,36.2c5.4,1.5,10.8,2.8,16.4,3.7l5.9-37.3
		C187.1,294.6,183.3,293.7,179.5,292.6z"/>
</g>
</svg>
