<?xml version="1.0" encoding="UTF-8" standalone="no"?>
<!DOCTYPE svg PUBLIC "-//W3C//DTD SVG 1.1//EN" "http://www.w3.org/Graphics/SVG/1.1/DTD/svg11.dtd">
<svg height="100%" stroke-miterlimit="10" style="fill-rule:nonzero;clip-rule:evenodd;stroke-linecap:round;stroke-linejoin:round;" version="1.1" viewBox="0 0 250 73" width="100%" xml:space="preserve" xmlns="http://www.w3.org/2000/svg" xmlns:xlink="http://www.w3.org/1999/xlink">
<defs/>
<clipPath id="ArtboardFrame">
<rect height="73" width="250" x="0" y="0"/>
</clipPath>
<g clip-path="url(#ArtboardFrame)" id="main">
<g opacity="1">
<path d="M0 23.3L0 23.2C0 10.5 9.7-0.1 23.5-0.1C37.3-0.1 46.9 10.3 46.9 23L46.9 23.1C46.9 35.7 37.2 46.3 23.4 46.3C9.6 46.3 0 35.9 0 23.3ZM38.6 23.3L38.6 23.2C38.6 14.5 32.3 7.2 23.4 7.2C14.5 7.2 8.3 14.3 8.3 23L8.3 23.1C8.3 31.8 14.6 39.1 23.5 39.1C32.4 39.1 38.6 32 38.6 23.3Z" fill="#5e676d" fill-rule="nonzero" opacity="1" stroke="none" />
<path d="M53.7 0.7L61.6 0.7L61.6 45.5L53.7 45.5L53.7 0.7Z" fill="#5e676d" fill-rule="nonzero" opacity="1" stroke="none" />
<path d="M68.4 23.3L68.4 23.2C68.4 10.5 77.9 0 91.5 0C99.8 0 104.8 2.9 109.1 7L104 12.8C100.4 9.5 96.6 7.2 91.4 7.2C82.8 7.2 76.6 14.2 76.6 23L76.6 23.1C76.6 31.9 82.8 39.1 91.4 39.1C96.9 39.1 100.4 36.9 104.3 33.3L109.4 38.4C104.7 43.3 99.6 46.3 91.2 46.3C78.1 46.3 68.4 36.1 68.4 23.3Z" fill="#5e676d" fill-rule="nonzero" opacity="1" stroke="none" />
<path d="M115.7 0.7L135.7 0.7C141.3 0.7 145.8 2.4 148.6 5.2C151 7.6 152.3 11 152.3 14.9L152.3 15C152.3 22.4 147.9 26.8 141.6 28.6L153.7 45.6L144.4 45.6L133.4 30L133.3 30L123.6 30L123.6 45.6L115.7 45.6C115.7 45.6 115.7 0.7 115.7 0.7ZM135.1 22.9C140.7 22.9 144.3 20 144.3 15.4L144.3 15.3C144.3 10.5 140.8 7.9 135 7.9L123.5 7.9L123.5 23L135.1 23L135.1 22.9Z" fill="#5e676d" fill-rule="nonzero" opacity="1" stroke="none" />
</g>
</g>
<g id="XMLID_40_" opacity="0.6" >
<path d="M165.162 23.5712C164.872 23.5712 164.581 23.4233 164.291 22.9797C164.097 22.5361 164 22.0925 164 21.3531C164 20.7617 164.097 20.1702 164.291 19.7266C164.678 18.8393 165.55 18.5436 165.937 19.4308C166.131 19.8744 166.325 20.4659 166.325 21.0574C166.325 21.6489 166.228 22.2403 165.937 22.8318C165.744 23.2754 165.453 23.5712 165.162 23.5712Z" fill="#ff9100" fill-rule="nonzero" opacity="1" stroke="none" />
<g opacity="1" >
<path d="M172.331 17.3607C171.556 17.5085 170.974 18.8393 170.974 20.1702C170.974 21.501 171.556 22.5361 172.331 22.3882C173.106 22.2403 173.784 21.0574 173.784 19.5787C173.784 18.2479 173.106 17.2128 172.331 17.3607Z" fill="#ff9100" fill-rule="nonzero" opacity="1" stroke="none" />
<path d="M180.952 15.4383C179.983 15.5862 179.305 17.0649 179.305 18.5436C179.305 20.0223 180.08 21.2053 180.952 21.0574C181.921 20.9095 182.696 19.5787 182.696 17.9521C182.696 16.3256 181.921 15.2905 180.952 15.4383Z" fill="#ff9100" fill-rule="nonzero" opacity="1" stroke="none" />
<path d="M221.733 6.41831C219.796 6.86192 218.246 8.93209 218.246 11.1501C218.246 13.3682 219.796 14.8469 221.733 14.5511C223.671 14.2554 225.317 12.1852 225.317 9.81931C225.317 7.4534 223.671 5.9747 221.733 6.41831Z" fill="#ff9100" fill-rule="nonzero" opacity="1" stroke="none" />
<path d="M191.511 13.0724C190.348 13.3682 189.476 14.8469 189.476 16.6213C189.476 18.2479 190.348 19.5787 191.511 19.283C192.673 19.1351 193.642 17.5085 193.642 15.7341C193.642 14.1075 192.673 12.9246 191.511 13.0724Z" fill="#ff9100" fill-rule="nonzero" opacity="1" stroke="none" />
</g>
<path d="M244.497 10.7065C243.238 10.8544 242.076 10.5587 241.204 9.96718C240.332 9.22783 239.848 8.19274 239.848 7.00979C239.848 5.82683 240.332 4.49601 241.204 3.46092C242.947 1.39075 246.144 0.651401 247.985 1.98223C248.953 2.72157 249.438 3.75666 249.438 5.08749C249.438 6.27044 248.856 7.74914 247.985 8.78422C247.113 9.67144 245.757 10.4108 244.497 10.7065Z" fill="#ff9100" fill-rule="nonzero" opacity="1" stroke="none" />
<path d="M165.162 33.6263C164.872 33.6263 164.581 33.3306 164.291 33.0348C164.097 32.5912 164 31.9997 164 31.4083C164 30.8168 164.097 30.2253 164.291 29.7817C164.678 28.8945 165.55 28.7466 165.937 29.6338C166.131 30.0774 166.325 30.6689 166.325 31.2604C166.325 31.8519 166.228 32.4433 165.937 32.8869C165.744 33.3306 165.453 33.6263 165.162 33.6263Z" fill="#ff9100" fill-rule="nonzero" opacity="1" stroke="none" />
<g opacity="1" >
<path d="M180.952 27.5636C179.983 27.7115 179.305 28.8945 179.305 30.521C179.305 31.9997 180.08 33.1827 180.952 33.1827C181.921 33.1827 182.696 31.8519 182.696 30.2253C182.696 28.5987 181.921 27.4158 180.952 27.5636Z" fill="#ff9100" fill-rule="nonzero" opacity="1" stroke="none" />
<path d="M172.331 28.303C171.556 28.303 170.974 29.486 170.974 30.9646C170.974 32.2955 171.556 33.4784 172.331 33.4784C173.106 33.4784 173.784 32.2955 173.784 30.8168C173.784 29.3381 173.106 28.303 172.331 28.303Z" fill="#ff9100" fill-rule="nonzero" opacity="1" stroke="none" />
<path d="M191.511 26.5286C190.348 26.6764 189.476 28.0073 189.476 29.7817C189.476 31.4083 190.348 32.7391 191.511 32.7391C192.673 32.7391 193.642 31.2604 193.642 29.486C193.642 27.7115 192.673 26.3807 191.511 26.5286Z" fill="#ff9100" fill-rule="nonzero" opacity="1" stroke="none" />
<path d="M221.733 23.719C219.796 23.8669 218.246 25.7892 218.246 28.0073C218.246 30.2253 219.796 31.8519 221.733 31.8519C223.671 31.8519 225.317 29.9296 225.317 27.5636C225.317 25.1977 223.671 23.5712 221.733 23.719Z" fill="#ff9100" fill-rule="nonzero" opacity="1" stroke="none" />
</g>
<path d="M244.497 30.9646C243.238 30.9646 242.076 30.521 241.204 29.7817C240.332 29.0423 239.848 27.8594 239.848 26.6764C239.848 25.4935 240.332 24.3105 241.204 23.4233C242.947 21.501 246.144 21.2053 247.985 22.8318C248.953 23.719 249.438 24.902 249.438 26.085C249.438 27.2679 248.856 28.5987 247.985 29.486C247.113 30.3732 245.853 30.8168 244.497 30.9646Z" fill="#ff9100" fill-rule="nonzero" opacity="1" stroke="none" />
<path d="M165.162 43.6814C164.872 43.6814 164.581 43.3857 164.291 42.9421C164.097 42.4985 164 41.907 164 41.3155C164 40.724 164.097 40.1326 164.291 39.6889C164.678 38.8017 165.55 38.8017 165.937 39.6889C166.131 40.1326 166.325 40.724 166.325 41.3155C166.325 41.907 166.228 42.4985 165.937 42.9421C165.744 43.5336 165.453 43.6814 165.162 43.6814Z" fill="#ff9100" fill-rule="nonzero" opacity="1" stroke="none" />
<g opacity="1" >
<path d="M172.331 39.2453C171.556 39.2453 170.974 40.2804 170.974 41.7591C170.974 43.0899 171.556 44.2729 172.331 44.4208C173.106 44.4208 173.784 43.3857 173.784 42.0549C173.784 40.5762 173.106 39.3932 172.331 39.2453Z" fill="#ff9100" fill-rule="nonzero" opacity="1" stroke="none" />
<path d="M180.952 39.5411C179.983 39.5411 179.305 40.724 179.305 42.2027C179.305 43.6814 180.08 45.0122 180.952 45.1601C181.921 45.308 182.696 44.125 182.696 42.4985C182.696 40.8719 181.921 39.6889 180.952 39.5411Z" fill="#ff9100" fill-rule="nonzero" opacity="1" stroke="none" />
<path d="M221.733 41.0198C219.796 41.0198 218.246 42.6463 218.246 44.8644C218.246 47.0824 219.796 48.8569 221.733 49.1526C223.671 49.3005 225.317 47.6739 225.317 45.4559C225.317 42.9421 223.671 41.0198 221.733 41.0198Z" fill="#ff9100" fill-rule="nonzero" opacity="1" stroke="none" />
<path d="M191.511 39.9847C190.348 39.9847 189.476 41.3155 189.476 42.9421C189.476 44.5686 190.348 46.0473 191.511 46.1952C192.673 46.3431 193.642 45.0122 193.642 43.2378C193.642 41.4634 192.673 39.9847 191.511 39.9847Z" fill="#ff9100" fill-rule="nonzero" opacity="1" stroke="none" />
</g>
<path d="M244.497 51.2228C243.238 51.0749 242.076 50.4834 241.204 49.5962C240.332 48.709 239.848 47.526 239.848 46.3431C239.848 45.1601 240.332 43.9772 241.204 43.2378C242.947 41.6112 246.144 41.7591 247.985 43.5336C248.953 44.4208 249.438 45.7516 249.438 46.9345C249.438 48.1175 248.856 49.4483 247.985 50.1877C247.113 50.927 245.757 51.2228 244.497 51.2228Z" fill="#ff9100" fill-rule="nonzero" opacity="1" stroke="none" />
<path d="M165.162 53.7365C164.872 53.7365 164.581 53.2929 164.291 52.8493C164.097 52.4057 164 51.8142 164 51.2228C164 50.6313 164.097 50.0398 164.291 49.5962C164.678 48.8569 165.55 49.0047 165.937 49.8919C166.131 50.3355 166.325 51.0749 166.325 51.6664C166.325 52.2579 166.228 52.8493 165.937 53.2929C165.744 53.5887 165.453 53.7365 165.162 53.7365Z" fill="#ff9100" fill-rule="nonzero" opacity="1" stroke="none" />
<g opacity="1" >
<path d="M204.685 10.115C203.232 10.4108 202.069 12.1852 202.069 14.1075C202.069 16.0298 203.232 17.3607 204.685 17.0649C206.138 16.7692 207.397 14.9947 207.397 13.0724C207.397 11.1501 206.138 9.81931 204.685 10.115Z" fill="#ff9100" fill-rule="nonzero" opacity="1" stroke="none" />
<path d="M204.685 25.3456C203.232 25.4935 202.069 27.12 202.069 29.0423C202.069 30.9646 203.232 32.4433 204.685 32.2955C206.138 32.2955 207.397 30.6689 207.397 28.5987C207.397 26.6764 206.138 25.1977 204.685 25.3456Z" fill="#ff9100" fill-rule="nonzero" opacity="1" stroke="none" />
<path d="M204.685 40.4283C203.232 40.4283 202.069 41.907 202.069 43.6814C202.069 45.4559 203.232 47.2303 204.685 47.3782C206.138 47.526 207.397 46.0473 207.397 44.125C207.397 42.0549 206.138 40.4283 204.685 40.4283Z" fill="#ff9100" fill-rule="nonzero" opacity="1" stroke="none" />
<path d="M180.952 51.6664C179.983 51.5185 179.305 52.5536 179.305 54.1802C179.305 55.6588 180.08 57.1375 180.952 57.2854C181.921 57.4333 182.696 56.3982 182.696 54.7716C182.696 53.2929 181.921 51.8142 180.952 51.6664Z" fill="#ff9100" fill-rule="nonzero" opacity="1" stroke="none" />
<path d="M221.733 58.3205C219.796 58.0248 218.246 59.5035 218.246 61.7215C218.246 63.9395 219.796 66.0097 221.733 66.4533C223.671 66.8969 225.317 65.4182 225.317 63.2002C225.317 60.8343 223.671 58.6162 221.733 58.3205Z" fill="#ff9100" fill-rule="nonzero" opacity="1" stroke="none" />
<path d="M172.331 50.3355C171.556 50.1877 170.974 51.2228 170.974 52.5536C170.974 53.8844 171.556 55.2152 172.331 55.3631C173.106 55.511 173.784 54.4759 173.784 53.1451C173.784 51.8142 173.106 50.3355 172.331 50.3355Z" fill="#ff9100" fill-rule="nonzero" opacity="1" stroke="none" />
<path d="M204.685 55.511C203.232 55.2152 202.069 56.5461 202.069 58.4684C202.069 60.3907 203.232 62.1651 204.685 62.4608C206.138 62.7566 207.397 61.4258 207.397 59.5035C207.397 57.5812 206.138 55.8067 204.685 55.511Z" fill="#ff9100" fill-rule="nonzero" opacity="1" stroke="none" />
<path d="M191.511 53.4408C190.348 53.2929 189.476 54.4759 189.476 56.1025C189.476 57.729 190.348 59.3556 191.511 59.6513C192.673 59.9471 193.642 58.7641 193.642 56.9897C193.642 55.2152 192.673 53.5887 191.511 53.4408Z" fill="#ff9100" fill-rule="nonzero" opacity="1" stroke="none" />
</g>
<path d="M244.497 71.4809C243.238 71.1851 242.076 70.4458 241.204 69.4107C240.332 68.3756 239.848 67.0448 239.848 65.8618C239.848 64.6789 240.332 63.6438 241.204 62.9045C242.947 61.4258 246.144 62.0172 247.985 64.0874C248.953 65.1225 249.438 66.4533 249.438 67.7841C249.438 68.9671 248.856 70.1501 247.985 70.8894C247.113 71.4809 245.757 71.6288 244.497 71.4809Z" fill="#ff9100" fill-rule="nonzero" opacity="1" stroke="none" />
</g>
<g id="Untitled_2" >
<g opacity="1" >
<path d="M1.3 69.1L4.2 65.6C6.2 67.3 8.3 68.3 10.9 68.3C12.9 68.3 14.1 67.5 14.1 66.2L14.1 66.1C14.1 64.9 13.3 64.2 9.6 63.3C5.1 62.1 2.2 60.9 2.2 56.5L2.2 56.4C2.2 52.3 5.5 49.6 10 49.6C13.3 49.6 16 50.6 18.3 52.4L15.7 56.1C13.7 54.7 11.8 53.9 9.9 53.9C8 53.9 7 54.8 7 55.9L7 56C7 57.5 8 58 11.8 58.9C16.3 60.1 18.9 61.7 18.9 65.6L18.9 65.7C18.9 70.1 15.5 72.6 10.7 72.6C7.5 72.7 4 71.5 1.3 69.1Z" fill="#5e676d" fill-rule="nonzero" opacity="1" stroke="none" />
<path d="M21.6 61.2L21.6 61.2C21.6 54.8 26.6 49.6 33.5 49.6C40.4 49.6 45.4 54.8 45.4 61.1L45.4 61.2C45.4 67.6 40.4 72.8 33.5 72.8C26.5 72.7 21.6 67.6 21.6 61.2ZM40.2 61.2L40.2 61.2C40.2 57.3 37.4 54.1 33.4 54.1C29.4 54.1 26.7 57.2 26.7 61.1L26.7 61.2C26.7 65 29.5 68.2 33.5 68.2C37.5 68.2 40.2 65 40.2 61.2Z" fill="#5e676d" fill-rule="nonzero" opacity="1" stroke="none" />
<path d="M49 49.9L66 49.9L66 54.4L53.9 54.4L53.9 59.2L64.6 59.2L64.6 63.7L53.9 63.7L53.9 72.4L49 72.4L49 49.9Z" fill="#5e676d" fill-rule="nonzero" opacity="1" stroke="none" />
<path d="M74.4 54.5L67.6 54.5L67.6 50L86.2 50L86.2 54.5L79.4 54.5L79.4 72.4L74.5 72.4L74.5 54.5L74.4 54.5Z" fill="#5e676d" fill-rule="nonzero" opacity="1" stroke="none" />
<path d="M89.1 49.9L106 49.9L106 54.3L94 54.3L94 58.8L104.6 58.8L104.6 63.2L94 63.2L94 68L106.2 68L106.2 72.4L89.1 72.4L89.1 49.9Z" fill="#5e676d" fill-rule="nonzero" opacity="1" stroke="none" />
<path d="M109.7 49.9L114.2 49.9L124.7 63.7L124.7 49.9L129.6 49.9L129.6 72.3L125.4 72.3L114.6 58.1L114.6 72.3L109.7 72.3C109.7 72.3 109.7 49.9 109.7 49.9Z" fill="#5e676d" fill-rule="nonzero" opacity="1" stroke="none" />
<path d="M133.2 61.2L133.2 61.2C133.2 54.8 138.2 49.6 144.9 49.6C148.9 49.6 151.4 50.7 153.7 52.7L150.6 56.4C148.9 55 147.3 54.1 144.7 54.1C141.1 54.1 138.3 57.3 138.3 61.1L138.3 61.2C138.3 65.3 141.1 68.3 145.1 68.3C146.9 68.3 148.5 67.9 149.7 67L149.7 63.8L144.7 63.8L144.7 59.5L154.4 59.5L154.4 69.2C152.1 71.2 148.9 72.8 144.8 72.8C138 72.7 133.2 67.8 133.2 61.2Z" fill="#5e676d" fill-rule="nonzero" opacity="1" stroke="none" />
</g>
</g>
</svg>
