<?xml version="1.0" encoding="utf-8"?>
<!-- Generator: Adobe Illustrator 18.1.0, SVG Export Plug-In . SVG Version: 6.00 Build 0)  -->
<!DOCTYPE svg PUBLIC "-//W3C//DTD SVG 1.1//EN" "http://www.w3.org/Graphics/SVG/1.1/DTD/svg11.dtd">
<svg version="1.1" id="Layer_1" xmlns="http://www.w3.org/2000/svg" xmlns:xlink="http://www.w3.org/1999/xlink" x="0px" y="0px"
	 viewBox="0 0 254.1 85.7" enable-background="new 0 0 254.1 85.7" xml:space="preserve">
<g>
	<g>
		<g>
			<g>
				<path fill="#5E676D" d="M0,24.3v-0.1C0,11.5,9.7,0.9,23.5,0.9c13.8,0,23.4,10.4,23.4,23.1v0.1c0,12.6-9.7,23.2-23.5,23.2
					C9.6,47.3,0,36.9,0,24.3z M38.6,24.3v-0.1c0-8.7-6.3-16-15.2-16C14.5,8.2,8.3,15.3,8.3,24v0.1c0,8.7,6.3,16,15.2,16
					C32.4,40.1,38.6,33,38.6,24.3z"/>
				<path fill="#5E676D" d="M53.7,1.7h7.9v44.8h-7.9V1.7z"/>
				<path fill="#5E676D" d="M68.4,24.3v-0.1c0-12.7,9.5-23.2,23.1-23.2c8.3,0,13.3,2.9,17.6,7l-5.1,5.8c-3.6-3.3-7.4-5.6-12.6-5.6
					c-8.6,0-14.8,7-14.8,15.8v0.1c0,8.8,6.2,16,14.8,16c5.5,0,9-2.2,12.9-5.8l5.1,5.1c-4.7,4.9-9.8,7.9-18.2,7.9
					C78.1,47.3,68.4,37.1,68.4,24.3z"/>
				<path fill="#5E676D" d="M115.7,1.7h20c5.6,0,10.1,1.7,12.9,4.5c2.4,2.4,3.7,5.8,3.7,9.7V16c0,7.4-4.4,11.8-10.7,13.6l12.1,17
					h-9.3l-11-15.6h-0.1h-9.7v15.6h-7.9V1.7z M135.1,23.9c5.6,0,9.2-2.9,9.2-7.5v-0.1c0-4.8-3.5-7.4-9.3-7.4h-11.5v15.1H135.1z"/>
			</g>
		</g>
	</g>
</g>
<g id="XMLID_40_" opacity="0.6">
	<g id="XMLID_77_">
		<path id="XMLID_78_" fill="#FF9100" d="M165.2,15.1c-0.3,0-0.6-0.1-0.9-0.4c-0.2-0.3-0.3-0.6-0.3-1.1c0-0.4,0.1-0.8,0.3-1.1
			c0.4-0.6,1.3-0.8,1.7-0.2c0.2,0.3,0.4,0.7,0.4,1.1c0,0.4-0.1,0.8-0.4,1.2C165.8,14.9,165.5,15.1,165.2,15.1z"/>
	</g>
	<g id="XMLID_72_">
		<path id="XMLID_76_" fill="#FF9100" d="M172.6,10.9c-0.8,0.1-1.4,1-1.4,1.9c0,0.9,0.6,1.6,1.4,1.5c0.8-0.1,1.5-0.9,1.5-1.9
			C174.1,11.5,173.4,10.8,172.6,10.9z"/>
		<path id="XMLID_75_" fill="#FF9100" d="M181.5,9.6c-1,0.1-1.7,1.1-1.7,2.1c0,1,0.8,1.8,1.7,1.7c1-0.1,1.8-1,1.8-2.1
			S182.5,9.5,181.5,9.6z"/>
		<path id="XMLID_74_" fill="#FF9100" d="M223.6,3.5c-2,0.3-3.6,1.7-3.6,3.2s1.6,2.5,3.6,2.3c2-0.2,3.7-1.6,3.7-3.2
			C227.3,4.2,225.6,3.2,223.6,3.5z"/>
		<path id="XMLID_73_" fill="#FF9100" d="M192.4,8c-1.2,0.2-2.1,1.2-2.1,2.4c0,1.1,0.9,2,2.1,1.8c1.2-0.1,2.2-1.2,2.2-2.4
			C194.6,8.7,193.6,7.9,192.4,8z"/>
	</g>
	<path id="XMLID_71_" fill="#FF9100" d="M247.1,6.4c-1.3,0.1-2.5-0.1-3.4-0.5c-0.9-0.5-1.4-1.2-1.4-2c0-0.8,0.5-1.7,1.4-2.4
		c1.8-1.4,5.1-1.9,7-1c1,0.5,1.5,1.2,1.5,2.1c0,0.8-0.6,1.8-1.5,2.5C249.8,5.7,248.4,6.2,247.1,6.4z"/>
	<g id="XMLID_69_">
		<path id="XMLID_70_" fill="#FF9100" d="M165.2,21.9c-0.3,0-0.6-0.2-0.9-0.4c-0.2-0.3-0.3-0.7-0.3-1.1c0-0.4,0.1-0.8,0.3-1.1
			c0.4-0.6,1.3-0.7,1.7-0.1c0.2,0.3,0.4,0.7,0.4,1.1c0,0.4-0.1,0.8-0.4,1.1C165.8,21.7,165.5,21.9,165.2,21.9z"/>
	</g>
	<g id="XMLID_64_">
		<path id="XMLID_68_" fill="#FF9100" d="M181.5,17.8c-1,0.1-1.7,0.9-1.7,2c0,1,0.8,1.8,1.7,1.8c1,0,1.8-0.9,1.8-2
			C183.3,18.5,182.5,17.7,181.5,17.8z"/>
		<path id="XMLID_67_" fill="#FF9100" d="M172.6,18.3c-0.8,0-1.4,0.8-1.4,1.8c0,0.9,0.6,1.7,1.4,1.7c0.8,0,1.5-0.8,1.5-1.8
			C174.1,19,173.4,18.3,172.6,18.3z"/>
		<path id="XMLID_66_" fill="#FF9100" d="M192.4,17.1c-1.2,0.1-2.1,1-2.1,2.2c0,1.1,0.9,2,2.1,2c1.2,0,2.2-1,2.2-2.2
			S193.6,17,192.4,17.1z"/>
		<path id="XMLID_65_" fill="#FF9100" d="M223.6,15.2c-2,0.1-3.6,1.4-3.6,2.9s1.6,2.6,3.6,2.6c2,0,3.7-1.3,3.7-2.9
			C227.3,16.2,225.6,15.1,223.6,15.2z"/>
	</g>
	<path id="XMLID_63_" fill="#FF9100" d="M247.1,20.1c-1.3,0-2.5-0.3-3.4-0.8c-0.9-0.5-1.4-1.3-1.4-2.1c0-0.8,0.5-1.6,1.4-2.2
		c1.8-1.3,5.1-1.5,7-0.4c1,0.6,1.5,1.4,1.5,2.2c0,0.8-0.6,1.7-1.5,2.3C249.8,19.7,248.5,20,247.1,20.1z"/>
	<g id="XMLID_60_">
		<g id="XMLID_61_">
			<path id="XMLID_62_" fill="#FF9100" d="M165.2,28.7c-0.3,0-0.6-0.2-0.9-0.5c-0.2-0.3-0.3-0.7-0.3-1.1c0-0.4,0.1-0.8,0.3-1.1
				c0.4-0.6,1.3-0.6,1.7,0c0.2,0.3,0.4,0.7,0.4,1.1c0,0.4-0.1,0.8-0.4,1.1C165.8,28.6,165.5,28.7,165.2,28.7z"/>
		</g>
	</g>
	<g id="XMLID_55_">
		<path id="XMLID_59_" fill="#FF9100" d="M172.6,25.7c-0.8,0-1.4,0.7-1.4,1.7c0,0.9,0.6,1.7,1.4,1.8c0.8,0,1.5-0.7,1.5-1.6
			C174.1,26.6,173.4,25.8,172.6,25.7z"/>
		<path id="XMLID_58_" fill="#FF9100" d="M181.5,25.9c-1,0-1.7,0.8-1.7,1.8c0,1,0.8,1.9,1.7,2c1,0.1,1.8-0.7,1.8-1.8
			C183.3,26.8,182.5,26,181.5,25.9z"/>
		<path id="XMLID_57_" fill="#FF9100" d="M223.6,26.9c-2,0-3.6,1.1-3.6,2.6s1.6,2.7,3.6,2.9c2,0.1,3.7-1,3.7-2.5
			C227.3,28.2,225.6,26.9,223.6,26.9z"/>
		<path id="XMLID_56_" fill="#FF9100" d="M192.4,26.2c-1.2,0-2.1,0.9-2.1,2c0,1.1,0.9,2.1,2.1,2.2c1.2,0.1,2.2-0.8,2.2-2
			C194.6,27.2,193.6,26.2,192.4,26.2z"/>
	</g>
	<g id="XMLID_53_">
		<path id="XMLID_54_" fill="#FF9100" d="M247.1,33.8c-1.3-0.1-2.5-0.5-3.4-1.1c-0.9-0.6-1.4-1.4-1.4-2.2c0-0.8,0.5-1.6,1.4-2.1
			c1.8-1.1,5.1-1,7,0.2c1,0.6,1.5,1.5,1.5,2.3c0,0.8-0.6,1.7-1.5,2.2C249.8,33.6,248.4,33.8,247.1,33.8z"/>
	</g>
	<g id="XMLID_51_">
		<path id="XMLID_52_" fill="#FF9100" d="M165.2,35.5c-0.3,0-0.6-0.3-0.9-0.6c-0.2-0.3-0.3-0.7-0.3-1.1c0-0.4,0.1-0.8,0.3-1.1
			c0.4-0.5,1.3-0.4,1.7,0.2c0.2,0.3,0.4,0.8,0.4,1.2c0,0.4-0.1,0.8-0.4,1.1C165.8,35.4,165.5,35.5,165.2,35.5z"/>
	</g>
	<g id="XMLID_42_">
		<path id="XMLID_50_" fill="#FF9100" d="M206,6c-1.5,0.2-2.7,1.4-2.7,2.7c0,1.3,1.2,2.2,2.7,2c1.5-0.2,2.8-1.4,2.8-2.7
			C208.8,6.7,207.5,5.8,206,6z"/>
		<path id="XMLID_49_" fill="#FF9100" d="M206,16.3c-1.5,0.1-2.7,1.2-2.7,2.5s1.2,2.3,2.7,2.2c1.5,0,2.8-1.1,2.8-2.5
			C208.8,17.2,207.5,16.2,206,16.3z"/>
		<path id="XMLID_48_" fill="#FF9100" d="M206,26.5c-1.5,0-2.7,1-2.7,2.2s1.2,2.4,2.7,2.5c1.5,0.1,2.8-0.9,2.8-2.2
			C208.8,27.6,207.5,26.5,206,26.5z"/>
		<path id="XMLID_47_" fill="#FF9100" d="M181.5,34.1c-1-0.1-1.7,0.6-1.7,1.7c0,1,0.8,2,1.7,2.1c1,0.1,1.8-0.6,1.8-1.7
			C183.3,35.2,182.5,34.2,181.5,34.1z"/>
		<path id="XMLID_46_" fill="#FF9100" d="M223.6,38.6c-2-0.2-3.6,0.8-3.6,2.3c0,1.5,1.6,2.9,3.6,3.2c2,0.3,3.7-0.7,3.7-2.2
			C227.3,40.3,225.6,38.8,223.6,38.6z"/>
		<path id="XMLID_45_" fill="#FF9100" d="M172.6,33.2c-0.8-0.1-1.4,0.6-1.4,1.5c0,0.9,0.6,1.8,1.4,1.9c0.8,0.1,1.5-0.6,1.5-1.5
			S173.4,33.2,172.6,33.2z"/>
		<path id="XMLID_44_" fill="#FF9100" d="M206,36.7c-1.5-0.2-2.7,0.7-2.7,2s1.2,2.5,2.7,2.7c1.5,0.2,2.8-0.7,2.8-2
			C208.8,38.1,207.5,36.9,206,36.7z"/>
		<path id="XMLID_43_" fill="#FF9100" d="M192.4,35.3c-1.2-0.1-2.1,0.7-2.1,1.8c0,1.1,0.9,2.2,2.1,2.4c1.2,0.2,2.2-0.6,2.2-1.8
			S193.6,35.4,192.4,35.3z"/>
	</g>
	<path id="XMLID_41_" fill="#FF9100" d="M247.1,47.5c-1.3-0.2-2.5-0.7-3.4-1.4c-0.9-0.7-1.4-1.6-1.4-2.4c0-0.8,0.5-1.5,1.4-2
		c1.8-1,5.1-0.6,7,0.8c1,0.7,1.5,1.6,1.5,2.5c0,0.8-0.6,1.6-1.5,2.1C249.8,47.5,248.4,47.6,247.1,47.5z"/>
</g>
<g>
	<path fill="#5E676D" d="M1.3,82.1l2.9-3.5c2,1.7,4.1,2.7,6.7,2.7c2,0,3.2-0.8,3.2-2.1v-0.1c0-1.2-0.8-1.9-4.5-2.8
		c-4.5-1.2-7.4-2.4-7.4-6.8v-0.1c0-4.1,3.3-6.8,7.8-6.8c3.3,0,6,1,8.3,2.8l-2.6,3.7c-2-1.4-3.9-2.2-5.8-2.2s-2.9,0.9-2.9,2V69
		c0,1.5,1,2,4.8,2.9c4.5,1.2,7.1,2.8,7.1,6.7v0.1c0,4.4-3.4,6.9-8.2,6.9C7.5,85.7,4,84.5,1.3,82.1z"/>
	<path fill="#5E676D" d="M21.6,74.2L21.6,74.2c0-6.4,5-11.6,11.9-11.6c6.9,0,11.9,5.2,11.9,11.5v0.1c0,6.4-5,11.6-11.9,11.6
		C26.5,85.7,21.6,80.6,21.6,74.2z M40.2,74.2L40.2,74.2c0-3.9-2.8-7.1-6.8-7.1s-6.7,3.1-6.7,7v0.1c0,3.8,2.8,7,6.8,7
		S40.2,78,40.2,74.2z"/>
	<path fill="#5E676D" d="M49,62.9H66v4.5H53.9v4.8h10.7v4.5H53.9v8.7H49V62.9z"/>
	<path fill="#5E676D" d="M74.4,67.5h-6.8v-4.5h18.6v4.5h-6.8v17.9h-4.9V67.5z"/>
	<path fill="#5E676D" d="M89.1,62.9H106v4.4H94v4.5h10.6v4.4H94V81h12.2v4.4H89.1V62.9z"/>
	<path fill="#5E676D" d="M109.7,62.9h4.5l10.5,13.8V62.9h4.9v22.4h-4.2l-10.8-14.2v14.2h-4.9V62.9z"/>
	<path fill="#5E676D" d="M133.2,74.2L133.2,74.2c0-6.4,5-11.6,11.7-11.6c4,0,6.5,1.1,8.8,3.1l-3.1,3.7c-1.7-1.4-3.3-2.3-5.9-2.3
		c-3.6,0-6.4,3.2-6.4,7v0.1c0,4.1,2.8,7.1,6.8,7.1c1.8,0,3.4-0.4,4.6-1.3v-3.2h-5v-4.3h9.7v9.7c-2.3,2-5.5,3.6-9.6,3.6
		C138,85.7,133.2,80.8,133.2,74.2z"/>
	<path fill="#5E676D" d="M167.3,62.9h10.4c2.6,0,4.6,0.7,5.9,2c1,1,1.5,2.3,1.5,3.8v0.1c0,2.5-1.3,3.9-2.9,4.8
		c2.6,1,4.2,2.5,4.2,5.5v0.1c0,4.1-3.3,6.1-8.4,6.1h-10.7V62.9z M176.6,72c2.2,0,3.6-0.7,3.6-2.4v-0.1c0-1.5-1.2-2.3-3.2-2.3h-4.9
		V72H176.6z M178,81c2.2,0,3.5-0.8,3.5-2.4v-0.1c0-1.5-1.1-2.4-3.6-2.4h-5.7V81H178z"/>
	<path fill="#5E676D" d="M189.6,62.9h4.9v17.9h11.2v4.5h-16.1V62.9z"/>
	<path fill="#5E676D" d="M206.3,74.2L206.3,74.2c0-6.4,5-11.6,11.9-11.6c6.9,0,11.9,5.2,11.9,11.5v0.1c0,6.4-5,11.6-11.9,11.6
		S206.3,80.6,206.3,74.2z M225,74.2L225,74.2c0-3.9-2.8-7.1-6.8-7.1s-6.7,3.1-6.7,7v0.1c0,3.8,2.8,7,6.8,7S225,78,225,74.2z"/>
	<path fill="#5E676D" d="M232.7,74.2L232.7,74.2c0-6.4,5-11.6,11.7-11.6c4,0,6.5,1.1,8.8,3.1l-3.1,3.7c-1.7-1.4-3.3-2.3-5.9-2.3
		c-3.6,0-6.4,3.2-6.4,7v0.1c0,4.1,2.8,7.1,6.8,7.1c1.8,0,3.4-0.4,4.6-1.3v-3.2h-5v-4.3h9.7v9.7c-2.3,2-5.5,3.6-9.6,3.6
		C237.5,85.7,232.7,80.8,232.7,74.2z"/>
</g>
</svg>
