<svg xmlns="http://www.w3.org/2000/svg" version="1.1" width="600px" height="600px" viewBox="0 0 200 200" style="overflow:hidden!important;"><g id="svga-group-wrapper"><g id="svga-group-backs-single"><path id="SvgjsPath18975" d="M0 0h200v200H0V0z" fill="#87d7a5" stroke-width="none" opacity="1" stroke="none"></path><path id="SvgjsPath18976" d="M0 70.8 39.2 200l39.2-86.3L0 9.9v60.9zM200 0h-47.6l23 37.5L200 0zm-28.9 104.9 16.5-40.7-70.5-26.8 54 67.5zM51.3 200h101.1v-33.1l-73.9 19.5L51.3 200zm27.2-86.3 73.9 53.2L78.5 0v113.7z" fill="#69c88d" stroke-width="none" opacity="1" stroke="none"></path><path id="SvgjsPath18977" d="m134.4 0 2 130.8L176.2 0h-41.8zm18 166.9 47.6-14.5v-21.5L171.1 105l-18.7 61.9zm22.9-129.4 12.3 26.8 12.4 6.9V0l-24.7 37.5zm-58.2 0L96.7 26.6 117.1 0 81 18.3 46.7 0h-28l56.2 21.4L0 59.3v93.1L94.8 29l22.3 8.5zM0 200h94.2l42.2-69.2L0 189.1V200z" fill="#4fb876" stroke-width="none" opacity="1" stroke="none"></path><path id="SvgjsPath18978" d="M104.4 70.8 91.1 13.5 166.2 0 90 8.6 88 0H68.2l3.5 10.6L0 18.7v11.1l73.7-13.2 19.5 59-65.3 28L0 70.8v5.4l24 29.2-24 10.2 24.5-9.6 57.4 69.8L51.3 200h27.2l11.1-14.9 12.3 14.9h7.9l-16.7-19.6 24.1-32.4 17.2 52.1-29.2-125.6 94.8-37v-7.6l-95.6 40.9zm12.7 77.1-30.9 24.4-57.7-67.9 65.7-25.7 22.9 69.2zm70.5 52.1H200l-47.6-95.1 35.2 95.1z" fill="#ffffff" stroke-width="none" opacity="1"></path></g><g id="svga-group-humanwrap-move" transform="matrix(1,0,0,1,0,-6)"><g id="svga-group-humanwrap"><g id="svga-group-hair-back-move" transform="matrix(1,0,0,1,0,0)"><g id="svga-group-hair-back" transform="matrix(0.9599996000000002,0,0,0.9997996000000002,4.081778640864542,0.020783741441320558)"><path id="SvgjsPath18887" d="M161 137.8c-.7-.5-1.4-1.1-2-1.6-2.1-4.4-4.2-8.8-6.1-13.2-1.7-5.2-2.4-10.4-2.7-15.6.2-2.2.3-4.3.5-6.5v.2c-.2 11.1 2.8 22 9.3 31.1.2.3.7 0 .5-.3-6.9-11.5-9.4-23.3-8.5-36.6.3-4.3.4-8.6.3-12.8.3-4 .2-8-1-11.6-.4-2.5-.9-5-1.6-7.6V63c-.7-4.5-1.4-8.8-5-11.9-.2-.2-.5.1-.3.3 4.1 3.9 4.4 10.2 5.1 15.5v.2c-.1.1-.1.1-.1.2l.3 3.3c-.1-.3-.6-.1-.5.2.1.3.2.6.3.8.1 1.4.1 2.9 0 4.3-.3 0-.5-.1-.8-.1.1-2.4.1-4.8.1-7.1 0-.6-.9-.6-.9 0 0 .9-.1 1.8-.1 2.7-.2 0-.3.2-.3.4.1 1.1.1 2.1.1 3.2 0 .3 0 .6-.1.9-.8.1-1.5.2-2.1.2-4.6.2-9.2.3-13.9.4a1109.663 1109.663 0 0 1-51.6 0c-8.7-.2-17.6-1-26.2-.5v-.1c-.2-.4-.7-.4-.9 0-.2-.1-.4-.1-.6 0-.2-.4-.9-.4-1 .1-.5 2.6-.9 6.1-.6 9.1-.1 7.4.5 14.7 0 21.9-.2 1.3-.4 2.7-.6 4 .9-9.7.9-19.6 0-29.1.4-13.9 1.3-30.4 15.9-36.8.2-.1.1-.4-.1-.3-11.6 4-15.4 16.8-16.2 27.8-.1 1.1-.2 2.3-.2 3.4v-.2c0-.2-.4-.2-.4.1.1 2.1.1 4.2.2 6.3-.2 5.1-.3 10.1-.9 15.1-1.1 9.1-3.5 17.8-5.8 26.6-.1.3.4.4.5.1 3.5-8.9 5.4-18.5 6.4-28.1-.1 8.5-.5 16.9-1.3 25.5 0 .1-.1.3-.1.4 0 .1-.1.3-.1.4v.3c-.6 2.8-1.3 5.7-1.8 8.6-.1.5.2.8.5.9-.6 2-1.2 4.1-1.8 6.1-.1.3.4.4.5.1.2-.6.4-1.1.6-1.7-.3 1-.5 2-.8 3-.1.3.3.4.4.1 1.7-4.7 3.2-9.5 4.3-14.3.8-2.7 1.5-5.4 2.1-8.3.4-1.2.7-2.3 1-3.5-.1 1.2-.2 2.5-.3 3.7-.3 1.7-.7 3.3-1 4.9-.1-.1-.3 0-.3.1-2.5 8.1-4.9 16.4-6.9 24.6-.1.4.4.5.5.1.6-2 1.2-3.9 1.8-5.9.2.4.8.5 1 .1.5-.9.9-1.9 1.3-2.9-1.2 3.7-2.4 7.4-3.7 11.1-.1.2.3.4.4.2 2.4-5.6 4.2-11.4 5.7-17.3-.4 2-.9 4-1.4 5.9-.1.4.2.6.5.7-1 3.4-1.9 6.7-2.8 10.1 0 .2 0 .3.1.5-.1.2-.2.4-.2.6-.1.3.4.5.5.2.1-.1.2-.3.2-.5.3.1.5 0 .7-.3 2.3-4.7 4-9.8 5.2-15 .8-2.1 1.5-4.3 2-6.6v.7c-.8 4.1-1.7 8.1-2.7 12.2-1.3 4.1-2.8 8.2-4.1 12.3-.1.3.4.5.5.2.5-1.1 1-2.2 1.4-3.4-.1.4-.2.9-.3 1.4-.1.6.3 1 .8 1 0 .2-.1.4-.1.6 0 .2.3.5.5.2.2-.6.5-1.2.7-1.8.9-1.8 1.8-3.7 2.5-5.6-.1.4-.2.9-.3 1.3s.2.8.6.8c-.5 2.1-1 4.3-1.4 6.5 0 .3.3.4.4.1 1-2.8 1.7-5.6 2.2-8.4.7-1.6 1.4-3.4 2-5.1-1 4.9-2.3 9.6-3.3 14.5-.1.4.4.5.5.1 1.4-4.1 2.2-8.4 3-12.7-.1 1.4-.2 2.7-.3 4-.8 4-1.7 7.9-2.1 11.9 0 .3.4.3.5.1.4-1.5.8-3 1.1-4.5.4.2.9.1 1.2-.4 0-.1 0-.1.1-.1s.1-.1.2-.1l-.3 2.1c0 .5.4.8.8.8 0 .3-.1.6-.1.8 0 .3.4.4.5.1.2-.6.4-1.2.6-1.9.4-.8.8-1.6 1.1-2.4-.3 1.6-.7 3.1-.9 4.7-.1.4.4.5.5.1.8-2.2 1.3-4.6 1.7-6.9v.7c0 .1.1.3.1.4-.5 2.1-1.1 4.1-1.6 6.2-.1.3.4.6.6.2.8-1.9 1.4-4 1.8-6.1.2-.1.5-.2.6-.5 0-.1.1-.1.1-.2v.8c0 .3.2.5.4.6-.3 1.6-.6 3.3-.6 4.9 0 .4.5.4.7.1.6-1.8.8-3.6 1.1-5.5.2-.3.3-.6.5-1-.1 1.8-.1 3.6 0 5.3 0 .6.6.9 1.1.9 0 .6-.1 1.3-.1 1.9 0 .4.6.5.7.1.3-1.4.5-2.8.7-4.3.1-.2.1-.4.2-.5.1 2.3.1 4.6.2 7 0 .2.4.3.4.1.3-1.7.4-3.4.4-5.2h.1c0 1.3.1 2.5.2 3.8 0 .4.6.4.6 0 .2-1.5.3-3 .3-4.5l.3-1.5c.1 1.8.3 3.6.6 5.3.1.4.7.3.7-.1v-1.8c.2.2.5.2.7-.1.5-1.2.9-2.5 1.3-3.8.2 0-.1 5.2.7 4.8.8-.4 1.8-5.8 2.3-6.7 6.2-5.1 15.9-7.3 23.2-7.4 9.2-.1 22.3 19.6 26.3 17.6 1.6.5-1.9-6.4-.5-6.6.5 2.3 1.4 4.5 2.6 6.5.1.1.4.1.3-.1-.5-1.3-1-2.6-1.4-3.8 0 0 0 .1.1.1.5.7 1.4.3 1.3-.6-.3-1.7-.8-3.4-1.3-5 1 2.3 2.4 4.4 4.4 5.9.6.4 1.6.1 1.3-.8-.6-1.4-1.2-2.8-1.9-4.2.6.8 1.3 1.4 2.1 2.1.3.2.6.3.9.2.3.4.6.9.9 1.3.2.3.7-.1.5-.4-.3-.5-.5-.9-.8-1.4.1-.2.1-.5 0-.9-.6-1-1.1-2-1.7-3 .5.5 1 1 1.5 1.4.3.2.6.3.9.2.9 1.1 2 2 3.2 2.7.2.1.5-.2.3-.4-.9-1-1.8-2-2.6-3 .1-.2.1-.5-.1-.8l-.6-.9c.8.8 1.7 1.5 2.6 2.1.1 0 .1.1.2.1s.1.1.2.1c.8.5 1.7 1 2.6 1.4.4.2.8-.4.4-.6-1.1-.8-2.1-1.6-3.1-2.5 1.5.9 3.1 1.5 4.9 1.5.3 0 .4-.5.1-.6-2.7-.7-4.9-1.9-6.9-3.8 1 .6 2.1 1.1 3.3 1.5 1.6 1.1 3.3 1.9 5.1 2.4.4.1.6-.4.3-.6-1.4-.8-2.8-1.6-4-2.5v-.4c.4.2.7 0 .8-.4.8.7 1.6 1.3 2.6 1.7h.2c.7.3 1.5.4 2.3.5.3 0 .4-.4.3-.6.6.2 1.3.3 1.9.3.4 0 .4-.5.1-.6-.4-.1-.8-.3-1.2-.4.3-.1.5-.4.6-.7.7.2 1.4.2 2.2.2.4 0 .4-.5.1-.6-.6-.2-1.2-.5-1.8-.7.7.1 1.4.1 2.1 0 .3-.1.3-.5 0-.6-1.2-.2-2.5-.7-3.9-1.4.1-.1.2-.2.2-.4 1.9.7 3.8 1.1 5.2 1.2.3 0 .4-.4.1-.6-1.1-.4-2.9-.9-4.6-1.6.3 0 .5-.2.6-.5.8.5 1.4-.5.9-1.2-.1-.2-.3-.3-.4-.5.3.2.6.5 1 .7.3.2.6.1.8-.1.7.6 1.4 1.1 2.1 1.6.6.4 1.1-.4.7-.9-.2-.2-.3-.4-.5-.5.8.4 1.7.7 2.6.9.3.1.5-.4.2-.5-2.1-1.3-4.1-2.6-5.9-4.2.3.1.6.1.8 0 1.1 1 2.3 2 3.5 2.9.5.4 1.1-.4.7-.9-1-1.2-2.1-2.3-3.1-3.4.1-.1.2-.3.1-.6 1.3 1.6 2.7 3 4.2 4.3.4.3 1.2-.1.8-.6-.7-1-1.4-1.9-2.2-2.9 1 .9 2.1 1.7 3.3 2.3.3.2.7-.2.4-.5-.9-.9-1.7-1.7-2.5-2.6.2 0 .4-.2.4-.4 0 0 .1 0 .1.1.1.1.1.1.2.1.7.4 1.4.7 2.2 1-.7.4-.4 0-.6-.2zm-9.9-53c0-.8-.1-1.6-.2-2.3.1.1.2.2.4.1-.1.7-.1 1.5-.2 2.2zm.3-4.6c0 .5 0 1-.1 1.6 0-.6-.1-1.2-.1-1.8l.2-.2v.4zm-.8-9.1c.3 1.9.5 3.9.6 5.9-.1-.1-.1-.2-.2-.2-.2-2.1-.3-4.1-.6-6.2.1.2.1.3.2.5zm-97.6 41v-.9c.3-1.7.6-3.5.8-5.3v.5c-.2 1.8-.5 3.8-.8 5.7zm4.3 24.7.6-4.2c.1 0 .2.1.4.1-.3 1.3-.7 2.7-1 4.1zm76.6 2.5c-.1-.2-.1-.4-.2-.6 1.1 2.1 2.5 4.2 4.1 6-1.6-1.5-2.9-3.3-3.9-5.4zm14.2 4.5c-.1-.1-.1-.2-.2-.3.4.2.7.5 1.1.7-.3-.1-.6-.2-.9-.4z" fill="#3b3128" stroke-width="none" opacity="1" stroke="none"></path><path id="SvgjsPath18888" d="M50.1 130.6c2-9 2.8-18.4 2.9-27.6 0-.4-.5-.4-.6 0-.3 3.9-.7 7.7-1.1 11.6 0-3.8-.5-7.7-1.1-11.5-.1-.5-.8-.3-.7.2.8 5.4.8 10.7 1 16.1 0 .2.1.2.2.2-.4 3.6-.9 7.3-1.3 10.9.1.3.6.4.7.1zm105.7 6.3c-3.7-7-6.6-13.8-8.2-21.3-.8-7.7-1.1-15.3-1.4-23.2 0-.7-1-.7-1.1 0-.6 5.5-.6 11.1 0 16.6-.1-.2-.4-.1-.4.1.1 4.9 1 9.9 2.5 14.7-.5-1.2-.9-2.3-1.2-3.5-.7-2.4-1.2-5-1.5-7.6 0-.1-.1-.2-.2-.2-.1-.8-.2-1.7-.3-2.6 0-.1-.1-.2-.2-.2-.3-2.8-.5-5.6-.6-8.5 0-.7-1-.7-1 0-.6 5.1-.2 10.3 1 15.3.2 2.4.7 4.7 1.4 7-1.3-3-2.1-6.2-2.3-9.9 0-.3-.5-.3-.5 0v1.9c-.1.1-.1.1-.1.2.1.3.1.7.2 1.1.1 1.7.5 3.3.9 4.9-1.9-5-3.1-10.3-3.6-16-.1-.6-.9-.6-1 0-.5 10.2 3.6 20 10 27.7v.1c-3.5-3.9-6.4-8.2-8.6-13.3-.1-.3-.6-.1-.5.2.6 1.7 1.3 3.4 2.2 5.1-3.5-5.6-6-11.7-6.8-18.7-.1-.6-1-.6-.9 0 0 .6.1 1.2.1 1.7-.2-.1-.4-.1-.5.2-.1.8-.1 1.5-.1 2.2-.2-2.1-.3-4.3-.2-6.4 0-.3-.4-.3-.4 0-.7 7.6.2 15.1 2.6 22-1.9-4.1-3.5-8.4-4.5-13-.1-.5-.8-.3-.7.2 1 7.1 3.2 14 6.9 20.1-.1.1-.1.2 0 .3.4.6.9 1.2 1.4 1.7 1.3 1.9 2.8 3.6 4.4 5.2-1.6-1.5-3.1-3.1-4.5-4.9-3.9-5.9-7.1-12-8.6-19.1-.1-1.8-.2-3.5-.3-5.3 0-.6-.9-.6-1 0-.1 1.8-.2 3.5-.2 5.3-.1-.4-.1-.7-.2-1.1 0-.3-.6-.4-.6 0 .1 1.8.2 3.5.4 5.3.1 1.3.3 2.5.5 3.7.1 2.7.5 5.3 1 7.9-1.3-4.8-2.3-9.6-2.7-14.8 0-.6-.9-.6-.9 0 .2 4.9.7 10 1.8 14.8-1.1-4.1-2-8.2-2.3-12.5 0-.2-.1-.3-.2-.3v-.4c0-.3-.5-.4-.5-.1-1.3 7-1.4 14.6 0 21.8-2.2-10.4-2.7-20.8-1.2-31.6 0-.3-.5-.4-.6-.1-3 13.2-2 27.6 3.2 40.2-4.4-8.8-4.5-18.1-5.3-27.9-.1-.6-.9-.6-.9 0-.7 10.4.2 21.7 6.8 30.2.2.2.5.2.6 0 .2.1.4-.1.3-.3-.7-2.3-1.3-4.5-1.9-6.8.7 2.4 1.5 4.8 2.5 7 .2.4.7.2.8-.1.4 1.6 1.1 3 2.6 3.7.4.1.6-.4.4-.6-1.5-1.5-2.1-4.2-2.6-6.4.8 2.5 2 4.9 3.8 6.7.2.2.6 0 .5-.3-1.1-2.9-2.5-5.6-3.4-8.7.8 2.4 1.8 4.6 3.1 6.8.2.4.9.1.7-.3l-.9-2.4c.4.8.9 1.5 1.5 2.2.2.2.6 0 .5-.3-.6-1.9-1.3-3.8-1.9-5.7.3.6.6 1.1.9 1.6.2.4.9.1.7-.3l-.3-.9c1.2 2.4 2.6 4.8 4.2 7 .3.4.9 0 .6-.4-1.7-2.9-3.1-5.9-4.4-8.9.7 1.1 1.5 2.2 2.4 3.3 1.1 1.8 2.3 3.5 3.6 5.2.4.5 1.2 0 .9-.5-2-2.8-3.7-5.7-5.1-8.7 1.7 2 3.6 3.9 5.6 5.6.3.3.7-.1.4-.4-1.3-1.5-2.6-2.9-3.8-4.3.1-.1.1-.2 0-.3-.4-.6-.9-1.2-1.3-1.8 2.1 2.8 4.7 5.2 7.6 7.1.3.2.6-.2.4-.5-3.3-3-6.2-6.1-8.6-9.6l.1-.1c2.4 3.2 5.3 6.1 8.6 8.4.4.2.8-.3.5-.6-1.2-1.1-2.4-2.2-3.5-3.4 1.3 1.3 2.7 2.4 4.2 3.5.3.2.7-.3.4-.5-2.9-2.7-5.6-5.5-8-8.4.2.2.4.1.6 0 2.1 2.6 4.5 4.9 7.2 6.6.5.6 1 1.1 1.6 1.7.4.4.9-.2.6-.6-.1-.1-.1-.1-.1-.2.2-.1.3-.4 0-.6-.6-.4-1.1-.9-1.6-1.3-.2-.2-.3-.4-.5-.6 1 .8 2 1.5 3.1 2.2.3.2.6-.2.4-.4-.6-.6-1.2-1.1-1.8-1.6.3 0 .5-.4.2-.7-9-9.2-13.5-20.5-14.4-33.1.8 6 2.8 11.9 6 17 2.6 5.6 6.8 10.5 12.4 13.2.3.1.5-.2.2-.4-2.7-1.9-5.2-4-7.3-6.4 1.1 1 2.2 1.9 3.5 2.7.2.1.4.1.5-.1 1.6 1.5 3.3 2.9 5.2 4.1.3.2.6-.2.4-.5-.2-.1-.3-.3-.5-.4-.7-1-1.4-1.9-2.1-2.9.1 0 .1-.1.1-.1.2.3.4.5.6.8.3.3.8-.1.6-.4-.4-.6-.7-1.1-1-1.7h.1c.6.8 1.1 1.6 1.7 2.4.2.3.7-.1.5-.4-.6-1-1.1-2-1.6-3 .6 1 1.2 2 1.9 3-.1.6.5.3.3-.1zm-29.2 4.5c0 1.4.2 2.8.3 4.2-.7-3.4-1.3-6.8-1.7-10.2.4 1.9.8 4 1.4 6zm5.2-11-.9-2.1c-.1-.7-.2-1.3-.3-2 .1.3.2.5.3.8-.1.1-.1.1-.1.2 1.6 4.1 3.7 8 6.3 11.5-2-2.6-3.8-5.4-5.3-8.4zm10.7 10.7c.1.1.1.1.2.1l.3.3c-.1-.1-.3-.3-.5-.4zm3 .8c-.8-.7-1.6-1.4-2.3-2.1-.6-1-1.3-1.9-1.9-2.9 1.3 1.8 2.7 3.5 4.2 5zm9.1-11.3c-2.3-4.7-4-9.2-5.1-14 .2 0 .4-.1.3-.3-.9-4.7-1.6-9.3-1.4-14.1 0-.3-.5-.3-.5 0 0 .6-.1 1.2-.1 1.8-.1 0-.2.1-.2.2-.7 9.2 1.2 18.9 6.5 26.6.2.3.6.1.5-.2zm-5.4-40.3c.5-1.9.8-3.9.8-5.9 0 1.9.1 3.7-.2 5.6 0 .3.4.4.4.1.5-2.1.8-4.5.3-6.7-.1-.3-.6-.2-.6.1 0-.9-.1-1.9-.2-2.8-.1-.4-.6-.4-.6 0-.1 3.2-.4 6.3-.6 9.5.2.4.6.4.7.1zm-96-1.7c-.1-.7-.1-1.4-.2-2.1.1.6.2 1.3.2 1.9 0 .3.6.4.6 0-.2-2.8-.2-5.7-.7-8.5 0-.1-.1-.2-.2-.2v-1.4c0-.3-.5-.4-.5-.1-.6 3.5-.4 6.9.2 10.4.1.4.7.4.6 0zm-2.1.2c-.2-4.4-.2-8.7-.2-13.1 0-.3-.5-.4-.5-.1-.8 4.3-.6 8.9.4 13.2 0 .2.3.2.3 0zM78 120.2c-.1 11 .6 21.7-3.2 32.2.2-1 .4-2.1.5-3.1 2-10 2.5-20.3 1.5-30.5 0-.1 0-.1-.1-.1v-.4c-.1-.4-.7-.5-.7 0 0 2.9 0 5.7-.1 8.6-.1-1.5-.2-3-.4-4.6-.1-.5-.8-.5-.8 0 0 7.4.3 14.8-.1 22.1-.2 1.5-.4 3-.7 4.4.8-7.7 1-15.5.5-23.3-.2-5.3-.9-10.6-2.1-15.7-.1-.6-1.1-.4-1 .1.1 1.4.2 2.9.3 4.3-.1-.3-.1-.6-.2-.9-.1-.5-.8-.5-1-.1-.2-1.6-.4-3.2-.7-4.8-.1-.6-1.1-.4-1 .1 0 1.2.1 2.4.2 3.7-.4-2.7-.9-5.3-1.6-7.9-.1-.6-1.1-.5-1 .1.1.9.2 1.9.3 2.8-.2 0-.4.2-.4.5-.1.9-.1 1.8-.2 2.7-.1-.9-.2-1.7-.3-2.6-.1-.4-.7-.3-.7.1 0 .7 0 1.4.1 2.1-.4-3.3-1-6.5-2-9.7-.1-.4-.7-.2-.7.2v.2c-.2-.2-.6-.1-.8.1 0-.9-.1-1.8-.1-2.7 0-.5-.8-.6-.8 0-.1 1.7-.2 3.4-.2 5.1-.1-.5-.2-1-.3-1.6-.1-.4-.8-.3-.8.1.1 2.5.2 5 .2 7.5-.3 0-.5.2-.5.6l-.3 3.6c-.2 0-.3.1-.3.3 0 1.7-.1 3.3-.2 4.9 0 .3-.1.6-.1.9 0-1.3-.1-2.6-.2-3.9.5-6.5.5-13-.2-19.5-.1-.7-1.1-.7-1.1 0 0 1.7-.1 3.4-.1 5.2-.2-2.5-.5-4.9-1-7.3-.1-.5-.9-.4-.9.1.3 5.1.4 10 .3 14.9-.2-.1-.5-.1-.5.2-.5 8.7-1.6 17-3.4 25.6-.1.5.6.7.8.2.1-.3.2-.6.2-.8 0 .3.3.5.6.4-.9 3.7-1.8 7.3-2.8 11.1-.1.4.5.7.7.3 1.4-3.3 2.5-6.7 3.5-10.2-.5 3.2-1 6.3-1.6 9.6 0 .1-.1.2-.1.3-.1.4.5.6.6.3 1.3-3.1 2.5-6.5 3.3-9.9-.4 2.4-.9 4.9-1.5 7.4-.1.5.6.7.8.2.3-1 .6-1.9.9-2.9-.1.5-.2 1.1-.4 1.6-.1.4.5.6.6.2.8-2.1 1.4-4.2 1.9-6.4 0 .3-.1.6-.1.9 0 .4.5.6.8.3-.4 1.9-.9 3.9-1.4 5.9-.1.3.4.4.5.1 2.5-6.2 3.5-13.1 3.5-19.8 0-.2-.3-.2-.3 0-.4 4.2-1.1 8.3-2 12.4 1.3-7.1 2.1-14.5 1.9-21.8 0-.8.1-1.6.1-2.3.6 7.9.7 15.7-.1 23.6-.5 3.3-1.2 6.5-1.8 9.8-.1.3.3.4.4.1 1.5-4 2.3-8.3 2.6-12.6.4-3.2.7-6.4.7-9.6.2 2.2.3 4.4.4 6.6-.8 5.5-1.8 11-3.1 16.5-.1.3.4.4.5.1 1-3 1.8-6.1 2.3-9.2-.5 5.7-1.4 11.2-2.8 16.9-.1.3.4.5.5.1 1.6-4.4 2.7-9.2 3.1-14-.3 4.3-1 8.6-1.7 13.1-.1.4.4.5.6.2.1-.2.1-.4.2-.5.1.1.2.1.3-.1.5-1.2.9-2.5 1.3-3.7.2.2.6.2.7-.2.4-2.4.8-4.9 1-7.4.2-1.8.4-3.7.5-5.6 0-.1 0-.1-.1-.1.1-1.9.1-3.8.2-5.6 0-.2-.1-.3-.2-.3 0-1.4-.1-2.9-.1-4.3.2 2.3.5 4.6.7 6.9-.3 5.2-.6 10.3-.9 15.5-.2 1-.4 2.1-.6 3.1-.1.3.3.4.4.1.1-.5.3-.9.4-1.4.1 0 .2-.1.2-.2.1-.4.2-.9.3-1.4.1 0 .1.1.2.1-.3 2.4-.5 4.7-.6 7.1 0 .4.6.5.7.1.6-2.9 1.1-5.9 1.5-8.9-.1 1.6-.2 3.1-.4 4.7 0 .3.4.3.5.1.8-3.9 1.2-7.8 1.3-11.8 0 2.9.1 5.9.1 8.8-.1 1.9-.1 3.9-.1 5.8 0 .2 0 .5-.1.7 0 .1 0 .1.1.2v.4c0 .6.8.5.8 0 .2 0 .3-.1.3-.3 1-6 1.2-12.6.8-19 .1-.7.1-1.4.1-2.1.1 2.9.2 5.9.2 8.9 0 .1.1.2.1.3-.2 3.7-.4 7.4-.7 11.1 0 .5.7.6.8.1.3-1.8.5-3.6.7-5.4 0 .1.1.3.2.3-.2 1.5-.4 3-.7 4.5-.1.7.9 1 1.1.3l.3-1.5c.1.2.5.4.6.1 4.5-10.2 4.6-21.7 3.4-32.7 0-.5-.7-.5-.7 0zm-21.9-6.4v-.7c0-.2.1-.5.1-.7-.1.4-.1.9-.1 1.4zm5.6-7c0-.1-.1-.1-.1-.2v-2.9c.1 1.3.2 2.6.3 3.8-.1-.2-.2-.5-.2-.7zm3.5 22.2c-.1-.4-.1-.9-.2-1.3.1-.7.1-1.3.2-2v3.3zm-1-2.7s-.1 0 0 0c-.1-2.2-.1-4.4-.1-6.7.1 2.2.1 4.4.1 6.7zm-.1.7v-.1.1zm.3 9.7c0-1.3 0-2.6-.1-3.9 0-.2 0-.3.1-.5.1 1.5.1 3 0 4.4zm6-4.5v-.4c0-.1 0-.1-.1-.2v-1c0-1.5 0-3.1.1-4.6v6.2z" fill="#2c2219" stroke-width="none" opacity="1" stroke="none"></path></g></g><g id="svga-group-humanbody-back"><path id="SvgjsPath18757" d="M166.5 181.1c-10.9-6.6-27.6-8.4-35-12.1-4.9-2.5-9.1-4.7-8.9-17.8s1.9-42.4 1.9-42.4H75.4s1.6 29.4 1.9 42.4-4.2 15.6-8.9 17.8c-7.4 3.5-24.1 5.4-35 12.1-10.8 6.6-10 18.9-10 18.9v19.7h153.3V200c-.1 0 .7-12.3-10.2-18.9z" fill="#f0c7b1" stroke-width="none" opacity="1" stroke="none"></path></g><g id="svga-group-chinshadow-single"><path id="SvgjsPath18753" d="M77.2 155.9c6.9 8.3 13.3 15.4 17.2 14.8 0 0 4.4-.9 5.6-.9s5.6 1 5.6 1c3.9.6 10.2-6.5 17.2-14.8-.1-1.4-.2-3-.2-4.8.2-13.1 1.9-42.4 1.9-42.4H75.4s1.6 29.4 1.9 42.4c0 1.7 0 3.3-.1 4.7z" fill="#d19271" stroke-width="none" opacity="0.65" stroke="none"></path></g><g id="svga-group-humanbody-front"><path id="SvgjsPath18758" d="M78.7 156.8c.5 4.8 1.7 9.4 3.1 13.9.8 2.3 1.6 4.6 2.6 6.9.8 2 1.7 4.2 3.1 5.9.3.4 1 0 .9-.5-.5-2.2-1.6-4.3-2.4-6.4-.9-2.2-1.7-4.4-2.5-6.6-1.5-4.4-2.8-8.9-4.1-13.3-.2-.4-.8-.3-.7.1zm41.3-1c-1.3 8.2-3.9 16.1-5.4 24.2-.1.4.4.5.6.2 3.1-7.7 4.1-16.1 5.1-24.3-.1-.2-.3-.2-.3-.1zm-25.8 11.9c-.9 3.6 1.9 8.6 6.2 7.6.5-.1.4-.8 0-1-1.4-.5-2.9-.9-3.9-2.1-1.1-1.2-1.5-2.9-1.4-4.5 0-.4-.8-.5-.9 0z" fill="#d19271" stroke-width="none" opacity="1" stroke="none"></path><path id="SvgjsPath18759" d="M177.3 219.7c-.1-6.6-.3-13.1-.3-19.7l-.3-.3c.1 0 .1 0 .2.1s.1.2.1.1v-1.4c0-.5-.1-.9-.1-1.4-.1-.9-.3-1.9-.5-2.8-.5-1.8-1.1-3.6-2-5.3-1.7-3.4-4.4-6.2-7.7-8.1-3.6-2.2-7.6-3.8-11.6-5.1-4-1.3-8.1-2.4-12.1-3.5-4-1.2-8.1-2.2-11.8-4.2-1.9-1-3.6-2.1-4.8-3.6-1.2-1.6-1.9-3.5-2.3-5.5-.8-4-.4-8.2-.3-12.4l.7-12.6 1.5-25.2.1-1.4h-1.4c-8.2 0-16.4 0-24.6.1l-24.6.3h-.9l.1.9c.8 11.9 1.6 23.8 2.1 35.7.1 3 .3 6 .2 8.9-.1 2.9-.4 5.9-1.6 8.6-.6 1.3-1.4 2.5-2.4 3.5s-2.3 1.8-3.6 2.4c-2.6 1.3-5.4 2.2-8.3 3-5.8 1.5-11.6 2.8-17.3 4.7-2.8.9-5.7 2-8.4 3.4-1.3.7-2.7 1.4-4 2.4-1.3.9-2.4 1.9-3.5 3.1-2.1 2.3-3.6 5.2-4.5 8.1-.5 1.5-.8 3-1 4.6-.1.8-.1 1.6-.1 2.4v2.3l-.2 17.9v1.3h1.4l38.3.2c12.8.1 25.5.1 38.3 0 12.8-.1 25.6-.1 38.3-.3 12.8-.2 25.6-.5 38.3-.7h.6v-.5zm-77.2-1.6H61.8l-37 .2-.1-16.6v-2.2c0-.7 0-1.4.1-2.1.1-1.4.4-2.8.8-4.2.8-2.7 2.1-5.3 3.9-7.5.9-1.1 2-2.1 3.1-2.9 1.1-.9 2.4-1.6 3.7-2.3 2.6-1.4 5.3-2.5 8.1-3.5 5.6-2 11.4-3.4 17.1-5.1 2.9-.8 5.8-1.7 8.5-3.1 1.3-.7 2.7-1.5 3.8-2.6 1.1-1.1 2-2.4 2.6-3.9 1.2-2.9 1.5-5.9 1.6-8.9 0-3-.1-6-.2-9l-1.3-34.8 23.5.4c7.7.1 15.4.1 23.1.1-.4 7.9-.8 15.9-1.1 23.8-.2 4.2-.2 8.4-.3 12.6 0 4.2-.2 8.5.8 12.8.5 2.1 1.3 4.2 2.8 6 1.4 1.7 3.4 2.9 5.3 3.8 3.9 1.9 8 2.8 12.1 3.8s8.2 2 12.2 3.3c4 1.3 7.9 2.8 11.5 5 3.2 1.9 5.8 4.7 7.5 8 .9 1.6 1.5 3.4 1.9 5.2.2.9.4 1.8.4 2.7.1.5.1.9.1 1.4V200l-.3 19c-12.6-.2-25.1-.5-37.7-.7-12.7-.1-25.5-.1-38.2-.2z" fill="#c27b55" stroke-width="none" opacity="1" stroke="none"></path></g><g id="svga-group-clothes-single"><path id="SvgjsPath18643" d="M180.3 220.1c0-17.5-1.6-28.7-1.6-28.7-3.2-15.2-22.5-16.1-31.1-18.5-2.8-.8-13.9-4.5-13.9-4.5-4-8.6-9.1-13.4-9.1-13.4s1.1 16.6-4.8 20.7c-2.8 1.9-8.9 3.1-11.2 5-2.4 2-5.9 10.2-5.9 10.2s-8.5-12.5-10.7-12.3c-4.7.5-8 0-9.2-.4-6.7-2-6.7-23.4-6.7-23.4s-6.5 4.6-9.4 12.4c-3.2 1.4-11 3.2-15 4.7-8.3 3.1-27.5 5.6-30.5 19.6 0 0-1.6 11.2-1.6 28.7l160.7-.1z" fill="#427c85" stroke-width="none" opacity="1"></path><path id="SvgjsPath18644" d="M180.6 210.1c0-3.3-.1-6.7-.3-10-.1-1.7-.2-3.3-.3-5l-.2-2.5-.1-1.3c-.1-.4-.2-.9-.3-1.3-.9-3.4-2.8-6.5-5.4-8.9-2.6-2.3-5.7-4-8.9-5.1-3.2-1.2-6.5-2-9.8-2.7 0 0-17.5-4.4-20.3-5.9-1.1-2.4-2.4-4.7-3.9-6.9-.8-1.2-1.6-2.3-2.5-3.4-.9-1.1-1.7-1.9-2.8-2.9-.2-.2-1-.7-1.3-.7-.7-.1-1 .6-1.1 1.3v.1c-.4 3.8-.6 14.2-1.3 15.9-.8 1.7-1.8 3.2-3.2 4-1.5.9-3.4 1.5-5.2 2.2-.9.3-1.9.7-2.8 1.1-1 .4-1.9.9-2.9 1.6-1 .9-1.5 1.7-2.1 2.6-.6.9-1.1 1.8-1.5 2.6l-1.8 3.6c-2.2-3-4.4-6-7-8.7-.4-.4-.8-.8-1.3-1.2-.2-.2-.5-.4-.8-.6-.3-.2-.6-.4-1.2-.4h-.6l-.4.1-.8.1c-.5.1-1.1.1-1.6.1-1.1 0-2.1 0-3.2-.1-1-.1-2.2-.2-3-.5-.8-.3-1.6-1-2.2-1.8-.6-.8-1.2-1.7-1.7-2.6-1-1.9-1.6-13.9-2.3-18.2 0-.1-.1-.1-.1-.2-.2-.2-.5-.2-.7-.1-1.1.8-2.1 1.7-3 2.7s-1.8 2-2.6 3c-.8 1.1-1.5 2.2-2.2 3.3-.7 1.1-1.2 2.2-1.7 3.4-3.8 1.7-10.8 3-14.7 4.4-4 1.4-8.1 2.3-12.2 3.6-4.1 1.3-8.2 2.9-11.8 5.5-1.8 1.3-3.4 2.9-4.8 4.7-1.3 1.8-2.3 4-2.8 6.2v.1c-.3 2.4-.6 4.8-.8 7.2-.2 2.4-.4 4.8-.5 7.2-.1 2.4-.3 4.8-.3 7.2-.1 2.4-.1 4.8-.1 7.2 0 .8.6 1.4 1.4 1.4l40.5.2c13.5 0 27-.1 40.4-.2l40.2-.5 19.9-.3 19.8-.4c.2-3.5.2-6.9.2-10.2zM120.2 177c1-.6 1.9-1.5 2.5-2.4.7-.9 1.2-1.8 1.7-2.8.9-1.9.9-10.8 1.3-13.9.2.3.4.5.7.8.8 1 2.7 3 3.4 4.1 3.5 5.5 5.5 12.6 5.7 14 0 0 2.7 12.7 3.1 17.1-1.7-.8-3.4-1.8-4.9-2.8-2.1-1.4-4.1-2.9-6.1-4.4-2-1.6-3.9-3.1-5.8-4.9-.9-.9-1.8-1.8-2.9-2.5-.7-.4-1.5-.8-2.4-.9 1.2-.2 2.5-.7 3.7-1.4zm-22.1 19.1c-.6-1.7-1.3-3.3-2.2-4.9-.8-1.5-1.7-3-2.8-4.3.4 0 .8.1 1.2.1.9.1 1.9.1 2.8.2h1.7c1 1.4 1.9 2.7 2.8 4.1-1.2 1.4-2.3 2.9-3.4 4.4 0 .2 0 .2-.1.4zm-9.2-16.5c.6 0 1.1 0 1.7-.1l.8-.1H92s.2.1.3.2c.2.1.4.3.5.4.4.3.7.7 1.1 1.1 1.6 1.8 3.2 3.8 4.6 5.8-1.4-.2-2.8-.5-4.3-.7-1.8-.3-3.7-.6-5.5-1-1.8-.4-3.6-.8-5.4-1.3-1.7-.5-3.4-.9-5-1.5l.1-.1c.8-1 1.7-1.9 2.7-2.6.5-.3 1-.6 1.5-.8 1 .3 1.8.4 2.8.5 1.3.2 2.4.2 3.5.2zm-21.7-12.3c.5-1.2 1-2.4 1.6-3.5.6-1.1 1.3-2.2 2.1-3.2s1.6-2 2.6-2.9c.7-.7 1.5-1.4 2.2-2 .1 6.3.8 15.8 1.8 17.9.5 1 1.1 2 1.8 2.9.7.9 1.6 1.8 2.8 2.3.2.1.3.1.5.1-.5.2-1 .4-1.4.7-1.1.6-2 1.6-2.9 2.5-1.8 1.7-3.8 3.3-5.8 4.9s-4 3.1-6.1 4.4c-1.6 1-3.3 2-5 2.8 2.2-18.3 5.7-26.8 5.8-26.9zm-7.7 51.2-38.5.2c0-4.3.1-8.6.2-12.9.1-2.4.2-4.8.4-7.1.2-2.4.4-4.7.6-7.1.4-1.9 1.2-3.8 2.3-5.4 1.1-1.6 2.5-3.1 4.2-4.4.3-.2.5-.4.8-.6 1.6 2.9 3.3 5.7 5 8.5 1.8 2.9 3.6 5.8 5.5 8.7.5.8.9 1.4 1.1 2.2.3.8.5 1.6.6 2.4.4 1.6.6 3.3.8 5l.6 5.1c.2 1.7.3 3.4.5 5.1v-5.1l-.3-5.1c-.1-1.7-.4-3.4-.7-5.1-.2-.9-.4-1.7-.6-2.6-.2-.9-.7-1.7-1.2-2.4-1.9-2.9-3.7-5.8-5.7-8.6-1.8-2.7-3.7-5.4-5.6-8.1 3.1-2.2 6.7-3.7 10.3-5 4-1.4 8.1-2.4 12.2-3.9 3.9-1.6 10.1-2.6 13.9-4.4-1.8 4.4-3.9 10.7-6.6 27.8 0 .2 0 .4.1.6.2.5.8.7 1.3.5 2.4-1.2 4.5-2.6 6.6-4.1 2-1.6 4-3.2 5.9-4.9 1.8-1.7 3.7-3.3 5.3-5.2 1.5.9 3.2 1.6 4.8 2.2 1.8.6 3.6 1.1 5.4 1.5 1.4.3 2.8.5 4.1.6.6 1.7 1.3 3.3 2.2 4.8.9 1.6 1.8 3.1 3 4.5-.1.1-.2.3-.2.5-.1.4-.1.7-.2 1.1-.1.7-.1 1.4-.1 2.1v4.1c.1 2.7.2 5.4.4 8.1l.3 4.1c.1.9.2 1.8.3 2.6-13-.2-26-.3-39-.3zm39.9.3h-.7v-6.7l-.2-8.1c0-1.4-.1-2.7-.1-4 0-.7 0-1.3.1-2s.1-1.2.5-1.8c.6-1.2 1.4-2.3 2.2-3.4l.8-1.1c.1.1.2.2.4.3.6.3 1.3 0 1.6-.6.6-1.3 1.3-2.6 1.9-3.9 1.2 0 2.3-.1 3.4-.3 1.4-.2 2.8-.6 4.2-1-1.8 2.4-3.5 4.9-5.2 7.4-.9 1.3-1.8 2.6-2.7 4l-.7 1-.3.5c-.1.1-.3.5-.3.7-.2.9-.2 1.7-.3 2.5-.1 3.2.1 6.4.3 9.6.2 2.4.4 4.8.7 7.1l-5.6-.2zm40.2.5-34.3-.4-.1-2.4-.1-4.8c-.1-3.2-.2-6.4-.1-9.5 0-.8.1-1.6.2-2.3.1-.2 0-.2.2-.4l.3-.5.6-1c.8-1.4 1.7-2.7 2.5-4.1 1.6-2.6 3.1-5.1 4.6-7.8 1.4-.4 2.8-.9 4.1-1.5 1.3-.6 2.7-1.2 3.9-2l-4.2 1.2c-1.4.4-2.8.9-4.2 1.3l-4.2 1.2c-1 .3-2.1.5-3.1.8.2-.3.3-.7.5-1 .5-.9.9-1.7 1.5-2.5.5-.8 1.1-1.6 1.6-2 .6-.4 1.4-.9 2.3-1.2.9-.4 1.8-.7 2.7-1 .6-.2 1.2-.4 1.8-.7.8.2 1.7.6 2.4 1.1 1.1.7 1.9 1.6 2.7 2.6 1.7 1.9 3.6 3.6 5.4 5.3 1.9 1.7 3.8 3.3 5.9 4.9 2.1 1.5 4.2 2.9 6.6 4.1.2.1.4.1.6.1.5-.1.9-.6.8-1.1-.8-5-3.9-22.1-5.7-26.1 2.6 1.4 26.2 7.5 29.2 8.6 2.1.8 4.2 1.7 6.1 2.9-2 2.7-3.9 5.5-5.8 8.3-1.9 2.8-3.8 5.7-5.7 8.6-.4.7-1 1.5-1.2 2.4-.3.9-.5 1.7-.6 2.6-.3 1.7-.6 3.4-.7 5.1l-.3 5.1c0 1.7-.1 3.4 0 5.1.2-1.7.3-3.4.5-5.1l.6-5.1c.2-1.7.5-3.4.9-5l.6-2.4c.2-.8.6-1.4 1.1-2.2 1.8-2.9 3.7-5.8 5.5-8.7 1.8-2.9 3.5-5.8 5.1-8.7.8.5 1.6 1 2.3 1.6 2.4 2 4.2 4.7 5.1 7.8l.3 1.1.2 1.2.3 2.5.5 4.9c.3 3.3.6 6.6.8 9.9l.5 9.9-40.5-.7zm-37.8-21.9c.7 0 1.2.5 1.2 1.2s-.5 1.2-1.2 1.2-1.2-.5-1.2-1.2.5-1.2 1.2-1.2zm9.1-15.2c.7 0 1.2.5 1.2 1.2s-.5 1.2-1.2 1.2-1.2-.5-1.2-1.2.6-1.2 1.2-1.2zM102 216c.7 0 1.2.5 1.2 1.2s-.5 1.2-1.2 1.2-1.2-.5-1.2-1.2.5-1.2 1.2-1.2z" fill="#1e5d66" stroke-width="none" opacity="1"></path></g><g id="svga-group-head" transform="matrix(1,0,0,1,0,0)"><g id="svga-group-ears-left-move" transform="matrix(1,0,0,1,3,0)"><g id="svga-group-ears-left"><path id="SvgjsPath18656" d="M61.3 90s-2.5-2.4-5.4-3.5-6.1.7-7.1 3.7c-1 2.9 1.3 15.1 5 19.5s6.2 4.8 8.7 2.5c2.5-2.3 7-10.8-1.2-22.2z" fill="#f0c7b1" stroke-width="none" opacity="1" stroke="none"></path><path id="SvgjsPath18657" d="M62.6 91.8c.4.6.8 1.3 1.2 1.9.4.6.7 1.4 1.1 2 .3.7.6 1.4.9 2.2.2.8.5 1.5.6 2.4.1.4.2.8.2 1.2l.1 1.2c0 1.7-.2 3.4-.7 4.9-.5 1.6-1.2 3-2.2 4.2-.2.3-.5.6-.8.8-.3.2-.6.5-.9.7-.6.4-1.3.7-2.1.8-.7.1-1.5 0-2.2-.3s-1.3-.7-1.8-1.2c-.6-.5-1.1-1-1.6-1.6s-.9-1.1-1.4-1.8c-1.7-2.6-2.6-5.7-3.4-8.7-.4-1.5-.8-3-1.1-4.6s-.6-3.2-.5-4.9c0-.4.1-.9.2-1.3.1-.2.1-.4.2-.6l.3-.6c.4-.7.9-1.3 1.5-1.8 1.2-1 2.6-1.4 4-1.2.7.1 1.4.3 2 .6.6.3 1.2.7 1.8 1.1 1.2.8 2.3 1.6 3.3 2.6l1.3 2zm-4.7-4.1c-.6-.3-1.2-.6-1.8-.8-.6-.2-1.2-.3-1.8-.3-1.2.1-2.3.6-3.3 1.4-.5.4-.9.9-1.2 1.5-.2.3-.3.6-.4.9-.1.3-.2.6-.2.9-.2 1.4-.1 3 .1 4.6.2 1.5.4 3.1.8 4.6.8 3 1.9 6 3.6 8.2.9 1.1 1.9 2.1 3 2.9s2.2 1.3 3.3 1.1c.5-.1 1.1-.3 1.6-.7.5-.4 1-.8 1.4-1.3.8-1 1.5-2.3 1.9-3.7.5-1.4.7-2.8.7-4.3s-.2-3-.4-4.5c-.6-3-2-5.8-3.7-8.2-1.3-.9-2.4-1.7-3.6-2.3z" fill="#e1ac8f" stroke-width="none" opacity="1" stroke="none"></path><path id="SvgjsPath18658" d="M52.6 89.6c3.3.6 5.4 6.1 6 9.8.1.1.1.2.2.3.4.6-.4 1.2-.8.6-.5-.8-1-1.6-1.8-1.9-1.4-.5-2.1 1.1-1.8 2.6.4 1.9 1.6 3 2.6 4.4.1.1 0 .3-.1.2-1.7-1-4.3-4.8-3.1-7.2.9-1.7 2.3-1.4 3.4-.4-.8-2.1-1.4-4.3-3-5.9-.5-.5-1.5-1.4-2.2-1.3-1.3.2-1.3 2.1-1.3 3.4-.1 1.7.1 3.4.4 5 0 .2-.2.2-.3.1-.7-2.4-2-10.4 1.8-9.7z" fill="#d19271" stroke-width="none" opacity="1" stroke="none"></path></g></g><g id="svga-group-ears-right-move" transform="matrix(1,0,0,1,-3,0)"><g id="svga-group-ears-right"><path id="SvgjsPath18659" d="M138.7 90s2.5-2.4 5.4-3.5 6.1.7 7.1 3.7c1 2.9-1.3 15.1-5 19.5s-6.2 4.8-8.7 2.5c-2.5-2.3-7-10.8 1.2-22.2z" fill="#f0c7b1" stroke-width="none" opacity="1" stroke="none"></path><path id="SvgjsPath18660" d="M138.6 89.9c1.1-1 2.2-1.8 3.3-2.6.6-.4 1.2-.7 1.8-1.1.6-.3 1.3-.6 2-.6 1.4-.2 2.8.3 4 1.2.6.5 1.1 1.1 1.5 1.8l.3.6c.1.2.2.4.2.6.1.4.2.9.2 1.3.1 1.7-.2 3.3-.5 4.9s-.7 3.1-1.1 4.6c-.9 3-1.8 6-3.4 8.7-.4.7-.9 1.2-1.4 1.8-.5.6-1 1.1-1.6 1.6s-1.2.9-1.8 1.2c-.7.3-1.4.4-2.2.3-.7-.1-1.4-.4-2.1-.8-.3-.2-.6-.4-.9-.7-.3-.3-.6-.5-.8-.8-1-1.2-1.7-2.6-2.2-4.2s-.7-3.3-.7-4.9l.1-1.2c0-.4.1-.8.2-1.2.1-.8.4-1.6.6-2.4.3-.7.6-1.5.9-2.2.4-.7.7-1.4 1.1-2 .4-.6.8-1.3 1.2-1.9l1.3-2zm.1.1c-1.7 2.4-3 5.2-3.7 8.2-.3 1.5-.5 3-.4 4.5s.3 2.9.7 4.3 1.1 2.6 1.9 3.7c.4.5.8 1 1.4 1.3.5.4 1 .6 1.6.7 1.1.2 2.2-.3 3.3-1.1 1-.8 2.1-1.8 3-2.9 1.7-2.3 2.8-5.2 3.6-8.2.4-1.5.6-3.1.8-4.6s.3-3.1.1-4.6c0-.4-.1-.6-.2-.9-.1-.3-.3-.6-.4-.9-.3-.6-.7-1-1.2-1.5-.9-.8-2.1-1.3-3.3-1.4-.6 0-1.2.1-1.8.3-.6.2-1.2.5-1.8.8-1.4.6-2.5 1.4-3.6 2.3z" fill="#e1ac8f" stroke-width="none" opacity="1" stroke="none"></path><path id="SvgjsPath18661" d="M147.4 89.6c-3.3.6-5.4 6.1-6 9.8-.1.1-.1.2-.2.3-.4.6.4 1.2.8.6.5-.8 1-1.6 1.8-1.9 1.4-.5 2.1 1.1 1.8 2.6-.4 1.9-1.6 3-2.6 4.4-.1.1 0 .3.1.2 1.7-1 4.3-4.8 3.1-7.2-.9-1.7-2.3-1.4-3.4-.4.8-2.1 1.4-4.3 3-5.9.5-.5 1.5-1.4 2.2-1.3 1.3.2 1.3 2.1 1.3 3.4.1 1.7-.1 3.4-.4 5 0 .2.2.2.3.1.7-2.4 2-10.4-1.8-9.7z" fill="#d19271" stroke-width="none" opacity="1" stroke="none"></path></g></g><g id="svga-group-faceshape-wrap" transform="matrix(0.9599996000000002,0,0,0.9997996000000002,4.000039847410562,0.019141847264080525)"><g id="svga-group-faceshape-single"><path id="SvgjsPath18738" d="M143.2 82v-.3c-1.3-29.9-20.7-46.4-43.2-46.4S58.1 51.7 56.8 81.7v.3c0 2 0 17.7 1.7 28.4 1.8 11.7 5.7 15.8 14.3 26.1s16.9 19.8 21.6 19.2c0 0 4.4-.9 5.6-.9s5.6.9 5.6.9c4.7.7 13.1-8.8 21.6-19.2s12.5-14.4 14.3-26.1c1.6-10.8 1.7-26.4 1.7-28.4z" fill="#f0c7b1" stroke-width="none" opacity="1" stroke="none"></path><path id="SvgjsPath18739" d="M105.6 155.7c4.7.7 13.1-8.8 21.6-19.2s12.5-14.4 14.3-26.1c1.6-10.8 1.7-26.4 1.7-28.4v-.3c-1.3-29.9-20.7-46.4-43.2-46.4S58.1 51.7 56.8 81.7v.3c0 2 0 17.7 1.7 28.4 1.8 11.7 5.7 15.8 14.3 26.1s16.9 19.8 21.6 19.2c0 0 4.4-.9 5.6-.9s5.6.9 5.6.9zm-10.5-2.9c-1.1.2-2.2.1-3.2-.5-2.9-1.6-5.8-5.1-7.1-6.5-3.2-3.4-6.3-6.1-9.4-9.8s-6.4-7.2-9.1-10.9c-2.8-3.7-4.7-7.8-5.7-12.3-1.1-4.5-1.7-9.3-2.1-14.1-.4-4.8-.7-9.6-.8-14.3-.2-9.5 1.8-19.1 6.7-27.3C69.1 49 76.9 43 85.5 40c13.2-4.2 22.5-1.8 26.9-.5 8.8 2.4 16.7 8.1 22.1 15.8s8.1 17.4 8.5 26.9c-.1 8.3-.6 16.7-1.9 24.9-.3 2.1-.7 4.1-1.2 6.1s-1.2 3.9-2 5.7c-1.6 3.6-4.1 6.8-6.8 9.9-1.3 1.6-8.2 9.5-8.2 9.5-2.7 3.1-5.4 5.4-8.2 8.3-1.4 1.5-5.7 5.5-6.5 5.9-2.1 1-4 .5-4 .5-1-.2-4.4-1.1-9.1-.2z" fill="#c27b55" stroke-width="none" opacity="1" stroke="none"></path></g></g><g id="svga-group-mouth-single-move" transform="matrix(1,0,0,1,0,2)"><g id="svga-group-mouth-single"><path id="SvgjsPath18851" d="M84.13 121.38s.02 2.5 1.11 4.36c0 0 4.32 4.53 9.9 8.4.19.14 8.24 1.16 10.36.41 0 0 8.36-5.19 10.19-9.12 0 0 .66-1.94.41-3.27 0 0-6.34 1.76-9.33 2.2-2.99.45-10.62 0-14.41-.57-3.8-.57-7.27-1.92-8.23-2.41z" fill="#000000" stroke-width="none" opacity="1" transform="translate(0 2)"></path><path id="SvgjsPath18852" d="M106.75 124.35c-2.99.45-10.62 0-14.41-.57-3.79-.57-7.26-1.92-8.22-2.41 0 0 .02 2.5 1.11 4.36l.19.19c1.51 1.07 3.66 2.31 6.2 2.99 5.05 1.36 15.17 1.9 22.14-1.92.58-.32 1.09-.63 1.57-.95.14-.21.25-.43.34-.64 0 0 .66-1.94.41-3.27.01.02-6.34 1.79-9.33 2.22z" fill="#ffffff" stroke-width="none" opacity="1" transform="translate(0 2)"></path><path id="SvgjsPath18853" d="M116.59 121.88c.16-.2 0-.49-.28-.48-1.71.52-2.76.73-4.08 1.09-1.18.32-9.11 1.01-11.89.99-9.17-.2-13.39-1.67-16.1-2.4-.22-.06-.44.18-.34.34-.21 1.26 1.06 4.43 1.06 4.45 2.41 3.32 6.15 6.2 9.6 8.45 2.45 1.59 9.23 1.33 10.89.76 2.36-.89 4.78-3.17 6.36-4.68 1.46-1.4 3.54-4 4.23-5.1.29-.44.46-.97.57-1.48.13-.52.3-1.38-.02-1.94zm-5.54 8.28c-2.42 2.24-5.67 3.61-5.82 3.62-1.9.17-3.8.26-5.72.19-1.36-.05-4.19-.4-4.31-.48-1.83-.93-3.63-2.15-5.26-3.53-1.59-1.34-3.52-2.92-4.56-4.42-.65-1.11-1.02-2.25-.86-3.72 4.7 2.47 10.68 3.54 15.92 3.58 2.85.02 5.63-.36 8.4-.92 2.13-.43 5.04-.89 7-2.08-.03.32-.02.66-.07.97-.09.56.23 2.27-4.72 6.79z" fill="#da7c87" stroke-width="none" opacity="1" transform="translate(0 2)" stroke="none"></path></g></g><g id="svga-group-eyes-left-move" transform="matrix(1,0,0,1,0,0)"><g id="svga-group-eyes-left" transform="matrix(0.8999996000000001,0,0,0.8999996000000001,7.95269790258331,9.460037687411486)"><g id="svga-group-eyesback-left"><path id="SvgjsPath18696" d="M89.2 98s-.1-2.4-1.3-4.2c-1.2-1.8-3.7-4.7-8.4-4.9S71 90.8 71 90.8s.5 3.5 2.2 4.9c1.7 1.4 4.6 3.5 9.3 3.3 4.8-.1 6.7-1 6.7-1z" fill="#ffffff" stroke-width="none" opacity="1"></path></g><g id="svga-group-eyesiriswrapper-left" transform="matrix(1,0,0,1,0,0)"><g id="svga-group-eyesiriscontrol-left" transform="matrix(1,0,0,1,0,0)"><g id="svga-group-eyesiris-left"><path id="SvgjsPath18774" d="M80.1 88.1c3 0 5.5 2.4 5.5 5.5S83.1 99 80.1 99s-5.5-2.4-5.5-5.5 2.4-5.4 5.5-5.4z" fill="#5c6944" stroke-width="none" opacity="1"></path><path id="SvgjsPath18775" d="M80.1 87.8c-3.2 0-5.7 2.6-5.7 5.7 0 3.2 2.6 5.7 5.7 5.7 3.2 0 5.7-2.6 5.7-5.7s-2.6-5.7-5.7-5.7zm4.7 7.7c-.6-.3-1.2-.6-1.9-.8.1-.2.2-.5.2-.8.7.1 1.3.1 2 .1.1.5-.1 1-.3 1.5zm-.3.6c-.5-.4-1.1-.8-1.7-1.1 0-.1.1-.1.1-.2l1.8.9c0 .2-.1.3-.2.4zm.1-5.1c-.6.1-1.3.4-1.8.8 0-.1-.1-.1-.1-.2.2-.2.5-.3.7-.5.3-.2.6-.5.9-.7 0 .2.2.4.3.6zm.3.8c-.7.2-1.3.3-1.9.6 0-.1-.1-.2-.1-.3.3-.1.6-.3.9-.4.3-.1.7-.2 1-.4 0 .2.1.4.1.5zm-1.7 1.7c0-.3-.1-.6-.1-.8.7-.1 1.3-.3 1.9-.5.1.4.2.9.2 1.4-.6-.1-1.3-.1-2-.1zm.8-3.3c-.3.2-.6.5-.9.7-.2.2-.5.3-.7.5l-.3-.3c.4-.5.8-1.1 1.1-1.7.3.3.6.5.8.8zm-3.6 6.5c.2 0 .5-.1.7-.2.1.3.3.7.4 1 .1.3.2.6.4.8-.4.2-.9.3-1.4.3 0-.6 0-1.3-.1-1.9zm1.4-8c.4.2.9.4 1.3.7-.4.5-.8 1.1-1.2 1.6-.1-.1-.2-.1-.3-.2.1-.7.2-1.5.2-2.1zm-1.5-.3c.4 0 .8.1 1.1.2-.1.5-.1 1-.2 1.5 0 .2-.1.3-.1.5-.2-.1-.4-.1-.6-.2 0-.7-.1-1.4-.2-2zm1.6 9c-.2-.3-.3-.7-.5-1 .1 0 .1-.1.2-.1.1.3.3.6.5.9.2.3.3.6.5.9-.1.1-.2.1-.3.2-.1-.4-.3-.6-.4-.9zm.4-.4c-.2-.3-.3-.6-.5-.9.1-.1.2-.1.3-.2.3.6.7 1.1 1.2 1.6-.1.1-.3.2-.4.3-.2-.2-.5-.5-.6-.8zm-2.1-8.6c-.1.6-.1 1.3-.1 2h-.4c0-.2-.1-.4-.1-.6-.1-.4-.1-.9-.2-1.4.2 0 .4-.1.6-.1.1 0 .1 0 .2.1zm-2.8.7c.3.6.7 1.2 1.1 1.7-.1.1-.2.1-.2.2-.1-.1-.2-.3-.4-.4-.3-.4-.6-.8-1-1.1.2-.2.3-.3.5-.4zm2 1.3c-.1 0-.2 0-.2.1-.2-.7-.4-1.3-.6-1.9.2-.1.4-.1.7-.2-.1.7-.1 1.4.1 2zm-.5.2s-.1 0-.1.1c-.3-.6-.7-1.2-1.1-1.7.2-.1.5-.2.7-.3.1.6.2 1.3.5 1.9zm-.5 5.6c.1 0 .1.1.2.1-.1.2-.2.3-.2.5-.2.4-.5.9-.6 1.3l-.6-.3c.3-.3.5-.7.8-1 .1-.2.3-.4.4-.6zm.4.7c.1-.1.1-.3.2-.4h.1c-.3.6-.5 1.3-.6 1.9-.2-.1-.3-.1-.5-.2.3-.4.5-.9.8-1.3zm.6-.3c.1 0 .2 0 .3.1-.2.6-.2 1.3-.3 2-.2 0-.5-.1-.7-.1.3-.7.5-1.4.7-2zm-2.7-7c.2.4.5.7.8 1 .2.2.3.4.4.6-.1.1-.3.2-.4.4-.5-.4-1.1-.8-1.7-1.1.4-.4.6-.7.9-.9zm-1.1 6.5 1.5-.9c.1 0 .1-.1.2-.1.1.1.2.3.3.4-.5.4-1 1-1.4 1.4-.3-.2-.4-.5-.6-.8zm-.5-1.1c.4-.1.8-.3 1.1-.4.2-.1.5-.2.7-.3 0 .2.1.3.2.5-.1.1-.2.1-.3.2-.5.3-.9.6-1.4 1-.1-.4-.2-.7-.3-1zm-.2-1.5c0-.2 0-.3.1-.5.6.2 1.3.3 2 .3v.5c-.3.1-.6.2-.9.4-.3.1-.7.2-1 .4-.2-.3-.2-.7-.2-1.1zm.3-1.6c.4.2.9.4 1.3.6.2.1.3.2.5.2 0 .1-.1.2-.1.3-.2 0-.3-.1-.5-.1-.5-.1-1-.2-1.5-.1l.3-.9zm.6-1.3c.5.4 1 .9 1.6 1.2-.1.2-.2.3-.3.5-.1 0-.2-.1-.3-.1-.5-.2-1.1-.4-1.6-.6.2-.4.4-.7.6-1zm.5 6.5c.5-.4 1.1-.9 1.5-1.4l.3.3c-.2.2-.3.4-.4.6-.3.3-.5.7-.8 1-.2-.1-.4-.3-.6-.5zm3.5 1.6c.1-.7.2-1.3.2-2h.2c-.1.7-.1 1.4 0 2h-.4zm3.7-1.3c-.4-.5-.9-1-1.3-1.5.2-.2.4-.4.5-.6.5.4 1.1.8 1.7 1.2-.3.2-.6.6-.9.9z" fill="#3c4a21" stroke-width="none" opacity="1"></path><path id="SvgjsPath18776" d="M80.1 90.6c1.6 0 2.9 1.3 2.9 2.9s-1.3 2.9-2.9 2.9-2.9-1.3-2.9-2.9 1.2-2.9 2.9-2.9z" fill="#000000" stroke-width="none" opacity="1"></path><path id="SvgjsPath18777" d="M78.4 91c.6 0 1.1.5 1.1 1.1s-.5 1.1-1.1 1.1-1.1-.5-1.1-1.1.5-1.1 1.1-1.1zm3.6 4.1c.4 0 .6.3.6.6s-.3.6-.6.6-.6-.3-.6-.6.3-.6.6-.6z" fill="#ffffff" stroke-width="none" opacity="1"></path></g></g></g><g id="svga-group-eyesfront-left"><path id="SvgjsPath18704" d="M69.4 94.6c0 6.4 4.7 11.5 10.6 11.5 5.9 0 10.6-5.2 10.6-11.5S85.9 83.1 80 83.1c-5.8 0-10.6 5.1-10.6 11.5zm1.6-3.8s3.7-2.1 8.5-1.9c4.8.2 7.3 3 8.4 4.9 1.2 1.8 1.3 4.2 1.3 4.2s-2 .9-6.7 1c-4.7.1-7.6-1.9-9.3-3.3-1.7-1.4-2.2-4.9-2.2-4.9z" fill="#f0c7b1" stroke-width="none" opacity="1" stroke="none"></path><path id="SvgjsPath18705" d="M90.6 95.9c-2-3.6-4.1-6.6-8.3-7.9-4.3-1.4-8.1-.2-11.9 1.9-.2.1-.5-.2-.3-.4 6.3-5.7 18.8-2.3 20.6 6.3.1.2 0 .2-.1.1z" fill="#e1ac8f" stroke-width="none" opacity="1" stroke="none"></path><path id="SvgjsPath18706" d="M83.1 89.2c-4.8-2-10.6-.9-14.6 2.4-.5.4.1 1.1.6.8.5-.3 1-.6 1.6-.9 1.3 8.3 11.8 9.4 18.2 6.8.1.4.1.8.2 1.2 0 .3.5.4.6.1.7-4.5-2.5-8.7-6.6-10.4zm-4.6 8.9c-3.5-.9-6.2-3.4-6.7-7 0-.1 0-.1-.1-.1 3-1.5 6.2-2.3 9.7-1.3 4.2 1.2 6.7 4.2 7.5 8.2-3.6.2-6.9 1.2-10.4.2z" fill="#000000" stroke-width="none" opacity="1" stroke="none"></path></g></g></g><g id="svga-group-eyes-right-move" transform="matrix(1,0,0,1,0,0)"><g id="svga-group-eyes-right" transform="matrix(0.8999996000000001,0,0,0.8999996000000001,12.044574087527451,9.460037687411486)"><g id="svga-group-eyesback-right"><path id="SvgjsPath18697" d="M110.8 98s.1-2.4 1.3-4.2c1.2-1.8 3.7-4.7 8.4-4.9s8.5 1.9 8.5 1.9-.5 3.5-2.2 4.9c-1.7 1.4-4.6 3.5-9.3 3.3-4.8-.1-6.7-1-6.7-1z" fill="#ffffff" stroke-width="none" opacity="1"></path></g><g id="svga-group-eyesiriswrapper-right" transform="matrix(1,0,0,1,0,0)"><g id="svga-group-eyesiriscontrol-right" transform="matrix(1,0,0,1,0,0)"><g id="svga-group-eyesiris-right"><path id="SvgjsPath18778" d="M119.9 88.1c3 0 5.5 2.4 5.5 5.5S123 99 119.9 99s-5.5-2.4-5.5-5.5 2.5-5.4 5.5-5.4z" fill="#5c6944" stroke-width="none" opacity="1"></path><path id="SvgjsPath18779" d="M119.9 87.8c-3.2 0-5.7 2.6-5.7 5.7 0 3.2 2.6 5.7 5.7 5.7s5.7-2.6 5.7-5.7c.1-3.1-2.5-5.7-5.7-5.7zm4.8 7.7c-.6-.3-1.2-.6-1.9-.8.1-.2.2-.5.2-.8.7.1 1.3.1 2 .1 0 .5-.1 1-.3 1.5zm-.3.6c-.5-.4-1.1-.8-1.7-1.1 0-.1.1-.1.1-.2l1.8.9c0 .2-.1.3-.2.4zm.1-5.1c-.6.1-1.3.4-1.8.8 0-.1-.1-.1-.1-.2.2-.2.5-.3.7-.5.3-.2.6-.5.9-.7 0 .2.1.4.3.6zm.3.8c-.7.2-1.3.3-1.9.6 0-.1-.1-.2-.1-.3.3-.1.6-.3.9-.4.3-.1.7-.2 1-.4 0 .2.1.4.1.5zm-1.7 1.7c0-.3-.1-.6-.1-.8.7-.1 1.3-.3 1.9-.5.1.4.2.9.2 1.4-.6-.1-1.3-.1-2-.1zm.8-3.3c-.3.2-.6.5-.9.7-.2.2-.5.3-.7.5l-.3-.3c.4-.5.8-1.1 1.1-1.7.3.3.6.5.8.8zm-3.6 6.5c.2 0 .5-.1.7-.2.1.3.3.7.4 1 .1.3.2.6.4.8-.4.2-.9.3-1.4.3 0-.6 0-1.3-.1-1.9zm1.4-8c.4.2.9.4 1.3.7-.4.5-.8 1.1-1.2 1.6-.1-.1-.2-.1-.3-.2.1-.7.2-1.5.2-2.1zm-1.5-.3c.4 0 .8.1 1.1.2-.1.5-.1 1-.2 1.5 0 .2-.1.3-.1.5-.2-.1-.4-.1-.6-.2 0-.7-.1-1.4-.2-2zm1.6 9c-.2-.3-.3-.7-.5-1 .1 0 .1-.1.2-.1.1.3.3.6.5.9.2.3.3.6.5.9-.1.1-.2.1-.3.2-.2-.4-.3-.6-.4-.9zm.4-.4c-.2-.3-.3-.6-.5-.9.1-.1.2-.1.3-.2.3.6.7 1.1 1.2 1.6-.1.1-.3.2-.4.3-.2-.2-.5-.5-.6-.8zm-2.1-8.6c-.1.6-.1 1.3-.1 2h-.4c0-.2-.1-.4-.1-.6-.1-.4-.1-.9-.2-1.4.2 0 .4-.1.6-.1.1 0 .1 0 .2.1zm-2.8.7c.3.6.7 1.2 1.1 1.7-.1.1-.2.1-.2.2-.1-.1-.2-.3-.4-.4-.3-.4-.6-.8-1-1.1.2-.2.3-.3.5-.4zm2 1.3c-.1 0-.2 0-.2.1-.2-.7-.4-1.3-.6-1.9.2-.1.4-.1.7-.2-.2.7-.1 1.4.1 2zm-.5.2s-.1 0-.1.1c-.3-.6-.7-1.2-1.1-1.7.2-.1.5-.2.7-.3.1.6.2 1.3.5 1.9zm-.5 5.6c.1 0 .1.1.2.1-.1.2-.2.3-.2.5-.2.4-.5.9-.6 1.3l-.6-.3c.3-.3.5-.7.8-1 .1-.2.3-.4.4-.6zm.3.7c.1-.1.1-.3.2-.4h.1c-.3.6-.5 1.3-.6 1.9-.2-.1-.3-.1-.5-.2.4-.4.6-.9.8-1.3zm.7-.3c.1 0 .2 0 .3.1-.2.6-.2 1.3-.3 2-.2 0-.5-.1-.7-.1.2-.7.5-1.4.7-2zm-2.7-7c.2.4.5.7.8 1 .2.2.3.4.4.6-.1.1-.3.2-.4.4-.5-.4-1.1-.8-1.7-1.1.4-.4.6-.7.9-.9zm-1.1 6.5 1.5-.9c.1 0 .1-.1.2-.1.1.1.2.3.3.4-.5.4-1 1-1.4 1.4-.3-.2-.5-.5-.6-.8zM115 95c.4-.1.8-.3 1.1-.4.2-.1.5-.2.7-.3 0 .2.1.3.2.5-.1.1-.2.1-.3.2-.5.3-.9.6-1.4 1-.1-.4-.2-.7-.3-1zm-.2-1.5c0-.2 0-.3.1-.5.6.2 1.3.3 2 .3v.5c-.3.1-.6.2-.9.4-.3.1-.7.2-1 .4-.2-.3-.2-.7-.2-1.1zm.3-1.6c.4.2.9.4 1.3.6.2.1.3.2.5.2 0 .1-.1.2-.1.3-.2 0-.3-.1-.5-.1-.5-.1-1-.2-1.5-.1.1-.3.1-.6.3-.9zm.6-1.3c.5.4 1 .9 1.6 1.2-.1.2-.2.3-.3.5-.1 0-.2-.1-.3-.1-.5-.2-1.1-.4-1.6-.6.2-.4.4-.7.6-1zm.5 6.5c.5-.4 1.1-.9 1.5-1.4l.3.3c-.2.2-.3.4-.4.6-.3.3-.5.7-.8 1-.2-.1-.4-.3-.6-.5zm3.5 1.6c.1-.7.2-1.3.2-2h.2c-.1.7-.1 1.4 0 2h-.4zm3.7-1.3c-.4-.5-.9-1-1.3-1.5.2-.2.4-.4.5-.6.5.4 1.1.8 1.7 1.2-.3.2-.6.6-.9.9z" fill="#3c4a21" stroke-width="none" opacity="1"></path><path id="SvgjsPath18780" d="M119.9 90.6c1.6 0 2.9 1.3 2.9 2.9s-1.3 2.9-2.9 2.9-2.9-1.3-2.9-2.9 1.3-2.9 2.9-2.9z" fill="#000000" stroke-width="none" opacity="1"></path><path id="SvgjsPath18781" d="M118.3 91c.6 0 1.1.5 1.1 1.1s-.5 1.1-1.1 1.1-1.1-.5-1.1-1.1.5-1.1 1.1-1.1zm3.6 4.1c.4 0 .6.3.6.6s-.3.6-.6.6-.6-.3-.6-.6.3-.6.6-.6z" fill="#ffffff" stroke-width="none" opacity="1"></path></g></g></g><g id="svga-group-eyesfront-right"><path id="SvgjsPath18707" d="M120 83.1c-5.9 0-10.6 5.2-10.6 11.5s4.7 11.5 10.6 11.5c5.9 0 10.6-5.2 10.6-11.5s-4.8-11.5-10.6-11.5zm6.8 12.6c-1.7 1.4-4.6 3.5-9.3 3.3-4.7-.1-6.7-1-6.7-1s.1-2.4 1.3-4.2c1.2-1.8 3.7-4.7 8.4-4.9 4.8-.2 8.5 1.9 8.5 1.9s-.5 3.5-2.2 4.9z" fill="#f0c7b1" stroke-width="none" opacity="1" stroke="none"></path><path id="SvgjsPath18710" d="M109.4 95.9c2-3.6 4.1-6.6 8.3-7.9 4.3-1.4 8.1-.2 11.9 1.9.2.1.5-.2.3-.4-6.3-5.7-18.8-2.3-20.6 6.3-.1.2 0 .2.1.1z" fill="#e1ac8f" stroke-width="none" opacity="1" stroke="none"></path><path id="SvgjsPath18711" d="M131.5 91.6c-4-3.3-9.7-4.4-14.6-2.4-4 1.7-7.3 5.9-6.6 10.4.1.3.5.2.6-.1 0-.4.1-.8.2-1.2 6.5 2.6 17 1.4 18.2-6.8.5.3 1 .6 1.6.9.4.3 1-.5.6-.8zm-3.2-.5c-.5 3.6-3.3 6.1-6.7 7-3.6 1-6.9 0-10.4-.3.8-3.9 3.3-7 7.5-8.2 3.5-1 6.7-.1 9.7 1.3-.1.1-.1.2-.1.2z" fill="#000000" stroke-width="none" opacity="1" stroke="none"></path></g></g></g><g id="svga-group-facehighlight-single"></g><g id="svga-group-eyebrows-left-move" transform="matrix(1,0,0,1,0,0)"><g id="svga-group-eyebrows-left-rotate" transform="matrix(1,1.7453292519943295e-9,-1.7453292519943295e-9,1,1.4446339946516673e-7,-1.3922831954005233e-7)"><g id="svga-group-eyebrows-left"><path id="SvgjsPath18625" d="M71.9 81.2c.2-.2.4-.3.6-.4.2-.1.4-.2.7-.3.4-.2.8-.4 1.3-.5.5-.2 1.4-.5 1.9-.2 1.7-.6 4-.2 5.6.6 2.1.2 4.3.9 5.9 2 .1.1.2.2.2.3l.9.3c1.1.4 2.3.8 3.4 1.3.1 0 .2.1.3.1.4.2.5.7.2.9-.1.1-.1.2-.3.3-.8.6-2 .2-2.9-.1-.8-.3-1.6-.7-2.2-1.3-.8-.3-1.6-.7-2.3-1.2-.1 0-.2-.1-.3-.1-1.4-.2-2.8-.8-4-1.4h-.1c-.7-.2-1.4-.3-2.2-.3-1-.1-2 .2-3-.1h-.1c-.2.1-.4.1-.6.2-.9.3-1.6.4-2.6.4-.1 0-.2-.1-.2-.2H72s-.2-.2-.1-.3z" fill="#2a232b" stroke-width="none" opacity="1"></path><path id="SvgjsPath18626" d="M76.9 79.1c3.4-.3 6.8 1.7 9.9 2.9 1.9.7 5.8 1 6.5 3.3.1.3-.3.5-.5.2-1-1.4-2.6-1.5-4.1-2-1.3-.4-2.6-.9-3.8-1.4-2.7-1.1-5.3-1.7-8-2.4-.3-.2-.2-.6 0-.6z" fill="#3a353a" stroke-width="none" opacity="1"></path><path id="SvgjsPath18627" d="M94.4 85.2c.3-1.5-2-2.1-3.1-2.5-2.7-1.1-5.4-2.3-8.2-3.1-1.7-.5-3.4-.8-5.1-.8-1.3 0-2.6.1-3.8.5-2.2.7-4.3 1.9-6.2 3.4-1 .6-2 1.3-2.8 2.1-.2.2 0 .4.2.3.1 0 .1 0 .1-.1.1.1.1.1.2.1 1.6-.7 3.1-1.8 4.8-2.5 1.6-.7 3.4-1.1 5.1-1.2h.8c2.1 0 4.1.4 6 1.3 2.6 1.2 5.1 2.8 7.7 3.8.5.2 1 .3 1.6.2 1.3.2 2.4-.3 2.7-1.5zm-16.3-5.4c1.8 0 3.6.4 5.3 1 2.2.8 4.4 1.8 6.6 2.6.4.2 2.6.7 2.8 1.3.2.7-.3.9-.8 1-.3 0-.6-.1-.8-.1-.7-.2-1.3-.6-1.9-.9-3.4-1.7-6.9-3.9-10.8-4.1h-1.1c-1.2 0-2.5.1-3.8.3.6-.2 1.1-.4 1.7-.6.8-.4 1.8-.5 2.8-.5z" fill="#1b141c" stroke-width="none" opacity="1"></path></g></g></g><g id="svga-group-eyebrows-right-move" transform="matrix(1,0,0,1,0,0)"><g id="svga-group-eyebrows-right-rotate" transform="matrix(1,1.7453292519943295e-9,-1.7453292519943295e-9,1,1.445891939511057e-7,-2.0966299985047954e-7)"><g id="svga-group-eyebrows-right"><path id="SvgjsPath18628" d="M128.1 81.2c-.2-.2-.4-.3-.6-.4-.2-.1-.4-.2-.7-.3-.4-.2-.8-.4-1.3-.5-.5-.2-1.4-.5-1.9-.2-1.7-.6-4-.2-5.6.6-2.1.2-4.3.9-5.9 2-.1.1-.2.2-.2.3l-.9.3c-1.1.4-2.3.8-3.4 1.3-.1 0-.2.1-.3.1-.4.2-.5.7-.2.9.1.1.1.2.3.3.8.6 2 .2 2.9-.1.8-.3 1.6-.7 2.2-1.3.8-.3 1.6-.7 2.3-1.2.1 0 .2-.1.3-.1 1.4-.2 2.8-.8 4-1.4h.1c.7-.2 1.4-.3 2.2-.3 1-.1 2 .2 3-.1h.1c.2.1.4.1.6.2.9.3 1.6.4 2.6.4.1 0 .2-.1.2-.2h.1s.2-.2.1-.3z" fill="#2a232b" stroke-width="none" opacity="1"></path><path id="SvgjsPath18629" d="M123.1 79.1c-3.4-.3-6.8 1.7-9.9 2.9-1.9.7-5.8 1-6.5 3.3-.1.3.3.5.5.2 1-1.4 2.6-1.5 4.1-2 1.3-.4 2.6-.9 3.8-1.4 2.7-1.1 5.3-1.7 8-2.4.3-.2.2-.6 0-.6z" fill="#3a353a" stroke-width="none" opacity="1"></path><path id="SvgjsPath18630" d="M108.2 86.8c.5 0 1.1-.1 1.6-.2 2.7-1 5.1-2.7 7.7-3.8 1.9-.9 3.9-1.3 6-1.3h.8c1.8.1 3.5.6 5.1 1.2 1.7.7 3.1 1.7 4.8 2.5.1 0 .2 0 .2-.1 0 0 .1 0 .1.1.2.1.4-.1.2-.3-.8-.8-1.7-1.5-2.8-2.1-1.9-1.4-4-2.7-6.2-3.4-1.2-.4-2.5-.6-3.8-.5-1.7 0-3.4.3-5.1.8-2.8.8-5.5 2-8.2 3.1-1.1.4-3.4 1-3.1 2.5.4 1.1 1.5 1.6 2.7 1.5zm16.7-6.6c.6.2 1.2.4 1.7.6-1.3-.2-2.6-.4-3.8-.3h-1.1c-3.9.2-7.4 2.4-10.8 4.1-.6.3-1.2.7-1.9.9-.2.1-.5.1-.8.1-.6 0-1.1-.3-.8-1 .2-.6 2.4-1.1 2.8-1.3 2.2-.9 4.4-1.9 6.6-2.6 1.7-.6 3.5-1 5.3-1 .8.1 1.8.2 2.8.5z" fill="#1b141c" stroke-width="none" opacity="1"></path></g></g></g><g id="svga-group-beardwrap" transform="matrix(0.9599996000000002,0,0,0.9997996000000002,4.008372450267018,0.026513545944169437)"><g id="svga-group-beard-single-move" transform="matrix(1,0,0,1,0,4)"><g id="svga-group-beard-single" transform="matrix(0.8999997000000001,0,0,0.8999997000000001,10.02086097985115,12.830350838349148)"><path id="SvgjsPath18955" d="M145.5 112.7c-.3-5.3.2-17.7-4-18.7-4.1-.9-5.4 7.3-6.8 15.4s-2.9 15.7-8.2 14.8c-5.3-.9-1.6-5.2-5.4-7.4-3.8-2.3-11.2.3-14 1.5-2.8 1.2-9.1 1.5-14.2-.3s-11.9-2.3-14.2.3-.6 4.4-3.2 6.1-7.7-.8-8.7-6.1-1.2-13.5-1.9-17.1c-.6-3.6-1.7-7.4-4-7.4-3.7 0-5.4 4.9-5.9 8.7-.5 3.8-1 17.5 0 22.2.5 2.9.8 9.1 5.1 13.9s22.4 19.2 29.5 21.8 13.5 2.4 19.9.5c6.3-1.8 26.4-16.8 30.3-22.5 7.3-9.4 6-20.5 5.7-25.7zm-29 20c-3.5 6.6-7.6 7.3-9.3 7.8s-2.6-.4-2.6-1.6 0-2.1-.6-2.1-6.4-.2-7.4-.2-.8.6-.9 2.3c-.1 1.6-1.9 2-4.3 1s-7.2-6.9-8.6-11.5-1.2-5.4.6-4.9c.9.2 4.7 1.2 7.9 1.4s7.2-.2 8.6-.8c1.4-.5 6 .9 9.3.8s6.8-1.1 8.7-1.8c1.9-.8 2 3.2-1.4 9.6z" fill="#3b3128" stroke-width="none" opacity="1"></path><path id="SvgjsPath18956" d="M55.4 118.9c0-.1-.1-.1-.1 0-.2.8-.3 1.6-.5 2.4.3-4.3.5-8.7.8-13 0-.2-.2-.2-.3-.2.3-1.9.6-3.8.8-5.8 0-.3-.4-.4-.5-.1-.2.8-.4 1.5-.5 2.3.5-3 .9-7.7 3.6-9.4.2-.1.1-.4-.2-.4-1.4.4-2 1.6-2.4 2.9-.8 2.3-1.2 4.8-1.3 7.2 0 .1.2.2.2 0v-.1c-.4 2.2-.5 4.6-.5 6.8-.6 4-.8 8.2-.3 12 0 .2.2.2.3.1-.1 2.1.2 4.3 1.1 6.3.1.3.5.1.4-.1-.8-3.7-1.4-7.2-.6-10.9zm3 13.9c0-.2-.2-.2-.3-.1-.2-2.1-.4-4.1-.1-6.2 0-.3-.5-.4-.5-.1-.5 2.7-.5 5.5.4 8.1.1.2.5.2.4-.1v-.1c.5 2 1.2 4 2.6 5.5.2.2.5-.1.4-.3-1.3-2.3-2.4-4.3-2.9-6.7zM83 156.9c-2.6-2.6-5.1-5.2-7.2-8.3-.1-.1-.2 0-.2.1 1.8 3.2 4 6.3 7 8.5.3.2.6-.1.4-.3zm-4.2-2.7v-.1c-.4-.5-.9-1-1.3-1.6-.3-.5-.5-1.2-.8-1.7-.1-.1-.2-.1-.3.1-.1.5.1 1.1.4 1.6-2.3-1.8-4.9-3.5-6.2-6.2-.1-.2-.3-.1-.3.1.2.4.4.8.7 1.2-2.2-2-4.5-3.9-6.6-6.1-.2-.2-.5 0-.3.2.5.6 1.1 1.2 1.7 1.8-2.2-2-4.1-4.1-6-6.4-.1-.1-.3 0-.2.2 2 3 4.1 6.3 7.4 7.9.1.1.2 0 .3-.1 1.3 1.3 2.8 2.5 4.4 3.4h.1c1.7 2.2 4.1 3.8 6.4 5.4.1.1.2.1.2.2.1.1.2.2.4.2 0 .2.2.1 0-.1 0 .1 0 0 0 0zm6.1 1.5c-.2-.2-.4 0-.4.2-1.6-1.4-3.3-2.9-4.8-4.4-.2-.2-.6.1-.4.4 2.8 3 5.8 6.1 9.2 8.4.2.2.5-.2.3-.4l-.6-.6c1.7 1.4 3.6 2.6 5.6 3.1.1 0 .2-.1.1-.2-2.9-2.3-6.2-4-9-6.5zm7.9 4.7c-.3-.2-.7.3-.3.5 1.7.8 3.7 1.9 5.6 1.7.2 0 .4-.3.1-.4-1.7-.8-3.6-1-5.4-1.8zm13.9.2c-2.4.5-4.5 1.4-7 1.5-.4 0-.5.5-.1.6 1.2.3 2.3-.1 3.4-.4 1.3-.4 2.6-.9 3.8-1.5.1 0 0-.2-.1-.2zm4.9-1.4c-2.1 1.2-4 2.6-6.4 2.8-.2 0-.2.3 0 .3 2.5-.2 4.7-1.4 6.6-2.9.1-.1 0-.3-.2-.2zm5.9-4.3c-1.2.9-2.4 1.9-3.6 2.8-1.3 1.1-2.8 2.5-4.3 3.3-.2.1-.1.5.2.4 1.4-.4 2.6-1.5 3.7-2.4 1.5-1.2 3-2.4 4.3-3.7.1-.3-.1-.6-.3-.4zm26.8-53c-.2-2.2-.8-4.2-1.4-6.3-.1-.2-.5-.2-.4.1.5 2.1.9 4.2 1.5 6.2.1.2.3.2.3 0zm.5.7c0-.2-.4-.1-.3 0 .2 2.3.5 4.7.9 7-.1-.1-.3 0-.3.1 0 3.8-.1 7.6 0 11.3-.2 2.8-.5 5.6-.9 8.3 0 .2.3.3.3.1.8-2.9 1.1-5.9 1.2-8.8.3-3.4.2-6.8-.2-10.2.2.8.4 1.5.6 2.2.1.2.4.1.4-.1-.5-3.2-1.2-6.6-1.7-9.9zm-1.6 25.2c0-.2-.2-.2-.3 0-.2 1-.2 2.1-.4 3.1-1.3 3-3 5.4-5 7.9.2-.3.3-.6.5-1 .1-.2-.2-.4-.4-.2-1.1 1.7-2.3 3.4-3.4 5-.1-.2-.4-.3-.6-.1-2 2.4-4.3 4.5-6.4 6.8 0-.1-.1-.3-.3-.2-2.3 1.3-4.4 3-6.4 4.8h-.2c-2.4 1.6-4.7 3.6-6.9 5.5-.1.1 0 .3.2.2 1.9-1.4 3.9-2.8 5.7-4.3.1 0 .2.1.2 0 2.5-1.8 5.1-3.6 7.4-5.7-.2.2.1.5.3.3 2.3-1.6 4.3-3.8 6.1-6-.2.2-.3.5-.5.7v.1l-.6.6c-.2.3-.5.6-.6 1 0 .1.1.2.2.1.4-.2.6-.6.9-.9.2-.2.3-.4.5-.6 1.4-1.3 2.6-2.9 3.6-4.6h.3c.8-.6 1.6-1.4 2.2-2.2-.1.2-.2.3-.3.5-.6.9-1.4 1.7-2.1 2.6-.4.4-.8.9-1.2 1.3-.9.8-1.8 1.6-2.5 2.5-.2.2.1.5.3.3.9-.9 1.8-1.8 2.8-2.7.6-.6 1.2-1.2 1.6-1.9 1.3-1.2 2.4-3 2.8-4.7.3-.6.6-1.1.9-1.7.5-1 1-2.1 1.3-3.1 0-.1 0-.2.1-.3 0-.1 0-.1.1-.2v-.1c.1-.8.1-1.8.1-2.8zm-58.8-4.9c-.4-.1-.9-.1-1.4-.2-1-.1-1.9-.4-2.9-.3-.2 0-.3.3-.1.4 1 .6 2.4.8 3.8.9 1.7.5 3.6.7 5.4.7 0 .1 0 .2.1.2 3.6 1 8.1.6 11.6-1 4.1 1.6 9.1 1.5 13.4.5 2.2.2 4.5-.5 6.4-1.4.3-.1.1-.5-.2-.4-2 .4-3.8 1.1-5.8 1.2h-.1c-.2 0-.5-.1-.7-.1-2.8-.4-5.5-1.2-8.2-2.4-.2-.1-.4.2-.2.3 1.5.8 3.1 1.5 4.8 2-3.5.1-7.1.6-10.4-1.2-.2-.1-.3.2-.2.3.5.3 1.1.6 1.6.8h-.1c-.2.1-.3.1-.5.1-.1 0-.2 0-.2.1-3.1.8-5.9 1.2-9.1 1.2 2-.2 4-.5 5.8-1 .2 0 .1-.3 0-.3-2.7.2-5.2.4-7.8.4 3.5-.3 7-1.3 10.1-3 .2-.1.1-.4-.2-.4-4.9 1.8-9.7 2.7-15 2.8.2-.3.2-.2.1-.2zm26.4.7c-3.1.2-6 .4-9.2-.4.1-.1.1-.2 0-.3 2.8 1 6 .8 9.2.7zm-51.3-23c-1 2.4-1.8 4.9-1.6 7.6 0 .1 0 .1.1.1-.5 1.1-.7 2.3-.4 3.6 0 .2.3.2.3-.1 0-1.4.1-2.8.7-4.1.1-.2-.2-.4-.3-.2.3-2.4.7-4.7 1.5-6.9 0 0-.3-.1-.3 0zm-1.2 11.2c-1.2 2.9-1.9 6.1-1.4 9.3 0 .1.1.2.2.2 0 .7 0 1.4.2 2.1.1.3.4.2.5-.1.1-1.9.2-3.8.4-5.6 0-.3-.4-.3-.5-.1 0 .1-.1.3-.1.4.2-2 .4-4.1 1-6.1 0-.2-.3-.3-.3-.1zm.6 10.4c-.1 1.7-.2 3.4-.1 5 0 .2.4.3.4.1.2-1.7.2-3.4.2-5.1 0-.3-.5-.3-.5 0zm7.3 11.4c.4 1.5.8 2.9 1.3 4.4 0 .1.1 0 .1 0-.3-1.5-.8-2.9-1.1-4.4-.1-.2-.3-.2-.3 0zm2.4 3.2c.2 1.5.6 3.1 1.5 4.4.1.1.3.1.3-.1-.5-1.5-1.1-2.9-1.4-4.4-.1-.2-.5-.1-.4.1zm4.8 7.7c-.6-1.9-1.5-3.6-2.1-5.5-.1-.3-.5-.1-.4.1.5 1.9 1.1 3.9 2.2 5.5.1.2.4.1.3-.1zm2.4 2c.1.1.3.1.3-.1-.4-1.1-1-2.2-1.5-3.3-.1-.3-.5 0-.4.2.5 1.1.9 2.3 1.6 3.2zm2.3 2.4c.1.1.3.1.3-.1-.4-1.2-1.1-2.3-1.8-3.3-.1-.2-.5 0-.4.2.7 1 1.2 2.2 1.9 3.2zm3-.8c.4 1.5 1 3 2.1 4.2.2.2.4 0 .3-.2-.7-1.4-1.6-2.6-2.1-4-.1-.2-.3-.2-.3 0zm5.5 7c.1.1.3-.1.2-.2-1-1.2-2.1-2.4-2.9-3.8-.1-.2-.4 0-.3.2.8 1.4 1.7 2.8 3 3.8zm2.4 1.3c.1.1.3 0 .2-.2-.7-1-1.7-1.9-2.5-2.9-.2-.2-.5.1-.3.3.8 1 1.6 2 2.6 2.8zm2.7 1.3c.1.1.2 0 .2-.1-.6-.9-1.5-1.8-2.2-2.6-.2-.2-.5.1-.3.3.7.8 1.4 1.7 2.3 2.4zm3.1 1.6c.1 0 .3-.1.1-.2-.5-.4-1-.7-1.5-1.2-.2-.2-.5.1-.3.3.6.4 1.1.9 1.7 1.1zm-31.9-30.4c.2 1.8.8 3.3 1.8 4.9.1.2.4 0 .3-.2-.9-1.4-1.5-3-1.9-4.7 0-.1-.2-.1-.2 0zm-.4 1.3c.2.7.5 1.4.9 2 .1.2.4 0 .3-.2-.5-1-.9-2-1.3-3.1 0-.1-.3-.1-.2.1 0 .2.1.4.1.5-.6-1.3-1-2.7-1.2-4.1 0-.1-.2-.1-.2 0 .1 1.7.6 3.2 1.4 4.7 0 .2.1.2.2.1zm43.8 28.8c1.4-1.1 2.8-2.4 3.6-4 .1-.1-.1-.3-.2-.2-1.2 1.4-2.2 2.8-3.7 4-.1.1.1.3.3.2zm2.6-1.6c.4-.4.8-.9 1.1-1.3.3-.4.7-1 .8-1.5.1-.2-.3-.4-.4-.2-.3.4-.5.9-.8 1.4-.3.5-.7.9-1.1 1.3-.1.2.2.5.4.3zm2.1-1.2c.8-.7 1.7-1.7 1.9-2.7 0-.1-.2-.3-.3-.2-.7.9-1.2 1.8-1.9 2.6-.1.3.1.5.3.3zm2.6-1.6c.6-.6 1.2-1.3 1.7-2 .2-.3-.2-.5-.4-.3-.6.6-1.2 1.2-1.7 1.8-.4.3.1.8.4.5zm10-7.5c.6-.3.8-1 1.1-1.6.3-.7.5-1.5.6-2.3 0-.2-.3-.2-.3 0-.3.7-.6 1.5-.9 2.2-.2.5-.6 1-.6 1.6-.1 0 0 .1.1.1zm2.1-1.7c.6-.8.7-2 1-2.9.1-.3-.4-.5-.5-.1-.3.9-.8 2-.8 3-.1.1.2.2.3 0zm1.5-1.3c.6-.8.7-2.1.8-3 0-.2-.4-.3-.4-.1l-.3 1.5c-.1.5-.3.9-.4 1.4-.1.2.1.3.3.2zm1.2-1.2c.5-.6.6-1.6.5-2.3 0-.3-.5-.3-.5 0 0 .4 0 .7-.1 1.1-.1.3-.2.6-.3 1-.1.1.2.3.4.2zm3.2-3.4c.6-1 .5-2.7.6-3.8 0-.1-.2-.1-.2 0-.1.7-.2 1.4-.4 2.1-.1.5-.3 1.1-.2 1.6-.1.2.1.2.2.1zm1.7-2.2c.2-.4.1-.9.2-1.4 0-.5.1-1.1.1-1.6 0-.2-.4-.2-.4 0-.1 1-.4 2.1-.2 3.1.1.1.3.1.3-.1zm1-1.1c.3-.3.2-.8.3-1.2v-1.6c0-.3-.5-.3-.5 0v1.5c0 .4-.2.9 0 1.3 0 .1.1.1.2 0zm1.1-1.5c.4-.8.4-1.8.2-2.6-.1-.2-.4-.1-.3.1.1.8 0 1.6-.1 2.4 0 .2.2.3.2.1zm6.5-23.5c.1 2.8.1 5.7.2 8.5 0 .2.2.1.2 0 .2-2.9.2-5.7 0-8.5 0-.2-.4-.2-.4 0zm-.6 10.8c0 .2.3.2.3 0 .4-1.5.3-3.1.1-4.7 0-.3-.4-.3-.4 0 .1 1.6.1 3.1 0 4.7zm-2.2 6.4c.5-.8.9-1.8 1-2.8v.2c0 .2.3.3.4.1.6-1.6.6-3.4.5-5.1 0-.3-.5-.3-.5 0 .1 1.2-.1 2.3-.2 3.4.1-.5.1-1 .1-1.4 0-.3-.5-.3-.5 0-.1 1-.2 2-.4 2.9-.2.8-.6 1.7-.7 2.5-.1.2.2.4.3.2zm-1.4 1.2c.7-1.1.9-2.5 1.1-3.7 0-.3-.4-.4-.4-.1-.2 1.3-.7 2.4-1.1 3.7 0 .2.3.3.4.1zm-1 .6c.5-1.1.6-2.3.9-3.4.1-.3-.4-.5-.5-.1-.3 1.1-.7 2.3-.8 3.5 0 .1.3.2.4 0zM90.3 153c-.8-1.8-1.5-3.6-1.9-5.5-.1-.3-.5-.2-.4.1.4 2 1 3.8 2.1 5.5.1.2.2.1.2-.1zm2.2 2.3c.5.9 1.1 1.7 1.9 2.4.1.1.3 0 .2-.2-1.2-1.7-2.3-3.4-3.1-5.3-.1-.2-.4-.1-.3.1.2.7.5 1.3.8 1.9-.8-1.3-1.6-2.5-2.1-3.9-.1-.2-.4-.1-.3.1.6 1.7 1.4 3.6 2.7 4.9 0 .1.1.1.2 0zm4 4.5c.2.1.3-.1.2-.2-.7-1.1-1.6-2-2.2-3.2-.1-.2-.4-.1-.3.1.5 1.1 1.2 2.5 2.3 3.3zm1.8.7c-.5-.9-1.1-1.8-1.6-2.7-.1-.2-.5 0-.4.2.5.9 1.1 1.9 1.9 2.6 0 0 .1 0 .1-.1zm1.2-.4c-.3-.5-.6-.9-.8-1.5-.1-.2-.4-.1-.3.1.2.6.4 1.1.8 1.6.2 0 .4-.1.3-.2zm-16.4-18.7c.3 1.6.8 3.3 1.8 4.7.1.1.4.1.3-.1-.6-1.5-1.3-3-1.7-4.6-.1-.4-.4-.3-.4 0zm1.3 4.6c-.5-1.6-1.3-3.1-2-4.7-.1-.1-.3 0-.2.1.6 1.6 1.2 3.2 1.9 4.7.1.2.3.1.3-.1zm-.9.4c-1.1-2-2.3-3.9-3.2-6-.1-.1-.3 0-.3.1.9 2.1 1.8 4.2 3.2 6.1.1.2.4 0 .3-.2zm-2.8-1.7c-.5-1.7-1.3-3.3-2.2-4.9-.1-.1-.3 0-.2.1.8 1.6 1.4 3.3 2.2 4.9 0 0 .2 0 .2-.1zm-2.9-2.8c-.4-1.3-.9-2.5-1.4-3.8-.1-.2-.5-.1-.4.1.5 1.3 1 2.6 1.6 3.8.1.1.2 0 .2-.1zM62 108.1c.2-1.1.3-2.2.5-3.3.2-1 .5-1.9.6-2.9 0-.2-.2-.2-.3-.1-.8 1.8-1.2 4.2-1.1 6.2 0 .2.3.3.3.1zm.8 2.8c0 .4-.1.8-.1 1.2.1-1.7.1-3.4.3-5.1 0-.2-.3-.2-.3 0-.2 1.8-.4 3.7-.3 5.5 0 .2.2.2.2 0-.1 1.3-.1 2.7.2 4 0 .1.2.1.2 0 0-1.8-.1-3.6.1-5.5.1-.3-.3-.4-.3-.1zm1.3 10.1c-.2-1.9-.3-3.7-.1-5.5 0-.2-.3-.2-.3 0-.3 1.8-.3 3.8.2 5.6-.1.1.2.1.2-.1zm2 4.5c-.6-2.1-1.2-4.1-1.4-6.4 0-.2-.3-.2-.3 0 0 2.2.2 4.5 1.4 6.5.1.1.3 0 .3-.1zm1.3.8c-.3-.7-.7-1.4-1-2.1-.1-.2-.4-.1-.4.1.2.7.5 1.7 1.1 2.2.1.1.4 0 .3-.2zm1.6 1.1c.1.1.3 0 .3-.2-.3-.8-.9-1.6-1.4-2.3-.1-.2-.5 0-.4.2.5.8.9 1.6 1.5 2.3zm9.1 3.6c-.2-1.1-.5-2.2-.8-3.3-.1-.2-.1-.5-.2-.7-.1-.3-.1-.6-.2-.9 0-.2-.3-.1-.2.1.2 1.6.5 3.4 1.1 4.9.1.1.4.1.3-.1zm.9-1.5c-.3-1.8-.7-3.6-.9-5.5 0-.3-.5-.3-.4 0 .2 1.9.4 3.8 1.1 5.6 0 .1.2.1.2-.1zm.1-2.5c.3 3.3 1.3 6.6 3.2 9.3.1.2.5 0 .3-.2-1.6-3-2.7-5.8-3.2-9.2.1-.1-.3-.1-.3.1zm6.5 13.6c-1-1.9-2.1-3.7-2.9-5.6-.1-.2-.4 0-.3.2.9 1.9 1.8 3.9 3 5.6 0 .1.3 0 .2-.2zm35.1-18c0 .4.1.8.1 1.3.1 1.8.1 3.6.1 5.5 0 .1.2.1.2 0 .5-2.3.3-4.6 0-6.8 0-.2-.4-.2-.4 0zm-.2 9.2c.4-2.2.2-4.4 0-6.6 0-.2-.4-.2-.4 0 .2 2.2 0 4.3.1 6.5 0 .2.3.3.3.1zm-.7-2.7c-.4 1.8-1 3.5-1.5 5.3-.1.2.2.3.3.1.8-1.6 1.3-3.5 1.6-5.3 0-.3-.4-.4-.4-.1zm-5.5 8.7c-.8 1.8-1.7 3.6-2.3 5.4-.1.2.2.3.3.1.9-1.8 1.6-3.6 2.3-5.4.1-.1-.2-.2-.3-.1zm-4.5 7.6 1.2-2.4c.1-.2-.2-.3-.3-.1-.4.8-.7 1.6-1.1 2.4 0 .1.2.1.2.1zm-.5-2.6c-.7 1.9-1.6 3.8-2.6 5.6-.1.2.2.3.3.2 1.2-1.7 2.1-3.6 2.7-5.6.1-.4-.3-.5-.4-.2zM94 151.3c-.7-2.1-1.4-4.2-1.8-6.4 0-.2-.4-.1-.3.1.4 2.2.9 4.4 1.9 6.4-.1.2.2 0 .2-.1zm2.8 3.3c-.9-1.7-1.7-3.3-2.1-5.1-.1-.3-.5-.2-.4.1.4 1.8 1.1 3.7 2.3 5.2.1.2.3 0 .2-.2zm2.6 2.2c-.5-1-1-1.9-1.5-2.9-.1-.3-.6-.1-.4.1.4 1 .9 2.1 1.7 2.9.1.2.2 0 .2-.1zm5.5-4.5c-.2.9-.3 1.8-.4 2.7 0 .1.2.1.2 0 .3-.8.4-1.7.6-2.6.1-.3-.4-.4-.4-.1zm1.5 1.1c0 .8-.2 1.5-.2 2.3 0 .2.3.3.4.1.4-.7.4-1.6.4-2.4 0-.4-.6-.4-.6 0zm-25.2-32.3c4.8 1 9.8-.1 14.4-1.6.2-.1.1-.4-.1-.3-4.8 1-9.3 2-14.3 1.7-.2-.1-.2.2 0 .2zm-3.1 0c1.1-.9 2.2-1.8 3.5-2.4.2-.1.1-.3-.1-.3-1.4.5-2.8 1.3-3.6 2.5-.1.2.1.3.2.2zm27.7-1.6c3.1-.1 6-1.3 9.1-1.2.1 0 .1-.2 0-.2-3.1-.3-6.1.6-9.1 1.2-.2 0-.2.2 0 .2zm18.2 10.7c-.5-3.7-1.1-7.4-1.4-11.1 0-.2-.3-.2-.3 0 .2 3.7.3 7.6 1.3 11.2.1.3.4.2.4-.1zm-2.8 3.2c-.9 2.1-1.2 4.3-2.2 6.3-.1.2.1.4.3.2 1.5-1.9 1.6-4.2 2.4-6.4.1-.3-.4-.4-.5-.1zm-5.7 13.8c1.1-2.3 1.9-4.7 2.5-7.2.1-.3-.4-.5-.5-.1-.6 2.4-1.4 4.8-2.3 7.2-.1.1.2.2.3.1zM78.2 136c-.4-2.2-1.1-4.3-1.8-6.4-.1-.3-.6-.2-.5.1.6 2.2 1.1 4.3 2 6.4.1.2.4.1.3-.1zm.1-1.5c1 2.1 1.9 4.2 3.2 6.2.1.2.5.1.4-.2-.9-2.1-2.2-4.1-3.3-6.2-.1-.1-.4 0-.3.2z" fill="#2c2219" stroke-width="none" opacity="1"></path></g></g></g><g id="svga-group-mustache-single-move" transform="matrix(1,0,0,1,0,0)"><g id="svga-group-mustache-single"></g></g><g id="svga-group-nose-single-move" transform="matrix(1,0,0,1,0,0)"><g id="svga-group-nose-single"><path id="SvgjsPath18832" d="M105.06 106.65c.56.92 2.64 3.61 3.09 4.9.45 1.29-.13 3.22-1.48 3.61s-3.61-.39-3.93-.19c-.32.19-1.87 2.06-2.58 1.93-.71-.13-2.64-2.13-3.03-2.13-.39 0-2.13.45-2.97.45-.84 0-2.9-.71-2.64-2.51.26-1.81 2.45-5.54 2.9-6.06.45-.52 1.48-2.32 1.74-3.42s.58-7.03.71-8.38c.13-1.35 1.35-2.97 2.58-3.09 1.23-.13 3.35.77 3.55 2.9.19 2.13.58 6.38.77 8.12.19 1.74.58 2.71 1.29 3.87z" fill="#f0c7b1" stroke-width="none" opacity="1" transform="translate(0 1)" stroke="none"></path><path id="SvgjsPath18833" d="M97.62 85.76c-.84 3.5-.96 7.24-1.34 10.81-.4 3.83-1.14 7.78-1.09 11.63 0 .31.48.39.55.07.78-3.52.88-7.26 1.24-10.84.39-3.82 1.1-7.79.98-11.63 0-.18-.29-.24-.34-.04z" fill="#c27b55" stroke-width="none" opacity="1" transform="translate(0 1)" stroke="none"></path><path id="SvgjsPath18834" d="M94.46 106.19c-1.03 1.37-1.9 2.87-2.65 4.41-.49 1-1.09 2.17-.77 3.32.53 1.89 2.93 2.49 4.5 1.58.47-.27.26-.99-.27-1-.92-.01-1.98.28-2.72-.5-.88-.94-.01-2.63.38-3.57.58-1.39 1.28-2.72 1.83-4.12.07-.19-.2-.26-.3-.12z" fill="#c27b55" stroke-width="none" opacity="1" transform="translate(0 1)" stroke="none"></path><path id="SvgjsPath18835" d="M94.31 113.98c2.84-.21 3.38 3.37 6.07 3.45 2.31.07 2.5-3.41 4.69-3.3.26.01.34-.35.13-.47-2.49-1.47-2.95 2.86-5.24 2.59-1.36-.16-2.32-2.16-3.54-2.73-.83-.39-1.43-.36-2.23.02-.22.09-.11.46.12.44z" fill="#c27b55" stroke-width="none" opacity="1" transform="translate(0 1)" stroke="none"></path><path id="SvgjsPath18836" d="M104.29 115.6c1.87.42 4.05-.16 4.49-2.24.22-1.04-.13-2.07-.67-2.95-.89-1.44-2.03-2.66-2.87-4.15-.14-.25-.49-.12-.51.14-.11 1.67 1.13 2.83 2.02 4.12.82 1.19 1.53 2.83.15 4-.63.54-1.83.44-2.6.59-.26.04-.25.43-.01.49z" fill="#c27b55" stroke-width="none" opacity="1" transform="translate(0 1)" stroke="none"></path><path id="SvgjsPath18837" d="M102.45 109.98c-.41-.74-1.47-.85-2.06-.26-.05.05-.24.29-.3.36-.07.09-.2.26-.23.29-.07.1-.12.21-.18.32l-.12.28c0-.01-.01.01-.03.05-.06.06-.12.13-.18.2-.18.19-.36.38-.5.6-.42.67-.08 1.42.48 1.84.87.65 2.13.13 2.74-.61.76-.89.96-2.03.38-3.07z" fill="#f8d5c3" stroke-width="none" opacity="1" transform="translate(0 1)" stroke="none"></path></g></g><g id="svga-group-hair-front" transform="matrix(0.9599996000000002,0,0,0.9997996000000002,4.08497660985563,0.01675373401334923)"><path id="SvgjsPath18884" d="M155.5 145.7c-1-.6-1.9-1.1-2.7-1.8 0-.1 0-.3-.1-.4-6.5-6.2-10.2-13.3-12.2-20.8 0-.6-.1-1.2-.1-1.8 0 .1.1.2.1.3.4 1.6.8 3.1 1.3 4.6.1.2.2.2.3.2.9 2.3 2.1 4.5 3.4 6.6.8 1.4 1.8 2.7 2.9 4 .1.1.2.1.3.1.6.7 1.2 1.3 1.8 2 .3.3.8-.2.5-.5-1-1.2-1.9-2.4-2.7-3.6-5.7-10-6.4-20.7-5.4-31.7 1.6-6.1 3.5-12.1 5-18.3 0-.2.1-.3.1-.5l.1-.1c1.1-3.2 1.7-6.4 1.9-9.7.2-1.3.3-2.6.3-4 .1-4.8-.1-11.5-3.1-15.8.1-.4 0-.8-.1-1.2-.5-1.1-1.1-2.2-1.7-3.1-1.8-5-4.9-9.6-8.3-13.6-1.4-1.7-2.9-3.2-4.4-4.5-5.4-5.8-12.9-9.8-21-11.2-13.7-2.3-35.4 2.3-35.2 19.7-7.2-2.2-15.4 1.3-20.2 6.8-2.8 3.2-4.5 6.9-5.4 10.9-2 4.6-2.7 9.6-2.2 14.7-.1 1.6.1 3.2.5 4.8.2 2.6.5 5.3.6 7.9 0 .2.3.3.4.1.4-.9.7-1.8.8-2.7.8 1.9 2 3.7 3.7 5.1l.1.1c.2.3.3.5.5.8.4.9.8 1.8 1.1 2.8l.3 1.2c-.1 0-.1.1-.1.2.2.5.3.9.5 1.4.7 3 1.4 5.9 2 8.9.9 7.2.2 14.2-.4 21.8 0 .3.2.5.5.5V126.5c-.1.5-.1 1-.2 1.4 0 .3.5.5.5.2.2-.8.4-1.6.5-2.3 5.4-11.5 2.4-24.1 1.3-36.3-1.4-15.5 2.5-31 19.4-33.9.3 0 .6.1 1 .2.6.1 1.1-.5.8-1-.1-.2-.3-.4-.4-.5.1 0 .2 0 .3-.1.1.2.1.3.2.5s.4.2.6 0c.2.2.3.4.6.6.5.5 1.5 0 1.4-.7h.5c.2.3.6.1.6-.2l.1-.1c.6.5 1.3.9 2.2 1 .4 0 .7-.5.6-.8.1 0 .1-.1.1-.1.7.8 1.5 1.4 2.4 2 .8.5 1.5-.5 1.1-1.2.5.4 1 .8 1.8 1 .5.2.9-.2 1-.6.1 0 .1.1.2.1.3.5.7 1.1 1.1 1.5.7.7 2 0 1.7-1 .5.6 1.6.6 1.8-.1.3.4.6.7 1 1 .6.4 1.7.2 1.6-.7 0-.3-.1-.6-.1-.9.2.5.5 1 .8 1.4.4.5 1.5.1 1.4-.6-.1-.7 0-1.4 0-2 .2-.1.4-.2.5-.3-.1.6-.1 1.3 0 1.9.2.9 1.7.9 1.8 0 .1-.7.3-1.4.7-2-.2.5-.3 1-.3 1.6 0 1 1.4 1.5 1.9.5.3-.5.6-1 1-1.5v.7c.1 1 1.2 1.3 1.8.5.5-.8 1.1-1.4 1.7-1.9-.3.4-.6.9-.7 1.4-.1.5.4 1 .9.7.2-.2.5-.3.8-.5.1.1.3.2.6.2 1-.2 2.1-.3 3.2-.3 4.1.3 7.4 2.1 10.3 4.8 2.6 4 4.4 8.8 5.4 12.8 1 4.2 1.1 8.4.6 12.5-4.3 14.1-9.2 32.2-2.8 46 1.1 4.7 3 9.2 6.1 13.2.2.2.5 0 .4-.2-1.9-3-3.3-6-4.3-9.1 1.4 2 3 3.9 5 5.7 1.6 1.5 3.4 2.8 5.5 3.9.8.4 1.6.1 2.1-.5 1.5 1 3.1 1.7 4.8 2.2.2.1.4-.1.4-.2.3.1.6.3.8.4.5.2.8-.2.7-.6.1 0 .1.1.2.1.2.1.3 0 .4-.1.3.1.6.3.9.4.1-.1.4-.7 0-.9zm-94.3-43.4c-.1-.6-.2-1.2-.4-1.8-.1-.9-.2-1.8-.3-2.6 0-.6-.1-1.2-.2-1.7-.2-1.2-.3-2.4-.4-3.5-.3-3.2-.2-6.4-.2-9.6v-.3c-.1 6.5.9 13 1.5 19.5zm8.5-60.8c-5.7 1.2-11.1 5.6-14.5 9.8 3.3-5.3 8.5-9 15.3-10-.3 0-.5.1-.8.2zm69.7 55.1c-.4 3.2-.7 6.4-.7 9.7-.1.7-.1 1.4-.2 2.1-.1-2.6-.1-5.1-.1-7.7.3-1.5.6-2.8 1-4.1zm1.9 4-.3 3c0 .1-.1.2-.1.3.1-2.1.3-4.2.5-6.2.2-.7.3-1.3.5-2-.2 1.7-.4 3.3-.6 4.9zM76.5 41.9c-.8-.5-1.8-.8-2.7-.8.9 0 1.8 0 2.7.1v.7zm5.8-9c-2.3 1.6-4.2 3.7-5.1 6C80 22.4 100.6 19 114.6 22.6c4.7 1.2 9.1 3.3 12.8 6-2.9-1.6-6.2-2.7-9.8-3.2-.6-.1-1.2-.2-1.8-.2-.4-.1-.8-.2-1.3-.3-9.6-2.2-25.8-.9-32.2 8zm11.9-4.3h-.3c-.9.1-1.8.2-2.8.4 7.5-3.2 17-3.2 24.7-2.3.4 0 .8.1 1.2.2.1 0 .2.1.4.1 7.3 2.3 14.2 6.5 19.2 12.1.1.1.1.2.2.4-.6-.6-1.2-1.1-1.8-1.6-5.2-6.1-13.4-9.9-21.1-10.9-6.4-1-13.3-.4-19.7 1.6zm42.2 94.5c.2.6.3 1.2.5 1.7.6 3.1 1.6 6.2 2.9 8.9-1.8-3.3-2.9-6.9-3.4-10.6zm3.6 5.8c-1.1-3.2-1.9-6.5-2.2-10 .4 2.1.9 4.2 1.5 6.2.4 1.8.9 3.7 1.6 5.5-.3-.5-.6-1.1-.9-1.7z" fill="#3b3128" stroke-width="none" opacity="1" stroke="none"></path><path id="SvgjsPath18885" d="M154 138.8c-6.8-4.1-10.6-9.5-12.7-15.6-2.8-10.1-2.3-20.6-.6-31.2 1.7-11 4-22.9-.3-33.6-.2-3.2-.7-6.3-1.9-9.3-4-9.9-14.2-16.1-24.7-15.4-8.8.6-22 5.4-24.3 14.9-.3.9-.4 1.8-.4 2.8v.8c0 .1.1.2.2.3.2 1.3.7 2.9 1.9 3.4.2.1.6-.2.3-.4L91 55v-.2c-.2-.2-.3-.5-.4-.7-.2-.6-.4-1.3-.5-1.9v-.6c.1 1.2.5 2.5 1.2 3.7.2.3.8.1.6-.2-.4-.9-.6-1.8-.7-2.7.2 1.1.6 2.2 1.2 3.2.2.2.6.1.5-.2-.1-.4-.3-.8-.4-1.1.2.1.3.2.5.3 0 .2.1.4.1.6.1.3.7.3.6-.1v-.5c.1-.1.1-.2.1-.3.1 0 .3 0 .3-.2.1-2.1.6-4 1.4-5.7-.8 1.7-1.1 3.7-.8 5.9.1.4.6.3.6-.1-.1-7.2 4.9-11.3 11.3-12.9-4.9 3-8.1 8.7-5.8 15.2.1.3.7.3.7-.1-.5-5.4.3-11.2 5.6-14.2l1.2-.6c-4.1 3.4-4.6 9.5-3.4 14.5.1.4.7.3.7-.1-.4-5.1-.3-11.4 4.8-14.3 1-.6 2.1-.9 3.2-1.1 1.5 0 3 .2 4.5.4 1.8.4 3.4 1.2 4.8 2.1-.6-.1-1.2-.1-1.8-.1-7-.2-16.2 4.5-15 12.6.1.5.8.3.8-.1.9-10.6 12.3-12 20.5-8.7 1 1.1 1.9 2.4 2.5 3.6.1.2.3.2.5 0 .4 1 .8 1.9 1.1 2.9-1.1-.8-2.3-1.6-3.5-2.2-1.7-.9-3.8-1.4-5.8-1.3-3.8-.3-7.9.6-9.3 4.4-.3.4-.6.8-.9 1.3-.3.5.4.8.7.4 1.1-1.4 2.4-2.3 3.9-2.9-.7.5-1.2 1.1-1.7 1.9-.2.4.3.7.6.4l1.2-.9c0 .1.1.2.1.2-.1 0-.1.1-.2.1-.3.2-.1.7.2.6.4-.2.8-.3 1.2-.4.1.2.2.3.4.3 9.9-1.5 13.4 5.1 14.6 13.2v1.4c0 .1.1.2.2.2.7 6.3.2 13.4.3 18.2-3.2 19.1-4.4 47.9 17.8 55.8.4.1.6-.4.2-.6-6.7-3-11.2-7.9-14.1-13.8l.6.9c1.1 2.1 2.5 4 4.2 5.8.2.2.7-.1.5-.4-.1-.2-.2-.3-.3-.5.3.3.6.6 1 .9.2.2.5-.1.3-.3-1.3-1.3-2.4-2.6-3.4-4-6.9-12.1-6.6-25.6-3.1-39.3.4-1.4.8-2.9 1.2-4.3-.2 4.2-.6 8.4-.7 12.6-.3 9.4.7 20.5 5.7 28.8.6 1.1 1.2 2.3 1.9 3.4.1.2.4 0 .3-.2-.1-.1-.1-.2-.1-.3 2.2 2.8 5 5.1 8.6 6.7-.1.2.2-.3-.1-.6zM92.8 53c-1.7-2.5 3.2-9.2 4.2-10.3 1.2-1.2 2.5-2.2 4-3l1.2-.3c-5.4 2.8-9.6 7.8-9.4 13.6zm3.4-6.1c3.1-4.9 9.1-7.7 15.4-7.8h1.3c-6 .4-13.4 2.8-16.7 7.8zm33-1.6c-1.1-1-2.2-2-3.5-2.8-4.8-4.2-10.8-6.9-17.3-6.6 6-1.5 12.4-1.2 17.9 1.8 6.8 3.7 10 9.4 11.5 15.8-2.2-3.3-5.1-6.2-8.6-8.2zm6 27.8c-.1-3.1-.5-6.2-1.5-9v-2.2c.3.5.5 1 .8 1.5.2.5.4 1.1.6 1.6.2 2.7.2 5.4.1 8.1zm-1.4-19.7c-.1-.3-.3-.6-.5-1 1.1 1.9 2.1 4 2.9 6.1-.3-.4-.6-.8-.9-1.3-.4-1.2-.9-2.5-1.5-3.8zm-5.4 2.8c1.5.9 2.9 2.2 4 3.7.1.5.1.9.1 1.4-.9-2-2.4-3.7-4.1-5.1zm4.8 42.9c0-.3.1-.6.1-1 .6-4.9 1.6-9.8 2.4-14.7.1 0 .2-.1.2-.2 1-3.4 1.6-7.1 1.7-10.8.3 2.1.4 4.2.5 6.2-1.1 7-3.4 13.6-4.9 20.5zm5.7-28.9c-.4-2.3-1-4.5-1.8-6.6.1 0 .2-.1.2-.2 0-.7-.1-1.3-.2-1.9.1.2.2.4.4.6.7 2.7 1.2 5.4 1.4 8.1zm-2.1-13.4c-.6-1.5-1.3-2.9-2.1-4.2 1.8 2.2 3.1 4.7 4 7.3.1 1 .1 2.1.2 3.1-.5-2.1-1.2-4.2-2.1-6.2zm3 24c.4-2.1.6-4.3.7-6.5 0-1.4-.1-2.7-.2-4.1 0-.9.1-1.8.1-2.7v-1.6c.8 4.9.8 9.9.4 14.7-.4 4.8-1 9.6-1.5 14.4.2-4.8.5-9.6.5-14.2zM78.9 55.4c-13.4-6-22.8 11.8-21.8 22.7 0 .2.3.2.3 0 0-6 1-11.8 4.9-16.5 4-4.9 10.2-7.8 16.4-5.8.2.1.4-.3.2-.4zm62.6 52.8c-.3-8.6 2-16.2 4.7-24.2 4.4-13.2 5-29.4-3.6-41.2-7.5-10.2-22.5-13-34.4-11.3C97.1 33.1 86 41 86.6 53.2c0 .4.6.4.6 0 .1-17.1 18.4-22.4 32.5-20.9 7 .8 14.5 3 19.6 8 5.5 5.4 8.1 13.3 8.9 20.8.9 7.5-.3 14.7-2.6 21.8-1.9 5.7-3.9 11.2-4.7 17.1-1.4 11.5 1.1 23.1 7.1 33 .2.3.6 0 .5-.3-4.1-7.5-6.6-15.8-7-24.5zm-34.3-81.7c-12.8 1.8-26.5 11.9-24.1 26.4 0 .2.4.2.4-.1-.8-14.7 10.6-23 23.8-25.9.3-.1.2-.5-.1-.4zm-21.8 7.8C81.2 38.8 78.8 45 81 51c.1.2.4.1.3-.1-1.7-6.2.9-11.4 4.4-16.4.2-.2-.1-.4-.3-.2zm7.7-7.1c-7.9 2.5-15.4 8.5-15.2 17.5 0 .2.3.2.3 0 .5-9 7.6-13.9 15.1-17.1.2-.1 0-.5-.2-.4zM80.5 54.1c-4.7-4.3-10.8-2-15.7.8-6.6 3.7-11.3 8.5-12.3 16.3-1.1 8.7 2.3 17.5 4.7 25.7 3 10.5 5 21.6-.5 31.8-.2.4.4.8.6.4 7.3-12.2 2.5-26.2-1.1-38.7-2.4-8.3-5.1-18-.7-26.1 3.9-7 17.1-15.1 24.6-9.7.3 0 .6-.3.4-.5zm-3.4-4.5c-9.1-6.8-20.6 4.1-23.2 12.5-.1.2.3.3.4.1 3.3-8.3 13.1-17.5 22.6-12.2.2.2.5-.2.2-.4zm-.8-2.3C74.2 44 70 44.6 67 46.2c-.2.1-.1.4.1.3 3-1.1 6.7-2.1 9 .9 0 .1.3 0 .2-.1z" fill="#2c2219" stroke-width="none" opacity="1" stroke="none"></path><path id="SvgjsPath18886" d="M138 41.5c-.2-.2-.4.1-.3.3 7.5 9.6 10.3 21 8.6 33-.1.4.5.5.6.2 3-12-.7-24.7-8.9-33.5zm7 19.1c0-.1-.3-.1-.2 0 1 10.8.1 21.2-2.1 31.8-.1.3.3.4.4.1 3-10.3 3.5-21.2 1.9-31.9zm-10.5-17.4c-6.2-7.3-17.7-10.8-26.9-9-7.9 1.5-20 7.6-19.5 17 0 .5.7.5.7 0 .3-11.9 18.7-17.6 28.2-15.9 5.1.9 10.4 3.3 14.4 6.7 5 4.1 6.9 10.7 8.1 16.8 2.3 12-.2 23-3.4 34.5-2.4 8.8-4.3 17.8-1.5 26.8.1.3.6.2.5-.1-3.8-15.2 4.1-28.9 6.1-43.7 1.3-10.2.4-24.9-6.7-33.1zM79 54.2c-11.2-2-18.8 8.6-20.2 18.5-2 14.5 5 28.3 2.3 42.7.6-7.4-.4-14.9-2.9-22 0-.1-.3-.1-.2.1 3.9 12.6 3.4 25.4-1.1 37.8-.1.2.2.3.3.1 1.7-4.1 2.9-8.4 3.5-12.7l.1-.1c4.4-11 .5-22.7-.9-34-1.6-12.9 2.2-31.1 19-29.7.4-.1.4-.6.1-.7zm-1.7-3.9C67 47.2 57.7 54.6 54.2 63.9c-.1.2.2.3.3.1 4.3-9.1 12.2-15.3 22.7-13.3.3.1.4-.4.1-.4zM76 45.8c-7.6-1.5-13.7-.7-18.6 5.7-4.1 5.3-5.8 11.9-4.8 18.4 0 .2.3.1.3 0-.4-5.6.6-11.4 3.7-16.2 4.7-7.3 10.9-8.6 19.2-7.4.4.1.5-.4.2-.5zm53.1-9C114 22.1 87 31 84.2 52c0 .3.4.4.4.1 5-20.5 27.6-28.5 44.2-15.1.2.2.4 0 .3-.2zm-46.1 6c-1.7 2.2-3.4 5-1.7 7.6.1.2.4 0 .3-.2-1.5-2.5.2-5.1 1.6-7.3 0-.1-.1-.2-.2-.1zm68 99.8c-8.2-9.9-13.3-21.4-13.5-34.3 0-.2-.2-.2-.2 0-.1 12.8 4.3 25.5 13.5 34.6.1 0 .3-.2.2-.3zm-3.6-1.5c-5.2-3.4-9.1-7.7-11.4-13.6-.1-.3-.5-.2-.4.1 1.9 5.9 6 11.1 11.6 13.8.2.2.4-.1.2-.3z" fill="#4a423a" stroke-width="none" opacity="1" stroke="none"></path></g><g id="svga-group-glasses-single-move" transform="matrix(1,0,0,1,0,0)"><g id="svga-group-glasses-single"></g></g></g></g></g><rect id="svga-credit-rect" width="200" height="15" x="0" y="185" fill="#ecf0f1" opacity="0.5" style="display: none;"></rect><text id="svga-credit-text" font-family="Avenir Next, Roboto, Helvetica, Arial, sans-serif" font-size="10px" text-anchor="start" font-weight="400" size="10px" anchor="start" weight="400" fill="#333333" x="33.40447998046875" y="182.60824704170227" style="display: none;"><tspan id="SvgjsTspan18614" dy="13" x="33.40447998046875">Created on AvatarMaker.com</tspan></text></g><defs id="SvgjsDefs18561"></defs></svg>