<svg xmlns="http://www.w3.org/2000/svg" version="1.1" width="600px" height="600px" viewBox="0 0 200 200" style="overflow:hidden!important;"><g id="svga-group-wrapper"><g id="svga-group-backs-single"><path id="SvgjsPath10585" d="M0 0h200v200H0V0z" fill="#ecf0f1" stroke-width="none" opacity="1"></path></g><g id="svga-group-humanwrap-move" transform="matrix(1,0,0,1,0,0)"><g id="svga-group-humanwrap"><g id="svga-group-hair-back-move" transform="matrix(1,0,0,1,0,0)"><g id="svga-group-hair-back"></g></g><g id="svga-group-humanbody-back"><path id="SvgjsPath10536" d="m170 180.3-27.3-6.9-18-9.9-1.5-28.2H76.8l-1.5 28.2-18 9.9-27.3 6.9-9.1 19.7-3 20h164.2l-3-20z" fill="#f0c7b1" stroke-width="none" opacity="1"></path><path id="SvgjsPath10537" d="m76.8 135.3-1.5 28.2-18 9.9-27.3 6.9-9.1 19.7-3 20h14.6v-20l2.7-17.7 23.8-6.4 24.7-8.3 3.5-32.3z" fill="#d19271" stroke-width="none" opacity="1"></path></g><g id="svga-group-chinshadow-single"><path id="SvgjsPath10532" d="m121.7 151.9 2.2-2.6-.7-14H76.8l-1 18.5 11.2 6.9h20.4z" fill="#c27b55" stroke-width="none" opacity="1"></path></g><g id="svga-group-humanbody-front"><path id="SvgjsPath10538" d="m92.8 168.3 2 7.9 6.9 4.6s-8.5-3-8.7-3.6c-.2-.6-.2-8.9-.2-8.9z" fill="#d19271" stroke-width="none" opacity="1"></path></g><g id="svga-group-clothes-single"><path id="SvgjsPath10427" d="m182.6 199.8-8.6-19.4-2.7-.8-22.8-6.6-15.1-6.2.2-3.4-2.4-4.9.2-3.4-2.7-7-4.9-1.7-6 5.9-15 2.9h-5.6l-15-2.9-6-5.9-4.9 1.7-2.7 7 .2 3.4-2.4 4.9.3 3.4-15.2 6.2-22.8 6.6-2.7.8-8.6 19.4-2.1 20.2h169.4z" fill="#e7dca7" stroke-width="none" opacity="1" stroke="none"></path><path id="SvgjsPath10428" d="m106 171.1 16-2.7 8.5-5.8-8.2 7.1-16.3 1.4zm57.4 39.7 4.4-18.3 5.4-10.9-6.4 10-4.7 18.4.1 10.1h1.8l-.6-9.3zm-33-38.1-10.2 7.3s-14.5 2.2-15.3 2.2-14.5-.9-14.5-.9l-.9-4.2.9-5.6h11.3L90.4 169l-1.3-2.4 2.7-8.9 29.4-4 6.1-6-3.6-1.2-5.9 5.8-15.1 2.9h-5.5l-15.1-2.9-5.9-5.8-4.9 1.6-2.8 7 .2 3.4-2.3 4.9.2 3.4-15.1 6.2-22.8 6.6-2.8.8-8.5 19.4-2.1 20.2h10.9l-.2-20.8 7.4-12.2 4 14.5 2.4 18-1.3-18.3-3.5-15.1 10.7-2.7 25.6-6.4 18 6 15.1 1.1 16.2-2.5 10.5-7.8 2.1-7-2.8 5.9zm-57.2-21.8 4.2-1.5-3.7 2-1.3 6.4.4 2.9-1.1-3.4 1.5-6.4zm-4.5 17.8.2-5.6 2.9-2.1-2.2 2.5-.3 5.3.4 3-1-3.1zm3.1 4 1 3.1-1.7-2.9-.1-4.9 4.2-4.4-3.5 4.8.1 4.3zm4.4-16.7 4.2-3.4-3.7 4.1-.6 3.9.3 4.2-1-4.5.8-4.3zm1.5 22.1-1.6-2.9-.1-4.4 2.6-3.5-1.9 3.6v3.9l1 3.3zm3.6-.5.8 2.5-1.5-2.2-.3-4.7 2.5-3.9-1.7 4.3.2 4zm-.3-18.2-.2 5.1.1 2.9-.9-3.5.1-4.8 3.6-5.2-2.7 5.5zm3.9 19.7-.3-4.7 2.2-4.4-1.3 4.4.3 4.8 1.1 2.5-2-2.6zm.2-14.5.1 4.4-.9-4.6 3.2-8.1-2.4 8.3zm10.9-6.8.3 7.5.2 4.2s.3-4.2.3-4.5-.8-7.2-.8-7.2zm-.3 14.3.4 5.1v4.3s.8-3.8.8-4.2-1.2-5.2-1.2-5.2zm10.8-14.9 1.4 6s.7 6.6.7 6.2.3-6.4.3-6.4l-2.4-5.8zm-.3 15.1.6 4-.2 5.3.8-5.3-1.2-4zm12.5-16.6c.3 0 1.3 5.4 1.3 5.4l.1 6.5.5-6.8-1.9-5.1zm2.2-.2 1.8 4.8-.3 5.5.9-5.7-2.4-4.6zm-1.6 16 1.1 4.1-.5 4.1 1-4.4-1.6-3.8zm9-5.8 1.4 2.2.4 2.7-.5 1.9 1-2.2-.5-3.1-1.8-1.5zm-2.9-14.4 2.3 3.7 1 4.6-.7 3.6 1.2-3.9-1.1-5-2.7-3z" fill="#d8ca86" stroke-width="none" opacity="1" stroke="none"></path></g><g id="svga-group-head" transform="matrix(1,0,0,1,0,0)"><g id="svga-group-ears-left-move" transform="matrix(1,0,0,1,0,0)"><g id="svga-group-ears-left"><path id="SvgjsPath10437" d="M63.1 91.8s-6-.7-10.6-3.7c0 0-3.5 9.4-4 14.4 0 0 6.7 13 10 18.5 0 0 5.2-.7 6.3-1.4l1.4-8.4-3.1-19.4z" fill="#f0c7b1" stroke-width="none" opacity="1"></path><path id="SvgjsPath10438" d="M53.3 90c-.2-.4-.8-1.9-.8-1.9 5.2.4 10.7 1.4 10.7 1.4l3 21.6-1.4 8.4c-1.1.7-6.3 1.4-6.3 1.4-.6-1-1.3-2.3-2.1-3.6l2.6 1 3-1.6s.7-11.2.5-11.5c-.1-.3-9-14.8-9.2-15.2z" fill="#e1ac8f" stroke-width="none" opacity="1"></path><path id="SvgjsPath10439" d="m50.3 100.9 2.8-5.5 5.2 6.8 2.2 9.5-1.4 1.9-4.3-7.6 1-4.7-2.6-4z" fill="#d19271" stroke-width="none" opacity="1"></path></g></g><g id="svga-group-ears-right-move" transform="matrix(1,0,0,1,0,0)"><g id="svga-group-ears-right"><path id="SvgjsPath10440" d="M136.9 91.8s6-.7 10.6-3.7c0 0 3.5 9.4 4 14.4 0 0-6.7 13-10 18.5 0 0-5.2-.7-6.3-1.4l-1.4-8.4 3.1-19.4z" fill="#f0c7b1" stroke-width="none" opacity="1"></path><path id="SvgjsPath10441" d="M146.7 90c.2-.4.8-1.9.8-1.9-5.2.4-10.7 1.4-10.7 1.4l-3 21.6 1.4 8.4c1.1.7 6.3 1.4 6.3 1.4.6-1 1.3-2.3 2.1-3.6l-2.6 1-3-1.6s-.7-11.2-.5-11.5c.1-.3 9-14.8 9.2-15.2z" fill="#e1ac8f" stroke-width="none" opacity="1"></path><path id="SvgjsPath10442" d="m149.7 100.9-2.8-5.5-5.2 6.8-2.2 9.5 1.4 1.9 4.3-7.6-1-4.7 2.6-4z" fill="#d19271" stroke-width="none" opacity="1"></path></g></g><g id="svga-group-faceshape-wrap"><g id="svga-group-faceshape-single"><path id="SvgjsPath10515" d="M143.4 84.8c-.2-10.2-5.3-24.8-5.3-24.8-6.9-11.6-19.7-19.5-19.7-19.5-7.2-1.5-18.4-2.3-18.4-2.3s-11.1.8-18.4 2.3c0 0-12.8 7.9-19.7 19.5 0 0-5.1 14.5-5.3 24.8l1 27.1 6.5 21.2 11.4 13.2 14.3 8.8h20.5l14.3-8.8 11.4-13.2 6.5-21.2.9-27.1z" fill="#f0c7b1" stroke-width="none" opacity="1"></path><path id="SvgjsPath10516" d="M109.5 151.6H89.3l-12.1-8.1-8.3-12.9L63 111l-1.3-28.3 4.6-21.6 16.4-17.2 17.2-3.8 18.5.4c-7.2-1.5-18.4-2.3-18.4-2.3s-11.1.8-18.4 2.3c0 0-12.8 7.9-19.7 19.5 0 0-5.1 14.5-5.3 24.8l1 27.1 6.5 21.2 11.4 13.2 14.3 8.8h20.5l14.3-8.8 11.4-13.2-12.6 11.7-13.9 6.8z" fill="#d19271" stroke-width="none" opacity="1"></path><path id="SvgjsPath10517" d="m88.8 141 6.5-2.8h9.3l7.3 2.2-6.6-4H94.7z" fill="#e1ac8f" stroke-width="none" opacity="1"></path></g></g><g id="svga-group-mouth-single-move" transform="matrix(1,0,0,1,0,0)"><g id="svga-group-mouth-single"><path id="SvgjsPath10603" d="m91.05 134.5 3.1 2.2 5.6-.2 6.6.6 2.7-2-2.9 1-6.5-.5-5.5.2z" fill="#d19271" stroke-width="none" opacity="1" transform="translate(0 2)"></path><path id="SvgjsPath10604" d="m89.17 128.58-1.77 2.59 7.88-2.14 2.49 1.51 3.83.27 2.37-1.45 9.7 2.06-1.77-1.92-8.85-5.39-3.26.99-2.89-1.13z" fill="#da7c87" stroke-width="none" opacity="1" transform="translate(0 2)"></path><path id="SvgjsPath10605" d="m85.3 129.9 2.3 1.9 7.5-2.4 2.8 1.6 3.7.1 2.6-1.5 9.5 2.3 1.87-1.35-2.07.45-9.6-2.7-2.5 1.9-3.5-.1-2.7-2-7.8 2.7z" fill="#cb5f6c" stroke-width="none" opacity="1" transform="translate(0 2)"></path></g></g><g id="svga-group-eyes-left-move" transform="matrix(1,0,0,1,0,0)"><g id="svga-group-eyes-left"><g id="svga-group-eyesback-left"><path id="SvgjsPath11782" d="m91.9 99-4.5-8s-14.5-.2-20.2.2c0 0 8.5 6.2 10.7 7.7 0-.1 9.3.4 14 .1z" fill="#ffffff" stroke-width="none" opacity="1"></path></g><g id="svga-group-eyesiriswrapper-left" transform="matrix(1,0,0,1,0,0)"><g id="svga-group-eyesiriscontrol-left" transform="matrix(1,0,0,1,0,0)"><g id="svga-group-eyesiris-left"><path id="SvgjsPath12075" d="M82.9 89.5h-4L76 92.4v4.1l2.9 2.8h4l2.9-2.8v-4.1z" fill="#3b1714" stroke-width="none" opacity="1" stroke="none"></path><path id="SvgjsPath12076" d="M86.1 96.5v-2c0-.7 0-1.4-.1-2v-.2c-.5-.5-1-.9-1.5-1.4-.2-.2-.5-.5-.8-.7-.2-.2-.5-.4-.8-.7-.3 0-.7 0-1-.1s-.7 0-1-.1c-.7 0-1.4-.1-2.1-.1h-.1l-.1.1c-.5.5-1 .9-1.5 1.4l-.7.7-.7.7-.1.1v.1l.1 2c0 .7.1 1.4.1 2l.7.7.7.7c.5.5.9 1 1.4 1.5h.1c.7 0 1.4.1 2 .1H83l.1-.1 1.5-1.4.7-.7.7-.7.1-.1v.2zm-1.2.5-.7.7-1.3 1.4H81c-.7 0-1.3 0-2 .1-.5-.4-1-.9-1.4-1.4l-.7-.7-.7-.7c0-.7 0-1.3.1-2l.1-1.9.7-.7.7-.7 1.4-1.4c.6 0 1.3 0 1.9-.1.3 0 .7 0 1-.1.3 0 .7 0 1-.1l.7.8c.2.2.5.5.7.8.4.5.9.9 1.3 1.4 0 .7 0 1.3-.1 1.9v1.9l-.8.8z" fill="#1c0604" stroke-width="none" opacity="1" stroke="none"></path><path id="SvgjsPath12077" d="m82.6 93.2.4 1.5-.8 1.4-1.6.4-1.4-.8-.4-1.6.8-1.4 1.6-.4z" fill="#000000" stroke-width="none" opacity="1"></path><path id="SvgjsPath12078" d="m80.6 96.7-1.5-.9-.4-1.7.9-1.5 1.7-.4 1.5.9.4 1.7-.9 1.5-1.7.4zm-1.2-1.1 1.3.8 1.4-.4.8-1.3-.4-1.4-1.3-.8-1.4.4-.8 1.3.4 1.4z" fill="#1c0604" stroke-width="none" opacity="1" stroke="none"></path><path id="SvgjsPath12079" d="m78.7 90.9.8-.4 1.1 2.4-.8.4-1.1-2.4z" fill="#ffffff" stroke-width="none" opacity="1"></path><path id="SvgjsPath12080" d="M81.2 95.5h1v1h-1v-1z" fill="#ffffff" stroke-width="none" opacity="1"></path></g></g></g><g id="svga-group-eyesfront-left"><path id="SvgjsPath11790" d="M67.1 89.3v11.9l7.9 8.4h11.2l7.9-8.4V89.3l-7.9-8.4H75l-7.9 8.4zm.2 1.9c5.6-.4 20.2-.2 20.2-.2l4.5 8c-4.7.3-14-.1-14-.1-2.2-1.5-10.7-7.7-10.7-7.7z" fill="#f0c7b1" stroke-width="none" opacity="1" stroke="none"></path><path id="SvgjsPath11791" d="m65 90.4 2.1 1.5 19.8-.1 3.9 6.6-.8.6 3.2 2-5.4-10.4z" fill="#000000" stroke-width="none" opacity="1" stroke="none"></path></g></g></g><g id="svga-group-eyes-right-move" transform="matrix(1,0,0,1,0,0)"><g id="svga-group-eyes-right"><g id="svga-group-eyesback-right"><path id="SvgjsPath11783" d="m108.1 99 4.5-8s14.5-.2 20.2.2c0 0-8.5 6.2-10.7 7.7 0-.1-9.3.4-14 .1z" fill="#ffffff" stroke-width="none" opacity="1"></path></g><g id="svga-group-eyesiriswrapper-right" transform="matrix(1,0,0,1,0,0)"><g id="svga-group-eyesiriscontrol-right" transform="matrix(1,0,0,1,0,0)"><g id="svga-group-eyesiris-right"><path id="SvgjsPath12081" d="M121.1 89.5H117l-2.9 2.9v4.1l2.9 2.8h4.1l2.8-2.8v-4.1z" fill="#3b1714" stroke-width="none" opacity="1" stroke="none"></path><path id="SvgjsPath12082" d="M124.2 96.5v-2c0-.7 0-1.4-.1-2v-.1l-.1-.1c-.5-.5-1-.9-1.5-1.4-.2-.2-.5-.5-.8-.7-.2-.2-.5-.4-.8-.7-.3 0-.7 0-1-.1s-.7 0-1-.1c-.7 0-1.4-.1-2.1-.1h-.1l-.1.1c-.5.5-1 .9-1.5 1.4l-.7.7-.7.7-.1.1v.1l.1 2c0 .7.1 1.4.1 2l.7.7.7.7c.5.5.9 1 1.4 1.5h.1c.7 0 1.4.1 2 .1h2.1l.1-.1 1.5-1.4.7-.7.7-.7.1-.1.3.2zm-1.2.5-.7.7-1.3 1.4h-1.9c-.7 0-1.3 0-2 .1-.5-.4-1-.9-1.4-1.4l-.7-.7-.7-.7c0-.7 0-1.3.1-2l.1-1.9.7-.7.7-.7 1.4-1.4c.6 0 1.3 0 1.9-.1.3 0 .7 0 1-.1.3 0 .7 0 1-.1l.7.8c.2.2.5.5.7.8.4.5.9.9 1.3 1.4 0 .7 0 1.3-.1 1.9v1.9l-.8.8z" fill="#1c0604" stroke-width="none" opacity="1" stroke="none"></path><path id="SvgjsPath12083" d="m120.7 93.2.4 1.5-.8 1.4-1.6.4-1.4-.8-.4-1.6.9-1.4 1.5-.4z" fill="#000000" stroke-width="none" opacity="1"></path><path id="SvgjsPath12084" d="m118.7 96.7-1.5-.9-.4-1.7.9-1.5 1.7-.4 1.5.9.4 1.7-.9 1.5-1.7.4zm-1.2-1.1 1.3.8 1.4-.4.8-1.3-.4-1.4-1.3-.8-1.4.4-.8 1.3.4 1.4z" fill="#1c0604" stroke-width="none" opacity="1" stroke="none"></path><path id="SvgjsPath12085" d="m116.8 90.9.8-.4 1.1 2.4-.8.4-1.1-2.4z" fill="#ffffff" stroke-width="none" opacity="1"></path><path id="SvgjsPath12086" d="M119.3 95.5h1v1h-1v-1z" fill="#ffffff" stroke-width="none" opacity="1"></path></g></g></g><g id="svga-group-eyesfront-right"><path id="SvgjsPath11792" d="M125 80.8h-11.2l-7.9 8.4v11.9l7.9 8.4H125l7.9-8.4V89.3l-7.9-8.5zm-2.9 18s-9.3.4-14 .1l4.5-8s14.5-.2 20.2.2c-.1.1-8.6 6.3-10.7 7.7z" fill="#f0c7b1" stroke-width="none" opacity="1" stroke="none"></path><path id="SvgjsPath11795" d="m135 90.4-2.1 1.5-19.8-.1-3.9 6.6.8.6-3.2 2 5.4-10.4z" fill="#000000" stroke-width="none" opacity="1" stroke="none"></path></g></g></g><g id="svga-group-facehighlight-single"></g><g id="svga-group-eyebrows-left-move" transform="matrix(1,0,0,1,0,0)"><g id="svga-group-eyebrows-left-rotate" transform="matrix(1,1.7453292519943295e-9,-1.7453292519943295e-9,1,1.4451326535436237e-7,-1.3849188462700113e-7)"><g id="svga-group-eyebrows-left"><path id="SvgjsPath12366" d="M74.2 77.6 71 79l-5 9 8.5-4.6 17.3 3.7.9-6z" fill="#2a232b" stroke-width="none" opacity="1"></path><path id="SvgjsPath12367" d="m87.9 84-1.2-4-1.7-.4 2.9 4.4zM73 78.2l5.6 4.6-4.4-5.2-1.2.6zm6.9.5 3.8 5-1.9-4.6-1.9-.4zm-11.7 5.4 2.7-1.5-2.1.5-.6 1zm14.7-4.8 1.7 1.9-.5-1.7-1.2-.2zm-12.4.7 3.8.8L71 79l-.5 1zm16.6.1 3.5 5.2-1.4-4.7-2.1-.5z" fill="#3a353a" stroke-width="none" opacity="1"></path></g></g></g><g id="svga-group-eyebrows-right-move" transform="matrix(1,0,0,1,0,0)"><g id="svga-group-eyebrows-right-rotate" transform="matrix(1,1.7453292519943295e-9,-1.7453292519943295e-9,1,1.4451326535436237e-7,-2.1057397248114285e-7)"><g id="svga-group-eyebrows-right"><path id="SvgjsPath12368" d="m107.3 81.1.9 6 17.3-3.7L134 88l-5-9-3.2-1.4z" fill="#2a232b" stroke-width="none" opacity="1"></path><path id="SvgjsPath12369" d="m115 79.6-1.7.3-1.2 4 2.9-4.3zm10.8-2-4.4 5.2 5.6-4.6-1.2-.6zm-7.6 1.5-1.9 4.6 3.8-5-1.9.4zm12.9 4-2.1-.5 2.7 1.5-.6-1zm-15.2-3.6-.5 1.7 1.7-1.9-1.2.2zM129 79l-3.2 1.8 3.8-.8-.6-1zm-18.2 1.5-1.4 4.7 3.5-5.2-2.1.5z" fill="#3a353a" stroke-width="none" opacity="1"></path></g></g></g><g id="svga-group-beardwrap"><g id="svga-group-beard-single-move" transform="matrix(1,0,0,1,0,0)"><g id="svga-group-beard-single"></g></g></g><g id="svga-group-mustache-single-move" transform="matrix(1,0,0,1,0,0)"><g id="svga-group-mustache-single"></g></g><g id="svga-group-nose-single-move" transform="matrix(1,0,0,1,0,0)"><g id="svga-group-nose-single"><path id="SvgjsPath10590" d="m104.02 101.62 6.37 11.09-2.65 3.58-2.86-2.01-1.86 3.72h-6.3l-1.79-3.72-2.93 1.86-2.58-3.65 6.73-11.37 3.86-1.65z" fill="#f0c7b1" stroke-width="none" opacity="1" transform="translate(0 1)"></path><path id="SvgjsPath10591" d="m104.31 101.38-1.02-.41 6.61 11.51-2.05 2.93-1.77-1.21.28-1.31-1.4.6-2.05 4.04-2.7.1-3.2-.1-2.05-4.04-1.4-.6.28 1.31-1.77 1.21-2.04-2.93 6.61-11.51.42-13.8-1.45 14.21-6.7 11.3 3.26 4.24 2.79-2.01 1.58 3.53h6.84l1.58-3.53 2.8 2.01 3.26-4.24z" fill="#d19271" stroke-width="none" opacity="1" transform="translate(0 1)"></path><path id="SvgjsPath10592" d="m96.51 113.01 1.67.79 3.93.1 1.96-.89-.74-3.01-1.27-3.98-2.6 5.23z" fill="#f8d5c3" stroke-width="none" opacity="1" transform="translate(0 1)"></path></g></g><g id="svga-group-hair-front"><path id="SvgjsPath12419" d="m125.9 59.8-10.7 11.3-13.6 6 11.3-9.2-14.2 9s-9 2.9-8.4 2.7c.6-.2 17.5-13.2 17.5-13.2l-17.7 9.9-9 2.5 8.2-6.8 13.1-13.2-11.7 9-8.2 7.8 3.1-6.4 6-5.8-8.8 5.8-8.8 9.3-5.1 11.3 1.6-10.1L77.3 69l-9.2 11.5L66.9 92l-.4 11.3-4.5-14s.4 12.3.8 13.2c.4 1 3.1 13.8 3.1 13.8l-5.5-11.9 1.4 10.1-6.2-14.6-1.2-10.7-2.2 3.4s-1.8-19.9-1.6-20.5c.2-.6 5.6-16 5.6-16l-2.9.6 6.7-8.4L72.4 38l-5.8 1 12.1-5.7 20.4-3.5 10.7 1.6-10.3-4.9 15.2 4.3 9.7 6.5 4.2 6.1 4.8 1.1 10.9 6 6.9 12.5-4.5-3.2 4 9.7.5 18.8-2.4-5.4.4 5.2.9 6.8-3.9-5.1-2.5 5.5-3.1 10.7.4-15-1-13.1-7.4-8.8 1.9 4.9-7.8-9.2-.8-5z" fill="#2a232b" stroke-width="none" opacity="1"></path><path id="SvgjsPath12420" d="m126.2 52.6-10.6 11.8-9.2 4.9 8.3-8.6-15.3 8-6.3 2 7.7-5.1 12.6-13.2s-15.9 6.1-16.9 6.5c-1 .4-14.7 9.2-14.7 9.2l11.4-10.6-18.7 10.3-8.3 10.8-1.6 7.5-.8-9.4 8.8-12L88.8 54l-15.9 4.3-9.4 8.2 9-13.2 18.1-6.7-11.8-1.2-5.7 1.2 6.7-3.1 19.6-.6-6.5-5.1-9.6.2 12.6-2.4 9.8 2.2-3.3-4.1 11 3.7 7.7 5.9-3.7-6.1-3.7-3.3 7.7 3.1 6.5 9-1.7 6.6zm3.7-5.9-1.2 7.5 2.9 8 11 13.4 1 11.6 1.8-12 3.9 4.5-2.4-8.8-7.3-11 8.2 6.1-7.7-11.2 4.5 1.6-3.7-5.5-11-4.2z" fill="#322c33" stroke-width="none" opacity="1"></path><path id="SvgjsPath12421" d="m124.2 50.4-8.7 7.9-9.4 4.8 9.4-7.4 8.7-5.3zm-4.2-3.7-12.7-1.5-20.7 5.5s20.3-3.7 21.2-3.7 12.2-.3 12.2-.3zM58.7 95.8l-.2-19 4.1-9.2-6.1 8.7 2.2 19.5z" fill="#3a353a" stroke-width="none" opacity="1"></path></g><g id="svga-group-glasses-single-move" transform="matrix(1,0,0,1,0,0)"><g id="svga-group-glasses-single"><path id="SvgjsPath11633" d="m65.4 93.1.5 5.4 3.7 4.7 9.8 2.1 7.9-1 6.2-4.1 1.9-6.1-3.2-3.1-8.4-1.1H77.4l-5.2-.1-4.4.9-2.4 2.4z" fill="#ffffff" stroke-width="none" opacity="0.44"></path><path id="SvgjsPath11634" d="m134.6 93.1-.5 5.4-3.7 4.7-9.8 2.1-7.9-1-6.2-4.1-1.9-6.1 3.3-3.1 8.4-1.1H122.7l5.2-.1 4.4.9 2.3 2.4z" fill="#ffffff" stroke-width="none" opacity="0.44"></path><path id="SvgjsPath11635" d="M95.6 93.9s3.8-1.7 8.6 0l.2 1s-5.7-.9-9 .1l.2-1.1z" fill="#271e1b" stroke-width="none" opacity="1" stroke="none"></path><path id="SvgjsPath11636" d="m92.3 90.6-8.6-1.1h-6.4l-5.3-.2-4.5.9-2.2 2.3h-2.5v2.1h2.4v.1l.4 3.9 3.9 4.9 9.9 2.1h.1l8-1.1 6.4-4.3 2.1-6.4-3.7-3.2zm.9 9.3-6 4-7.8 1-9.6-2-3.6-4.5-.5-5.2 2.1-2.3L72 90l5.2.1h6.4l8.3 1.1 3.1 2.9-1.8 5.8z" fill="#46403e" stroke-width="none" opacity="1" stroke="none"></path><path id="SvgjsPath11637" d="m104.1 94 2.1 6.4 6.4 4.3 8 1.1h.1l9.9-2.1 3.9-4.9.4-3.9v-.1h2.4v-2.1h-2.5l-2.2-2.3-4.5-.9-5.3.1h-6.4l-8.6 1.1-3.7 3.3zm.8.2 3.1-2.9 8.3-1.1h6.4l5.2-.1 4.2.9 2.1 2.3-.5 5.2-3.6 4.5-9.6 2-7.8-1-6-4-1.8-5.8z" fill="#46403e" stroke-width="none" opacity="1" stroke="none"></path></g></g></g></g></g><rect id="svga-credit-rect" width="200" height="15" x="0" y="185" fill="#ecf0f1" opacity="0.5" style="display: none;"></rect><text id="svga-credit-text" font-family="Avenir Next, Roboto, Helvetica, Arial, sans-serif" font-size="10px" text-anchor="start" font-weight="400" size="10px" anchor="start" weight="400" fill="#333333" x="33.40447998046875" y="182.60824704170227" style="display: none;"><tspan id="SvgjsTspan10399" dy="13" x="33.40447998046875">Created on AvatarMaker.com</tspan></text></g><defs id="SvgjsDefs10346"></defs></svg>