<svg xmlns="http://www.w3.org/2000/svg" version="1.1" width="600px" height="600px" viewBox="0 0 200 200" style="overflow:hidden!important;"><defs id="SvgjsDefs3072"></defs><g id="svga-group-wrapper"><g id="svga-group-backs-single"><path id="SvgjsPath6609" d="M0 0h200v200H0V0z" fill="#ecf0f1" stroke-width="none" opacity="1"></path><path id="SvgjsPath6610" d="M0 0v10.1L76.5 100 0 0zm0 34.1V50l76.5 58.3L0 34.1zm0 37.1v13.6l76.5 33.4L0 71.2zM38.3 0H21.1l67.2 108.3L38.3 0zm36.3 0H61l27.2 90L74.6 0zM0 108.3v9.9l76.5 9.9L0 108.3zM0 144v13.6l76.5-22.1L0 144zm0 35.7V200l88.3-64.5L0 179.7zM38.3 200h16.4l26.5-42.4L38.3 200zm85.2-100L200 10.1V0l-76.5 100zM200 50V34.1l-76.5 74.2L200 50zm0 34.8V71.2l-76.5 47L200 84.8zM178.9 0h-17.2l-50 108.3L178.9 0zM139 0h-13.6l-13.6 90L139 0zm61 118.2v-9.9L123.5 128l76.5-9.8zm0 39.4V144l-76.5-8.5 76.5 22.1zm0 42.4v-20.3l-88.3-44.2L200 200zm-54.7 0h16.4l-43-42.4 26.6 42.4zM111.7 0H88.3L100 100 111.7 0zM76.5 200h11.7l6.4-58.5L76.5 200zm35.2 0h11.7l-18.2-58.5 6.5 58.5zm-17 0h10.6l-5.3-42.4-5.3 42.4z" fill="#c6dce2" stroke-width="none" opacity="1"></path></g><g id="svga-group-humanwrap-move" transform="matrix(1,0,0,1,0,0)"><g id="svga-group-humanwrap" transform="matrix(1,0,0,1,0,0)"><g id="svga-group-hair-back-move" transform="matrix(1,0,0,1,0,0)"><g id="svga-group-hair-back" transform="matrix(1,0,0,1,0,0)"></g></g><g id="svga-group-humanbody-back"><path id="SvgjsPath3473" d="M166.5 181.1c-10.9-6.6-27.6-8.4-35-12.1-4.9-2.5-9.1-4.7-8.9-17.8s1.9-42.4 1.9-42.4H75.4s1.6 29.4 1.9 42.4-4.2 15.6-8.9 17.8c-7.4 3.5-24.1 5.4-35 12.1-10.8 6.6-10 18.9-10 18.9v19.7h153.3V200c-.1 0 .7-12.3-10.2-18.9z" fill="#f0c7b1" stroke-width="none" opacity="1" stroke="none"></path></g><g id="svga-group-chinshadow-single"><path id="SvgjsPath4497" d="M124.5 108.9H75.4c.1 1.8 1.6 29.7 1.9 42.3 0 1.8 0 3.4-.1 4.9 6.7 7.3 14.6 11.9 22.8 11.9 8.2 0 16.1-4.6 22.8-11.9-.1-1.4-.2-3.1-.2-4.9.2-12.7 1.8-40.5 1.9-42.3z" fill="#d19271" stroke-width="none" opacity="0.65" stroke="none"></path></g><g id="svga-group-humanbody-front"><path id="SvgjsPath3474" d="M78.7 156.8c.5 4.8 1.7 9.4 3.1 13.9.8 2.3 1.6 4.6 2.6 6.9.8 2 1.7 4.2 3.1 5.9.3.4 1 0 .9-.5-.5-2.2-1.6-4.3-2.4-6.4-.9-2.2-1.7-4.4-2.5-6.6-1.5-4.4-2.8-8.9-4.1-13.3-.2-.4-.8-.3-.7.1zm41.3-1c-1.3 8.2-3.9 16.1-5.4 24.2-.1.4.4.5.6.2 3.1-7.7 4.1-16.1 5.1-24.3-.1-.2-.3-.2-.3-.1zm-25.8 11.9c-.9 3.6 1.9 8.6 6.2 7.6.5-.1.4-.8 0-1-1.4-.5-2.9-.9-3.9-2.1-1.1-1.2-1.5-2.9-1.4-4.5 0-.4-.8-.5-.9 0z" fill="#d19271" stroke-width="none" opacity="1" stroke="none"></path><path id="SvgjsPath3475" d="M177.3 219.7c-.1-6.6-.3-13.1-.3-19.7l-.3-.3c.1 0 .1 0 .2.1s.1.2.1.1v-1.4c0-.5-.1-.9-.1-1.4-.1-.9-.3-1.9-.5-2.8-.5-1.8-1.1-3.6-2-5.3-1.7-3.4-4.4-6.2-7.7-8.1-3.6-2.2-7.6-3.8-11.6-5.1-4-1.3-8.1-2.4-12.1-3.5-4-1.2-8.1-2.2-11.8-4.2-1.9-1-3.6-2.1-4.8-3.6-1.2-1.6-1.9-3.5-2.3-5.5-.8-4-.4-8.2-.3-12.4l.7-12.6 1.5-25.2.1-1.4h-1.4c-8.2 0-16.4 0-24.6.1l-24.6.3h-.9l.1.9c.8 11.9 1.6 23.8 2.1 35.7.1 3 .3 6 .2 8.9-.1 2.9-.4 5.9-1.6 8.6-.6 1.3-1.4 2.5-2.4 3.5s-2.3 1.8-3.6 2.4c-2.6 1.3-5.4 2.2-8.3 3-5.8 1.5-11.6 2.8-17.3 4.7-2.8.9-5.7 2-8.4 3.4-1.3.7-2.7 1.4-4 2.4-1.3.9-2.4 1.9-3.5 3.1-2.1 2.3-3.6 5.2-4.5 8.1-.5 1.5-.8 3-1 4.6-.1.8-.1 1.6-.1 2.4v2.3l-.2 17.9v1.3h1.4l38.3.2c12.8.1 25.5.1 38.3 0 12.8-.1 25.6-.1 38.3-.3 12.8-.2 25.6-.5 38.3-.7h.6v-.5zm-77.2-1.6H61.8l-37 .2-.1-16.6v-2.2c0-.7 0-1.4.1-2.1.1-1.4.4-2.8.8-4.2.8-2.7 2.1-5.3 3.9-7.5.9-1.1 2-2.1 3.1-2.9 1.1-.9 2.4-1.6 3.7-2.3 2.6-1.4 5.3-2.5 8.1-3.5 5.6-2 11.4-3.4 17.1-5.1 2.9-.8 5.8-1.7 8.5-3.1 1.3-.7 2.7-1.5 3.8-2.6 1.1-1.1 2-2.4 2.6-3.9 1.2-2.9 1.5-5.9 1.6-8.9 0-3-.1-6-.2-9l-1.3-34.8 23.5.4c7.7.1 15.4.1 23.1.1-.4 7.9-.8 15.9-1.1 23.8-.2 4.2-.2 8.4-.3 12.6 0 4.2-.2 8.5.8 12.8.5 2.1 1.3 4.2 2.8 6 1.4 1.7 3.4 2.9 5.3 3.8 3.9 1.9 8 2.8 12.1 3.8s8.2 2 12.2 3.3c4 1.3 7.9 2.8 11.5 5 3.2 1.9 5.8 4.7 7.5 8 .9 1.6 1.5 3.4 1.9 5.2.2.9.4 1.8.4 2.7.1.5.1.9.1 1.4V200l-.3 19c-12.6-.2-25.1-.5-37.7-.7-12.7-.1-25.5-.1-38.2-.2z" fill="#c27b55" stroke-width="none" opacity="1" stroke="none"></path></g><g id="svga-group-clothes-single"><path id="SvgjsPath6484" d="M180.3 220.1c0-17.5-1.6-28.7-1.6-28.7-3.2-15.2-22.5-16.1-31.1-18.5-2.8-.8-13.9-4.5-13.9-4.5-4-8.6-9.1-13.4-9.1-13.4s1.1 16.6-4.8 20.7c-2.8 1.9-8.9 3.1-11.2 5-2.4 2-5.9 10.2-5.9 10.2s-8.5-12.5-10.7-12.3c-4.7.5-8 0-9.2-.4-6.7-2-6.7-23.4-6.7-23.4s-6.5 4.6-9.4 12.4c-3.2 1.4-11 3.2-15 4.7-8.3 3.1-27.5 5.6-30.5 19.6 0 0-1.6 11.2-1.6 28.7l160.7-.1z" fill="#82cbe2" stroke-width="none" opacity="1" stroke="none"></path><path id="SvgjsPath6485" d="M180.6 210.1c0-3.3-.1-6.7-.3-10-.1-1.7-.2-3.3-.3-5l-.2-2.5-.1-1.3c-.1-.4-.2-.9-.3-1.3-.9-3.4-2.8-6.5-5.4-8.9-2.6-2.3-5.7-4-8.9-5.1-3.2-1.2-6.5-2-9.8-2.7 0 0-17.5-4.4-20.3-5.9-1.1-2.4-2.4-4.7-3.9-6.9-.8-1.2-1.6-2.3-2.5-3.4-.9-1.1-1.7-1.9-2.8-2.9-.2-.2-1-.7-1.3-.7-.7-.1-1 .6-1.1 1.3v.1c-.4 3.8-.6 14.2-1.3 15.9-.8 1.7-1.8 3.2-3.2 4-1.5.9-3.4 1.5-5.2 2.2-.9.3-1.9.7-2.8 1.1-1 .4-1.9.9-2.9 1.6-1 .9-1.5 1.7-2.1 2.6-.6.9-1.1 1.8-1.5 2.6l-1.8 3.6c-2.2-3-4.4-6-7-8.7-.4-.4-.8-.8-1.3-1.2-.2-.2-.5-.4-.8-.6-.3-.2-.6-.4-1.2-.4h-.6l-.4.1-.8.1c-.5.1-1.1.1-1.6.1-1.1 0-2.1 0-3.2-.1-1-.1-2.2-.2-3-.5-.8-.3-1.6-1-2.2-1.8-.6-.8-1.2-1.7-1.7-2.6-1-1.9-1.6-13.9-2.3-18.2 0-.1-.1-.1-.1-.2-.2-.2-.5-.2-.7-.1-1.1.8-2.1 1.7-3 2.7s-1.8 2-2.6 3c-.8 1.1-1.5 2.2-2.2 3.3-.7 1.1-1.2 2.2-1.7 3.4-3.8 1.7-10.8 3-14.7 4.4-4 1.4-8.1 2.3-12.2 3.6-4.1 1.3-8.2 2.9-11.8 5.5-1.8 1.3-3.4 2.9-4.8 4.7-1.3 1.8-2.3 4-2.8 6.2v.1c-.3 2.4-.6 4.8-.8 7.2-.2 2.4-.4 4.8-.5 7.2-.1 2.4-.3 4.8-.3 7.2-.1 2.4-.1 4.8-.1 7.2 0 .8.6 1.4 1.4 1.4l40.5.2c13.5 0 27-.1 40.4-.2l40.2-.5 19.9-.3 19.8-.4c.2-3.5.2-6.9.2-10.2zM120.2 177c1-.6 1.9-1.5 2.5-2.4.7-.9 1.2-1.8 1.7-2.8.9-1.9.9-10.8 1.3-13.9.2.3.4.5.7.8.8 1 2.7 3 3.4 4.1 3.5 5.5 5.5 12.6 5.7 14 0 0 2.7 12.7 3.1 17.1-1.7-.8-3.4-1.8-4.9-2.8-2.1-1.4-4.1-2.9-6.1-4.4-2-1.6-3.9-3.1-5.8-4.9-.9-.9-1.8-1.8-2.9-2.5-.7-.4-1.5-.8-2.4-.9 1.2-.2 2.5-.7 3.7-1.4zm-22.1 19.1c-.6-1.7-1.3-3.3-2.2-4.9-.8-1.5-1.7-3-2.8-4.3.4 0 .8.1 1.2.1.9.1 1.9.1 2.8.2h1.7c1 1.4 1.9 2.7 2.8 4.1-1.2 1.4-2.3 2.9-3.4 4.4 0 .2 0 .2-.1.4zm-9.2-16.5c.6 0 1.1 0 1.7-.1l.8-.1H92s.2.1.3.2c.2.1.4.3.5.4.4.3.7.7 1.1 1.1 1.6 1.8 3.2 3.8 4.6 5.8-1.4-.2-2.8-.5-4.3-.7-1.8-.3-3.7-.6-5.5-1-1.8-.4-3.6-.8-5.4-1.3-1.7-.5-3.4-.9-5-1.5l.1-.1c.8-1 1.7-1.9 2.7-2.6.5-.3 1-.6 1.5-.8 1 .3 1.8.4 2.8.5 1.3.2 2.4.2 3.5.2zm-21.7-12.3c.5-1.2 1-2.4 1.6-3.5.6-1.1 1.3-2.2 2.1-3.2s1.6-2 2.6-2.9c.7-.7 1.5-1.4 2.2-2 .1 6.3.8 15.8 1.8 17.9.5 1 1.1 2 1.8 2.9.7.9 1.6 1.8 2.8 2.3.2.1.3.1.5.1-.5.2-1 .4-1.4.7-1.1.6-2 1.6-2.9 2.5-1.8 1.7-3.8 3.3-5.8 4.9s-4 3.1-6.1 4.4c-1.6 1-3.3 2-5 2.8 2.2-18.3 5.7-26.8 5.8-26.9zm-7.7 51.2-38.5.2c0-4.3.1-8.6.2-12.9.1-2.4.2-4.8.4-7.1.2-2.4.4-4.7.6-7.1.4-1.9 1.2-3.8 2.3-5.4 1.1-1.6 2.5-3.1 4.2-4.4.3-.2.5-.4.8-.6 1.6 2.9 3.3 5.7 5 8.5 1.8 2.9 3.6 5.8 5.5 8.7.5.8.9 1.4 1.1 2.2.3.8.5 1.6.6 2.4.4 1.6.6 3.3.8 5l.6 5.1c.2 1.7.3 3.4.5 5.1v-5.1l-.3-5.1c-.1-1.7-.4-3.4-.7-5.1-.2-.9-.4-1.7-.6-2.6-.2-.9-.7-1.7-1.2-2.4-1.9-2.9-3.7-5.8-5.7-8.6-1.8-2.7-3.7-5.4-5.6-8.1 3.1-2.2 6.7-3.7 10.3-5 4-1.4 8.1-2.4 12.2-3.9 3.9-1.6 10.1-2.6 13.9-4.4-1.8 4.4-3.9 10.7-6.6 27.8 0 .2 0 .4.1.6.2.5.8.7 1.3.5 2.4-1.2 4.5-2.6 6.6-4.1 2-1.6 4-3.2 5.9-4.9 1.8-1.7 3.7-3.3 5.3-5.2 1.5.9 3.2 1.6 4.8 2.2 1.8.6 3.6 1.1 5.4 1.5 1.4.3 2.8.5 4.1.6.6 1.7 1.3 3.3 2.2 4.8.9 1.6 1.8 3.1 3 4.5-.1.1-.2.3-.2.5-.1.4-.1.7-.2 1.1-.1.7-.1 1.4-.1 2.1v4.1c.1 2.7.2 5.4.4 8.1l.3 4.1c.1.9.2 1.8.3 2.6-13-.2-26-.3-39-.3zm39.9.3h-.7v-6.7l-.2-8.1c0-1.4-.1-2.7-.1-4 0-.7 0-1.3.1-2s.1-1.2.5-1.8c.6-1.2 1.4-2.3 2.2-3.4l.8-1.1c.1.1.2.2.4.3.6.3 1.3 0 1.6-.6.6-1.3 1.3-2.6 1.9-3.9 1.2 0 2.3-.1 3.4-.3 1.4-.2 2.8-.6 4.2-1-1.8 2.4-3.5 4.9-5.2 7.4-.9 1.3-1.8 2.6-2.7 4l-.7 1-.3.5c-.1.1-.3.5-.3.7-.2.9-.2 1.7-.3 2.5-.1 3.2.1 6.4.3 9.6.2 2.4.4 4.8.7 7.1l-5.6-.2zm40.2.5-34.3-.4-.1-2.4-.1-4.8c-.1-3.2-.2-6.4-.1-9.5 0-.8.1-1.6.2-2.3.1-.2 0-.2.2-.4l.3-.5.6-1c.8-1.4 1.7-2.7 2.5-4.1 1.6-2.6 3.1-5.1 4.6-7.8 1.4-.4 2.8-.9 4.1-1.5 1.3-.6 2.7-1.2 3.9-2l-4.2 1.2c-1.4.4-2.8.9-4.2 1.3l-4.2 1.2c-1 .3-2.1.5-3.1.8.2-.3.3-.7.5-1 .5-.9.9-1.7 1.5-2.5.5-.8 1.1-1.6 1.6-2 .6-.4 1.4-.9 2.3-1.2.9-.4 1.8-.7 2.7-1 .6-.2 1.2-.4 1.8-.7.8.2 1.7.6 2.4 1.1 1.1.7 1.9 1.6 2.7 2.6 1.7 1.9 3.6 3.6 5.4 5.3 1.9 1.7 3.8 3.3 5.9 4.9 2.1 1.5 4.2 2.9 6.6 4.1.2.1.4.1.6.1.5-.1.9-.6.8-1.1-.8-5-3.9-22.1-5.7-26.1 2.6 1.4 26.2 7.5 29.2 8.6 2.1.8 4.2 1.7 6.1 2.9-2 2.7-3.9 5.5-5.8 8.3-1.9 2.8-3.8 5.7-5.7 8.6-.4.7-1 1.5-1.2 2.4-.3.9-.5 1.7-.6 2.6-.3 1.7-.6 3.4-.7 5.1l-.3 5.1c0 1.7-.1 3.4 0 5.1.2-1.7.3-3.4.5-5.1l.6-5.1c.2-1.7.5-3.4.9-5l.6-2.4c.2-.8.6-1.4 1.1-2.2 1.8-2.9 3.7-5.8 5.5-8.7 1.8-2.9 3.5-5.8 5.1-8.7.8.5 1.6 1 2.3 1.6 2.4 2 4.2 4.7 5.1 7.8l.3 1.1.2 1.2.3 2.5.5 4.9c.3 3.3.6 6.6.8 9.9l.5 9.9-40.5-.7zm-37.8-21.9c.7 0 1.2.5 1.2 1.2s-.5 1.2-1.2 1.2-1.2-.5-1.2-1.2.5-1.2 1.2-1.2zm9.1-15.2c.7 0 1.2.5 1.2 1.2s-.5 1.2-1.2 1.2-1.2-.5-1.2-1.2.6-1.2 1.2-1.2zM102 216c.7 0 1.2.5 1.2 1.2s-.5 1.2-1.2 1.2-1.2-.5-1.2-1.2.5-1.2 1.2-1.2z" fill="#49a6c3" stroke-width="none" opacity="1" stroke="none"></path></g><g id="svga-group-head" transform="matrix(1,0,0,1,0,0)"><g id="svga-group-ears-left-move" transform="matrix(1,0,0,1,0,0)"><g id="svga-group-ears-left" transform="matrix(1,0,0,1,0,0)"><path id="SvgjsPath5198" d="M62.2 95.2s-4.4-4.7-5.8-6.2-3.1-4.7-5-4.1c-1.9.5-1.2 2.7-1.3 5.8-.1 3.1.3 9.1 2.2 12.4s2.9 4.5 3.5 8 2.8 4.2 4.1 3.2 4.3-7 4.4-10.2c0-3.2-1.3-7.6-2.1-8.9z" fill="#f0c7b1" stroke-width="none" opacity="1" stroke="none"></path><path id="SvgjsPath5199" d="M63.1 97.3c.3.8.5 1.5.7 2.3.4 1.6.7 3.2.7 4.9 0 .8-.2 1.6-.3 2.3l-.6 2.1c-.5 1.3-1.1 2.6-1.7 3.8-.3.6-.7 1.1-1.1 1.7-.2.2-.5.5-.8.7s-.6.3-.9.3c-.7.1-1.4-.1-2-.7s-1.1-1.4-1.4-2.3l-.2-.7-.1-.7c-.1-.4-.1-.8-.2-1.1-.2-.7-.4-1.5-.6-2.1-.5-1.4-1.3-2.7-2.1-4-.4-.6-.8-1.4-1-2.2-.3-.8-.5-1.6-.7-2.4-.3-1.6-.6-3.2-.7-4.8-.2-1.6-.2-3.2-.2-4.7 0-.8-.1-1.5-.1-2.4 0-.4 0-.8.1-1.3.1-.4.2-.9.5-1.2.2-.3.5-.5.8-.6s.6-.2 1-.2c.7.1 1.3.5 1.9 1 1.1 1 1.9 2.4 2.7 3.5 1.9 2.2 3.7 4.4 5.6 6.5.1.8.4 1.6.7 2.3zm-7-7.9c-1.1-1-1.9-2.3-2.8-3.1-.5-.4-.9-.7-1.4-.8-.4 0-.9.1-1.2.4s-.4.9-.4 1.7v2.3c0 .8-.1 1.5-.1 2.3s0 1.5.1 2.3c.1 1.6.3 3.1.7 4.7.4 1.5 1 3 1.8 4.2.8 1.3 1.7 2.5 2.4 4 .3.8.6 1.6.8 2.4l.3 1.2.1.5.2.5c.2.6.6 1.1 1 1.4s.9.4 1.3.3c.2 0 .4-.1.6-.2.2-.1.3-.3.5-.5.3-.4.7-1 1-1.5.6-1.1 1.2-2.3 1.7-3.5s1-2.5 1.2-3.8c.2-1.4 0-3-.2-4.5-.1-.8-.3-1.6-.5-2.3-.2-.8-.5-1.5-.9-2.1-2.2-2.1-4.2-4-6.2-5.9z" fill="#e1ac8f" stroke-width="none" opacity="1" stroke="none"></path><path id="SvgjsPath5200" d="M50.4 89.6c.5-1.9 2.1-1 3 .4 1.9 2.6 3.2 6.6 3.6 10 0 .1-.1.2-.1.1-.1.1-.2.1-.2-.1-1.2-.5-1.6-.2-1.2.8 0 .3.1.6.3.9.2.5.6 1 .9 1.5.5.8 1.2 1.5 1.7 2.3.2.3 0 .6-.2.4-1.4-1-3.9-4.3-3.2-6.6.3-.8 1-1.1 1.5-.7-1.1-3.6-4-12-5.8-8.8-.2.1-.3-.1-.3-.2z" fill="#d19271" stroke-width="none" opacity="1" stroke="none"></path><path id="SvgjsPath5201" d="M53.3 90.1c-1 2-1.4 4.4-.9 7.1.3 1.5 2.9 9.5 4.9 8.4.2-.1.4.3.2.5-2 1.8-4.2-4.5-4.9-6.5-1.1-3.4-1.4-7.5.5-9.7.1-.1.2 0 .2.2z" fill="#d19271" stroke-width="none" opacity="1" stroke="none"></path></g></g><g id="svga-group-ears-right-move" transform="matrix(1,0,0,1,0,0)"><g id="svga-group-ears-right" transform="matrix(1,0,0,1,0,0)"><path id="SvgjsPath5202" d="M138.08 95.16s4.4-4.7 5.8-6.2 3.1-4.7 5-4.1c1.9.5 1.2 2.7 1.3 5.8.1 3.1-.3 9.1-2.2 12.4s-2.9 4.5-3.5 8-2.8 4.2-4.1 3.2-4.3-7-4.4-10.2c0-3.2 1.3-7.6 2.1-8.9z" fill="#f0c7b1" stroke-width="none" opacity="1" stroke="none"></path><path id="SvgjsPath5203" d="M137.9 95.1c1.9-2 3.8-4.3 5.6-6.5.9-1 1.6-2.4 2.7-3.5.5-.5 1.2-1 1.9-1 .3 0 .7 0 1 .2.3.1.6.3.8.6.2.3.4.8.5 1.2.1.4.1.9.1 1.3 0 .8-.1 1.6-.1 2.4 0 1.5-.1 3.2-.2 4.7-.1 1.6-.4 3.2-.7 4.8-.2.8-.4 1.6-.7 2.4s-.6 1.5-1 2.2c-.7 1.3-1.5 2.7-2.1 4-.3.7-.5 1.4-.6 2.1-.1.4-.1.7-.2 1.1l-.1.7-.2.7c-.3.9-.8 1.7-1.4 2.3-.6.5-1.4.8-2 .7-.3 0-.6-.1-.9-.3-.3-.2-.6-.5-.8-.7-.4-.5-.8-1.1-1.1-1.7-.6-1.2-1.2-2.4-1.7-3.8-.2-.7-.5-1.4-.6-2.1-.2-.7-.3-1.5-.3-2.3 0-1.7.3-3.3.7-4.9.2-.8.4-1.6.7-2.3 0-.8.3-1.6.7-2.3zm.1.1c-.4.6-.6 1.4-.9 2.1-.2.8-.4 1.5-.5 2.3-.3 1.5-.4 3.1-.2 4.5s.7 2.6 1.2 3.8c.5 1.2 1.1 2.4 1.7 3.5.3.5.6 1.1 1 1.5.2.2.3.4.5.5s.4.2.6.2c.4.1.9 0 1.3-.3s.7-.8 1-1.4l.2-.5.1-.5.3-1.2c.2-.8.5-1.6.8-2.4.7-1.5 1.6-2.8 2.4-4 .8-1.2 1.4-2.6 1.8-4.2.4-1.5.6-3.1.7-4.7.1-.8.1-1.6.1-2.3 0-.8-.1-1.5-.1-2.3v-2.3c0-.7-.1-1.4-.4-1.7-.3-.3-.8-.5-1.2-.4-.4 0-.9.4-1.4.8-.9.8-1.8 2.1-2.8 3.1-2.3 2-4.3 3.9-6.2 5.9z" fill="#e1ac8f" stroke-width="none" opacity="1" stroke="none"></path><path id="SvgjsPath5204" d="M149.6 89.6c-.5-1.9-2.1-1-3 .4-1.9 2.6-3.2 6.6-3.6 10 0 .1.1.2.1.1.1.1.2.1.2-.1 1.2-.5 1.6-.2 1.2.8 0 .3-.1.6-.3.9-.2.5-.6 1-.9 1.5-.5.8-1.2 1.5-1.7 2.3-.2.3 0 .6.2.4 1.4-1 3.9-4.3 3.2-6.6-.3-.8-1-1.1-1.5-.7 1.1-3.6 4-12 5.8-8.8.2.1.3-.1.3-.2z" fill="#d19271" stroke-width="none" opacity="1" stroke="none"></path><path id="SvgjsPath5205" d="M146.7 90.1c1 2 1.4 4.4.9 7.1-.3 1.5-2.9 9.5-4.9 8.4-.2-.1-.4.3-.2.5 2 1.8 4.2-4.5 4.9-6.5 1.1-3.4 1.4-7.5-.5-9.7-.1-.1-.2 0-.2.2z" fill="#d19271" stroke-width="none" opacity="1" stroke="none"></path></g></g><g id="svga-group-faceshape-wrap" transform="matrix(1,0,0,1,0,0)"><g id="svga-group-faceshape-single"><path id="SvgjsPath4487" d="M143.6 82c-1.2-30.1-20.8-46.6-43.6-46.6S57.6 51.9 56.4 82c0 .9-.1 1.9-.1 2.8 0 31.9 20.2 68.9 43.7 68.9s43.7-37 43.7-68.9c0-1 0-1.9-.1-2.8z" fill="#f0c7b1" stroke-width="none" opacity="1" stroke="none"></path><path id="SvgjsPath4488" d="M100 153.7c23.5 0 43.7-37 43.7-68.9 0-1 0-1.9-.1-2.8-1.2-30.1-20.8-46.6-43.6-46.6S57.6 51.9 56.4 82c0 .9-.1 1.9-.1 2.8 0 31.9 20.2 68.9 43.7 68.9zm-33.9-33.2c-1.4-3-2.7-6.1-3.8-9.2s-2-6.3-2.8-9.6c-3.1-12.9-3.4-27 1.8-39.4l1.1-2.2c.4-.7.7-1.5 1.1-2.2l1.3-2.1.7-1.1c.2-.3.5-.7.8-1 1-1.3 2-2.6 3.2-3.8.6-.6 1.1-1.2 1.7-1.8l1.9-1.6c5.1-4.2 11.2-6.8 17.5-8.1 1.6-.4 3.2-.5 4.8-.7.8-.1 1.6-.1 2.4-.1l2.4-.1c3.2.1 6.4.4 9.6 1.1.8.2 1.6.3 2.3.5l2.3.7 1.2.4 1.1.5 2.2.9c.7.3 1.4.8 2.1 1.1.7.4 1.5.7 2.1 1.2 1.3.9 2.8 1.7 4 2.8 5.1 4.1 9.3 9.4 12 15.5s4.1 12.8 4.4 19.6c.3 6.7-.5 13.5-2.2 20-1.6 6.5-4 12.8-7 18.8s-6.6 11.5-10.7 16.5c-2.1 2.5-4.4 4.8-6.8 6.8-2.5 2-5.1 3.7-8 4.9-2.8 1.2-5.8 1.9-8.8 1.9s-6-.7-8.8-1.9c-5.7-2.4-10.6-6.8-14.7-11.9-4.2-4.7-7.6-10.4-10.4-16.4z" fill="#c27b55" stroke-width="none" opacity="1" stroke="none"></path></g></g><g id="svga-group-mouth-single-move" transform="matrix(1,0,0,1,0,-1)"><g id="svga-group-mouth-single" transform="matrix(1,0,0,1,0,0)"><path id="SvgjsPath5065" d="M84.13 121.38s.02 2.5 1.11 4.36c0 0 4.32 4.53 9.9 8.4.19.14 8.24 1.16 10.36.41 0 0 8.36-5.19 10.19-9.12 0 0 .66-1.94.41-3.27 0 0-6.34 1.76-9.33 2.2-2.99.45-10.62 0-14.41-.57-3.8-.57-7.27-1.92-8.23-2.41z" fill="#000000" stroke-width="none" opacity="1" transform="translate(0 2)"></path><path id="SvgjsPath5066" d="M106.75 124.35c-2.99.45-10.62 0-14.41-.57-3.79-.57-7.26-1.92-8.22-2.41 0 0 .02 2.5 1.11 4.36l.19.19c1.51 1.07 3.66 2.31 6.2 2.99 5.05 1.36 15.17 1.9 22.14-1.92.58-.32 1.09-.63 1.57-.95.14-.21.25-.43.34-.64 0 0 .66-1.94.41-3.27.01.02-6.34 1.79-9.33 2.22z" fill="#ffffff" stroke-width="none" opacity="1" transform="translate(0 2)"></path><path id="SvgjsPath5067" d="M116.59 121.88c.16-.2 0-.49-.28-.48-1.71.52-2.76.73-4.08 1.09-1.18.32-9.11 1.01-11.89.99-9.17-.2-13.39-1.67-16.1-2.4-.22-.06-.44.18-.34.34-.21 1.26 1.06 4.43 1.06 4.45 2.41 3.32 6.15 6.2 9.6 8.45 2.45 1.59 9.23 1.33 10.89.76 2.36-.89 4.78-3.17 6.36-4.68 1.46-1.4 3.54-4 4.23-5.1.29-.44.46-.97.57-1.48.13-.52.3-1.38-.02-1.94zm-5.54 8.28c-2.42 2.24-5.67 3.61-5.82 3.62-1.9.17-3.8.26-5.72.19-1.36-.05-4.19-.4-4.31-.48-1.83-.93-3.63-2.15-5.26-3.53-1.59-1.34-3.52-2.92-4.56-4.42-.65-1.11-1.02-2.25-.86-3.72 4.7 2.47 10.68 3.54 15.92 3.58 2.85.02 5.63-.36 8.4-.92 2.13-.43 5.04-.89 7-2.08-.03.32-.02.66-.07.97-.09.56.23 2.27-4.72 6.79z" fill="#da7c87" stroke-width="none" opacity="1" transform="translate(0 2)" stroke="none"></path></g></g><g id="svga-group-eyes-left-move" transform="matrix(1,0,0,1,0,0)"><g id="svga-group-eyes-left" transform="matrix(1,0,0,1,0,0)"><g id="svga-group-eyesback-left"><path id="SvgjsPath5236" d="M89.5 94.7s-.9-1.9-2.9-3.3c-2-1.3-4.8-2.7-9-1.7-4.2 1-6.6 3.3-8.1 5.3 0 0 .4.5 1.4 1.1 1 .6 4.7 2.7 8.8 2.5 4.1-.2 7.8-2.5 8.5-2.9.7-.3 1.3-1 1.3-1z" fill="#ffffff" stroke-width="none" opacity="1"></path></g><g id="svga-group-eyesiriswrapper-left" transform="matrix(1,0,0,1,0,0)"><g id="svga-group-eyesiriscontrol-left" transform="matrix(1,0,0,1,0,0)"><g id="svga-group-eyesiris-left" transform="matrix(1,0,0,1,0,0)"><path id="SvgjsPath3490" d="M80.1 88.4c2.8 0 5.2 2.3 5.2 5.2s-2.3 5.2-5.2 5.2-5.2-2.3-5.2-5.2 2.3-5.2 5.2-5.2z" fill="#7b5c33" stroke-width="none" opacity="1" stroke="none"></path><path id="SvgjsPath3491" d="M80.1 90.8c1.5 0 2.8 1.2 2.8 2.8s-1.2 2.8-2.8 2.8-2.8-1.2-2.8-2.8 1.2-2.8 2.8-2.8z" fill="#000000" stroke-width="none" opacity="1"></path><path id="SvgjsPath3492" d="m79.4 91.3-.6-.6c-.2-.2-.4-.3-.7-.3-.2 0-.5.1-.7.3-.2.2-.3.4-.3.7s.1.5.3.7l.6.6c.2.2.4.3.7.3.2 0 .5-.1.7-.3.3-.5.4-1.1 0-1.4zm2.5 4.7c.9 0 .9-1.4 0-1.4s-.8 1.4 0 1.4z" fill="#ffffff" stroke-width="none" opacity="1"></path></g></g></g><g id="svga-group-eyesfront-left"><path id="SvgjsPath5244" d="M69.4 94.6c0 6.4 4.7 11.5 10.6 11.5s10.6-5.2 10.6-11.5S85.9 83.1 80 83.1s-10.6 5.1-10.6 11.5zm.1.5c1.5-1.9 4-4.3 8.1-5.3s7 .4 9 1.7c2 1.3 2.9 3.3 2.9 3.3s-.6.6-1.3 1.1c-.7.4-4.4 2.7-8.5 2.9-4.1.2-7.8-1.9-8.8-2.5-.9-.7-1.4-1.2-1.4-1.2z" fill="#f0c7b1" stroke-width="none" opacity="1" stroke="none"></path><path id="SvgjsPath5245" d="M89 91.7c-4.4-3.6-9.7-4.3-15-2.6-.2.1-.3-.2-.1-.3 5-2.2 11.3-.9 15.2 2.8.1 0 0 .1-.1.1z" fill="#e1ac8f" stroke-width="none" opacity="1" stroke="none"></path><path id="SvgjsPath5246" d="M68.9 96c.2-.2.5-.4.7-.6 5.1 5.2 15 4.5 20-.4 0 0 0 .1.1.1.1.2.4 0 .3-.2 0-.1-.1-.1-.1-.2.1-.1 0-.3-.2-.3-2.1-3.6-6.3-5.4-10.4-5.2-3.9.2-9.2 2.8-10.7 6.6-.2.3.1.4.3.2zm.9-.8c1.2-1.1 2.2-2.4 3.7-3.3 1.6-1 3.3-1.7 5.2-2 4.2-.7 8.4 1.3 10.6 4.8-2.8 2.1-5.9 3.6-9.5 3.7-3.9.1-6.7-1.3-10-3.2z" fill="#000000" stroke-width="none" opacity="1" stroke="none"></path></g></g></g><g id="svga-group-eyes-right-move" transform="matrix(1,0,0,1,0,0)"><g id="svga-group-eyes-right" transform="matrix(1,0,0,1,0,0)"><g id="svga-group-eyesback-right"><path id="SvgjsPath5237" d="M110.5 94.7s.9-1.9 2.9-3.3c2-1.3 4.8-2.7 9-1.7 4.2 1 6.6 3.3 8.1 5.3 0 0-.4.5-1.4 1.1-1 .6-4.7 2.7-8.8 2.5-4.1-.2-7.8-2.5-8.5-2.9-.7-.3-1.3-1-1.3-1z" fill="#ffffff" stroke-width="none" opacity="1"></path></g><g id="svga-group-eyesiriswrapper-right" transform="matrix(1,0,0,1,0,0)"><g id="svga-group-eyesiriscontrol-right" transform="matrix(1,0,0,1,0,0)"><g id="svga-group-eyesiris-right" transform="matrix(1,0,0,1,0,0)"><path id="SvgjsPath3493" d="M119.9 88.4c2.8 0 5.2 2.3 5.2 5.2s-2.3 5.2-5.2 5.2-5.2-2.3-5.2-5.2 2.4-5.2 5.2-5.2z" fill="#7b5c33" stroke-width="none" opacity="1" stroke="none"></path><path id="SvgjsPath3494" d="M119.9 90.8c1.5 0 2.8 1.2 2.8 2.8s-1.2 2.8-2.8 2.8-2.8-1.2-2.8-2.8 1.3-2.8 2.8-2.8z" fill="#000000" stroke-width="none" opacity="1"></path><path id="SvgjsPath3495" d="m119.3 91.3-.6-.6c-.2-.2-.4-.3-.7-.3-.2 0-.5.1-.7.3-.2.2-.3.4-.3.7s.1.5.3.7l.6.6c.2.2.4.3.7.3.2 0 .5-.1.7-.3.3-.5.4-1.1 0-1.4zm2.5 4.7c.9 0 .9-1.4 0-1.4s-.9 1.4 0 1.4z" fill="#ffffff" stroke-width="none" opacity="1"></path></g></g></g><g id="svga-group-eyesfront-right"><path id="SvgjsPath5247" d="M120 83.1c-5.9 0-10.6 5.2-10.6 11.5s4.7 11.5 10.6 11.5 10.6-5.2 10.6-11.5-4.8-11.5-10.6-11.5zm9.1 13.1c-1 .6-4.7 2.7-8.8 2.5-4.1-.2-7.8-2.5-8.5-2.9-.7-.4-1.3-1.1-1.3-1.1s.9-1.9 2.9-3.3c2-1.3 4.8-2.7 9-1.7s6.6 3.3 8.1 5.3c0 .1-.5.6-1.4 1.2z" fill="#f0c7b1" stroke-width="none" opacity="1" stroke="none"></path><path id="SvgjsPath5250" d="M111 91.7c4.4-3.6 9.7-4.3 15-2.6.2.1.3-.2.1-.3-5-2.2-11.3-.9-15.2 2.8-.1 0 0 .1.1.1z" fill="#e1ac8f" stroke-width="none" opacity="1" stroke="none"></path><path id="SvgjsPath5251" d="M131.5 95.8c-1.5-3.8-6.8-6.4-10.7-6.6-4.1-.2-8.3 1.6-10.4 5.2-.1 0-.3.2-.2.3 0 .1-.1.1-.1.2-.1.2.2.4.3.2 0 0 0-.1.1-.1 5 5 14.9 5.7 20 .4.2.2.4.4.7.6.1.2.4.1.3-.2zm-11.3 2.6c-3.6-.1-6.7-1.7-9.5-3.7 2.2-3.6 6.4-5.5 10.6-4.8 1.8.3 3.6 1 5.2 2 1.5.9 2.5 2.2 3.7 3.3-3.3 1.9-6.1 3.3-10 3.2z" fill="#000000" stroke-width="none" opacity="1" stroke="none"></path></g></g></g><g id="svga-group-facehighlight-single"></g><g id="svga-group-eyebrows-left-move" transform="matrix(1,0,0,1,0,-1)"><g id="svga-group-eyebrows-left-rotate" transform="matrix(1,1.7453292519943295e-9,-1.7453292519943295e-9,1,1.4176201545978984e-7,-1.3606350535155798e-7)"><g id="svga-group-eyebrows-left" transform="matrix(1,0,0,1,0,0)"><path id="SvgjsPath3339" d="M67 82.5c.1-.3.3-.6.5-.8.1-.2.3-.5.5-.7.2-.2.4-.4.7-.6.5-.9 1.7-1.6 2.5-2.1.9-.5 1.8-.9 2.9-.9 1-.2 2.1-.2 2.9.2.4 0 .7.1 1 .3 1.1-.1 2.3.2 3.3.4 1.4.3 2.8.6 4.1 1.2 1.4 0 2.8.1 4.1.5h.2c.1 0 .2.1.2.1h.1c.1 0 .2.1.3.2.1.1 0 .3 0 .4v.1c0 .2 0 .4-.1.6 0 .6-.1 1.1-.5 1.6 0 .1 0 .2-.1.3-.1.5-.2 1.1-.7 1.4-.2.2-.5.3-.8.3-.1 0-.2 0-.3-.1h-.6c-.6.2-1.4 0-1.9-.1-.6-.1-1.2-.3-1.7-.6-1.8-.3-3.5-.8-5.3-1.2-1.6-.4-4-.4-5.4-1.3-.7.1-1.3.2-2 .2-.3 0-.7.1-1.1 0-.2 0-.5 0-.7-.2 0 0-.1 0-.1-.1h-.1l-.4.4c-.3.3-.7.7-1.2.8-.1.2-.3 0-.3-.3z" fill="#6b4e40" stroke-width="none" opacity="1" stroke="none"></path><path id="SvgjsPath3340" d="M87.7 83c-.1-.6-.2-1.2-.4-1.7 0-.2.2-.3.3-.1.7 1 .9 2.8.2 3.9-.1.2-.3.1-.3-.1.1-.8.2-1.4.2-2zm-3.4-3.2c1.3.8 2.1 2.6 2.1 4 0 .2-.3.3-.3.1-.2-.7-.4-1.3-.7-1.9-.3-.7-.9-1.2-1.3-1.9-.3-.2 0-.4.2-.3zm-3.3-.7c2.2.8 3.8 3.2 4.2 5.3 0 .2-.2.2-.3.1-.4-1-.9-2-1.7-2.8-.7-.9-1.6-1.4-2.5-2.2-.2-.1.1-.5.3-.4zm-4.9-.8c2.4.6 4.8 2.6 5.8 4.7.1.2-.3.4-.4.2-.8-1-1.6-1.9-2.6-2.7-.9-.7-2-1.2-3-1.8-.2-.1-.1-.4.2-.4zM67.4 82c1.6-1.8 3.8-4.3 6.5-4 .2 0 .2.3 0 .3-2.6.2-4.3 2.5-6.3 3.9-.2.1-.4-.1-.2-.2z" fill="#7a6155" stroke-width="none" opacity="1" stroke="none"></path><path id="SvgjsPath3341" d="M90.9 80.6c-.1-.3-.5-.3-.6 0-.3 1.1-.3 2.4-1.2 3.3-.6.7-1.5.8-2.4.7.3-1.5.2-3.7-.8-4.9-.2-.2-.5-.1-.4.2 0 .8.4 1.6.5 2.4.1.8.2 1.5.2 2.3-.1 0-.2 0-.3-.1-.3-2-1.3-4.1-2.8-5.5 2.3.5 4.6.9 6.9 1.1.1 0 .2-.2.1-.2-2.6-.9-5.3-1.4-8-2-2.4-.5-5.1-1.4-7.6-1.5-2.1-.1-3.6.9-5 2.2-1.5 1.4-3.1 3.1-4.1 4.9l-.2.2c-.1.1-.2.3-.1.4 0 0 0 .1-.1.1-.2.4.3.7.6.4.1 0 .2 0 .3-.1 1.4-.7 2.5-1.4 4.1-1.6 1.3-.2 2.7-.1 4 .1 2.9.4 5.6 1.3 8.3 2.1 2.1.6 4.9 1.7 6.9.2 1.7-1 1.9-3.1 1.7-4.7zm-13.4 1.3c-.5-.1-1.1-.2-1.7-.3.1-1.1-.3-2.3-.8-3.3.7.6 1.4 1.2 2 1.9.6.6.9 1.4 1.5 2-.4-.1-.7-.2-1-.3zM70 79.5c1.2-1.1 2.5-1.7 4-1.9.2.8.6 1.6.7 2.4l.3 1.5c-.3 0-.7-.1-1-.1-.5-.9-1.3-1.8-2.3-2.1-.2-.1-.3.2-.2.4.4.4.9.8 1.3 1.2.1.2.2.3.4.5-1.9-.1-3.8.1-5.4.8.6-1 1.3-1.9 2.2-2.7zm15.2 4.8c-.2-.1-.4-.1-.6-.2-.4-.1-.9-.3-1.3-.4-.8-1.8-2.1-3.6-3.7-4.8-.2-.1-.4.1-.3.2 1.2 1.4 2.2 2.9 3.3 4.4-1.1-.4-2.2-.7-3.2-1.1-.2-1.1-1.2-2.2-1.9-3-.7-.7-1.5-1.4-2.4-1.9.4 0 .8.1 1.3.1 2 .3 4 .8 6 1.2v.1c.7 1.1 1.5 2.2 2.1 3.3.2.7.4 1.4.7 2.1z" fill="#5c3d2e" stroke-width="none" opacity="1" stroke="none"></path></g></g></g><g id="svga-group-eyebrows-right-move" transform="matrix(1,0,0,1,0,-1)"><g id="svga-group-eyebrows-right-rotate" transform="matrix(1,1.7453292519943295e-9,-1.7453292519943295e-9,1,1.4176202967064455e-7,-2.127084570702209e-7)"><g id="svga-group-eyebrows-right" transform="matrix(1,0,0,1,0,0)"><path id="SvgjsPath3342" d="M133 82.5c-.1-.3-.3-.6-.5-.8-.1-.2-.3-.5-.5-.7-.2-.2-.4-.4-.7-.6-.5-.9-1.7-1.6-2.5-2.1-.9-.5-1.8-.9-2.9-.9-1-.2-2.1-.2-2.9.2-.4 0-.7.1-1 .3-1.1-.1-2.3.2-3.3.4-1.4.3-2.8.6-4.1 1.2-1.4 0-2.8.1-4.1.5h-.2c-.1 0-.2.1-.2.1h-.1c-.1 0-.2.1-.3.2-.1.1 0 .3 0 .4v.1c0 .2 0 .4.1.6 0 .6.1 1.1.5 1.6 0 .1 0 .2.1.3.1.5.2 1.1.7 1.4.2.2.5.3.8.3.1 0 .2 0 .3-.1h.6c.6.2 1.4 0 1.9-.1.6-.1 1.2-.3 1.7-.6 1.8-.3 3.5-.8 5.3-1.2 1.6-.4 4-.4 5.4-1.3.7.1 1.4.2 2 .2.3 0 .7.1 1.1 0 .2 0 .5 0 .7-.2 0 0 .1 0 .1-.1h.1l.4.4c.3.3.7.7 1.2.8.1.2.3 0 .3-.3z" fill="#6b4e40" stroke-width="none" opacity="1" stroke="none"></path><path id="SvgjsPath3343" d="M112.3 83c.1-.6.2-1.2.4-1.7 0-.2-.2-.3-.3-.1-.7 1-.9 2.8-.2 3.9.1.2.3.1.3-.1-.1-.8-.2-1.4-.2-2zm3.4-3.2c-1.3.8-2.1 2.6-2.1 4 0 .2.3.3.3.1.2-.7.4-1.3.7-1.9.3-.7.9-1.2 1.3-1.9.3-.2 0-.4-.2-.3zm3.3-.7c-2.2.8-3.8 3.2-4.2 5.3 0 .2.2.2.3.1.4-1 .9-2 1.7-2.8.7-.9 1.6-1.4 2.5-2.2.2-.1-.1-.5-.3-.4zm4.9-.8c-2.4.6-4.8 2.6-5.8 4.7-.1.2.3.4.4.2.8-1 1.6-1.9 2.6-2.7.9-.7 2-1.2 3-1.8.2-.1.1-.4-.2-.4zm8.7 3.7c-1.6-1.8-3.8-4.3-6.5-4-.2 0-.2.3 0 .3 2.6.2 4.3 2.5 6.3 3.9.2.1.4-.1.2-.2z" fill="#7a6155" stroke-width="none" opacity="1" stroke="none"></path><path id="SvgjsPath3344" d="M110.6 85.3c2 1.5 4.8.4 6.9-.2 2.8-.8 5.5-1.8 8.3-2.1 1.3-.2 2.7-.3 4-.1 1.6.2 2.7.9 4.1 1.6.1.1.2.1.3.1.3.3.8 0 .6-.4 0 0 0-.1-.1-.1 0-.1 0-.3-.1-.4l-.2-.2c-1-1.8-2.6-3.5-4.1-4.9-1.4-1.3-2.9-2.3-5-2.2-2.5.1-5.2 1-7.6 1.5-2.7.6-5.4 1.1-8 2-.2.1-.1.2.1.2 2.3-.2 4.6-.6 6.9-1.1-1.5 1.4-2.5 3.5-2.8 5.5-.1 0-.2 0-.3.1.1-.8.1-1.5.2-2.3.1-.8.5-1.6.5-2.4 0-.2-.3-.3-.4-.2-1 1.2-1.1 3.4-.8 4.9-.9.1-1.7 0-2.4-.7-.8-.9-.9-2.2-1.2-3.4-.1-.3-.5-.3-.6 0 0 1.7.2 3.8 1.7 4.8zm10.9-3.2c.5-.6.9-1.4 1.5-2 .6-.7 1.3-1.3 2-1.9-.5 1-.9 2.3-.8 3.3-.6.1-1.2.2-1.7.3-.3.2-.6.3-1 .3zm10.8 0c-1.6-.7-3.6-.9-5.4-.8.1-.2.2-.3.4-.5.4-.5.9-.8 1.3-1.2.1-.1.1-.4-.2-.4-1 .3-1.8 1.2-2.3 2.1-.3 0-.7.1-1 .1l.3-1.5c.2-.8.5-1.6.7-2.4 1.4.2 2.7.8 4 1.9.8.9 1.5 1.8 2.2 2.7zm-16.7.2c.6-1.2 1.4-2.2 2.1-3.3v-.1c2-.4 4-.9 6-1.2.4-.1.9-.1 1.3-.1-.9.5-1.7 1.2-2.4 1.9-.7.8-1.7 1.9-1.9 3-1.1.3-2.2.7-3.2 1.1 1-1.5 2.1-2.9 3.3-4.4.1-.2-.1-.3-.3-.2-1.6 1.2-2.9 3-3.7 4.8-.4.1-.9.3-1.3.4-.2.1-.4.1-.6.2.2-.8.4-1.5.7-2.1z" fill="#5c3d2e" stroke-width="none" opacity="1" stroke="none"></path></g></g></g><g id="svga-group-beardwrap" transform="matrix(1,0,0,1,0,0)"><g id="svga-group-beard-single-move" transform="matrix(1,0,0,1,0,-3)"><g id="svga-group-beard-single" transform="matrix(0.9499999,0,0,0.9499999,5.017571947660443,6.319953206897736)"><path id="SvgjsPath6314" d="M144.2 93c-1.2-3.7-2.7-2.1-3.2-.7-.5 1.4-1.7 12.2-2.9 17.1-1.8 7.6-11 16.3-12.6 15.4s1.1-4.9-1.8-7.7c-1.9-1.9-13.8 1.1-23.5 1.2-6.2.1-19.7-4.1-23.8-1.2-2.8 1.9-1.6 6.6-2.1 7.8s-7.8-6.6-9.6-10.8c-1.8-4.3-4.3-19.4-4.6-22.4-.3-3-2.5-2.8-3-1.6-.6 1.4-2.5 6.4-2.9 12.8-.5 7.6-.5 19.6 1.8 28 2.3 8.4 8 13.9 8 13.9l.3-1.4s5.3 8.7 12.6 12.6c7.3 3.9 19.6 6.8 19.6 6.8l-.8-2.1 4 2.7 10.1-2.2-1.6 1.3s9.7-.3 22.2-8.5c5-3.7 8.7-10.7 9.6-13.3l.4 1.8s4.1-11.4 5.1-18.1l.5.7c0-.1 2.8-18.2-1.8-32.1zm-29.1 45.8c-4.1 4.8-27.5 3.5-31.4-1.4-3-3.7-4.4-15.1-1.2-15.4 0 0 32.5-.6 35 .3 2.4.9 1.7 11.8-2.4 16.5z" fill="#6b4e40" stroke-width="none" opacity="1" stroke="none"></path><path id="SvgjsPath6315" d="M58.2 89.7c.1-.3-.3-.5-.5-.3-2.7 4.2-3.8 9.6-4 14.5 0 .2.3.3.3 0 .8-4.9 2.5-9.4 4.2-14.2zm-.9 9.3c0-.2-.2-.2-.3 0-1.4 6.2-1 12.9 0 19.2 0 .2.3.1.3 0-.5-6.5-.2-12.7 0-19.2zm.8-5.2c-.2 2.8-.5 5.7-.5 8.5 0 .2.3.3.3.1.4-2.8.5-5.7.6-8.5 0-.3-.4-.3-.4-.1zm1.5 21.2c-.3-3.7-.6-7.4-.5-11.2 0-.4-.5-.4-.6 0-.1 3.8-.1 7.5.6 11.2.2.3.6.2.5 0zm.7 12.2c0 .2.4.2.4-.1-.2-3.6-.5-7.1-.5-10.7 0-.2-.3-.2-.3 0-.3 3.6-.3 7.3.4 10.8zm2.7 6.4c-.6-3.2-1.2-6.4-1.2-9.7 0-.4-.6-.4-.6 0 0 3.3.3 6.7 1.4 9.8.2.2.5.1.4-.1zm-3.4-33.3c-.2-3.8-.2-7.4.2-11.1 0-.2-.3-.2-.3 0-.8 3.7-.9 7.6-.2 11.2 0 .2.3.1.3-.1zm1.4 3.4c-.1-2.9-.4-5.8-.8-8.6 0-.2-.3-.2-.3 0 .2 2.9.3 5.8.7 8.7.1.1.4.1.4-.1zm2.3 10.3c-.4-3-1-6.1-1.4-9.1 0-.2-.4-.2-.4.1.3 3.1.6 6.1 1.4 9.1.1.2.5.1.4-.1zm2.9 5.5c-.8-2.7-1.6-5.3-2.1-8.1-.1-.3-.5-.2-.4.1.5 2.8 1.2 5.5 2.3 8.1 0 .1.2 0 .2-.1zm2.6 4.5c-.7-2.5-1.6-5-2.2-7.5-.1-.3-.6-.2-.5.1.6 2.5 1.3 5.2 2.4 7.5 0 .3.3.1.3-.1zm2.3 3.2c-1.1-2.6-2.3-5.1-3.2-7.9-.1-.2-.4-.1-.4.1.7 2.7 1.6 5.6 3.2 7.9.2.3.5.1.4-.1zm2.1 1.9c-.7-1.9-1.7-3.6-2.3-5.5-.1-.3-.6-.2-.5.1.6 1.9 1.3 4 2.4 5.6.1.2.5.1.4-.2zm12 12.4c-.4-.6-.8-1.3-1.2-1.9 1.2 1.7 2.5 3.3 4.1 4.6.2.2.4-.1.3-.3-1.6-2-3.4-3.8-4.9-5.9-.1-.1-.3-.1-.4-.1-1.8-3.9-2.4-8-3-12.5 0-.3-.5-.3-.5 0 .2 5.7.9 12.1 5.1 16.5.3.1.7-.2.5-.4zm4.1 1.9c1 1.5 2.1 3 3.4 4.2.1.1.3 0 .2-.2-1-1.5-2.2-2.8-3.2-4.3-.1-.2-.5 0-.4.3zm3.7 1.5c-.4-.7-1.1-1.3-1.6-1.9s-.9-1.4-1.3-2.1c-.2-.3-.6 0-.4.3.7 1.4 1.7 3.2 3 4.1.2.1.5-.1.3-.4zm3.5-1.4c.6 3.1 1.2 6.3 2.3 9.3.1.3.4.1.4-.1-.5-3.1-1.4-6.2-2.2-9.3-.1-.4-.6-.3-.5.1zm4.1 10.5c0-1.3-.4-2.5-.7-3.8-.3-1.6-.5-3.3-.7-5 0-.2-.3-.2-.3 0 0 2.8.1 6.3 1.3 8.8.1.2.4.1.4 0zm1.1.4c-.1-2.7-.6-5.3-1-8 0-.3-.5-.2-.5.1.3 2.6.5 5.4 1.1 8 0 .2.4.1.4-.1zm11.8-13.3c-.9 2.6-2.3 5.1-3.2 7.8-.1.2.2.2.3.1 1.6-2.2 2.6-5.1 3.5-7.7 0-.4-.5-.5-.6-.2zm6.8-4.8c-1.3 3.1-2.7 6.2-4 9.4-.1.2.2.3.3.1 1.7-3 3-6.1 4.3-9.3.2-.5-.4-.6-.6-.2zm-31.7 20.9c.1.1.2-.1.2-.2-2.3-2.6-4-5.2-4.4-8.7 0-.2-.4-.2-.3 0 .2 3.3 1.6 6.8 4.5 8.9zm-19.4-13.8c-.3-1.1-.9-2.2-1.4-3.2-.5-1.2-1-2.5-1.3-3.8-.1-.2-.4-.1-.3.1.6 2.3 1.3 5.1 2.8 7 0 .1.2 0 .2-.1zm-2-.3c.1.1.3-.1.2-.2-1.2-1.9-1.9-4.2-2.3-6.4 0-.2-.3-.1-.3.1.2 1.4.5 2.8 1 4.2.4.8.6 1.8 1.4 2.3zm31.5 15.4c-.3-1.2-.9-2.3-1-3.6 0-.2-.4-.2-.4 0 .1 1.2.3 2.8 1.2 3.8.1 0 .2-.1.2-.2zm1.1.2c0-1.1-.4-2.3-.5-3.4 0-.2-.4-.2-.3 0 .1 1.1.1 2.5.6 3.5 0 .1.1 0 .2-.1zm1.7-.8c0-.9-.3-1.8-.4-2.6 0-.2-.4-.2-.4 0 .1.9.1 1.9.5 2.7.1.1.3 0 .3-.1zm4.8 1.4c-1.1.7-2.1 1.6-3.2 2.3-.2.1-1.3.7-2.2 1.1.4-.3.8-.7 1.1-.9.9-.8 1.9-1.6 2.6-2.6.1-.1-.1-.3-.2-.2-.9.7-1.8 1.5-2.7 2.3l-.1.1c1.3-1.5 2.5-3.2 3.4-5 .1-.1-.1-.3-.2-.2-.5.6-1 1.3-1.5 2-.1 0-.2 0-.3.1-.8.7-1.6 1.3-2.3 2l-.1.1c-.1-.1-.1-.2-.2-.4.4-.4.7-.9 1.1-1.3.3-.4-.2-1-.6-.6-.4.5-.8.9-1.2 1.4l-.1.1c-.2.3-.5.5-.7.8-.3-1-.8-2.1-1.2-3-.1-.2-.3-.3-.4-.2-.3-.5-.5-1-.8-1.5-.4-1-.8-1.9-1.1-2.9-.1-.2-.4-.1-.3.1.4 1.6 1 3.4 2 4.8l.8 1.9v.1c-.1-.1-.2-.1-.3-.2-.3-.2-.7.1-.4.4.4.3.8.7 1.2 1 0 0 0 .1.1.1-.3.3-.7.6-1 .9-.2-1-.7-1.9-1.1-2.9-.4-1.1-.6-2.1-.9-3.2-.1-.4-.7-.2-.7.2.1.3.1.6.2 1-.5-.7-1-1.4-1.3-2.2-.5-1-.9-2.1-1.3-3.2-.1-.2-.4-.1-.3.1.6 2 1.3 4.6 3.1 6 .3 1.4.7 2.9 1.4 4.1-.2-.1-.4-.2-.6-.4-.3-.6-.7-1.1-.9-1.7-.5-1-.8-2-1.1-3-.1-.2-.3-.3-.5-.2-.2-.5-.5-1-.7-1.5-.2-.6-.4-1.3-.6-2-.1-.2-.4-.1-.3.1.2 1.2.6 2.6 1.3 3.7v.2c.3 1.1.6 2.4 1.2 3.6 0 0-.1 0-.1-.1-.3-.5-.7-1-1-1.5-.4-.6-.7-1.2-1.1-1.9l.2.2c.1.1.2 0 .2-.1-.2-.7-.7-1.3-1-1.9-.4-.8-.8-1.6-1-2.4-.1-.2-.4-.1-.3.1.2.8.5 1.7.9 2.5-.2 0-.4.2-.3.4l.3.6c-.9-1.5-1.6-3.1-2.3-4.8-.1-.2-.4-.1-.3.1.5 1.3 1 2.6 1.6 3.8.4.9.8 1.8 1.7 2.3.2.5.4.9.7 1.4-.4-.2-.8-.5-1.1-.8-.1 0-.1-.1-.2 0-.2-.3-.4-.6-.6-1v-.1c-.5-1.1-1.2-2.1-1.8-3.1-.6-1-1.1-2.1-1.6-3.2-.1-.2-.4-.1-.3.1.7 1.8 1.5 3.9 2.8 5.4-.1.1-.1.2 0 .3.6 1.1 1.2 2.1 1.9 3.1-3.1-2.8-6-5.6-8.4-9.2-.2-.3-.7 0-.5.3 2 3.3 4.6 6.6 7.8 8.9-.4-.2-.8-.3-1.2-.5-3.3-3.2-6.5-6.2-9.2-10-.3-.4-.9 0-.6.4 2 3.1 4.5 6.3 7.4 8.7-.1-.1-.2-.1-.4-.1-2.1-1.7-4.1-3.2-5.8-5.1.1-.1.1-.2 0-.3-.8-1.1-1.6-2.2-2.5-3.3-.1-.1-.1-.2-.2-.4 0-.1-.1-.1-.2-.1-.7-.8-1.3-1.7-1.9-2.5.4.5.8.9 1.2 1.4l.9 1.2c.1.1.2 0 .2-.1l.2.2c.2.2.6-.1.4-.3-3.2-4.4-6.4-8.7-8.5-13.9-.1-.3-.7-.2-.6.1.4 1.1.8 2.1 1.2 3.1-.2-.2-.6 0-.5.3.2.6.4 1.2.7 1.8 0 0 0-.1-.1-.1-.1-.3-.6-.1-.5.2 1.1 2.6 2.4 5.1 3.9 7.5-1.3-1.9-2.5-4-3.4-6.2-.1-.3-.7-.1-.6.2 2 5 4.8 10 9.1 13.5.1.1.3.1.3 0 .6.7 1.2 1.3 1.9 1.9-.3-.1-.6-.3-1-.5-1.7-1.6-3.4-3.1-4.9-4.9-.1-.1-.1-.1-.2-.1-2.1-2.6-4.1-5.3-5.5-8.4-.2-.4-.8-.1-.6.4 1.5 3.4 3.4 6.8 6.2 9.3.4.4.9.9 1.3 1.2.4.4.8.9 1.2 1.3-1-.5-1.9-1.1-2.8-1.8-1-1.6-2.3-3-3.3-4.6-1.1-1.6-2-3.2-2.9-4.9-.2-.5-.9-.1-.7.4 1 2.1 2.2 4.5 3.8 6.5l-.5-.5h-.1c-1.6-2.4-3.3-4.8-4.7-7.4-.1-.1-.2-.1-.3-.1-.2-.5-.4-1-.7-1.5-.1-.1-.3-.1-.2.1.2.6.5 1.2.7 1.8 0 .1.1.2.1.3.5 1.2 1.1 2.3 1.7 3.4.7 1.3 1.5 2.6 2.3 3.8-.6-.5-1.1-1-1.6-1.6v-.1c-1.2-2.2-2.5-4.2-3.6-6.4-.8-2.4-1.6-4.7-2.1-7.2 0-.3-.5-.2-.5.1.2 1.2.5 2.4.8 3.6-.2-.1-.5.1-.4.4.4 1.2.8 2.4 1.3 3.5-.1-.2-.2-.4-.4-.7-.1-.2-.2-.4-.2-.6-.6-1.6-1.1-3.4-1.6-5 0-.1-.1-.1-.1-.2-.6-2.4-1.1-4.7-1.3-7.2 0-.3-.5-.3-.4 0 .2 2.5.5 5.1 1.2 7.5.5 1.8.9 3.8 1.6 5.6-.1-.1-.1-.2-.2-.3-.3-1-.7-2.1-1-3.1-.4-1.3-.8-2.7-1.1-4 0-.1-.1-.2-.2-.2-.2-2.2-.7-4.4-.8-6.7 0-.2-.3-.2-.3 0 0 1.3 0 2.6.2 4-.3-2-.6-4-.5-6.1 0-.2-.3-.2-.3 0-.1 1.8-.2 3.8.2 5.7-1.1-2.2-.9-5.3-1.2-7.7 0-.2-.3-.2-.3 0 .1 1.7.2 3.3.3 5-.2-.3-.7-.2-.7.2-.3-1.1-.2-2.7-.3-3.6 0-1.3 0-2.6.1-3.8 0-.2-.3-.2-.3 0-.2 2-.3 3.9-.1 5.9.1.7 0 1.8.6 2.3v1.7c-.3-1.4-.6-2.8-.8-4.2l.1-.1c-.5-2.9-.5-5.5-.3-8.4 0-.2-.2-.2-.3 0-.2 1.9-.5 4-.3 6v1.8c-.7-5.7-1-11.3-.8-17.1 0-.2-.3-.2-.4 0-.7 7.2-.3 14.6 1.4 21.7 0 .2.2.2.3.1.7 3.9 1.9 7.7 4 10.9.1.1.4.1.3-.1-.5-1.4-1-2.8-1.4-4.2.1 0 .1-.1.1-.2-.3-.9-.5-1.8-.6-2.6.3.9.7 1.8 1.1 2.7.1.2.1.5.2.8 0 .1.1.1.2.1.7 1.4 1.5 2.8 2.3 4.1.1.2.2.3.3.5 0 .1.1.1.2.1.6.8 1.2 1.5 1.9 2.2.2.4.5.7.8 1.1.1.1.3.1.3-.1 2.3 3.5 5.3 6.6 9.4 7.9h.2c3.5 2.5 7.6 4.1 11.8 5.2.2.1.3-.2.1-.3-1-.4-1.9-.9-2.9-1.3-.2-.2-.4-.3-.6-.5 2.8 1.6 5.9 2.8 8.9 3.8.2.2.4.4.7.5.3.1.5-.2.3-.4 0-.1 0-.2-.1-.2-.1-.1-.2-.1-.2-.2-.6-.6-1.1-1.3-1.6-2l1.2.9c.4.6 1 1.1 1.6 1.5.2.1.4-.1.3-.3-.1-.1-.1-.2-.2-.3.2.2.3.4.5.6.2.2.5.1.6-.1.2.1.4.1.6.2l-.4.4c-.2.3.1.7.4.5.9-.4 1.7-1.1 2.4-1.9.1.1.1.1.2.1h.1c-.2.2-.4.4-.6.7-.2.2.1.5.4.4.8-.4 1.4-1 2-1.6-.1.2-.2.3-.4.5-.1.2 0 .4.1.4-.6.4-1.2.9-1.6 1.5 0 .1 0 .1.1.1h.1c0 .1.1.1.1.1.9.3 2.6-.9 3.3-1.3 1.3-.8 2.7-1.7 3.7-2.9 0-.1-.2-.3-.3-.2zM60 137.2c-.2-1.3-.5-2.6-.7-3.9 0-.3-.5-.2-.5.1.1.5.2 1 .2 1.6-.3-.8-.6-1.6-.9-2.5 0-.1 0-.1-.1-.1v-1.8c.1 1 .2 1.9 1 2.5h.2c.1.4.2.9.4 1.3.1.2.4.2.3-.1 0-.2 0-.4-.1-.6.1.7.2 1.3.5 1.9-.1.1-.1.2-.1.3.2 1 .4 2.1.7 3.2-.2-.5-.5-1.2-.9-1.9zm39.4 24.1c-.1-.1-.1-.2-.2-.2.2-.3.5-.5.7-.8.1.1.2.2.2.3-.2.2-.4.5-.7.7zm25.6-8.9c2.1-2 3.3-5.1 4-7.8.1-.3-.3-.4-.4-.1-.8 2.9-2.2 5.2-3.8 7.8-.1 0 .1.2.2.1zm4.2-4.3c-2 3.1-4.3 5.8-6.7 8.4-.3.1-.5.3-.8.4 1.1-1.3 2.1-2.7 3-4 .2-.3-.2-.6-.4-.3-1.6 2.2-3.6 4-5.5 5.9-.3.1-.6.3-.9.4l.2-.2c1.1-.8 2.1-1.7 3.1-2.6.3-.3-.1-.8-.5-.5-.2.2-.5.4-.7.6.2-.3.4-.6.6-1 0 .1.1.1.2.1 2.7-1.5 4.6-4.6 5.6-7.5.1-.2-.3-.3-.4-.1-1.2 2.9-3.1 4.9-5.2 7.1.1-.2.3-.4.4-.6.1-.1 0-.3-.1-.4.4-.7.8-1.4 1.1-2.1.1-.2-.2-.3-.3-.1-.8 1.7-1.9 3.1-3.2 4.4.1-.1.1-.2.2-.4.6-1.2 1.2-2.3 1.9-3.5.2-.4-.3-.7-.5-.4-1.1 2-2.6 4.2-3.2 6.4v.1c-.1 0-.1-.1-.2-.1 0-.1-.1-.2-.1-.3 1.1-1.8 1.8-3.9 2.4-6 .8-.9 1.5-1.9 1.7-3.1 0-.1-.2-.2-.2-.1-.3.5-.6 1.1-.9 1.7-.1.2-.2.4-.4.6 0-.1.1-.2.1-.3.1-.4-.5-.6-.6-.2-.7 2.7-1.8 5.1-3.1 7.5-1 .7-2.1 1.4-3.1 2 1.6-1.3 3-3.1 4.1-4.8.2-.2-.2-.5-.3-.2-.7 1-1.6 2-2.4 2.9-.2.1-.5.2-.7.4.4-.4.8-.9 1.2-1.3.3-.4-.3-.8-.6-.4-1.1 1.2-2.3 2.3-3.6 3.3l-1.2.6c-.2.1-.2.2-.1.3-1 .6-2.1 1.2-3 1.9-.2.1 0 .5.2.4 1.9-.5 3.8-1.7 5.4-3.2l1.2-.6c-.2.2-.3.4-.5.6-.2.2.1.4.3.3-.9.6-1.8 1.1-2.7 1.7l-.1.1c-.1.2.1.5.3.4 1.2-.4 2.4-.9 3.6-1.5 0 .2.2.4.3.3.5-.3 1.1-.6 1.6-1 .1.1.2.1.4.1.4-.3.8-.6 1.2-1 0 .1.1.2.3.1-.3.3-.7.6-1 1-.2.2 0 .6.3.4.6-.4 1.2-.8 1.8-1.3 0 .2.2.4.5.3.1 0 .1-.1.2-.1-.1.1-.2.2-.3.4-.2.2.1.4.3.3.6-.4 1.2-.9 1.8-1.4 3.3-1.6 6.2-4 7.9-7.1.2-.3-.2-.6-.5-.3-1.4 1.7-2.9 3.2-4.4 4.5 2.1-2.4 3.9-5.2 5.4-7.8.2-.1-.2-.4-.4-.1zm-8.7 10.5c-.3.2-.7.3-1.1.5.3-.3.6-.5.9-.8.3-.1.6-.3.8-.4-.1.2-.3.5-.6.7zm-15.9-.5c1.3-2 2.7-3.9 3.8-6 .1-.1-.1-.2-.2-.1-1.6 1.7-2.9 3.8-4.1 5.9-.1.2.3.5.5.2zm1.3-.5c1-1.2 2.2-2.4 3-3.8.1-.1-.1-.2-.2-.1-1.2 1.1-2.1 2.5-3.1 3.7 0 .1.2.4.3.2zm1.4-.2c1.2-.8 2.5-1.8 3.1-3.1.1-.1-.1-.2-.2-.1-.5.5-.9 1-1.4 1.5-.5.5-1.1 1-1.7 1.5 0 .1.1.3.2.2zm9.9-6c-1 1.1-1.8 2.3-3 3.2-.2.1.1.4.2.3 1.2-.9 2.4-2 3-3.4.1-.1-.1-.2-.2-.1zm-2.4.9c-1.1 1.1-2.1 2.5-3.1 3.7-.1.2.1.4.2.2 1.1-1.2 2.2-2.4 3-3.8.1-.1 0-.2-.1-.1zm-2.6 1.1c-1 1.2-1.8 2.5-3.1 3.5-.2.1.1.4.2.2 1.2-.9 2.4-2.2 3-3.6.1-.1-.1-.2-.1-.1zm-1.5 2.6c-.9 1.6-2.4 2.7-3.6 4-1.2.8-2.4 1.6-3.4 2.6-.2.1 0 .4.2.4 2.1-.9 3.8-2.4 5.6-3.8.3-.2.1-.6-.2-.6.7-.7 1.4-1.5 1.8-2.5-.1-.2-.4-.2-.4-.1zm21.2-9.8c1.6-2.7 1.8-6 1.9-9 0-.3-.4-.3-.4 0-.3 3.1-.7 6-1.7 8.9-.1.1.1.2.2.1zm-3.2 2.8c1.4-2 2.2-4.6 2.7-6.9.1-.2-.3-.3-.3-.1-.6 2.4-1.6 4.6-2.6 6.9-.1.2.2.2.2.1zm11-14.7c-.7 3.2-1.7 6.2-2.8 9.2-.1 0-.2.1-.2.2-1.5 3.2-3 6.1-5.2 8.8 1.9-3.5 3.5-7.2 4.7-11.1.1-.4-.4-.6-.6-.2-.9 2.5-2 4.9-3.1 7.3-.1 0-.1 0-.2.1-2.2 3.7-4.9 6.7-8.2 9.4-.2.2 0 .6.3.4 2.4-1.3 4.5-3.3 6.1-5.5-.2.4-.4.9-.6 1.4-.2.3-.3.7-.5 1-.1.2.2.4.4.2.2-.3.4-.6.5-.9 1.5-1.3 2.9-2.8 4.1-4.5.1.1.3.2.4 0 2.7-4.8 4.4-10.1 5.5-15.5 0-.5-.5-.6-.6-.3zm-21.3-16.2c1.8 2.6 1.6 5.9 2.2 8.9 0 .2.3.1.3 0 .2-2.9-.5-6.6-2.2-9.1-.2-.1-.4 0-.3.2zm2.3.3c.9 4.7.7 9.2.9 13.8 0 .2.3.2.3 0 .5-4.6.3-9.5-.9-13.9 0-.2-.3-.1-.3.1zm2.1 28.9c-.8 1.1-1.3 2.3-2.1 3.3-.1.1.1.3.3.2.8-1 1.7-2.2 2-3.4.1-.1-.1-.2-.2-.1zm2.3-1.4c-.8 1.2-1.3 2.4-2.3 3.5-.2.2.1.4.3.3 1-1 2-2.3 2.3-3.6 0-.3-.2-.4-.3-.2zm-1.8-28.5c.2 0 .3-.1.3-.3.9 2.4.9 5 .6 7.6-.1-2-.5-4-1.1-5.9-.1-.2-.3-.1-.3.1.7 2.9.9 5.8 1 8.7-.2 1.3-.3 2.6-.4 3.9 0 .3.4.3.4.1 1.2-4.6 2.1-10.4 0-14.9-.1-.2-.4-.1-.4.2l-.1-.1c-4.7-1.1-9.3.1-14 .9-7.3 1.3-14-.1-21.2-1.1-.1 0-.2.2-.1.2 5.6 1.3 11 3.1 16.8 2.7 1.2-.1 2.5-.2 3.7-.4 1 0 1.8.8 2.6 1.5-3.1-.1-6.3.1-9.4.5-.1-.1-.2-.2-.4-.2-1.9.3-3.8.4-5.6.5.2-.3.5-.5.6-.9.1-.1-.1-.2-.2-.1-.3.2-.5.5-.7.8v.2c-.6 0-1.2 0-1.8.1.2-.4.4-.9.7-1.3.3-.4.7-.7 1.1-1.1.1-.1 0-.3-.1-.2-1.1.3-1.8 1.5-2.1 2.6-1.9 0-3.8-.1-5.7-.2.7-1.4 2.6-1.9 3.8-2.6.1-.1.1-.2-.1-.2-1.5.1-3.6 1.2-4.2 2.8h-.6c-.4 0-.9-.1-1.3-.1 1-1.1 2.4-1.5 3.6-2.2.1-.1 0-.2-.1-.2-1.5.3-3.1 1.1-4 2.4-.5 0-.9 0-1.4.1.3-.6.7-1.2 1.1-1.7.6-.6 1.3-.9 2-1.4.1-.1 0-.2-.1-.2-1.6.3-2.9 1.8-3.4 3.3-.7.1-1.3.4-1.9.8.2-1.9 2.1-3.4 3.3-4.8.1-.1 0-.3-.2-.2-1.7.8-3.7 3.2-3.5 5.3l-.6.6c-.1.2.1.4.3.2.1-.1.3-.2.4-.3 0 .1 0 .1.1.2.1.2.4.1.3-.1 0-.1 0-.2-.1-.3 1-.6 2.2-.8 3.4-.8.1.1.1.1.2 0 2.8-.1 6 .8 8.4.9 2.4.1 4.9.1 7.2-.8 5.8.4 14.9-2.1 18.5 3.1.1.1.2.2.3.1 0 .7.1 1.3.1 2-1.2 6-3.1 11.5-6.2 17-.1.2.2.4.4.2 2.3-3.3 4.2-7 5.3-10.9-.3 1.7-.8 3.4-1.3 5 0 .1 0 .3.2.3-1.4 3.3-3.1 6.4-5.1 9.6-.1.2.2.4.3.2 4.3-5.5 7-12.4 8.4-19.2.1-.3-.4-.5-.5-.1-.2.7-.3 1.4-.5 2 .3-2.1.3-4.1 0-6.1v-.3c0-.1-.1-.2-.1-.2-.1-.5-.2-1.1-.4-1.6 0-.1-.2-.2-.3-.2-.5-1.9-1.7-3.8-3-5.3 2.5 0 4.8-.3 7.1-.2zm-9.4 3.3c-.6-.8-1.6-1.5-2.5-2-.2-.1-.4.2-.2.3.6.3 1.1.7 1.6 1.2l.5.5c-.5 0-1 0-1.5-.1-.4-.4-.8-.7-1.2-1.1l-.9-.6 3.9-.6c1.4.7 2.3 1.8 3.2 3.1-1-.4-1.9-.6-2.9-.7zm5.2 3.5c-.4-1.2-1.2-2.1-2.2-2.6v-.1c-.4-1.4-1.6-2.6-2.9-3.2.7-.1 1.3-.2 2-.3v.1c1.6 1.8 2.3 3.8 3.1 6.1zm6.8 7.9c.8-1.7 1.2-3.6 1.3-5.4 0-.2-.4-.2-.4 0-.2 1.8-.7 3.6-1.2 5.3 0 .2.2.3.3.1zm19.5-28.4c.1-4.5-.9-9-2.5-13.2-.1-.3-.6-.1-.5.2 1.3 4.3 2 8.6 2.5 13.1 0 .3.5.2.5-.1zm-.4-9c-.1-.3-.5-.2-.5.1 1.1 6.2 1.7 12.3 2.1 18.5 0 .2.3.2.3 0 .4-6.3-.4-12.5-1.9-18.6zm1 18.8c-1 7.9-2.5 15.5-4 23.3 0 .2.3.3.3.1 2.7-7.3 4-15.5 4.2-23.3 0-.3-.4-.4-.5-.1zm-6 20.2c.1.2.3.1.3-.1 0-.9-.2-1.8-.4-2.6-.2-1-.3-2-.5-3-.1-.2-.4-.2-.4.1.1.9.2 1.9.4 2.8.1 1 .2 2 .6 2.8zm.9-1.5c.3-1.5-.1-3.1-.4-4.6-.1-.2-.4-.1-.3.1.3 1.5.2 2.9.4 4.4 0 .3.3.4.3.1zm2.3-15c.2.8.3 1.6.4 2.4.1.6 0 1.3.2 1.9 0 .1.2.1.2 0 .4-1.3-.2-3.2-.6-4.4.1-.2-.2-.2-.2.1zm.5-1.1c.4 1.2.4 2.7 1 3.9.1.1.2.1.2-.1.1-1.3-.6-2.7-1-3.9 0-.2-.3-.1-.2.1zm2.3-7.6c.2-1.6-.3-3.4-.7-4.9-.1-.2-.4-.1-.3.1.4 1.6.4 3.3.8 4.9-.1.1.1 0 .2-.1zm-1.7-1.3c.6 2.9.8 5.8 1.3 8.8 0 .2.3.1.3 0 .1-2.9-.6-6-1.3-8.8-.1-.3-.3-.2-.3 0zm-1.2.8c.7 3.3 1.3 6.8 2.1 10.1.1.2.4.2.4-.1-.4-3.4-1.3-6.8-2.1-10.1-.1-.2-.4-.1-.4.1zm1.9-2.2c-.1-.2-.4-.1-.3.1.5 2.3.7 4.7 1.3 7 0 .2.3.1.3 0 0-2.4-.7-4.8-1.3-7.1zm-2.8 15.8c.1.7.2 1.5.3 2.2.1.6.1 1.3.3 1.9.1.2.3.1.3 0 .1-1.3-.3-2.9-.6-4.2 0-.2-.3-.1-.3.1zm.7-2.4c.1.8.2 1.7.2 2.5 0 .6 0 1.3.1 1.9 0 .2.2.1.3 0 .4-1.4 0-3.2-.3-4.6-.1 0-.3.1-.3.2zm-.6 6.7c-.7 5.8-1.8 11.4-3.1 17.1-.1.3.3.4.4.1 1.9-5.5 2.9-11.3 3.2-17.2-.1-.2-.5-.2-.5 0zm-11.5 1.4c.1-1.4 0-2.9 0-4.4 0-.2-.3-.2-.3 0 0 1.4-.1 2.9 0 4.4 0 .2.3.2.3 0zm-52.1-2.6c-.4-2.2.8-3.9 1.8-5.8.1-.1-.1-.3-.2-.2-1.4 1.7-2.5 3.8-1.8 6-.1.2.2.2.2 0zm-.2 6.8c.1.1.3.1.3-.1-1.1-3.3-1.9-6.6-2.1-10.1 0-.3-.4-.3-.4 0 .1 3.5.8 6.9 2.2 10.2zm3.9 16.9c-2-3.6-4.3-7.9-5.8-12.4 0 0 .1-.1 0-.2-.6-2.3-1.3-4.5-1.8-6.9-.3-1.9-.3-3.9-.1-5.8.2 4.8 1.4 9.4 3.7 13.8.1.2.4 0 .3-.2-2.3-5-3.5-10.2-3.6-15.7.3-1.1.6-2.1 1.1-3.2.1-.2-.2-.4-.3-.2-1.6 2.7-2.2 5.8-2.3 9.1-.3-.6-.6-1.2-.8-1.8-.1-.2-.4 0-.3.2.4.9.8 2 1.2 2.9.2 3.2.9 6.4 2 9.5-.3-.8-.7-1.5-1-2.3-.1-.2-.5-.1-.4.1 1.7 4.4 3.8 8.7 6.8 12.3.1.1.1.1.2 0 .2.3.5.6.7.9.2.5.5.2.4-.1zm59.5-47.5c.1-1.8-.1-3.6-.2-5.4 0-.2-.4-.2-.3 0 .2 1.8.2 3.6.3 5.4 0 .1.2.1.2 0zm-2.4 19.8c.4-4.2.3-8.4.2-12.6 0-.3-.5-.3-.5 0 0 4.2-.1 8.4 0 12.6-.1.2.2.2.3 0zm-1.6 2.1c.4-3.9.2-8.1-.1-12 0-.2-.3-.2-.4 0-.2 3.9-.5 8.1-.1 12 .2.3.6.3.6 0zm-2.3 2.7c.4-3.2.3-6.5.4-9.8 0-.2-.3-.2-.3 0-.2 3.2-.6 6.5-.5 9.8-.1.3.3.3.4 0zm-2.4-.3c.3-1.4.4-2.9.6-4.4 0-.3-.4-.3-.4 0-.2 1.4-.4 2.9-.5 4.4 0 .1.2.2.3 0zm5 7.2c0-.2-.3-.2-.3 0 0 2.5-.6 4.7-1 7.1 0 .1.1.2.2.1 1-2.2 1.1-4.8 1.1-7.2zm-2.9 4.8c-.2 1.3-.5 2.6-.9 3.9-.4 1.1-.9 2.1-1.3 3.3 0 .1.1.2.2.1 1.6-1.9 2.1-4.9 2.4-7.3 0-.3-.3-.2-.4 0zm1.2-1.7c-.1.9-.3 1.9-.5 2.8-.2.7-.4 1.4-.4 2.2 0 .1.2.2.2.1.8-1.4.9-3.5 1-5.1.1-.2-.3-.2-.3 0z" fill="#5c3d2e" stroke-width="none" opacity="1" stroke="none"></path></g></g></g><g id="svga-group-mustache-single-move" transform="matrix(1,0,0,1,0,0)"><g id="svga-group-mustache-single" transform="matrix(1,0,0,1,0,0)"></g></g><g id="svga-group-nose-single-move" transform="matrix(1,0,0,1,0,-2)"><g id="svga-group-nose-single" transform="matrix(1,0,0,1,0,0)"><path id="SvgjsPath3525" d="M105.06 106.65c.56.92 2.64 3.61 3.09 4.9.45 1.29-.13 3.22-1.48 3.61s-3.61-.39-3.93-.19c-.32.19-1.87 2.06-2.58 1.93-.71-.13-2.64-2.13-3.03-2.13-.39 0-2.13.45-2.97.45-.84 0-2.9-.71-2.64-2.51.26-1.81 2.45-5.54 2.9-6.06.45-.52 1.48-2.32 1.74-3.42s.58-7.03.71-8.38c.13-1.35 1.35-2.97 2.58-3.09 1.23-.13 3.35.77 3.55 2.9.19 2.13.58 6.38.77 8.12.19 1.74.58 2.71 1.29 3.87z" fill="#f0c7b1" stroke-width="none" opacity="1" transform="translate(0 1)" stroke="none"></path><path id="SvgjsPath3526" d="M97.62 85.76c-.84 3.5-.96 7.24-1.34 10.81-.4 3.83-1.14 7.78-1.09 11.63 0 .31.48.39.55.07.78-3.52.88-7.26 1.24-10.84.39-3.82 1.1-7.79.98-11.63 0-.18-.29-.24-.34-.04z" fill="#c27b55" stroke-width="none" opacity="1" transform="translate(0 1)" stroke="none"></path><path id="SvgjsPath3527" d="M94.46 106.19c-1.03 1.37-1.9 2.87-2.65 4.41-.49 1-1.09 2.17-.77 3.32.53 1.89 2.93 2.49 4.5 1.58.47-.27.26-.99-.27-1-.92-.01-1.98.28-2.72-.5-.88-.94-.01-2.63.38-3.57.58-1.39 1.28-2.72 1.83-4.12.07-.19-.2-.26-.3-.12z" fill="#c27b55" stroke-width="none" opacity="1" transform="translate(0 1)" stroke="none"></path><path id="SvgjsPath3528" d="M94.31 113.98c2.84-.21 3.38 3.37 6.07 3.45 2.31.07 2.5-3.41 4.69-3.3.26.01.34-.35.13-.47-2.49-1.47-2.95 2.86-5.24 2.59-1.36-.16-2.32-2.16-3.54-2.73-.83-.39-1.43-.36-2.23.02-.22.09-.11.46.12.44z" fill="#c27b55" stroke-width="none" opacity="1" transform="translate(0 1)" stroke="none"></path><path id="SvgjsPath3529" d="M104.29 115.6c1.87.42 4.05-.16 4.49-2.24.22-1.04-.13-2.07-.67-2.95-.89-1.44-2.03-2.66-2.87-4.15-.14-.25-.49-.12-.51.14-.11 1.67 1.13 2.83 2.02 4.12.82 1.19 1.53 2.83.15 4-.63.54-1.83.44-2.6.59-.26.04-.25.43-.01.49z" fill="#c27b55" stroke-width="none" opacity="1" transform="translate(0 1)" stroke="none"></path><path id="SvgjsPath3530" d="M102.45 109.98c-.41-.74-1.47-.85-2.06-.26-.05.05-.24.29-.3.36-.07.09-.2.26-.23.29-.07.1-.12.21-.18.32l-.12.28c0-.01-.01.01-.03.05-.06.06-.12.13-.18.2-.18.19-.36.38-.5.6-.42.67-.08 1.42.48 1.84.87.65 2.13.13 2.74-.61.76-.89.96-2.03.38-3.07z" fill="#f8d5c3" stroke-width="none" opacity="1" transform="translate(0 1)" stroke="none"></path></g></g><g id="svga-group-hair-front" transform="matrix(1,0,0,1,0,0)"><path id="SvgjsPath3566" d="M55.5 85.1s3.2 7.7 4.5 7.8c0 0 .1-5.2.4-8.8s.7-12.8 8.1-21.6 12.9-11.7 12.9-11.7S91 57 97.5 57.3s16.9.1 25.8-6.7c0 0 6.7 7.4 10 16.1s5.4 16.8 5.5 22.7.6 6.4 2.8 3.8 2.8-8 2.8-8 .1-12.4-2.3-19.4-5.4-15.4-13.7-21.8-16.2-9.1-21.7-10c-5.5-1-15.8-.3-23.8 2.9S67.8 45.3 63 53s-7 16.6-7.3 23.6-.2 8.5-.2 8.5z" fill="#6b4e40" stroke-width="none" opacity="1" stroke="none"></path><path id="SvgjsPath3567" d="M135.7 50.7C128.4 40.5 115 33.6 102.5 33c-13.7-.7-28.7 5.2-37.3 16-8.2 10.2-11 23.7-10 36.6 0 .2.1.3.2.3.2.7.5 1.3.8 2.1.4 1 .8 2 1.3 3 .5 1.2 1.4 2.8 2.9 2.4.4 0 .8-.3.8-.8 0-8.1.3-16.9 4.2-24.1 3.8-7 10.2-12 16.3-17 5.5 4.7 13.2 7 20.2 7.1 7.1.1 16.4-2.1 21.6-7.4 9 12.9 14.9 26.6 14.7 42.6 0 .2.1.3.2.4.2 2 2.9.8 3.7-.3 1.4-1.9 1.6-4.5 2.1-6.9.3-.1.5-.3.5-.7 1-12.2-1.8-25.6-9-35.6zm3.9 43c.3-15.2-4.8-32-15.4-43.2l.1-.1c.4-.5-.1-1.1-.6-.8-3.6 1.7-6.5 4-10.3 5.4-3.7 1.3-7.6 2-11.4 1.9-8.2-.1-14.8-3.5-21.6-7.7-.3-.2-.7.3-.4.6.2.3.5.5.8.8-6.5 5-13.3 10.3-17 17.8-3.6 7-4 15.4-4.1 23.2-1.6-1.8-1.9-4.9-3.7-6.5-.6-12 2-24.4 9.2-34.1 8.4-11.3 23.5-17.3 37.4-16.6 12.8.7 26.7 8.5 33.4 19.4 5.9 9.6 8.2 21.5 7.5 32.7-.5.8-.8 1.8-1.1 2.9-.3.8-1.2 4.5-2.8 4.3zM91.8 52.6C86.7 50.1 83 47 80 42.1c-.2-.3-.7-.1-.6.2 1.7 5.2 6.6 9.8 12.1 10.8.4.1.7-.3.3-.5zm5.5-.2c-3.1-.9-6-2.2-8.3-4.5-.3-.3-.8.2-.5.5 2.3 2.6 5.3 4.3 8.8 4.5.2.1.3-.4 0-.5zm9.4-.3c-1.7-.2-3.2-.4-4.8-1-.3-.1-.5.4-.2.5 1.5.6 3.3 1 4.9.9.4 0 .4-.4.1-.4zm-31.5 1.5c-1.5-.4-2.6-1.2-3.8-2.1-.3-.2-.6.2-.4.5 1 1.2 2.6 1.8 4.1 2 .3.1.4-.4.1-.4zm-3.6 2.5c-.6-.2-1.2-.6-1.8-.7-.2 0-.4.2-.2.3.5.4 1.1.6 1.7.8.3.3.6-.2.3-.4zm62.6 1.5c.1-.3-.2-.6-.5-.5-.4.1-.8.4-1.3.5-.5.1-1 .1-1.4 0-.6-.2-.8.7-.3 1 1.1.4 3 .3 3.5-1zm.5 3.3c-.5 0-1.1.2-1.6.3-.3.1-.2.6.1.5.5-.1 1.1-.2 1.5-.5.3-.1.2-.3 0-.3zm3.9 7.9c-.5 0-.9.2-1.3.5-.5.2-.1 1 .4.7.4-.2.8-.4 1.1-.8.2-.2 0-.4-.2-.4z" fill="#5c3d2e" stroke-width="none" opacity="1" stroke="none"></path><path id="SvgjsPath3568" d="M101 48.2c-4.7-1.2-8.7-3.4-11.6-7.3-.2-.3-.7 0-.5.3 2.8 4 7 7 12 7.4.3 0 .3-.3.1-.4zm-13.8-3.7c-1.7-1.2-3.1-2.2-3.9-4.2-.1-.3-.5-.2-.4.1.6 1.9 2.1 4 4.2 4.5.2.1.3-.2.1-.4zm9.7 4.8c-1.6-.8-3.2-1.5-4.6-2.5-.1-.1-.3.1-.2.2 1.4 1.1 3 2.2 4.7 2.6.2.1.4-.2.1-.3zm11.9 5.2c-2.6.4-4.9.6-7.5.1-.2 0-.3.3-.1.4 2.5.6 5.2.8 7.7 0 .2-.2.1-.5-.1-.5zm8.2-7.2c-3.8 1-7.7 2.2-11.7 1.5-.2 0-.3.3-.1.3 4.1 1 8 0 11.9-1.5.2-.1.1-.4-.1-.3zm-9.7-4c-2.2-.3-4.3-.5-6.5-1.2-.3-.1-.4.3-.1.4 2.1.8 4.3 1.3 6.6 1.1.2 0 .2-.3 0-.3zm-31.7 8.2c-1.5-.9-2.9-1.8-4.1-3-.2-.2-.4.1-.2.2 1.1 1.3 2.6 2.5 4.2 3.1.2.1.3-.2.1-.3zM68.7 56c-1.2-.9-2.6-1.6-3.8-2.6-.2-.2-.6.1-.4.4 1.2 1 2.5 2.1 4.1 2.6.2.1.3-.2.1-.4zm-2.4 2.4c-.7-.5-1.6-.7-2.4-1.1-.3-.1-.6.3-.3.5.8.4 1.6.8 2.5 1 .3.1.4-.3.2-.4zm-3.5 4c-.3-.4-.7-.8-1.1-1.1-.2-.2-.6.1-.4.4.4.4.7.7 1.1 1 .3.2.6 0 .4-.3zm69.2-8.8c-.8.5-1.5.9-2.5.8-.3 0-.3.5 0 .5 1 .1 2.1-.2 2.8-1 .2-.1-.1-.4-.3-.3zm6.3 8.5c-.6-.2-1.2-.1-1.8-.1-.4 0-.4.6 0 .6.6 0 1.2.1 1.8-.1.2 0 .2-.3 0-.4zm-.1 3.7c-.5-.1-1-.1-1.5-.1-.3 0-.3.5 0 .5.5 0 1 0 1.5-.1.3.1.3-.2 0-.3zM98.8 35.2c-4.8-.5-10.2-.7-14.5 2-.2.1-.1.6.2.5 4.7-2 9.3-1.9 14.3-2 .3 0 .3-.5 0-.5zm36.3 17.7c-.1-.2-.4 0-.3.2 4.6 8.4 7.2 17.1 8.7 26.5 0 .3.5.2.5-.1-.7-9.5-4-18.5-8.9-26.6z" fill="#7a6155" stroke-width="none" opacity="1" stroke="none"></path></g><g id="svga-group-glasses-single-move" transform="matrix(1,0,0,1,0,0)"><g id="svga-group-glasses-single" transform="matrix(1,0,0,1,0,0)"></g></g></g></g></g><rect id="svga-credit-rect" width="200" height="15" x="0" y="185" fill="#ecf0f1" opacity="0.5" style="display: none;"></rect><text id="svga-credit-text" font-family="Avenir Next, Roboto, Helvetica, Arial, sans-serif" font-size="10px" text-anchor="start" font-weight="400" size="10px" anchor="start" weight="400" fill="#333333" x="33.40447998046875" y="182.60824704170227" style="display: none;"><tspan id="SvgjsTspan3125" dy="13" x="33.40447998046875">Created on AvatarMaker.com</tspan></text></g></svg>