<svg xmlns="http://www.w3.org/2000/svg" version="1.1" width="600px" height="600px" xlink="http://www.w3.org/1999/xlink" style="overflow:hidden!important;"><g id="svga-group-wrapper" transform="scale(3 3)"><g id="svga-group-backs-single"><path stroke="none" opacity="1" stroke-width="none" fill="#036564" d="M225 225H-25V-25h250V225z" id="SvgjsPath4620"></path><path opacity="1" stroke-width="5" stroke="#005655" fill="none" d="M0-5v210M10,205V-5 M20,205V-5 M30,205V-5 M40,205V-5 M50,205V-5 M60,205V-5 M70,205V-5 M80,205V-5 M90,205V-5 M100,205V-5 M110,205V-5M120,205V-5 M130,205V-5 M140,205V-5 M150,205V-5 M160,205V-5 M170,205V-5 M180,205V-5 M190,205V-5 M200,205V-5" id="SvgjsPath4621"></path></g><g id="svga-group-subwrapper"><g id="svga-group-hair-back"><path stroke="none" opacity="1" stroke-width="none" fill="#cac1b2" d="M100.5,100.5h-1v-1h1V100.5z" id="SvgjsPath4633"></path></g><g id="svga-group-humanbody-single"><path stroke="none" opacity="1" stroke-width="none" fill="#b36a33" d="M195.417 199.778c-2.196-4.746-8.195-11.779-14.86-13.722 -8.239-2.403-26.837-5.308-33.733-6.923 -5.528-1.296-16.662-11.294-20.564-14.65 -0.7-0.6-1.273-1.839-1.287-2.76 -0.139-10.864 4.195-39.724 4.195-39.724H100 70.833c0 0 4.334 28.859 4.193 39.724 -0.011 0.921-0.587 2.16-1.285 2.76 -3.902 3.356-15.036 13.354-20.564 14.65 -6.897 1.615-25.495 4.619-33.733 7.022 -6.667 1.942-12.664 8.876-14.86 13.622 -3.708 8.008-4.584 22.5-4.584 35h100 100C200 222.278 199.123 207.786 195.417 199.778z" id="SvgjsPath4473"></path><path stroke="none" opacity="1" stroke-width="none" fill="#c27e4b" d="M159.156 184.058c24.342 3.542 34.586 8.708 37.794 50.721H200c0-12.5-0.877-26.992-4.583-35 -2.196-4.746-8.195-11.779-14.86-13.722 -8.239-2.403-26.837-5.308-33.733-6.923 -5.528-1.296-18.242-12.069-21.643-16.35 3.36 4.704 12.791 15.605 21.054 18.46C150.188 182.61 153.48 183.232 159.156 184.058zM53.766 181.244c8.263-2.854 17.693-13.756 21.054-18.46 -3.4 4.28-16.114 15.054-21.643 16.35 -6.896 1.615-25.494 4.619-33.733 7.022 -6.665 1.942-12.664 8.876-14.86 13.622 -3.706 8.008-4.583 22.5-4.583 35h3.05c3.188-41.744 13.475-47.183 37.794-50.721C46.52 183.232 49.813 182.61 53.766 181.244z" id="SvgjsPath4474"></path><path stroke="none" opacity="1" stroke-width="none" fill="#a4581e" d="M95.646 197.62c0 0-5.074-1.609-7.083-2.379 -10.449-4.009-44.395-6.607-44.395-6.607s35.754 1.419 43.644 2.779c-0.458-4.767-3.017-20.004-3.017-20.004s5.149 16.815 6.409 21.057C91.878 194.734 95.646 197.62 95.646 197.62zM106.445 196.278c-0.089 0.073-0.191 0.168-0.302 0.268C106.256 196.461 106.358 196.372 106.445 196.278zM95.646 197.62c0 0 2.893 2.992 4.347 3.03 1.91 0.051 4.828-2.899 6.151-4.104 -1.265 0.957-4.159 1.391-5.31 1.436C99.504 198.033 95.646 197.62 95.646 197.62zM116.664 190.101c-1.545 0.248-4.386 0.789-4.386 0.789l2.287-14.89c-0.646 3.071-4.474 16.211-8.12 20.278 1.91-1.616 6.158-2.391 8.324-2.704 10.236-1.484 10.232-1.483 41.062-4.94C155.831 188.634 126.76 188.479 116.664 190.101z" id="SvgjsPath4475"></path><path opacity="1" stroke-width="1.5" stroke="#853900" fill="none" d="M195.417 199.778c-2.196-4.746-8.195-11.779-14.86-13.722 -8.239-2.403-26.837-5.308-33.733-6.923 -5.528-1.296-16.662-11.294-20.564-14.65 -0.7-0.6-1.273-1.839-1.287-2.76 -0.139-10.864 4.195-39.724 4.195-39.724H100 70.833c0 0 4.334 28.859 4.193 39.724 -0.011 0.921-0.587 2.16-1.285 2.76 -3.902 3.356-15.036 13.354-20.564 14.65 -6.897 1.615-25.495 4.619-33.733 7.022 -6.667 1.942-12.664 8.876-14.86 13.622 -3.708 8.008-4.584 22.5-4.584 35h100 100C200 222.278 199.123 207.786 195.417 199.778z" id="SvgjsPath4476"></path></g><g id="svga-group-chinshadow-single"><path opacity="1" fill="url(#SvgjsLinearGradient4734)" d="M75.464 163.188c5.276 4.256 10.716 8.678 24.538 8.678 13.815 0 19.256-4.418 24.531-8.672 -0.188-0.49-0.305-0.997-0.312-1.461 -0.088-6.889 1.573-20.711 2.835-30.131 -15.695-2.201-38.418-2.201-54.113 0 1.261 9.421 2.922 23.242 2.833 30.13C75.771 162.188 75.654 162.695 75.464 163.188z" id="SvgjsPath4733"></path></g><g id="svga-group-clothes-single"><path stroke="none" opacity="1" stroke-width="none" fill="#601090" d="M111.806 235.888c-19.135 0-41.455-0.074-68.233-0.229l-23.679-0.128c-14.298-0.078-15.141-0.094-16.887-0.094l-4.899 0.007c-4.571-41.875 14.41-52.87 43.762-56.708 7.789-1.097 15.449-3.097 21.459-6.972 16.327 22.243 64.811 17.562 73.103-0.629 1.39 0.53 2.539 1.215 3.977 1.734 4.666 3.433 11.072 5.836 17.628 6.199 26.008 1.441 44.419 12.996 44.057 54.64 0.003 0.165 0.004 1.175-0.013 1.49 -12.513 0-17.206 0.121-27.034 0.262 -13.331 0.19-29.923 0.427-63.229 0.427C111.813 235.888 111.81 235.888 111.806 235.888z" id="SvgjsPath4616"></path><path stroke="none" opacity="1" stroke-width="none" fill="#70229f" d="M201.055 234.64c-0.41-7.385-4.064-28.058-10.36-37.541 -12.482-18.805-42.26-12.206-49.132-19.693 -4.986 10.159-24.975 16.595-31.594 17.54 19.181-6.36 27.237-10.959 30.42-21.87 6.405 8.33 41.074 1.971 54.717 24.331C199.101 203.954 202.9 224.793 201.055 234.64zM55.811 177.628c1.357-0.315 2.034-1.249 3.381-1.614l-1.426-1.891c-9.049 7.052-42.909 2.645-54.519 24.036 -3.659 6.741-6.127 22.788-4.192 36.439 0.537-8.384 0.799-26.314 7.095-35.798 11.324-17.06 31.974-12.553 47.619-19.775 6.983 8.6 17.888 12.828 28.984 14.577C68.832 189.971 60.85 183.84 55.811 177.628z" id="SvgjsPath4617"></path><path stroke="none" opacity="1" stroke-width="none" fill="#510181" d="M135.31 173.244c-5.532 11.514-47.35 24.923-70.93 0.879 -1.466 0.622-5.852 2.112-5.852 2.112 17.176 23.386 67.511 23.534 80.909-0.114C139.378 176.098 136.672 173.936 135.31 173.244z" id="SvgjsPath4618"></path><path stroke="none" opacity="1" stroke-width="none" fill="#3d0062" d="M136.38 171.002c-9.413 18.822-58.397 21.485-73.012 0.632 -5.337 1.578-10.469 4.941-15.636 5.782C16.812 182.021-6.046 184.335-2 235.552c9.94 0-6.611-0.065 45.571 0.215 123.59 0.71 119.562-0.461 158.606-0.461 0.029-0.14 0.015-1.452 0.021-1.596 2.096-56.436-30.852-53.104-53.12-56.995 -3.144-0.718-6.066-2.773-8.635-3.945C139.024 172.121 137.818 171.538 136.38 171.002zM63.014 172.265c12.974 23.392 64.219 18.699 74.113 0.101 1.2 0.504 1.507 0.704 2.898 1.197 -10.248 21.489-60.942 28.337-81.677 1.163C58.494 174.685 61.552 172.813 63.014 172.265zM-0.845 234.778c-2.421-26.431 1.797-48.043 32.78-53.345 10.276-1.896 16.557-1.962 25.384-5.794 16.763 27.405 72.098 23.158 83.598-1.305 1.652 1.409 4.228 3.03 7.405 3.785 18.098 4.299 54.838-0.894 52.898 56.658C147.163 234.075 102.355 232.433-0.845 234.778z" id="SvgjsPath4619"></path></g><g id="svga-group-head"><g id="svga-group-ears-left"><path opacity="1" stroke-width="1.5" stroke="#853900" fill="#b36a33" d="M45.671 84.344c-1.485-2.462-6.327-9.199-10.031-8.254 -3.012 0.772-2.973 4.971-3.206 7.455 -0.34 3.644-0.464 9.992 0.525 12.568 0.951 2.473 3.96 7.252 5.828 9.075 2.299 2.235 5.97 9.358 6.422 10.097 0.711 1.168 2.137 2.84 4.325 2.708 3.071-0.185 5.724-3.087 5.965-4.485C56.8 105.918 49.536 90.75 45.671 84.344z" id="SvgjsPath4611"></path><path stroke="none" opacity="1" stroke-width="none" fill="#853900" d="M44.2 99.341c-0.143-0.563 0.007-1.513 0.154-2.429 0.133-0.835 0.258-1.624 0.182-2.182 -0.289-2.09-1.915-6.06-2.976-8.212 -1.223-2.476-3.199-5.595-5.679-6.399 -1.024-0.333-1.699 0.065-2.089 0.468 -0.288 0.296-0.353 0.645-0.259 0.687 0.095 0.041 0.307-0.248 0.617-0.519 0.254-0.222-0.508-0.04 0 0 -0.205 1.04-0.865 6.302-0.41 10.143 0.358 3.022 1.05 5.279 1.263 5.617 0.031 0.356 0.083 0.705 0.16 1.043 1.002 4.41 7.518 10.177 9.034 11.82 0.28 0.303 0.574 0.483 0.646 0.409s-0.101-0.373-0.379-0.678c-1.498-1.632-7.971-7.381-8.939-11.635 -1.027-4.514 3.912-11.207 4.699-12.623 0.401 0.665 0.742 1.303 1.004 1.835 0.207 0.417 0.434 0.906 0.67 1.435 -0.463 0.738-5.118 6.127-3.934 10.441 0.438 1.591 3.822 3.642 5.131 4.203 0.72 0.31 0.99 0.772 1.304 1.306 0.364 0.624 0.033 2.229 1.23 2.739 0.244 0.104 0.464 0.146 0.659 0.146 0.338 0 0.594-0.13 0.783-0.284 0.02 0.271 0.019 0.619 0.009 0.941 -0.012 0.418 0.047 0.609 0.148 0.617 0.103 0.009 0.21-0.174 0.223-0.587 0.017-0.51 0.014-1.141-0.077-1.444 -0.269-0.889-1.088-1.894-1.957-2.957C44.563 102.197 44.422 100.213 44.2 99.341zM34.969 95.432c-2.348-6.923 1.283-13.229 1.81-14.179 1.012 0.399 2.562 2.193 3.221 3.235C39.52 85.321 35.067 90.775 34.969 95.432zM45.772 106.464c-1.084-0.462-0.706-1.984-1.056-2.584 -0.318-0.542-0.646-1.102-1.479-1.46 -0.18-0.078-0.379-0.196-0.583-0.332 -2.682-6.075 0.293-8.73 1.039-9.273 0.229 0.742 0.399 1.423 0.476 1.97 0.068 0.5-0.059 1.298-0.181 2.068 -0.153 0.955-0.31 1.944-0.147 2.584 0.244 0.953 0.411 2.97 1.291 4.048 0.781 0.956 1.583 1.942 1.857 2.746C46.871 106.391 46.5 106.775 45.772 106.464z" id="SvgjsPath4612"></path></g><g id="svga-group-ears-right"><path opacity="1" stroke-width="1.5" stroke="#853900" fill="#b36a33" d="M154.066 84.344c1.486-2.462 6.328-9.199 10.031-8.254 3.012 0.772 2.973 4.971 3.207 7.455 0.34 3.644 0.463 9.992-0.525 12.568 -0.951 2.473-3.961 7.252-5.828 9.075 -2.299 2.235-5.971 9.358-6.422 10.097 -0.711 1.168-2.137 2.84-4.326 2.708 -3.07-0.185-5.723-3.087-5.965-4.485C142.938 105.918 150.203 90.75 154.066 84.344z" id="SvgjsPath4613"></path><path stroke="none" opacity="1" stroke-width="none" fill="#853900" d="M154.322 103.243c-0.869 1.063-1.688 2.068-1.957 2.957 -0.092 0.304-0.094 0.935-0.078 1.444 0.014 0.413 0.121 0.596 0.225 0.587 0.102-0.008 0.16-0.199 0.148-0.617 -0.01-0.322-0.012-0.67 0.008-0.941 0.189 0.154 0.445 0.284 0.783 0.284 0.195 0 0.416-0.042 0.66-0.146 1.195-0.511 0.865-2.116 1.229-2.739 0.314-0.534 0.584-0.997 1.305-1.306 1.309-0.561 4.693-2.611 5.131-4.203 1.184-4.314-3.471-9.704-3.934-10.441 0.234-0.529 0.463-1.018 0.668-1.435 0.264-0.532 0.604-1.171 1.006-1.835 0.787 1.416 5.725 8.108 4.699 12.623 -0.969 4.254-7.441 10.003-8.939 11.635 -0.279 0.305-0.453 0.604-0.381 0.678 0.074 0.074 0.367-0.106 0.646-0.409 1.516-1.643 8.031-7.41 9.033-11.82 0.078-0.338 0.131-0.687 0.162-1.043 0.211-0.337 0.904-2.594 1.262-5.617 0.455-3.841-0.205-9.103-0.41-10.143 0.508-0.04-0.254-0.222 0 0 0.311 0.271 0.523 0.56 0.617 0.519 0.094-0.042 0.029-0.39-0.258-0.687 -0.391-0.403-1.066-0.801-2.09-0.468 -2.48 0.804-4.457 3.923-5.68 6.399 -1.061 2.152-2.686 6.122-2.975 8.212 -0.076 0.558 0.049 1.347 0.182 2.182 0.146 0.916 0.297 1.866 0.154 2.429C155.316 100.213 155.176 102.197 154.322 103.243zM159.738 84.488c0.66-1.042 2.209-2.835 3.221-3.235 0.527 0.95 4.158 7.256 1.811 14.179C164.672 90.775 160.219 85.321 159.738 84.488zM152.75 106.229c0.273-0.804 1.076-1.79 1.857-2.746 0.879-1.078 1.047-3.095 1.291-4.048 0.162-0.64 0.006-1.629-0.146-2.584 -0.123-0.77-0.25-1.568-0.182-2.068 0.076-0.547 0.246-1.228 0.475-1.97 0.746 0.543 3.721 3.199 1.039 9.273 -0.203 0.136-0.402 0.254-0.584 0.332 -0.832 0.358-1.16 0.918-1.479 1.46 -0.35 0.6 0.029 2.123-1.055 2.584C153.238 106.775 152.867 106.391 152.75 106.229z" id="SvgjsPath4614"></path></g><g id="svga-group-faceshape-wrap"><g id="svga-group-faceshape-single"><path opacity="1" stroke-width="none" fill="#b36a33" d="M100.002 0.867C66.384 0.92 39.082 28.536 39.134 62.56c0.008 5.403 0.704 10.643 2.002 15.634h0.001c0.012 0.054 11.542 38.591 14.02 51.25 1.382 7.06 9.063 15.656 16.531 20.849 6.967 4.845 11.263 11.574 28.313 11.574s21.346-6.729 28.313-11.574c7.468-5.192 15.149-13.789 16.531-20.849 2.479-12.658 14.009-51.196 14.02-51.25h0.002c1.298-4.992 1.994-10.231 2.002-15.634C160.923 28.536 133.62 0.92 100.002 0.867z" id="SvgjsPath4730"></path><path opacity="1" stroke-width="none" fill="#ab6128" d="M146.772 23.096c7.478 10.35 11.917 23.245 11.898 37.227 -0.009 5.403-0.679 10.643-1.93 15.634h-0.002c-0.011 0.054-11.124 38.591-13.512 51.25 -1.335 7.06-8.737 15.656-15.935 20.849 -6.718 4.845-10.854 11.575-27.291 11.575 -16.434 0-20.575-6.73-27.291-11.575 -7.197-5.192-14.602-13.789-15.931-20.849 -2.391-12.658-13.504-51.195-13.515-51.25h0c-1.252-4.992-1.922-10.231-1.931-15.634 -0.021-13.978 4.416-26.868 11.889-37.217 -8.812 10.697-14.112 24.45-14.089 39.453 0.008 5.403 0.704 10.643 2.002 15.634h0.001c0.012 0.054 11.542 38.591 14.02 51.25 1.382 7.06 9.063 15.656 16.531 20.849 6.967 4.845 11.263 11.574 28.313 11.574s21.346-6.729 28.313-11.574c7.468-5.192 15.149-13.789 16.531-20.849 2.479-12.658 14.009-51.196 14.02-51.25h0.002c1.298-4.992 1.994-10.231 2.002-15.634C160.894 47.552 155.589 33.795 146.772 23.096z" id="SvgjsPath4731"></path><path opacity="1" stroke-width="1.5" stroke="#853900" fill="none" d="M100.002 0.867C66.384 0.92 39.082 28.536 39.134 62.56c0.008 5.403 0.704 10.643 2.002 15.634h0.001c0.012 0.054 11.542 38.591 14.02 51.25 1.382 7.06 9.063 15.656 16.531 20.849 6.967 4.845 11.263 11.574 28.313 11.574s21.346-6.729 28.313-11.574c7.468-5.192 15.149-13.789 16.531-20.849 2.479-12.658 14.009-51.196 14.02-51.25h0.002c1.298-4.992 1.994-10.231 2.002-15.634C160.923 28.536 133.62 0.92 100.002 0.867z" id="SvgjsPath4732"></path></g></g><g id="svga-group-mouth-single"><path opacity="1" fill="url(#SvgjsLinearGradient4713)" d="M100.671 140.999c-5.683-0.008-7.963-3.983-7.963-3.983 6.845 2.441 15.408 0.264 15.408 0.264S106.377 141.008 100.671 140.999z" id="SvgjsPath4712"></path><path stroke="none" opacity="1" stroke-width="none" fill="#fe856a" d="M81.783 130.557c3.57-0.112 10.625-0.609 13.211-0.457 1.337 0.079 3.53 0.999 4.971 1.313 1.003 0.22 4.814-0.817 5.842-0.822 2.687-0.017 8.513 1.274 11.642 1.782 0.173 0.027 0 0 0 0s-7.699 6.575-17.56 6.143C88.728 138.025 81.783 130.557 81.783 130.557S81.606 130.562 81.783 130.557z" id="SvgjsPath4716"></path><path stroke="none" opacity="1" stroke-width="none" fill="#d03a18" d="M117.743 132.177c-0.085-0.126-0.641-0.245-0.846-0.221 -0.373 0.044-0.643 0.389-1.425 0.458 -0.904 0.084-5.695 0.815-7.002 0.782 -2.629-0.064-5.647 0.561-8.157 0.451 -2.513-0.11-6.464-1.159-9.077-1.344 -1.297-0.092-6.623-1.333-7.505-1.507 -0.759-0.15-0.82-0.506-1.125-0.607 -0.215-0.074-0.832-0.023-0.999 0.09 -0.145 0.1-0.1 0.557 0.001 0.683 0.248 0.305 1.167 0.435 1.838 0.568 0.931 0.184 6.336 1.438 7.67 1.532 2.586 0.186 6.589 1.303 9.123 1.414 2.532 0.112 5.608-0.587 8.21-0.521 1.338 0.034 6.197-0.699 7.156-0.784 0.694-0.064 1.556-0.179 1.876-0.402C117.634 132.664 117.826 132.309 117.743 132.177z" id="SvgjsPath4717"></path><path stroke="none" opacity="1" stroke-width="none" fill="#ff9077" d="M99.999 137.244c-4.411-0.192-11.369-1.912-14.032-4.152 1.629 0.195 5.155 0.481 6.772 0.693 1.997 0.265 4.761 1.003 6.795 1.192 2.196 0.202 5.2-0.237 7.342-0.422 1.79-0.153 4.563-0.661 6.35-0.72C110.221 135.628 104.257 137.43 99.999 137.244zM107.157 132.606c1.602-0.081 4.101-0.628 5.694-0.675 -1.796-0.491-4.499-0.493-6.406-0.697 -1.646-0.174-4.155 0.69-5.787 0.804 -1.838 0.132-4.022-1.204-5.733-1.333 -1.857-0.138-5.733 0.283-7.555 0.604 1.556 0.17 4.94 0.433 6.472 0.682 1.878 0.306 4.573 0.966 6.522 1.052C102.362 133.131 105.183 132.708 107.157 132.606z" id="SvgjsPath4718"></path><path stroke="none" opacity="1" stroke-width="none" fill="#ff9a84" d="M100.006 136.455c-2.626-0.118-6.989-1.062-8.873-2.365 0.482 0.022 1.884 0.146 2.348 0.189 0.146 0.015 0.293 0.031 0.438 0.05 0.757 0.101 1.489 0.304 2.271 0.515 0.759 0.207 2.481 0.47 3.329 0.557 0.167 0.019 0.333 0.027 0.501 0.034 1.043 0.048 2.983-0.061 3.943-0.21 0.609-0.095 1.182-0.192 1.77-0.247 0.32-0.032 0.669-0.047 1.061-0.049 0.336-0.003 0.689 0.006 1.036 0.017C106.063 135.841 102.713 136.574 100.006 136.455z" id="SvgjsPath4719"></path><path stroke="none" opacity="1" stroke-width="none" fill="#853900" d="M79.382 131.481c0 0-0.708-1.188-0.609-1.633 0.139-0.619 1.923-1.85 1.923-1.85s-1.08 1.415-1.247 1.863C79.288 130.294 79.382 131.481 79.382 131.481z" id="SvgjsPath4720"></path></g><g id="svga-group-eyes-left"><g id="svga-group-eyesback-left"><path opacity="1" fill="url(#SvgjsRadialGradient4659)" d="M74.8 71.999c7.18 0 13 5.82 13 13 0 7.18-5.82 13-13 13s-13-5.82-13-13C61.8 77.819 67.62 71.999 74.8 71.999z" id="SvgjsPath4658"></path></g><g transform="translate(1 1)" id="svga-group-eyesiriswrapper-left"><g id="svga-group-eyesiriscontrol-left"><g id="svga-group-eyesiris-left"><path opacity="1" stroke-width="0.5" stroke="#152975" fill="#4e60a3" d="M79.788 85.588c-0.869 3.192-4.162 5.073-7.361 4.196 -3.197-0.876-5.084-4.178-4.214-7.371 0.869-3.195 4.168-5.076 7.365-4.198C78.772 79.09 80.659 82.392 79.788 85.588z" id="SvgjsPath4696"></path><path stroke="none" opacity="1" stroke-width="none" fill="#6777b2" d="M78.855 85.662c-0.849 2.452-3.407 3.881-5.899 3.199 -2.3-0.631-3.752-2.838-3.563-5.171 0.853-0.067 1.787-0.087 2.756-0.04 -0.01 0.033-0.027 0.062-0.036 0.096 -0.306 1.125 0.407 2.305 1.592 2.63 1.189 0.326 2.401-0.326 2.707-1.451 0.039-0.147 0.06-0.294 0.065-0.439C77.29 84.782 78.088 85.165 78.855 85.662z" id="SvgjsPath4697"></path><path opacity="0.9" stroke-width="none" fill="#000000" d="M74.813 82.21c-1.203-0.344-2.429 0.342-2.739 1.54 -0.311 1.191 0.412 2.438 1.614 2.783 1.204 0.345 2.43-0.342 2.741-1.534C76.742 83.801 76.016 82.555 74.813 82.21zM75.075 86.442c-0.5 0.156-1.017-0.051-1.154-0.462 -0.133-0.411 0.163-0.867 0.667-1.019 0.503-0.156 1.019 0.051 1.157 0.459C75.881 85.831 75.582 86.287 75.075 86.442z" id="SvgjsPath4698"></path><path opacity="0.6" stroke-width="none" fill="#ffffff" d="M70.811 87.159c-0.37 0.222-0.922 0.023-1.238-0.447 -0.316-0.466-0.269-1.024 0.102-1.247 0.368-0.219 0.925-0.021 1.239 0.446C71.226 86.378 71.181 86.938 70.811 87.159z" id="SvgjsPath4699"></path><path opacity="0.8" stroke-width="none" fill="#ffffff" d="M78.71 83.74c-0.846 0.507-2.117 0.051-2.837-1.02 -0.72-1.072-0.612-2.352 0.234-2.857 0.844-0.509 2.118-0.053 2.834 1.019C79.66 81.954 79.556 83.232 78.71 83.74z" id="SvgjsPath4700"></path></g></g></g><g id="svga-group-eyesfront-left"><path stroke="none" opacity="1" stroke-width="none" fill="#b36a33" d="M56.198 84.999c0 13.807 8.507 25 19 25s19-11.193 19-25 -8.507-25-19-25S56.198 71.192 56.198 84.999zM61.8 84.999c0-7.18 5.82-13 13-13s13 5.82 13 13c0 7.18-5.82 13-13 13S61.8 92.179 61.8 84.999z" id="SvgjsPath4683"></path><path stroke="none" opacity="1" stroke-width="none" fill="#582311" d="M61.8 84.999c0 7.18 5.82 13 13 13s13-5.82 13-13c0-7.18-5.82-13-13-13S61.8 77.819 61.8 84.999zM62.8 84.999c0-6.627 5.373-12 12-12s12 5.373 12 12c0 6.628-5.373 12-12 12S62.8 91.627 62.8 84.999z" id="SvgjsPath4684"></path></g></g><g id="svga-group-eyes-right"><g id="svga-group-eyesback-right"><path opacity="1" fill="url(#SvgjsRadialGradient4667)" d="M137.801 84.999c0 7.18-5.82 13-13 13s-13-5.82-13-13c0-7.18 5.82-13 13-13S137.801 77.819 137.801 84.999z" id="SvgjsPath4666"></path></g><g transform="translate(-1 1)" id="svga-group-eyesiriswrapper-right"><g id="svga-group-eyesiriscontrol-right"><g id="svga-group-eyesiris-right"><path opacity="1" stroke-width="0.5" stroke="#152975" fill="#4e60a3" d="M131.788 85.588c-0.869 3.192-4.162 5.073-7.362 4.196 -3.196-0.876-5.084-4.178-4.214-7.371 0.869-3.195 4.169-5.076 7.365-4.198C130.772 79.09 132.658 82.392 131.788 85.588z" id="SvgjsPath4701"></path><path stroke="none" opacity="1" stroke-width="none" fill="#6777b2" d="M130.855 85.662c-0.849 2.452-3.408 3.881-5.899 3.199 -2.3-0.631-3.753-2.838-3.563-5.171 0.854-0.067 1.787-0.087 2.756-0.04 -0.01 0.033-0.027 0.062-0.036 0.096 -0.306 1.125 0.407 2.305 1.593 2.63 1.189 0.326 2.401-0.326 2.707-1.451 0.038-0.147 0.06-0.294 0.065-0.439C129.29 84.782 130.089 85.165 130.855 85.662z" id="SvgjsPath4702"></path><path opacity="0.9" stroke-width="none" fill="#000000" d="M126.813 82.21c-1.202-0.344-2.429 0.342-2.738 1.54 -0.312 1.191 0.412 2.438 1.613 2.783 1.204 0.345 2.431-0.342 2.742-1.534C128.741 83.801 128.016 82.555 126.813 82.21zM127.075 86.442c-0.5 0.156-1.018-0.051-1.154-0.462 -0.133-0.411 0.163-0.867 0.667-1.019 0.503-0.156 1.019 0.051 1.157 0.459C127.881 85.831 127.582 86.287 127.075 86.442z" id="SvgjsPath4703"></path><path opacity="0.6" stroke-width="none" fill="#ffffff" d="M122.812 87.159c-0.37 0.222-0.923 0.023-1.238-0.447 -0.316-0.466-0.27-1.024 0.102-1.247 0.367-0.219 0.926-0.021 1.239 0.446C123.227 86.378 123.181 86.938 122.812 87.159z" id="SvgjsPath4704"></path><path opacity="0.8" stroke-width="none" fill="#ffffff" d="M130.71 83.74c-0.846 0.507-2.116 0.051-2.837-1.02 -0.72-1.072-0.612-2.352 0.234-2.857 0.845-0.509 2.117-0.053 2.834 1.019C131.66 81.954 131.557 83.232 130.71 83.74z" id="SvgjsPath4705"></path></g></g></g><g id="svga-group-eyesfront-right"><path stroke="none" opacity="1" stroke-width="none" fill="#b36a33" d="M124.402 59.999c-10.493 0-19 11.193-19 25s8.507 25 19 25 19-11.193 19-25S134.896 59.999 124.402 59.999zM124.801 98c-7.18 0-13-5.82-13-13 0-7.18 5.82-13 13-13s13 5.82 13 13C137.801 92.179 131.98 98 124.801 98z" id="SvgjsPath4694"></path><path stroke="none" opacity="1" stroke-width="none" fill="#582311" d="M124.801 71.999c-7.18 0-13 5.82-13 13 0 7.18 5.82 13 13 13s13-5.82 13-13C137.801 77.819 131.98 71.999 124.801 71.999zM124.801 96.999c-6.627 0-12-5.372-12-12 0-6.627 5.373-12 12-12s12 5.373 12 12C136.801 91.627 131.428 96.999 124.801 96.999z" id="SvgjsPath4695"></path></g></g><g id="svga-group-facehighlight-single"><path opacity="1" fill="url(#SvgjsRadialGradient4466)" d="M141 113.974c0.035 22.622-18.292 40.994-40.938 41.025 -22.642 0.037-41.028-18.273-41.063-40.9 -0.035-22.62 18.292-41.064 40.937-41.1C122.579 72.964 140.967 91.349 141 113.974z" id="SvgjsPath4465"></path><path opacity="1" fill="url(#SvgjsRadialGradient4470)" d="M137.5 53.999c0 20.711-16.789 37.5-37.499 37.5 -20.711 0-37.501-16.789-37.501-37.5s16.79-37.5 37.501-37.5C120.711 16.499 137.5 33.288 137.5 53.999z" id="SvgjsPath4469"></path></g><g id="svga-group-eyebrows-left"><path stroke="none" opacity="1" stroke-width="none" fill="#cac1b2" d="M53.672 67.988c7.019 3.546 15.071 4.443 31.64 6.435 0.542 0.086 0.929 0.187 1.277 0.191 1.666-0.032 3.083-1.561 2.854-2.926C88.66 66.485 60.682 68.92 53.672 67.988z" id="SvgjsPath4706"></path></g><g id="svga-group-eyebrows-right"><path stroke="none" opacity="1" stroke-width="none" fill="#cac1b2" d="M146.328 67.988c-7.019 3.546-15.071 4.443-31.64 6.435 -0.542 0.086-0.929 0.187-1.277 0.191 -1.666-0.032-3.084-1.561-2.854-2.926C111.34 66.485 139.317 68.92 146.328 67.988z" id="SvgjsPath4707"></path></g><g id="svga-group-nose-single"><path stroke="none" opacity="1" stroke-width="none" fill="#853900" d="M99.757 119.999c-0.91 0-1.88 0.006-2.721-0.371 -0.899-0.405-1.498-0.567-2.429-0.902 -0.899-0.324-1.98 0.466-2.88 0.541 -0.728 0.06-1.559-0.149-2.003-0.719 -1.499-1.917 0.286-3.096 0.286-3.096s-0.583 1.346-0.212 1.942c0.319 0.509 0.789 0.925 1.369 1.063 0.968 0.235 1.889-0.476 2.839-0.55 1.062-0.083 1.833-0.102 2.602 0.519 0.767 0.619 1.606 0.737 2.582 0.787 0.906 0.049 1.857 0.088 2.708-0.263 0.743-0.303 1.365-0.835 2.062-1.226 1.482-0.831 2.647 0.212 4.194 0.633 1.238 0.338 2.575-0.86 2.09-2.225 -0.277-0.777-0.232-1.24-0.232-1.24s1.181 0.535 1.11 1.854c-0.089 1.642-1.521 2.794-3.137 2.361 -0.794-0.21-1.65-0.808-2.493-0.656 -0.857 0.153-1.517 0.154-2.229 0.622C102.187 119.781 101.047 119.999 99.757 119.999z" id="SvgjsPath4721"></path><path stroke="none" opacity="1" stroke-width="none" fill="#ab6128" d="M93.316 110.211c0 0 3.245-4.518 6.193-4.573 2.73-0.05 6.324 3.968 6.324 3.968s-3.311-1.387-6.588-1.156C96.32 108.655 93.316 110.211 93.316 110.211z" id="SvgjsPath4722"></path></g><g id="svga-group-beardwrap"><g id="svga-group-beard-single"><path opacity="1" stroke-width="none" fill="#2a232b" d="M100,18.13L100,18.13L100,18.13L100,18.13z" id="SvgjsPath4483"></path></g></g><g id="svga-group-mustache-single"><path stroke="none" opacity="1" stroke-width="none" fill="#cac1b2" d="M98.99 124.17c0.01 0.19-0.1 0.38-0.28 0.48 -9.74 5.15-14.53 4.31-15.16 9.65 -2.17 18.39 0.83 48.47 1.45 55.73 -0.25-0.1-0.28-0.22-0.3-0.35 -7.95-49.44-9.83-59.39-0.04-63.69 4.01-1.76 8.59-2.84 13.33-2.96 0.52-0.01 0.96 0.36 0.99 0.84C98.97 123.98 98.98 124.08 98.99 124.17zM101.01 124.17c-0.01 0.19 0.1 0.38 0.28 0.48 9.74 5.15 14.53 4.31 15.16 9.65 2.17 18.39-0.83 48.47-1.45 55.73 0.25-0.1 0.28-0.22 0.3-0.35 7.95-49.44 9.83-59.39 0.04-63.69 -4.01-1.76-8.59-2.84-13.33-2.96 -0.52-0.01-0.96 0.36-0.99 0.84C101.03 123.98 101.02 124.08 101.01 124.17z" id="SvgjsPath4639"></path><path stroke="none" opacity="1" stroke-width="none" fill="#bbab92" d="M80.2 143.87c0.25-12.29 0.84-15.79 16.23-19.33 -4.94 1.45-12.99 4.08-14.35 8.87 0 0-2.47 12.22-0.97 27.28C80.65 158.07 80.02 150.01 80.2 143.87zM79.1 145.24c0 0 0.02-1.54 0.06-3.54 0.19-11.14 2.87-12.24 2.87-12.24 1.86-1.61 5.77-3.82 9.61-4.44 -4.06 0.4-8.09 2.53-9.93 4.13 0 0-3.24 1.9-2.79 12.53C79.02 143.68 79.1 145.24 79.1 145.24zM118.88 160.69c1.5-15.06-0.97-27.28-0.97-27.28 -1.36-4.8-9.41-7.42-14.35-8.87 15.4 3.54 15.99 7.04 16.23 19.33C119.98 150.01 119.35 158.07 118.88 160.69zM121.08 141.68c0.45-10.64-2.79-12.53-2.79-12.53 -1.84-1.6-5.87-3.72-9.93-4.13 3.84 0.63 7.74 2.83 9.61 4.44 0 0 2.68 1.1 2.87 12.24 0.03 2 0.06 3.54 0.06 3.54S120.98 143.68 121.08 141.68z" id="SvgjsPath4640"></path><path stroke="none" opacity="1" stroke-width="none" fill="#9c845b" d="M82.35 158.54c-0.92-20.09-0.27-25.67 3.71-28.46 6.49-4.55 14-4.6 12.68-6.61 -0.29-0.46-0.68-0.44-0.66-0.43 -0.02-0.01 0.37-0.05 0.69 0.41 0.38 0.53 0.25 1.06-0.26 1.37 -16.62 8.78-17.79-2.76-13.52 65.22C84.21 183.8 82.78 167.86 82.35 158.54zM117.65 158.54c0.91-20.09 0.27-25.67-3.71-28.46 -6.49-4.55-14-4.6-12.68-6.61 0.29-0.46 0.68-0.44 0.66-0.43 0.02-0.01-0.37-0.05-0.69 0.41 -0.38 0.53-0.25 1.06 0.26 1.37 16.62 8.78 17.79-2.76 13.52 65.22C115.79 183.8 117.22 167.86 117.65 158.54z" id="SvgjsPath4641"></path></g><g id="svga-group-hair-front"><path stroke="none" opacity="1" stroke-width="none" fill="#cac1b2" d="M49.154 100.989C41.04 86.852 35.757 72.474 32.071 54.535c-3.5-17.697 8.226-36.577 20.601-46.629C67.818-4.442 92.105-9.52 105.745-9.52c7.418 0 18.449 2.012 24.415 3.877 7.057 2.059 15.913 7.557 20.008 15.023 2.753-1.839 4.011-2.934 6.237-5.747 -1.313 3.125-1.996 4.076-5.692 8.969 2.123-0.538 4.48-0.844 7.924-2.589 -3.487 3.242-3.551 3.677-5.566 5.744 4.989 1.96 9.135 6.575 11.729 10.739 9.042 14.558-0.657 41.766-5.318 54.841 -5.015 14.046-1.861 6.874-6.486 16.838 -7.409-16.445-9.127-25.471-10.057-30.354 -2.46-12.795-5.433-17.035-4.421-28.938 -18.036 11.75-48.595 17.209-62.768 17.209 -7.201 0-11.792-1.1-16.393-2.147 -9.306 27.486-4.284 21.064-8.418 38.616C50.498 94.432 49.958 96.725 49.154 100.989z" id="SvgjsPath4635"></path><path stroke="none" opacity="1" stroke-width="none" fill="#bbab92" d="M159.48 81.338c-5.015 14.046-1.861 6.874-6.486 16.838 -7.409-16.445-9.127-25.471-10.057-30.354 -1.871-9.732-4.033-14.521-4.52-21.49C146.461 63.629 148.82 67.361 152 84c-0.537-10.842 4.329-20.013 3.14-33.375 2.473 7.109 0.744 19.037 1.926 25.374 2.197-17 11.835-28.889 3.675-54.776 1.593 1.683 2.965 3.517 4.059 5.273C173.841 41.054 164.142 68.262 159.48 81.338zM45.041 57.624C42.038 67.361 44 75 44 82c-5.642-15.313-10.507-26.644-9.879-48.268 -2.443 6.712-3.426 13.848-2.05 20.802 3.687 17.939 8.969 32.317 17.083 46.455 0.804-4.264 1.344-6.558 1.784-8.428 4.022-17.078 0.101-13.616 8.418-38.616C52.858 64.136 49.459 75 48.499 85.999 48.528 77.259 44.466 69.543 45.041 57.624zM145.521 25.877c-1.89 15.953-1.267 16.889 0.128 23.438 0.212 0.888 0.376 1.469 0.377 1.469 1.989 7.238 2.726 8.845 3.206 14.878C149.703 46.899 144.425 58.765 145.521 25.877zM157.891 55.356c0.073-13.8 0.261-25.658-6.185-33.808C159.559 29.782 159.259 44.061 157.891 55.356zM151.088 49.996c-0.504-10.126 2.531-24.609-4.535-30.715C154.616 25.063 151.705 40.792 151.088 49.996zM41.007 69.58c-2.188-6.914-1.09-10.268-1.031-18.759C40.674 58.797 39.294 61.735 41.007 69.58zM48.459 77.413c-0.411-6.977 0.67-17.285 6.154-21.645C50.083 60.093 48.898 68.918 48.459 77.413zM120.869-3.265c8.801-1.031 26.102 10.208 27 19.333C146.272 7.702 128.673-3.535 120.869-3.265zM97.203 0.735c13.247-4.339 30.327 3.968 30.327 3.968 5.783 2.646 11.377 6.957 13.34 13.032 -2.42-5.801-7.938-9.339-13.813-12.024C127.057 5.711 109.873-2.221 97.203 0.735zM38.869 37.402c4.04-11.192 11.108-22.028 22-28C51.029 15.858 43.705 26.812 38.869 37.402zM64.203 19.069c8.703-12.302 33.537-17.684 48-13.667C98.704 2.828 73.49 8.104 64.203 19.069zM134.619 33.985c-26.546 15.834-51.703 17.264-82.75 11.75C82.966 48.817 107.52 47.559 134.619 33.985zM79.869 37.735c20.661-0.885 30.552-1.047 46-8C111.563 37.651 99.996 38.712 79.869 37.735zM49.869 41.735c16.223-13.189 32.838-14.953 60-18C82.451 29.105 67.577 29.656 49.869 41.735zM103.869 12.735c2.269-0.251 6.484-0.926 14.006-0.081 0 0 12.716 1.115 19.095 8.958 0.559 0.698 0.899 1.123 0.899 1.123C129.521 13.966 116.049 12.457 103.869 12.735z" id="SvgjsPath4636"></path><path stroke="none" opacity="1" stroke-width="none" fill="#d9d8d5" d="M61.841 7.462c25.283-15.239 49.736-19.184 74.028-2.394C111.12-9.22 88.093-5.349 61.841 7.462zM151.202 17.402c10.816 13.112 11.747 30.038 6.667 46C165.752 45.119 161.784 28.208 151.202 17.402zM44.534 22.551c-5.779 6.816-8.426 11.286-9.649 20.271 -0.534 9.549 1.299 16.205 4.768 26.548C34.845 48.605 32.631 39.359 44.534 22.551z" id="SvgjsPath4637"></path><path stroke="none" opacity="1" stroke-width="none" fill="#9c845b" d="M165.139 26.285c-2.537-4.073-7.433-8.843-11.859-10.58 2.086-2.138 3.192-3.127 7.91-7.52 -2.367 1.29-4.958 2.856-9.67 4.05 4.25-5.623 4.339-6.192 6.359-11.15 -2.641 3.395-4.018 5.412-7.77 7.92 -4.119-7.511-13.391-13.151-19.83-15.03 -5.879-1.837-17.485-4.013-25.17-3.89 -13.995 0.112-37.791 5.363-52.69 17.51 -11.061 8.984-24.482 28.094-20.74 47.02 3.401 16.551 8.392 31.602 17.67 47.51 2.605-14.126 2.609-8.458 4.62-27.54 0.412-4.89 4.173-15.797 5.65-20.17 8.703 1.981 18.616 4.319 46.61-2.29 10.261-2.374 22.654-6.484 31.819-12.46 -0.873 10.335 1.949 15.81 4.271 27.06 0.891 4.487 2.267 13.943 10.67 32.41 5.618-12.105 1.914-3.98 5.89-14.9C162.791 72.991 175.003 42.167 165.139 26.285zM160.919 70.976c-7.884 24.153-4.516 16.809-8.09 25.74 -0.696-1.823-5.499-15.777-7.37-23.55 -5.207-23.993-5.769-22.234-6.229-29.04 -0.608-10.554 1.64-16.228 2.27-18.75 -2.706 7.294-3.39 12.414-3.39 13.54 -12.465 7.624-40.495 13.263-54.65 14.74 -14.557 1.521-32.529-1.898-45.52-6.56 6.718 3.623 17.987 6.342 20.93 7.14 -1.758 4.375-5.733 14.022-6.29 20.16 -1.704 16.68-3.133 19.904-3.75 25.66 -9.817-18.234-15.205-43.456-15.69-49.61 -1.82-11.616 8.195-30.908 20.73-41.06C68.92-3.005 93.752-7.681 105.049-7.985c6.584-0.383 18.69 1.435 24.79 3.13 6.272 1.554 16.384 7.239 20.271 14.59 0 0 0 0.01 0.01 0.01 2.345-1.555 2.967-1.997 4.92-3.95 0 0.01 0 0.02-0.01 0.03 -1.053 1.94-3.255 4.893-4.601 6.89 2.66-0.462 5.147-1.105 7.54-2.24 -3.76 3.525-3.145 3.008-5.3 5.41 3.441 1.37 12.215 8.283 13.58 18.97C167.792 48.867 163.971 61.387 160.919 70.976z" id="SvgjsPath4638"></path></g><g id="svga-group-glasses-single"><path opacity="0.2" stroke-width="none" fill="#ffffff" d="M148.02 85.54c-0.11 1.96-0.35 4.05-0.59 6.25 -1.04 9.74-5.26 12.49-24.57 11.1 -6.3-0.45-11.06-4.04-13.41-10.1 -0.99-2.55-1.87-5.52-2.37-8.48C116.7 77.81 139.4 77.62 148.02 85.54zM51.98 85.54c0.11 1.96 0.35 4.05 0.59 6.25 1.04 9.74 5.26 12.49 24.57 11.1 6.3-0.45 11.06-4.04 13.41-10.1 0.99-2.55 1.87-5.52 2.37-8.48C83.3 77.81 60.6 77.62 51.98 85.54z" id="SvgjsPath4708"></path><path opacity="0.4" stroke-width="none" fill="#ffffff" d="M148.02 85.54c-8.62-7.92-31.33-7.73-40.93-1.23 -0.36-2.11-0.52-4.22-0.36-6.16h0c0.66-7.81 13.45-6.88 20.98-7.17C146.33 70.26 148.56 76.34 148.02 85.54zM93.27 78.14L93.27 78.14c-0.66-7.81-13.45-6.88-20.99-7.17 -18.61-0.71-20.85 5.37-20.31 14.56 8.62-7.92 31.33-7.73 40.93-1.23C93.26 82.19 93.43 80.09 93.27 78.14z" id="SvgjsPath4709"></path><path stroke="none" opacity="1" stroke-width="none" fill="#2e0914" d="M149.91 75.08c-0.62-1.42-1.48-2.7-2.56-3.65 -2.47-2.16-7.08-2.46-11.39-2.71 -4.19-0.23-12.15-0.42-17.46-0.08 -13.8 0.9-13.57 7-13.57 7 -1.81 0-8.03 0-9.84 0 0 0 0.23-6.11-13.57-7 -5.32-0.34-13.27-0.16-17.46 0.08 -4.31 0.24-8.93 0.55-11.39 2.71 -1.09 0.95-1.94 2.22-2.56 3.65l-8.19-1.58v3.99c7.17 1.38 9.02 1.82 10.02 1.76 -0.25 3.01-0.36 8.35 0.29 12.59 1.54 10.07 5.78 12.78 24.94 11.4 6.36-0.46 11.35-4.23 13.72-10.33 1.86-4.8 3.14-9.09 2.81-14.28h12.64c-0.33 5.19 0.95 9.49 2.81 14.28 2.36 6.1 7.36 9.87 13.72 10.33 19.17 1.38 23.41-1.33 24.94-11.4 0.65-4.24 0.54-9.58 0.29-12.59 1 0.06 2.85-0.38 10.02-1.76V73.5L149.91 75.08zM90.07 92.61c-2.27 5.87-6.88 9.35-12.98 9.78 -19.08 1.37-22.61-1.33-24.04-10.68 -0.76-5.01-0.35-11.52-0.25-12.52 0.19-0.03 0.31-0.06 0.32-0.1 1.09-6.36 6.45-8.42 29.02-7.35 3.73 0.18 6.92 0.88 8.69 2.75 1.04 1.09 2.04 2.66 1.95 4.17l0.04 0C93.02 81.2 92.44 86.5 90.07 92.61zM146.94 91.72c-1.43 9.35-4.96 12.05-24.04 10.68 -6.1-0.44-10.71-3.92-12.98-9.78 -2.37-6.11-2.94-11.41-2.74-13.95l0.04 0c-0.09-1.5 0.91-3.07 1.95-4.17 1.77-1.87 4.96-2.57 8.69-2.75 22.57-1.06 27.92 0.99 29.02 7.35 0.01 0.04 0.13 0.08 0.32 0.1C147.29 80.2 147.71 86.71 146.94 91.72z" id="SvgjsPath4710"></path><path stroke="none" opacity="1" stroke-width="none" fill="#3d121f" d="M104.94 75.34c0.17-1.26 1.63-5.92 13.54-6.69 5.32-0.34 13.27-0.16 17.46 0.08 4.31 0.24 8.93 0.55 11.39 2.71 1.09 0.95 1.94 2.22 2.56 3.65l0 0c-3.72-6.16-10.22-5.54-14.01-5.75 -2.3-0.13-6.21-0.27-10.28-0.27 -2.77 0-5.15 0.06-7.06 0.19C111.48 69.71 107.56 70.92 104.94 75.34zM95.06 75.34c-0.17-1.26-1.63-5.92-13.54-6.69 -5.32-0.34-13.27-0.16-17.46 0.08 -4.31 0.24-8.93 0.55-11.39 2.71 -1.09 0.95-1.94 2.22-2.56 3.65l0 0c3.72-6.16 10.22-5.54 14.01-5.75 2.3-0.13 6.21-0.27 10.28-0.27 2.77 0 5.15 0.06 7.06 0.19C88.52 69.71 92.44 70.92 95.06 75.34z" id="SvgjsPath4711"></path></g></g></g><rect style="display:none;" opacity="0.5" fill="#ecf0f1" y="185" x="0" height="15" width="200" id="SvgjsRect4450"></rect><text y="185" x="100" fill="#000000" font-weight="400" text-anchor="middle" font-size="0.84em" style="font-size:0.84em;font-family:&quot;Roboto&quot;, &quot;Helvetica Neue&quot;, Helvetica, Arial, sans-serif;text-anchor:middle;font-weight:400;display:none;" font-family="&quot;Roboto&quot;, &quot;Helvetica Neue&quot;, Helvetica, Arial, sans-serif" id="SvgjsText4451"><tspan style="font-size:0.84em;font-family:&quot;Roboto&quot;, &quot;Helvetica Neue&quot;, Helvetica, Arial, sans-serif;text-anchor:middle;font-weight:400;" x="100" dy="1.2em" id="SvgjsTspan4452">Created on AvatarMaker.com</tspan></text></g><defs id="SvgjsDefs4415"><radialGradient class="svga-on-canvas-facehighlight-gradient-single-0" gradientUnits="userSpaceOnUse" r="41" cy="114" cx="100" id="SvgjsRadialGradient4466"><stop offset="0" stop-color="#c27e4b" stop-opacity="0.5" id="SvgjsStop4467"></stop><stop offset="0.9" stop-color="#b36a33" stop-opacity="0" id="SvgjsStop4468"></stop></radialGradient><radialGradient class="svga-on-canvas-facehighlight-gradient-single-1" gradientUnits="userSpaceOnUse" r="37" cy="54" cx="100" id="SvgjsRadialGradient4470"><stop offset="0" stop-color="#c27e4b" stop-opacity="0.5" id="SvgjsStop4471"></stop><stop offset="0.9" stop-color="#b36a33" stop-opacity="0" id="SvgjsStop4472"></stop></radialGradient><radialGradient class="svga-on-canvas-eyesfront-gradient-left-3" gradientUnits="userSpaceOnUse" gradientTransform="matrix(0.9998 0.0208 0.0166 -0.7998 -45.3195 145.9395)" r="16.003" fy="82.527" fx="133.239" cy="82.496" cx="121.986" id="SvgjsRadialGradient4523"><stop offset="0" stop-color="#a4581e" stop-opacity="1" id="SvgjsStop4524"></stop><stop offset="0.7" stop-color="#a4581e" stop-opacity="0.3" id="SvgjsStop4525"></stop><stop offset="1" stop-color="#b36a33" stop-opacity="0" id="SvgjsStop4526"></stop></radialGradient><radialGradient class="svga-on-canvas-eyesfront-gradient-left-4" gradientUnits="userSpaceOnUse" gradientTransform="matrix(1.0336 0 0 1.0336 -1.6796 1.3127)" r="29.524" cy="105.995" cx="68.931" id="SvgjsRadialGradient4528"><stop offset="0.95" stop-color="#000000" stop-opacity="0" id="SvgjsStop4529"></stop><stop offset="1" stop-color="#000000" stop-opacity="0.2" id="SvgjsStop4530"></stop></radialGradient><radialGradient class="svga-on-canvas-eyesfront-gradient-right-3" gradientUnits="userSpaceOnUse" gradientTransform="matrix(-0.9998 0.0208 -0.0166 -0.7998 244.5208 145.9478)" r="16.003" fy="82.527" fx="132.839" cy="82.496" cx="121.587" id="SvgjsRadialGradient4543"><stop offset="0" stop-color="#a4581e" stop-opacity="1" id="SvgjsStop4544"></stop><stop offset="0.7" stop-color="#a4581e" stop-opacity="0.3" id="SvgjsStop4545"></stop><stop offset="1" stop-color="#b36a33" stop-opacity="0" id="SvgjsStop4546"></stop></radialGradient><radialGradient class="svga-on-canvas-eyesfront-gradient-right-4" gradientUnits="userSpaceOnUse" gradientTransform="matrix(-1.0336 0 0 1.0336 201.6796 1.3127)" r="29.524" cy="105.995" cx="69.316" id="SvgjsRadialGradient4548"><stop offset="0.95" stop-color="#000000" stop-opacity="0" id="SvgjsStop4549"></stop><stop offset="1" stop-color="#000000" stop-opacity="0.2" id="SvgjsStop4550"></stop></radialGradient><radialGradient class="svga-on-canvas-eyesiris-gradient-left-1" gradientUnits="userSpaceOnUse" gradientTransform="matrix(0.096 -0.0248 0.0245 0.0961 141.2814 119.9893)" r="59.751" cy="-521.042" cx="-568.659" id="SvgjsRadialGradient4555"><stop offset="0" stop-color="#ffffff" stop-opacity="1" id="SvgjsStop4556"></stop><stop offset="1" stop-color="#ffffff" stop-opacity="0" id="SvgjsStop4557"></stop></radialGradient><radialGradient class="svga-on-canvas-eyesiris-gradient-left-2" gradientUnits="userSpaceOnUse" gradientTransform="matrix(0.0991 8.856319e-004 -0.0011 0.0991 131.1134 135.9855)" r="59.745" cy="-519.099" cx="-582.838" id="SvgjsRadialGradient4559"><stop offset="0" stop-color="#ffffff" stop-opacity="1" id="SvgjsStop4560"></stop><stop offset="1" stop-color="#ffffff" stop-opacity="0" id="SvgjsStop4561"></stop></radialGradient><linearGradient class="svga-on-canvas-eyesiris-gradient-left-5" gradientUnits="userSpaceOnUse" gradientTransform="matrix(1 0 0 1 -52 0)" y2="87.152" x2="123.606" y1="88.268" x1="122.67" id="SvgjsLinearGradient4565"><stop offset="0" stop-color="#ffffff" stop-opacity="1" id="SvgjsStop4566"></stop><stop offset="1" stop-color="#ffffff" stop-opacity="0" id="SvgjsStop4567"></stop></linearGradient><linearGradient class="svga-on-canvas-eyesiris-gradient-left-6" gradientUnits="userSpaceOnUse" gradientTransform="matrix(1 0 0 1 -52 0)" y2="83.189" x2="126.463" y1="82.296" x1="127.212" id="SvgjsLinearGradient4569"><stop offset="0" stop-color="#ffffff" stop-opacity="1" id="SvgjsStop4570"></stop><stop offset="1" stop-color="#ffffff" stop-opacity="0" id="SvgjsStop4571"></stop></linearGradient><linearGradient class="svga-on-canvas-eyesiris-gradient-left-7" gradientUnits="userSpaceOnUse" gradientTransform="matrix(1 0 0 1 -52 0)" y2="81.879" x2="127.91" y1="79.822" x1="129.636" id="SvgjsLinearGradient4573"><stop offset="0" stop-color="#ffffff" stop-opacity="1" id="SvgjsStop4574"></stop><stop offset="1" stop-color="#ffffff" stop-opacity="0" id="SvgjsStop4575"></stop></linearGradient><radialGradient class="svga-on-canvas-eyesiris-gradient-right-1" gradientUnits="userSpaceOnUse" gradientTransform="matrix(0.096 -0.0248 0.0245 0.0961 193.2804 119.9894)" r="59.752" cy="-521.042" cx="-568.654" id="SvgjsRadialGradient4578"><stop offset="0" stop-color="#ffffff" stop-opacity="1" id="SvgjsStop4579"></stop><stop offset="1" stop-color="#ffffff" stop-opacity="0" id="SvgjsStop4580"></stop></radialGradient><radialGradient class="svga-on-canvas-eyesiris-gradient-right-2" gradientUnits="userSpaceOnUse" gradientTransform="matrix(0.0991 8.856319e-004 -0.0011 0.0991 183.1126 135.9856)" r="59.747" cy="-519.102" cx="-582.833" id="SvgjsRadialGradient4582"><stop offset="0" stop-color="#ffffff" stop-opacity="1" id="SvgjsStop4583"></stop><stop offset="1" stop-color="#ffffff" stop-opacity="0" id="SvgjsStop4584"></stop></radialGradient><linearGradient class="svga-on-canvas-eyesiris-gradient-right-5" gradientUnits="userSpaceOnUse" y2="87.152" x2="123.606" y1="88.268" x1="122.67" id="SvgjsLinearGradient4588"><stop offset="0" stop-color="#ffffff" stop-opacity="1" id="SvgjsStop4589"></stop><stop offset="1" stop-color="#ffffff" stop-opacity="0" id="SvgjsStop4590"></stop></linearGradient><linearGradient class="svga-on-canvas-eyesiris-gradient-right-6" gradientUnits="userSpaceOnUse" y2="83.189" x2="126.463" y1="82.296" x1="127.212" id="SvgjsLinearGradient4592"><stop offset="0" stop-color="#ffffff" stop-opacity="1" id="SvgjsStop4593"></stop><stop offset="1" stop-color="#ffffff" stop-opacity="0" id="SvgjsStop4594"></stop></linearGradient><linearGradient class="svga-on-canvas-eyesiris-gradient-right-7" gradientUnits="userSpaceOnUse" y2="81.879" x2="127.91" y1="79.822" x1="129.636" id="SvgjsLinearGradient4596"><stop offset="0" stop-color="#ffffff" stop-opacity="1" id="SvgjsStop4597"></stop><stop offset="1" stop-color="#ffffff" stop-opacity="0" id="SvgjsStop4598"></stop></linearGradient><radialGradient class="svga-on-canvas-eyesback-gradient-left-0" gradientUnits="userSpaceOnUse" gradientTransform="matrix(-1 0 0 1 200 0)" r="13" cy="85" cx="125.2" id="SvgjsRadialGradient4659"><stop offset="0" stop-color="#ffffff" stop-opacity="1" id="SvgjsStop4660"></stop><stop offset="0.544" stop-color="#fdfefe" stop-opacity="1" id="SvgjsStop4661"></stop><stop offset="0.74" stop-color="#f6f8f9" stop-opacity="1" id="SvgjsStop4662"></stop><stop offset="0.879" stop-color="#eaeff2" stop-opacity="1" id="SvgjsStop4663"></stop><stop offset="0.992" stop-color="#d9e3e8" stop-opacity="1" id="SvgjsStop4664"></stop><stop offset="1" stop-color="#d8e2e7" stop-opacity="1" id="SvgjsStop4665"></stop></radialGradient><radialGradient class="svga-on-canvas-eyesback-gradient-right-0" gradientUnits="userSpaceOnUse" r="13" cy="85" cx="124.801" id="SvgjsRadialGradient4667"><stop offset="0" stop-color="#ffffff" stop-opacity="1" id="SvgjsStop4668"></stop><stop offset="0.544" stop-color="#fdfefe" stop-opacity="1" id="SvgjsStop4669"></stop><stop offset="0.74" stop-color="#f6f8f9" stop-opacity="1" id="SvgjsStop4670"></stop><stop offset="0.879" stop-color="#eaeff2" stop-opacity="1" id="SvgjsStop4671"></stop><stop offset="0.992" stop-color="#d9e3e8" stop-opacity="1" id="SvgjsStop4672"></stop><stop offset="1" stop-color="#d8e2e7" stop-opacity="1" id="SvgjsStop4673"></stop></radialGradient><radialGradient class="svga-on-canvas-eyesfront-gradient-left-0" gradientUnits="userSpaceOnUse" gradientTransform="matrix(-1 0 0 1 200 0)" r="13" cy="85" cx="125.2" id="SvgjsRadialGradient4675"><stop offset="0" stop-color="#ffffff" stop-opacity="1" id="SvgjsStop4676"></stop><stop offset="0.544" stop-color="#fdfefe" stop-opacity="1" id="SvgjsStop4677"></stop><stop offset="0.74" stop-color="#f6f8f9" stop-opacity="1" id="SvgjsStop4678"></stop><stop offset="0.879" stop-color="#eaeff2" stop-opacity="1" id="SvgjsStop4679"></stop><stop offset="0.992" stop-color="#d9e3e8" stop-opacity="1" id="SvgjsStop4680"></stop><stop offset="1" stop-color="#d8e2e7" stop-opacity="1" id="SvgjsStop4681"></stop></radialGradient><radialGradient class="svga-on-canvas-eyesfront-gradient-right-0" gradientUnits="userSpaceOnUse" r="13" cy="85" cx="124.801" id="SvgjsRadialGradient4686"><stop offset="0" stop-color="#ffffff" stop-opacity="1" id="SvgjsStop4687"></stop><stop offset="0.544" stop-color="#fdfefe" stop-opacity="1" id="SvgjsStop4688"></stop><stop offset="0.74" stop-color="#f6f8f9" stop-opacity="1" id="SvgjsStop4689"></stop><stop offset="0.879" stop-color="#eaeff2" stop-opacity="1" id="SvgjsStop4690"></stop><stop offset="0.992" stop-color="#d9e3e8" stop-opacity="1" id="SvgjsStop4691"></stop><stop offset="1" stop-color="#d8e2e7" stop-opacity="1" id="SvgjsStop4692"></stop></radialGradient><linearGradient class="svga-on-canvas-mouth-gradient-single-0" gradientUnits="userSpaceOnUse" y2="137" x2="100" y1="141" x1="100" id="SvgjsLinearGradient4713"><stop offset="0.1" stop-color="#ab6128" stop-opacity="1" id="SvgjsStop4714"></stop><stop offset="1" stop-color="#a4581e" stop-opacity="1" id="SvgjsStop4715"></stop></linearGradient><linearGradient class="svga-on-canvas-chinshadow-gradient-single-0" gradientUnits="userSpaceOnUse" y2="130" x2="100" y1="172" x1="100" id="SvgjsLinearGradient4734"><stop offset="0" stop-color="#a4581e" stop-opacity="0.8" id="SvgjsStop4735"></stop><stop offset="0.7" stop-color="#853900" stop-opacity="1" id="SvgjsStop4736"></stop></linearGradient></defs></svg>