<svg xmlns="http://www.w3.org/2000/svg" version="1.1" width="600px" height="600px" viewBox="0 0 200 200" style="overflow:hidden!important;"><g id="svga-group-wrapper"><g id="svga-group-backs-single"></g><g id="svga-group-humanwrap-move" transform="matrix(1,0,0,1,0,0)"><g id="svga-group-humanwrap"><g id="svga-group-hair-back-move" transform="matrix(1,0,0,1,0,0)"><g id="svga-group-hair-back"><path id="SvgjsPath16779" d="M134.2 50.7s5.7 1.1 10.5 12 2.8 23.4 2.2 32.1-2 36-10.9 49.8-13.1 14.6-23.4 18.4c-10.3 3.7-36.5 2.6-47.6-7.4-11.1-10.1-6.5-26.9-3.7-33 2.8-6.2 72.9-71.9 72.9-71.9" fill="#221b23" stroke-width="none" opacity="1"></path><path id="SvgjsPath16780" d="M71.2 121.7s-2.8 7.1-3.4 12c-.6 4.9 2.6 9.5 4.5 12.1 2.1 2.8 6 7.6 6.1 17.2.1 6 41.6-5.5 41.6-5.5 3.7-2.9 11.1-9.6 15.6-20.9 3.8-9.5 3.8-17.8 3.5-22.4-17.2 6.2-34.5 12.5-51.7 18.7l-2.8-4.3-13.4-6.9z" fill="#1b141c" stroke-width="none" opacity="1"></path></g></g><g id="svga-group-humanbody-back"><path id="SvgjsPath15658" d="m168.5 219.5-1.7-21.5s.7-9-8.8-15.3-23.4-10.1-29.5-14.2c-6.1-4.1-9.2-4.5-9-16.9s.9-40.3.9-40.3H79.6s.7 27.9.9 40.3c.2 12.4-2.9 12.8-9 16.9-6.1 4.1-20 7.9-29.5 14.2S33.2 198 33.2 198l-1.6 21.5h136.9z" fill="#f3d4cf" stroke-width="none" opacity="1" stroke="none"></path></g><g id="svga-group-chinshadow-single"><path id="SvgjsPath15654" d="M100 163.9c5.96 0 13.3-4.65 19.53-9.3-.03-.92-.04-1.91-.03-3 .2-12.4.9-40.3.9-40.3H79.6s.7 27.9.9 40.3c.02 1.09.01 2.08-.03 3 6.23 4.65 13.57 9.3 19.53 9.3z" fill="#d4958a" stroke-width="none" opacity="0.65" stroke="none"></path></g><g id="svga-group-humanbody-front"><path id="SvgjsPath15659" d="M73.8 175.9c5.1 2.9 11.8 5.2 17.6 5.7.4 0 .4-.6.1-.7-2.8-1.1-5.9-1.7-8.8-2.6-2.9-.9-5.8-2-8.8-2.7-.1-.1-.3.2-.1.3zm35.2 6.2c5.3-.6 11.3-3 15.9-5.8.3-.2.1-.6-.2-.5-2.6.9-5.2 2-7.8 2.9-2.6.9-5.4 1.5-8 2.5-.5.1-.5.9.1.9z" fill="#d4958a" stroke-width="none" opacity="1" stroke="none"></path><path id="SvgjsPath15660" d="m168.4 219.4-2.1-21.4c0-2.2-.5-4.5-1.5-6.6-.9-2.1-2.3-3.9-3.9-5.5s-3.5-2.8-5.5-4c-2-1.2-4.1-2.2-6.2-3.1-4.2-1.9-8.6-3.6-12.9-5.4-2.2-.9-4.3-1.9-6.4-3-1.1-.6-2.1-1.2-3-1.9-1-.6-2-1.2-3-1.9s-2-1.5-2.8-2.6c-.8-1-1.3-2.2-1.7-3.4-.7-2.4-.8-4.8-.8-7.2 0-4.7.2-9.4.3-14.1.2-9.4.6-18.7.9-28l.6.6-20.4-.2-20.4-.1.3-.3.7 28c.1 4.7.3 9.3.4 14 0 2.4-.1 4.7-.8 7.1-.3 1.2-.9 2.3-1.6 3.3-.8 1-1.7 1.8-2.7 2.5s-2 1.3-2.9 2c-.9.6-1.9 1.3-3 1.9-2.1 1.2-4.2 2.1-6.4 3.1-4.3 1.9-8.6 3.6-12.8 5.6-2.1 1-4.2 2.1-6.1 3.2-2 1.2-3.8 2.4-5.4 4-1.6 1.6-2.9 3.4-3.8 5.4-.4 1-.8 2.1-1 3.1-.2 1.1-.4 2.2-.3 3.2v.2l-1.5 21.5-1-1.1 34 .1c11.3 0 22.7.1 34.1.2l34.2.3 34.4.5zm.2.2-34 .4-34.2.3c-11.4.1-22.9.2-34.4.2l-34.4.1h-1.1l.1-1.1 1.7-21.5v.1c-.1-5.1 2.2-9.8 5.7-13.3 1.7-1.7 3.8-3.1 5.8-4.3 2-1.2 4.2-2.2 6.3-3.2 4.3-2 8.7-3.7 13-5.4 2.1-.9 4.3-1.8 6.3-2.9 1-.5 1.9-1.1 3-1.8 1-.6 2-1.2 2.9-1.9.9-.6 1.8-1.4 2.4-2.2.7-.9 1.2-1.9 1.5-2.9.6-2.1.8-4.5.8-6.8 0-4.6-.1-9.3-.2-14l-.6-28v-.3h.3l20.4-.1 20.4-.2h.6v.6c-.1 9.3-.2 18.7-.4 28-.1 4.7-.2 9.4-.2 14 .1 2.3.2 4.6.8 6.7.3 1.1.8 2 1.4 2.9.6.8 1.4 1.6 2.4 2.2.9.6 1.9 1.3 2.9 1.9 1 .7 1.9 1.3 2.9 1.8 2 1.1 4.1 2.1 6.3 3 4.3 1.8 8.6 3.6 12.9 5.6 2.1 1 4.2 2.1 6.2 3.3 2 1.2 4 2.6 5.7 4.3 3.4 3.4 5.6 8.1 5.4 13v-.1l1.4 21.6zm-112.8-.4 1.9-13.8.1 13.8h-2zm88.6 0-1.9-13.8-.1 13.8h2z" fill="#c5796d" stroke-width="none" opacity="1" stroke="none"></path></g><g id="svga-group-clothes-single"><path id="SvgjsPath15792" d="M172.66 220s-.67-15.28-1.34-22.24-2.81-9.65-2.81-9.65-.4-1.88-2.81-5.36-31.62-13.13-31.62-13.13c-.8-4.42-5.63-5.49-5.63-5.49 1.21-4.82-1.21-10.32-2.01-10.99-.8-.67-1.34-1.61-1.34-1.61.54-8.57-3.06-9.71-3.06-9.71s-2.72 3.41-5.29 5.13c-2.57 1.71-14.22 5.65-20.39 4.63-6.17-1.03-11.48-4.28-13.71-6.17s-4.69-3.58-4.69-3.58-3.6 1.13-3.06 9.71c0 0-.54.94-1.34 1.61-.8.67-3.22 6.16-2.01 10.99 0 0-4.82 1.07-5.63 5.49 0 0-29.2 9.65-31.62 13.13s-2.81 5.36-2.81 5.36-2.14 2.68-2.81 9.65S27.34 220 27.34 220h145.32z" fill="#d793d3" stroke-width="none" opacity="1"></path><path id="SvgjsPath15793" d="m172.74 219.49-.02-.51-.04-1.01-.08-2.03-.17-4.05-.4-8.1c-.18-2.7-.27-5.39-.65-8.11-.19-1.35-.47-2.69-.86-4.01-.4-1.29-.85-2.54-1.65-3.74-.51-1.72-1.34-3.15-2.23-4.59-.25-.37-.41-.69-.76-1.09-.34-.39-.69-.64-1.06-.9-.73-.5-1.47-.92-2.23-1.32-3.03-1.58-6.15-2.87-9.28-4.15-6.13-2.46-12.33-4.72-18.57-6.89-.15-.6-.35-1.19-.67-1.73-.38-.68-.87-1.32-1.44-1.83-.57-.52-1.2-.97-1.86-1.33-.43-.23-.87-.41-1.32-.58.34-2.14.1-4.29-.42-6.31-.31-1.14-.69-2.25-1.24-3.33-.14-.27-.29-.54-.49-.82l-.16-.21c-.08-.09-.16-.17-.24-.25l-.28-.25c-.21-.2-.41-.44-.6-.69 0-.03.02-.06.02-.09 0-.54-.05-1.05-.08-1.58-.03-.52-.13-1.05-.21-1.57-.01-.05-.02-.11-.04-.16-.06-.73-.16-1.47-.33-2.2-.2-.91-.53-1.82-1-2.67-.51-.84-1.07-1.64-2.2-2.12a.498.498 0 0 0-.58.15l-.03.04c-1.27 1.57-2.67 3.09-4.22 4.37-.78.65-1.59 1.12-2.53 1.54-.92.43-1.88.79-2.84 1.15-3.86 1.35-7.87 2.46-11.95 2.77-1.01.06-2.04.09-3.03-.03-1-.09-2-.34-2.99-.58-1.98-.52-3.9-1.25-5.74-2.14-1.83-.91-3.62-1.95-5.2-3.22a70.454 70.454 0 0 0-4.96-3.78l-.02-.02a.277.277 0 0 0-.25-.03c-.99.43-1.56 1.21-2.03 2.02-.45.82-.75 1.7-.93 2.6-.19.9-.28 1.8-.33 2.71-.04.87-.02 1.73.01 2.6-.27.43-.59.85-.95 1.2-.1.1-.19.17-.3.27-.13.13-.24.26-.32.39-.18.26-.32.51-.45.77-.53 1.04-.89 2.14-1.17 3.25-.47 1.91-.67 3.92-.38 5.9 0 .23.01.46.01.7-.55.17-1.07.38-1.58.64-.64.33-1.24.74-1.78 1.23-.55.48-1.01 1.06-1.38 1.7-.35.56-.55 1.18-.71 1.82-6.35 2.06-12.66 4.24-18.91 6.6-3.16 1.22-6.3 2.45-9.37 3.97-.77.38-1.53.79-2.28 1.29-.38.26-.75.5-1.12.92-.21.23-.31.4-.44.57l-.36.54c-.47.72-.92 1.46-1.33 2.23-.38.74-.72 1.44-.99 2.33-.44.63-.71 1.19-.99 1.8-.29.65-.53 1.31-.75 1.98-.42 1.34-.72 2.7-.94 4.07-.42 2.76-.57 5.43-.78 8.14-.37 5.4-.67 10.8-.94 16.21v.04c0 .53.43.96.96.97h.01c12.17.04 24.36.12 36.53.06 12.17-.05 24.37-.03 36.5-.16l36.33-.35 36.04-.45c.06-.25.02-.39.02-.56zm-41.24-52.78c.46.4.84.88 1.14 1.39.32.51.48 1.09.63 1.67l.02.07c.05.18.17.32.32.43-1.79 2.49-3.77 4.86-6.09 6.79-.05.04-.11.08-.16.12.08-.59.15-1.18.14-1.78.02-.93-.1-1.86-.3-2.77-.22-.91-.53-1.81-.98-2.65-.27-.51-.58-.98-.94-1.43.34-.24.67-.48.99-.74.56-.44 1.08-.95 1.57-1.49.31-.38.6-.74.86-1.16.43.14.87.31 1.27.52.56.27 1.08.62 1.53 1.03zm-9.86 9.32c-.09-1.1-.33-2.18-.7-3.22-.2-.58-.45-1.13-.74-1.67.84-.31 1.67-.65 2.48-1.06.58-.28 1.15-.6 1.7-.94.33.42.65.88.92 1.34.42.75.78 1.54 1.06 2.37.24.84.45 1.7.56 2.58.08.44.07.89.13 1.33l.02.62a34.303 34.303 0 0 1-6.06 3.81c.22-.61.4-1.25.5-1.9.22-1.06.22-2.17.13-3.26zm-21.57-3.22c-.54 0-1.08 0-1.62-.03.55.17 1.11.3 1.68.42l.03.23-.11 3.34c-.04 1.12-.05 2.25-.12 3.34-.09 1.1-.21 2.27-.12 3.42.04.71.15 1.43.34 2.11H100c-1.63-.11-3.27-.14-4.89-.42-.81-.12-1.63-.19-2.43-.36l-2.41-.51-1.21-.24-1.19-.32-1.43-.38c-.02-.7-.02-1.39.07-2.06.07-.52.17-1.02.34-1.48.06-.18.15-.33.24-.49.35.1.7.19 1.05.27 3.14.73 6.35 1.11 9.54.94-3.12-.66-6.16-1.45-9.12-2.43-.27-.09-.53-.2-.8-.3-.1-1.99-.05-3.99.33-5.96.19-1.07.46-2.12.79-3.16.26-.8.57-1.61.97-2.35.53.18 1.05.36 1.59.5 2.49.71 5.04 1.2 7.62 1.33-2.41-.94-4.78-1.83-7.11-2.8-.61-.26-1.21-.52-1.82-.79-.04-.79-.01-1.59.07-2.38.12-1.13.32-2.25.46-3.37.27-2.04.62-4.08.95-6.14.01 0 .01.01.02.01 2.38 1.61 4.94 2.97 7.61 4.1.23.1.47.17.7.26 0 .02.01.03.01.05.19.88.33 1.78.47 2.67.13.89.28 1.79.33 2.7.06.9.05 1.82-.18 2.69-.1.43-.32.84-.43 1.32-.13.46-.16.93-.22 1.39-.16 1.62-.09 3.25.15 4.88zm-13.99 10.5-.6-.16c-.79-.23-1.57-.51-2.35-.75-.62-.19-1.24-.4-1.85-.63.02-.72.13-1.43.33-2.1.14-.47.31-.92.51-1.36.09-.2.2-.41.31-.6.36.17.71.33 1.07.48.9.34 1.8.66 2.72.94-.06.16-.12.32-.17.49a6.26 6.26 0 0 0-.21 1.71c.01.66.1 1.32.24 1.98zm-5.1-1.66c-.06-.02-.13-.04-.19-.07-1.92-.72-3.8-1.55-5.61-2.52-.02-.42-.04-.85.01-1.26.03-.62.15-1.24.31-1.83.16-.59.38-1.17.65-1.71.09-.17.19-.33.29-.5.85.77 1.76 1.47 2.69 2.12.81.53 1.65 1 2.51 1.43-.1.22-.19.45-.28.68-.19.5-.31 1.01-.38 1.54-.1.7-.1 1.42 0 2.12zm-6.07-2.74c-.99-.54-1.96-1.12-2.88-1.78-.65-.47-1.29-.96-1.9-1.48.15-.55.3-1.09.5-1.61.22-.67.53-1.3.84-1.92.31-.62.67-1.21 1.07-1.77.16-.22.33-.43.5-.65.67 1.08 1.47 2.07 2.32 3 .12.13.25.24.37.36-.14.26-.26.53-.38.81-.25.62-.45 1.27-.55 1.93-.16 1.05-.11 2.11.11 3.11zm14.89-14.46c-1.55-.7-3.07-1.44-4.5-2.32l-.03-.47c0-.59.04-1.19.07-1.78.12-1.18.28-2.35.49-3.49.19-1.15.48-2.28.91-3.36.22-.54.46-1.07.75-1.57.23-.42.51-.81.83-1.17.99.8 2.03 1.55 3.08 2.27-.8 1.97-1.32 4.05-1.64 6.16-.26 1.91-.15 3.84.04 5.73zm-1.62-14.25c-.9.65-1.59 1.57-2.09 2.55-.57 1.1-.93 2.29-1.14 3.49-.24 1.21-.21 2.44-.17 3.64l.17 2.04c-.42-.25-.82-.53-1.23-.8-.48-.37-.98-.73-1.44-1.13-.77-.61-1.49-1.3-2.19-2 .05-1.95.46-3.86.93-5.71.27-1.03.65-2.02 1.05-3.01.41-.95.89-1.88 1.44-2.77.7.51 1.41.98 2.15 1.42.82.8 1.65 1.57 2.52 2.28zm-3.96 13.62c.12.07.25.13.38.2-.54.73-1 1.51-1.4 2.34-.53 1.07-.9 2.22-1.15 3.39-.22 1.17-.39 2.37-.38 3.56-.01.61.02 1.21.08 1.81-.5-.29-1-.58-1.48-.9-1.08-.72-2.11-1.52-3.06-2.39l-.14-1.26c-.02-.6-.09-1.19-.1-1.79-.04-1.19.05-2.38.21-3.56.2-1.17.45-2.35.9-3.47.31-.76.72-1.51 1.21-2.17 1.41 1.64 3.05 3.1 4.93 4.24zm-6.55-2.26c-.57 1.1-1.04 2.28-1.32 3.5-.29 1.22-.4 2.48-.43 3.73-.03.62.04 1.25.06 1.87-.73-.77-1.39-1.6-1.99-2.48-.04-1.05-.07-2.11.04-3.17.09-1.13.3-2.25.58-3.35.45-1.89 1.18-3.78 2.3-5.39.45.76.93 1.5 1.46 2.21.22.29.46.57.7.85-.53.7-.98 1.45-1.4 2.23zm5.16 14.16-.06-.7c0-.57-.06-1.14-.04-1.71 0-1.14.06-2.27.23-3.4.19-1.12.45-2.23.82-3.31.29-.83.65-1.67 1.13-2.41.93.52 1.88.98 2.84 1.4.6.23 1.19.46 1.79.67-1.01 1.69-1.87 3.48-2.34 5.42-.26 1.1-.46 2.22-.53 3.35-.06.81-.04 1.62.03 2.42a37.36 37.36 0 0 1-3.87-1.73zm17.57-23.67c2.4-.2 4.76-.62 7.09-1.2.19.47.34.96.44 1.46.14.6.21 1.22.25 1.84.05.62.06 1.24.06 1.86 0 .43-.02.85-.04 1.28-.09-.01-.18-.02-.28-.04-1.36-.26-2.72-.49-4.04-.91-.66-.18-1.31-.4-1.97-.61-.55-.22-1.11-.41-1.66-.65-.06-.25-.11-.51-.13-.77-.06-.74-.03-1.54.28-2.26zm.06 14.54c.08-.43.27-.85.41-1.31.25-.91.38-1.84.45-2.77.13-1.7-.04-3.41-.43-5.07 2.22.75 4.55 1.22 6.87 1.36l.77.03c.37.86.71 1.75.99 2.67.38 1.18.61 2.4.71 3.63.12 1.23.1 2.47.03 3.71-.05.97-.13 1.94-.23 2.9-1.18.22-2.35.42-3.54.59-1.82.24-3.66.43-5.52.48-.15-.71-.29-1.44-.39-2.16-.15-.9-.26-1.8-.25-2.71 0-.46.03-.92.13-1.35zm.01 16.93c.08-1.11.23-2.18.43-3.31.28-2.3.24-4.54.2-6.8v-.04c1.82.28 3.68.33 5.51.31 1.25-.04 2.49-.14 3.73-.29.34.71.61 1.52.86 2.29.31 1 .59 2.03.83 3.06.27 1.03.44 2.08.67 3.13l.43 2.3c-1.12.3-2.24.57-3.38.78-3.05.56-6.15.74-9.25.69-.07-.71-.08-1.41-.03-2.12zm12.48-4.97a20.8 20.8 0 0 0-.75-3.19c-.23-.72-.49-1.41-.84-2.11 1.14-.16 2.28-.34 3.4-.57 1.49-.31 2.98-.7 4.44-1.19.27.55.51 1.11.72 1.68.35.97.6 1.96.77 2.98.18 1.01.22 2.05.18 3.09-.02.72-.12 1.43-.25 2.15-.5.24-1.01.49-1.52.72-1.86.8-3.77 1.46-5.71 2 0-.77-.02-1.54-.07-2.31-.05-1.1-.2-2.18-.37-3.25zm13.52-23.99c.46.94.79 2 1.03 3.04.48 2.1.6 4.3.08 6.31v.02c-.02.09-.02.18-.01.27-.25.34-.57.7-.89 1.01-.47.42-.94.84-1.47 1.21-.12.09-.26.16-.38.24l.05-.46c.02-.66.09-1.31.07-1.97-.01-1.32-.19-2.63-.47-3.9-.28-1.28-.66-2.52-1.13-3.74-.3-.75-.63-1.49-1.05-2.2.52-.19 1.03-.4 1.52-.67.47-.27.9-.55 1.32-.9.16.2.31.39.5.58.11.11.25.23.34.32.01.02.03.04.05.06l.09.13c.11.18.24.42.35.65zm-4.3-12c.18.12.37.29.52.46.26.29.5.61.68.98.39.72.65 1.52.81 2.35.12.61.19 1.25.23 1.88l-.03.27c-.03.5-.11 1.01-.14 1.51l-.08 1.05c-.4.32-.89.67-1.36.96-.42.26-.85.51-1.29.74-.01-1.26-.13-2.52-.46-3.76-.2-.72-.48-1.43-.85-2.09-.27-.45-.61-.89-1.04-1.21 1.08-.98 2.07-2.04 3.01-3.14zm-6.92 5.74c.96-.4 1.96-.96 2.78-1.63.33-.26.64-.54.95-.81.33.37.57.83.77 1.29.28.64.43 1.33.56 2.02.12.7.21 1.4.26 2.11l.1 1.9c-.53.26-1.06.51-1.63.74-.67.29-1.37.52-2.1.84.76.2 1.54.28 2.33.24.79-.01 1.57-.16 2.34-.36.01 0 .03-.01.04-.01.52.64.99 1.36 1.37 2.12.56 1.15.87 2.41 1.04 3.67.16 1.27.11 2.55.05 3.81-.04.63-.12 1.26-.18 1.89l-.21 1.26c-.61.35-1.23.67-1.87.97-.77.35-1.55.66-2.35.95-.05-1.61-.23-3.22-.5-4.8l-1-5.57c-.33-1.86-.82-3.72-1.6-5.45-.38-.87-.8-1.72-1.29-2.54-.24-.41-.48-.82-.77-1.2-.14-.19-.28-.38-.44-.57-.07-.08-.13-.15-.19-.23.52-.21 1.03-.42 1.54-.64zm-2.93 1.13c.39-.14.78-.28 1.17-.43.85 1.46 1.49 3.17 2.12 4.78.63 1.75 1.3 3.48 1.89 5.26.61 1.77.92 3.63 1.04 5.5.09 1.7.07 3.39.03 5.08-1.38.46-2.78.85-4.21 1.19-1.13.28-2.27.52-3.41.75.03-.91.04-1.82-.02-2.72-.07-1.26-.24-2.5-.37-3.74l-.54-3.72c-.15-.85-.32-1.7-.58-2.54 2.34 0 4.68-.3 6.88-1.04-2.46.08-4.87-.08-7.24-.4.02-.47.02-.94.01-1.42-.04-.65-.08-1.29-.21-1.93-.12-.64-.28-1.27-.5-1.88-.19-.48-.4-.95-.7-1.37 1.57-.4 3.12-.86 4.64-1.37zm-15.38 2.6c1.06.14 2.12.1 3.17.05.02 0 .04 0 .06-.01-.44.66-.62 1.48-.63 2.27-.01.15.01.3.01.44-2.42-1.01-4.78-2.17-7.13-3.4-.76-.4-1.51-.82-2.26-1.23 1.2.49 2.43.92 3.69 1.26 1.02.26 2.03.52 3.09.62zm-13.52-5.6c-.77.74-1.4 1.62-1.93 2.55-.56.96-1 1.99-1.32 3.06-.32 1.07-.55 2.17-.56 3.28-.05.75-.01 1.5.04 2.24l-.09-.09a37.62 37.62 0 0 1-2.03-2.33c-.02-.45-.02-.91-.03-1.36.03-.51.04-1.02.09-1.53.11-1.01.21-2.02.41-3 .2-.98.47-1.96.86-2.88.37-.85.81-1.7 1.41-2.43.81.62 1.61 1.27 2.39 1.93.26.19.51.37.76.56zm-8.25 2.45c.04-.88.14-1.75.32-2.6.18-.85.47-1.68.88-2.42.37-.68.94-1.33 1.56-1.64.75.53 1.49 1.08 2.22 1.64-.77.6-1.38 1.39-1.87 2.24-.53.93-.89 1.95-1.13 2.99-.27 1.04-.33 2.11-.31 3.17.02.53.08 1.05.11 1.58.03.25.07.5.11.74-.69-.88-1.34-1.79-1.97-2.74.03-.04.06-.08.08-.12.03-.05.04-.1.04-.16v-.01c-.04-.91-.07-1.79-.04-2.67zm-2.02 5.49c.12-.25.25-.49.4-.7.07-.12.15-.2.21-.27l.33-.3c.36-.36.66-.75.93-1.18.41 1.4 1 2.75 1.73 4.03-.49.74-.95 1.5-1.38 2.28-.57 1.02-1.08 2.09-1.48 3.21-.4 1.12-.68 2.28-.82 3.46-.08.47-.11.95-.14 1.43-.41-.81-.75-1.65-.92-2.52-.15-.76-.31-1.53-.42-2.3-.03-1.34.15-2.7.47-4.02.25-1.07.6-2.14 1.09-3.12zm-6.83 15.34v-.01c.14-.63.31-1.27.64-1.82.32-.56.71-1.09 1.21-1.53.48-.44 1.03-.82 1.62-1.14.42-.22.88-.41 1.33-.56.2 1.43.7 2.78 1.35 4.04.01.02.03.04.04.07-.28.34-.53.7-.76 1.08-.38.63-.72 1.29-.99 1.97-.46 1.19-.73 2.43-.81 3.68-.57-.5-1.11-1.02-1.61-1.59-.97-1.15-1.83-2.43-2.29-3.89.13-.05.24-.16.27-.3zm-37.97 49.32c.21-5.05.45-10.11.76-15.16.19-2.68.3-5.41.66-8 .19-1.3.46-2.59.83-3.84.19-.62.4-1.24.66-1.82.24-.56.55-1.17.84-1.58 2.12 1.78 4.02 3.74 5.86 5.75.54.56.91 1.12 1.31 1.65.33.64.71 1.22.97 1.91l.45.99.4 1.03c.28.68.5 1.39.74 2.09.97 2.81 1.76 5.71 2.59 8.6.78 2.76 1.54 5.53 2.39 8.3-6.14.03-12.3.05-18.46.08zm107.61.45-36.33-.35c-12.09-.13-24.11-.11-36.16-.16-5.52-.03-11.03-.02-16.55-.01-.11-2.91-.47-5.79-.98-8.65-.53-3-1.26-5.97-2.22-8.89-.26-.73-.51-1.45-.82-2.17l-.44-1.08-.52-1.06c-.33-.71-.81-1.38-1.22-2.06l-.81-.96c-.28-.32-.56-.54-.85-.81-2.08-1.87-4.33-3.63-6.87-4.85.03-.05.06-.1.07-.16.17-.63.52-1.44.88-2.14.37-.72.78-1.43 1.23-2.12l.34-.52c.11-.17.24-.36.32-.44.18-.22.51-.47.82-.69.65-.45 1.36-.86 2.1-1.24 2.94-1.54 6.05-2.84 9.16-4.11 6.22-2.51 12.54-4.8 18.88-6.99.27 1.52 1.03 2.94 1.94 4.19 1.01 1.37 2.22 2.57 3.52 3.68 2.63 2.17 5.65 3.81 8.77 5.12 6.22 2.64 12.89 4.29 19.72 4.61 3.41.06 6.83-.16 10.18-.83 3.33-.72 6.6-1.78 9.66-3.3 3.06-1.49 5.92-3.38 8.4-5.73 1.22-1.2 2.28-2.52 3.27-3.88.83-1.15 1.57-2.35 2.25-3.59.05.03.08.07.13.08 6.4 2.07 12.78 4.25 19.06 6.64 3.13 1.21 6.27 2.44 9.25 3.92.74.37 1.47.77 2.15 1.21.33.22.67.46.89.71.22.23.47.65.7.97.9 1.37 1.78 2.86 2.23 4.34l.01.02c.01.02.02.03.02.05-2.87 1.11-5.63 2.52-8.16 4.38-.66.49-1.3 1.02-1.9 1.65-.59.61-1.16 1.36-1.52 2.2-.67 1.6-1.03 3.16-1.44 4.73-.69 3.15-1.22 6.31-1.59 9.49-.36 2.97-.6 5.96-.65 8.97l-16.92-.17zm17.05.21c.77-2.9 1.42-5.8 2.04-8.71.68-3.11 1.29-6.23 2-9.3.35-1.52.72-3.08 1.23-4.44.45-1.26 1.55-2.34 2.67-3.39 2.22-1.97 4.71-3.73 7.21-5.5 0 .01.01.02.01.02.71.99 1.23 2.28 1.64 3.53.4 1.27.7 2.57.91 3.89.42 2.64.57 5.35.8 8.04l.55 8.09.25 4.05.12 2.02.06 1.01.03.51c.02.16-.01.36.06.43l-19.58-.25z" fill="#b859b3" stroke-width="none" opacity="1"></path></g><g id="svga-group-head" transform="matrix(1,0,0,1,0,0)"><g id="svga-group-ears-left-move" transform="matrix(1,0,0,1,0,0)"><g id="svga-group-ears-left"><path id="SvgjsPath15604" d="M65.1 101.2s-1.7-4.8-3.2-7.5-3.4-6-6.3-6.8c-2.9-.8-3.8 3.7-2.7 7.8 1.1 4.1 4 13.1 4.7 16.6s1.7 7.7 3.4 7.1 6.8-7.1 4.1-17.2z" fill="#f3d4cf" stroke-width="none" opacity="1" stroke="none"></path><path id="SvgjsPath15605" d="M65.9 105.9c.1 1.6.1 3.2-.1 4.8-.5 3.1-1.8 6-3.8 7.9l-.4.3c-.2.1-.3.2-.5.3-.4.1-.9 0-1.3-.3-.7-.6-1.1-1.4-1.4-2.2-.6-1.6-.9-3.1-1.2-4.7-.3-1.5-.7-3-1.1-4.6l-1.2-4.6c-.4-1.5-.8-3-1.3-4.6l-.5-2.2c-.2-.8-.4-1.5-.6-2.3-.2-.8-.2-1.6-.2-2.4s.1-1.6.3-2.4.6-1.5 1.1-2c.6-.5 1.3-.6 2-.4 1.3.3 2.5 1.1 3.5 2.2s1.8 2.5 2.5 3.8c.7 1.4 1.3 2.8 1.9 4.3.6 1.5 1.1 2.9 1.6 4.4.3 1.6.6 3.1.7 4.7zM61.1 93c-.8-1.3-1.6-2.4-2.5-3.4s-2-1.7-3.1-2c-.5-.2-1-.1-1.5.2-.4.3-.8.8-1 1.5-.4 1.3-.5 2.9-.2 4.5.1.8.3 1.5.5 2.3s.4 1.5.7 2.3c.5 1.5 1 3 1.4 4.5.5 1.5 1 3 1.4 4.5.5 1.5.9 3 1.2 4.6.3 1.5.7 3.1 1.2 4.4.3.7.6 1.3.9 1.5.2.1.3.2.5.1.1 0 .2-.1.3-.2l.3-.3c.9-.8 1.6-1.9 2.3-3.1.6-1.2 1.1-2.5 1.5-3.9.7-2.8.6-6.1-.2-9.2-.9-3-2.1-5.8-3.7-8.3z" fill="#e4b3ab" stroke-width="none" opacity="1" stroke="none"></path><path id="SvgjsPath15606" d="M53.8 89.9c1.8-.8 3.4 1.3 4.6 3.1 1.5 2.3 2.5 5.2 2.8 8.2v.2c0 .2 0 .5.1.7 0 .2-.2.2-.2 0-.1-.4-.2-.8-.3-1.3 0-.1-.1-.2-.2-.3-1.2-.6-1.7-.3-1.7.8 0 .7.1 1.4.3 2.1.3 1.1.8 2.2 1.2 3.3.1.2-.2.4-.3.2-.9-1.5-2.4-5-1.4-6.8.5-.9 1.3-.8 1.8-.2-.5-1.9-1.1-4.1-2.1-5.9-2 4.2-.9 8.7.1 13.4 0 .2-.2.3-.2.1-1.3-4.4-2.6-10.1 0-13.7-1.1-2.1-2.6-3.7-4.5-3.6-.1.1-.2-.2 0-.3z" fill="#d4958a" stroke-width="none" opacity="1" stroke="none"></path><path id="SvgjsPath15607" d="M61.1 108.8c.1 1.1 0 2.2-.5 3-.1.1-.2 0-.1-.1.3-.9.6-1.8.5-2.9-.1-.1 0-.2.1 0z" fill="#d4958a" stroke-width="none" opacity="1" stroke="none"></path></g></g><g id="svga-group-ears-right-move" transform="matrix(1,0,0,1,0,0)"><g id="svga-group-ears-right"><path id="SvgjsPath15608" d="M134.9 101.2s1.7-4.8 3.2-7.5 3.4-6 6.3-6.8c2.9-.8 3.8 3.7 2.7 7.8-1.1 4.1-4 13.1-4.7 16.6s-1.7 7.7-3.4 7.1-6.8-7.1-4.1-17.2z" fill="#f3d4cf" stroke-width="none" opacity="1" stroke="none"></path><path id="SvgjsPath15609" d="M134.9 101.2c.5-1.5 1.1-2.9 1.6-4.4s1.2-2.9 1.9-4.3 1.5-2.7 2.5-3.8c1-1.1 2.2-2 3.5-2.2.7-.2 1.4 0 2 .4.6.5.9 1.2 1.1 2 .2.8.3 1.6.3 2.4s-.1 1.6-.2 2.4c-.1.8-.4 1.6-.6 2.3l-.6 2.3c-.4 1.5-.8 3-1.3 4.6l-1.2 4.6c-.4 1.5-.8 3-1.1 4.6s-.6 3.2-1.2 4.7c-.3.8-.6 1.6-1.4 2.2-.4.3-.9.4-1.3.3-.2-.1-.3-.2-.5-.3l-.4-.3c-2-1.9-3.3-4.8-3.8-7.9-.3-1.6-.3-3.2-.1-4.8.1-1.7.4-3.2.8-4.8zm.1.1c-.8 3-.9 6.3-.2 9.2.4 1.4.9 2.7 1.5 3.9.6 1.2 1.4 2.3 2.3 3.1l.3.3c.1 0 .2.1.3.2.2.1.3 0 .5-.1.3-.3.7-.9.9-1.5.5-1.3.9-2.9 1.2-4.4.3-1.6.8-3.1 1.2-4.6.5-1.5 1-3 1.4-4.5.5-1.5 1-3 1.4-4.5.2-.7.5-1.5.7-2.3s.4-1.5.5-2.3c.3-1.5.2-3.1-.2-4.5-.2-.6-.6-1.2-1-1.5s-1-.3-1.5-.2c-1.1.3-2.1 1.1-3.1 2-.9 1-1.7 2.2-2.5 3.4-1.4 2.5-2.6 5.3-3.7 8.3z" fill="#e4b3ab" stroke-width="none" opacity="1" stroke="none"></path><path id="SvgjsPath15610" d="M146.2 89.9c-1.8-.8-3.4 1.3-4.6 3.1-1.5 2.3-2.5 5.2-2.8 8.2v.2c0 .2 0 .5-.1.7 0 .2.2.2.2 0 .1-.4.2-.8.3-1.3 0-.1.1-.2.2-.3 1.2-.6 1.7-.3 1.7.8 0 .7-.1 1.4-.3 2.1-.3 1.1-.8 2.2-1.2 3.3-.1.2.2.4.3.2.9-1.5 2.4-5 1.4-6.8-.5-.9-1.3-.8-1.8-.2.5-1.9 1.1-4.1 2.1-5.9 2 4.2.9 8.7-.1 13.4 0 .2.2.3.2.1 1.3-4.4 2.6-10.1 0-13.7 1.1-2.1 2.6-3.7 4.5-3.6.1.1.2-.2 0-.3z" fill="#d4958a" stroke-width="none" opacity="1" stroke="none"></path><path id="SvgjsPath15611" d="M138.9 108.8c-.1 1.1 0 2.2.5 3 .1.1.2 0 .1-.1-.3-.9-.6-1.8-.5-2.9.1-.1 0-.2-.1 0z" fill="#d4958a" stroke-width="none" opacity="1" stroke="none"></path></g></g><g id="svga-group-faceshape-wrap"><g id="svga-group-faceshape-single"><path id="SvgjsPath15640" d="M100.01 41.36C78.61 41.36 60.2 56.9 59 85.4c0 0 .2 20.8 2.8 34.8 1.5 8 4 11.7 10.5 17 6.5 5.4 18.69 15.64 27.69 15.64s21.21-10.24 27.71-15.64 9-9 10.5-17c2.6-14 2.8-34.8 2.8-34.8-1.2-28.4-19.59-44.04-40.99-44.04z" fill="#f3d4cf" stroke-width="none" opacity="1" stroke="none"></path><path id="SvgjsPath15641" d="M100 41.3c-21.4 0-39.8 15.6-41 44.1 0 0 .2 20.8 2.8 34.8 1.5 8 4 11.7 10.5 17C78.8 142.6 91 153 100 153s21.2-10.4 27.7-15.8 9-9 10.5-17c2.6-14 2.8-34.8 2.8-34.8-1.2-28.4-19.6-44.1-41-44.1zm35.5 26.6c.2.7.5 1.5.7 2.2l.3 1.1c.1.4.2.8.3 1.1l.3 1.1.2 1.1.2 1.1.2 1.1.2 1.1.1 1.2.1 1.2c0 .4.1.8.1 1.2.1.8.1 1.6.2 2.3l.1 1.1V86c-.1 3.2-.2 6.4-.4 9.6-.3 6.4-.8 12.8-1.6 19.1l-.3 2.4-.4 2.3c-.3 1.5-.6 3-1 4.4s-.9 2.7-1.6 4c-.7 1.2-1.5 2.4-2.5 3.5s-2.1 2.2-3.3 3.2-2.4 2.1-3.6 3.1c-2.4 2.1-4.9 4.1-7.4 6-1.3 1-2.5 1.9-3.9 2.7-1.3.9-2.6 1.7-4 2.4s-2.8 1.4-4.2 1.9c-1.4.5-2.9.8-4.3.9-1.4 0-2.9-.2-4.4-.6-1.5-.4-2.9-1-4.4-1.7-1.4-.7-2.8-1.4-4.2-2.2-1.4-.8-2.7-1.7-4-2.6-1.3-.9-2.6-1.9-3.9-2.8-1.3-1-2.5-2-3.8-3-2.5-2.1-5-4-7.1-6.4-1-1.2-2-2.4-2.7-3.8-.7-1.4-1.3-2.8-1.7-4.3-.4-1.5-.7-3.1-.9-4.6l-.3-2.4-.2-2.4c-.6-6.4-.8-12.8-1-19.2l-.1-4.8-.1-4.8v-1.2l.1-1.1c0-.8.1-1.5.2-2.3 0-.4.1-.8.1-1.2l.2-1.2.2-1.2.2-1.1.2-1.1.2-1.1.2-1.1.3-1.1c.1-.4.2-.8.3-1.1l.3-1.1c.2-.7.5-1.5.7-2.2 1-2.9 2.3-5.8 3.9-8.4 1.6-2.7 3.5-5.2 5.7-7.4s4.7-4.2 7.5-5.8c1.4-.8 2.8-1.5 4.3-2.1.7-.3 1.5-.6 2.2-.8.4-.1.8-.2 1.1-.3l1.2-.3 1.2-.3.6-.1.6-.1L94 42c.4-.1.8-.1 1.2-.2a38.663 38.663 0 0 1 9.6 0c.4.1.8.1 1.2.2l1.2.2.6.1.6.1 1.2.3 1.2.3c.4.1.8.2 1.1.3.8.3 1.5.5 2.2.8 1.5.6 2.9 1.3 4.3 2.1 2.8 1.6 5.3 3.5 7.5 5.8 2.2 2.2 4.1 4.7 5.7 7.4 1.6 2.8 2.9 5.6 3.9 8.5z" fill="#c5796d" stroke-width="none" opacity="1" stroke="none"></path></g></g><g id="svga-group-mouth-single-move" transform="matrix(1,0,0,1,0,0)"><g id="svga-group-mouth-single"><path id="SvgjsPath15897" d="M95.2 133.6c3.7 1.9 5.4 1.5 7.2 1.3s6.2-2.5 9-5.2c2.7-2.7 3.2-4.2 3.2-4.2-2.5-.5-9.6-2.6-10.7-2.4-.8.1-2.9 1.9-3.6 1.9s-3.1-1.5-3.9-1.6c-.9-.1-2.3.4-4.4 1.1s-6 1.1-6 1.1 5.5 6.1 9.2 8z" fill="#da7c87" stroke-width="none" opacity="1" transform="translate(0 3)"></path><path id="SvgjsPath15898" d="M85.5 125.7c4.9 1.2 10.2 2.1 15.2 2.3 1.8.1 3.7-.3 5.5-.6 3-.5 6.3-.8 9.2-1.8.3-.1.3-.7-.1-.6-4.8.6-9.7 2.4-14.6 2.2-5.1-.2-10.1-1.4-15.2-1.9-.2.1-.2.4 0 .4z" fill="#cb5f6c" stroke-width="none" opacity="1" transform="translate(0 3)"></path></g></g><g id="svga-group-eyes-left-move" transform="matrix(1,0,0,1,0,0)"><g id="svga-group-eyes-left"><g id="svga-group-eyesback-left"><path id="SvgjsPath15951" d="M90.4 97.9s-1.8 2.4-3.2 3.1c-1.4.7-4.4 2.4-8.5 1s-5.4-4.1-5.4-4.1 1.3-2 2.5-3.2 3.7-3.9 8.3-2.6c4.5 1.2 5.7 3.7 6.3 5.8z" fill="#ffffff" stroke-width="none" opacity="1"></path></g><g id="svga-group-eyesiriswrapper-left" transform="matrix(1,0,0,1,0,0)"><g id="svga-group-eyesiriscontrol-left" transform="matrix(1,0,0,1,0,0)"><g id="svga-group-eyesiris-left"><path id="SvgjsPath15675" d="M82 91.3c2.8 0 5.2 2.3 5.2 5.2s-2.3 5.2-5.2 5.2-5.2-2.3-5.2-5.2 2.3-5.2 5.2-5.2z" fill="#681711" stroke-width="none" opacity="1"></path><path id="SvgjsPath15676" d="M82 92.9c2 0 3.6 1.6 3.6 3.6S83.9 100 82 100s-3.6-1.6-3.6-3.6 1.6-3.5 3.6-3.5z" fill="#000000" stroke-width="none" opacity="1"></path><path id="SvgjsPath15677" d="m78.2 94 4 2.9-1.6-4.7c-.3-.4-2.3.7-2.4 1.8z" fill="#ffffff" stroke-width="none" opacity="1"></path></g></g></g><g id="svga-group-eyesfront-left"><path id="SvgjsPath15959" d="M70.7 98c0 6.9 4.9 12.5 11 12.5s11-5.6 11-12.5-4.9-12.5-11-12.5-11 5.6-11 12.5zm2.5-.1s1.3-2 2.5-3.2 3.7-3.9 8.3-2.6c4.6 1.2 5.7 3.7 6.4 5.8 0 0-1.8 2.4-3.2 3.1-1.4.7-4.4 2.4-8.5 1s-5.5-4.1-5.5-4.1z" fill="#f3d4cf" stroke-width="none" opacity="1" stroke="none"></path><path id="SvgjsPath15960" d="M91.1 96.8C90 92.4 87 88.2 82 88.2c-4.9 0-7.1 4.4-8.9 8.2-.1.2-.4 0-.3-.1 1.7-4.2 4.5-8.7 9.6-8.5 4.9.2 8.2 4.4 9 8.9 0 .1-.2.2-.3.1z" fill="#e4b3ab" stroke-width="none" opacity="1" stroke="none"></path><path id="SvgjsPath15961" d="M70 97.8c1.5.7 2.7-.3 3.9-1.6-1.2.1-2.5-.4-3.3-1.1-.1-.1 0-.3.1-.2.6.3 1.2.5 1.9.7.6.1 1.1 0 1.7 0 .7-.9 1.4-1.9 2-2.6-1.3-.4-2.4-1.6-2.3-3 0-.1.2-.2.3 0 .3 1.3 1.1 2.3 2.3 2.8.1 0 .1-.1.2-.1.7-.5 1.4-.9 2.2-1.3-.5-1-.9-2-1-3.1 0-.2.3-.2.4 0 .3 1 .7 2 1 3 .9-.3 1.8-.5 2.8-.4.2-1.5-.3-2.9-1.2-4.1-.1-.2.1-.3.3-.2 1.3 1.1 1.7 2.8 1.3 4.3h.4c.8.1 1.5.3 2.2.6.7-1.2.8-2.3.8-3.7 0-.2.3-.2.3 0 .4 1.3 0 2.8-.8 3.9.8.4 1.5.8 2.2 1.4.9-.4 1.7-1.2 2.1-2.2 0-.1.2 0 .2.1-.2 1.1-1 2-1.9 2.4.5.5 1 1 1.4 1.6.5 0 .9 0 1.4-.1.7-.2 1.2-.6 1.7-1.1.1-.1.3 0 .2.2-.6.9-1.9 1.5-3.1 1.4.3.6.6 1.1.8 1.8.7.2 1.4.3 2.1.3.2 0 .2.2 0 .3-.7.2-1.4 0-2-.2.2.6.3 1.1.3 1.7 0 .3-.5.4-.6.1-1.4-6-7.9-8.9-13.2-5.4-2.1 1.4-4.4 7.3-7.6 4.5-.1-.4.2-.8.5-.7zm3.8 1.7c-.2-.3-.4-.7-.6-1.1-.1-.2.2-.3.3-.2 2.4 1.6 4.3 3.4 7.3 3.8 3.5.4 6.4-1 8.8-3.4.1-.1.2 0 .2.1-.8 1.2-1.9 2.1-3.2 2.8.3.1.5.3.6.5.2.2.3.6.2.8 0 .1-.2.2-.3 0l-.3-.6c-.1-.2-.3-.4-.4-.5l-.1-.1c-.8.4-1.6.8-2.5 1 .2.5.4 1.1.4 1.7 0 .2-.2.2-.3.1-.3-.5-.4-1.1-.6-1.6-.7.2-1.5.2-2.3.2h-.3c0 .8 0 1.6-.1 2.4 0 .2-.3.1-.3 0-.1-.8 0-1.6 0-2.3-.8-.1-1.6-.2-2.5-.5-.3.6-.5 1.2-.6 1.9 0 .1-.2.1-.2 0 0-.7.2-1.4.6-2-.8-.3-1.5-.6-2.2-1.1-.1.1-.2.2-.2.3l-.6.6c-.1.1-.2-.1-.2-.2.1-.2.3-.5.4-.7.1-.1.1-.2.2-.2-.4-.3-.8-.7-1.2-1.1-.8.1-1.5.4-2.2.7-.1.1-.3-.1-.2-.2.9-.7 1.6-1 2.4-1.1zm15 .6c.4.3.8.8.7 1.4 0 .1-.2.1-.2 0-.1-.2-.1-.4-.2-.6s-.2-.4-.4-.5c-.2-.2 0-.4.1-.3z" fill="#000000" stroke-width="none" opacity="1" stroke="none"></path></g></g></g><g id="svga-group-eyes-right-move" transform="matrix(1,0,0,1,0,0)"><g id="svga-group-eyes-right"><g id="svga-group-eyesback-right"><path id="SvgjsPath15952" d="M109.6 97.9s1.8 2.4 3.2 3.1c1.4.7 4.4 2.4 8.5 1s5.4-4.1 5.4-4.1-1.3-2-2.5-3.2-3.7-3.9-8.3-2.6c-4.5 1.2-5.7 3.7-6.3 5.8z" fill="#ffffff" stroke-width="none" opacity="1"></path></g><g id="svga-group-eyesiriswrapper-right" transform="matrix(1,0,0,1,0,0)"><g id="svga-group-eyesiriscontrol-right" transform="matrix(1,0,0,1,0,0)"><g id="svga-group-eyesiris-right"><path id="SvgjsPath15678" d="M118 91.3c2.8 0 5.2 2.3 5.2 5.2s-2.3 5.2-5.2 5.2-5.2-2.3-5.2-5.2 2.4-5.2 5.2-5.2z" fill="#681711" stroke-width="none" opacity="1"></path><path id="SvgjsPath15679" d="M118 92.9c2 0 3.6 1.6 3.6 3.6S120 100 118 100s-3.6-1.6-3.6-3.6 1.7-3.5 3.6-3.5z" fill="#000000" stroke-width="none" opacity="1"></path><path id="SvgjsPath15680" d="m114.2 94 4 2.9-1.6-4.7c-.2-.4-2.2.7-2.4 1.8z" fill="#ffffff" stroke-width="none" opacity="1"></path></g></g></g><g id="svga-group-eyesfront-right"><path id="SvgjsPath15962" d="M118.3 85.5c-6.1 0-11 5.6-11 12.5s4.9 12.5 11 12.5 11-5.6 11-12.5-5-12.5-11-12.5zm3 16.5c-4.1 1.4-7-.3-8.5-1-1.4-.7-3.2-3.1-3.2-3.1.6-2.1 1.8-4.6 6.4-5.8 4.6-1.2 7.1 1.4 8.3 2.6 1.2 1.2 2.5 3.2 2.5 3.2s-1.4 2.7-5.5 4.1z" fill="#f3d4cf" stroke-width="none" opacity="1" stroke="none"></path><path id="SvgjsPath15965" d="M108.9 96.8c1.1-4.4 4.2-8.6 9.1-8.6s7.1 4.4 8.9 8.2c.1.2.4 0 .3-.1-1.7-4.2-4.5-8.7-9.6-8.5-4.9.2-8.2 4.4-9 8.9 0 .1.2.2.3.1z" fill="#e4b3ab" stroke-width="none" opacity="1" stroke="none"></path><path id="SvgjsPath15966" d="M130 97.8c-1.5.7-2.7-.3-3.9-1.6 1.2.1 2.5-.4 3.3-1.1.1-.1 0-.3-.1-.2-.6.3-1.2.5-1.9.7-.6.1-1.1 0-1.7 0-.7-.9-1.4-1.9-2-2.6 1.3-.4 2.4-1.6 2.3-3 0-.1-.2-.2-.3 0-.3 1.3-1.1 2.3-2.3 2.8-.1 0-.1-.1-.2-.1-.7-.5-1.4-.9-2.2-1.3.5-1 .9-2 1-3.1 0-.2-.3-.2-.4 0-.3 1-.7 2-1 3-.9-.3-1.8-.5-2.8-.4-.2-1.5.3-2.9 1.2-4.1.1-.2-.1-.3-.3-.2-1.3 1.1-1.7 2.8-1.3 4.3h-.4c-.8.1-1.5.3-2.2.6-.7-1.2-.8-2.3-.8-3.7 0-.2-.3-.2-.3 0-.4 1.3 0 2.8.8 3.9-.8.4-1.5.8-2.2 1.4-.9-.4-1.7-1.2-2.1-2.2 0-.1-.2 0-.2.1.2 1.1 1 2 1.9 2.4-.5.5-1 1-1.4 1.6-.5 0-.9 0-1.4-.1-.7-.2-1.2-.6-1.7-1.1-.1-.1-.3 0-.2.2.6.9 1.9 1.5 3.1 1.4-.3.6-.6 1.1-.8 1.8-.7.2-1.4.3-2.1.3-.2 0-.2.2 0 .3.7.2 1.4 0 2-.2-.2.6-.3 1.1-.3 1.7 0 .3.5.4.6.1 1.4-6 7.9-8.9 13.2-5.4 2.1 1.4 4.4 7.3 7.6 4.5.1-.4-.2-.8-.5-.7zm-3.8 1.7c.2-.3.4-.7.6-1.1.1-.2-.2-.3-.3-.2-2.4 1.6-4.3 3.4-7.3 3.8-3.5.4-6.4-1-8.8-3.4-.1-.1-.2 0-.2.1.8 1.2 1.9 2.1 3.2 2.8-.3.1-.5.3-.6.5-.2.2-.3.6-.2.8 0 .1.2.2.3 0l.3-.6c.1-.2.3-.4.4-.5l.1-.1c.8.4 1.6.8 2.5 1-.2.5-.4 1.1-.4 1.7 0 .2.2.2.3.1.3-.5.4-1.1.6-1.6.7.2 1.5.2 2.3.2h.3c0 .8 0 1.6.1 2.4 0 .2.3.1.3 0 .1-.8 0-1.6 0-2.3.8-.1 1.6-.2 2.5-.5.3.6.5 1.2.6 1.9 0 .1.2.1.2 0 0-.7-.2-1.4-.6-2 .8-.3 1.5-.6 2.2-1.1.1.1.2.2.2.3l.6.6c.1.1.2-.1.2-.2-.1-.2-.3-.5-.4-.7-.1-.1-.1-.2-.2-.2.4-.3.8-.7 1.2-1.1.8.1 1.5.4 2.2.7.1.1.3-.1.2-.2-.9-.7-1.6-1-2.4-1.1zm-15 .6c-.4.3-.8.8-.7 1.4 0 .1.2.1.2 0 .1-.2.1-.4.2-.6s.2-.4.4-.5c.2-.2 0-.4-.1-.3z" fill="#000000" stroke-width="none" opacity="1" stroke="none"></path></g></g></g><g id="svga-group-facehighlight-single"></g><g id="svga-group-eyebrows-left-move" transform="matrix(1,0,0,1,0,0)"><g id="svga-group-eyebrows-left-rotate" transform="matrix(1,1.7453292519943295e-9,-1.7453292519943295e-9,1,1.4925802815923817e-7,-1.404302594210094e-7)"><g id="svga-group-eyebrows-left"><path id="SvgjsPath16220" d="M68.8 86s.1 0 0 0c.1-.1.1-.1.1-.2.3-.6.9-1 1.4-1.3.6-.4 1.3-.9 1.9-1.3h.1c1.5-1.1 4-1.3 6-.8 1.9.2 3.8.8 5 1.3.1 0 .2.1.4.1 1.6.3 3.3.6 4.8 1.2 1.5.3 3 .5 4.4 1h.1c.1-.1.4 0 .4.2.1.2.1.4 0 .7.2 0 .3.1.3.3-.1.5-.3.9-.6 1.3v.1c-.3.8-.9 1.1-1.8 1-.1 0-.2 0-.4-.1-.1.1-.2.1-.3.1-1.6-.1-3.2-.8-4.6-1.4-.9-.4-1.9-.8-2.8-1.3-1.4-.2-2.8-.6-4.2-.9-1.3-.3-2.8-.3-4-.8-.4.1-.9.1-1.3.2-.3.1-.6.2-1 .2-1 .3-2.2.8-3.2.9h-.1c-.1 0-.1.1-.2.1-.2.2-.4.4-.7.5-.1 0-.3-.1-.3-.2 0-.5.3-.7.6-.9z" fill="#2a232b" stroke-width="none" opacity="1"></path><path id="SvgjsPath16221" d="M89.9 85.4c1.3.8 1.5 2.8 1.3 4.2 0 .3-.5.3-.6 0-.2-.7-.2-1.4-.3-2.1-.2-.6-.4-1.1-.7-1.7-.1-.3.1-.6.3-.4zm-3.2-.9c2.1.4 3.4 2.9 3.6 4.8 0 .2-.3.2-.3.1-.2-1-.6-1.9-1.2-2.7-.6-.8-1.4-1.3-2.2-2-.1-.1 0-.3.1-.2zM81 83.1c.9.2 1.9 1 2.6 1.7.7.7 1.3 1.5 1.5 2.4 0 .2-.2.3-.3.2-.5-.8-.9-1.6-1.7-2.2-.7-.6-1.6-1-2.2-1.8-.1-.2-.1-.3.1-.3zM76.3 82c2.3 0 4.7 2.1 5.4 4.2.1.2-.2.3-.3.1-.6-.9-1.2-1.8-2.1-2.5-.9-.7-1.9-1-3-1.4-.3-.1-.3-.4 0-.4zm-5.6 2.4c2.1-2.7 6.2-1.8 7.9.8.1.2-.2.4-.3.2-1-.9-2.1-1.9-3.5-2-1.5-.2-2.7.8-3.9 1.3-.3.1-.3-.2-.2-.3z" fill="#3a353a" stroke-width="none" opacity="1"></path><path id="SvgjsPath16222" d="M92.1 90.3c1.6-.4 2-2.2 2-3.7 0-.3-.4-.3-.5-.1-.2.6-.4 1.3-.7 1.8-.3.5-.7.8-1.1 1 .4-1.2.2-2.6-.6-3.7.6.1 1.1.3 1.7.4.2 0 .3-.2.1-.3-2.7-1-5.6-1.6-8.3-2.4-2.4-.7-4.9-1.4-7.3-1.7-4.6-.6-7.6 2.4-10.3 5.7-.1.1-.2.2-.3.2-.4.3 0 .9.4.6 2.5-1.5 5-2.4 7.9-2.4 3.1.1 6.2 1.1 9.2 2.1 1.6.6 3.1 1.2 4.6 1.8 1 .6 2.1 1 3.2.7zm-20-6.8c1-.7 2.1-1 3.1-1.1.8.4 1.6.8 2.3 1.4.5.5.9 1.1 1.3 1.6-.1 0-.2-.1-.4-.1-3.4-.7-6.6-.4-9.5 1 1-1 2-2 3.2-2.8zm19.3 6c-.5 0-1.1-.1-1.7-.3-1.2-.4-2.4-1-3.6-1.5-.2-.1-.4-.1-.6-.2 0-.9-.3-1.8-.9-2.4-.1-.1-.3 0-.2.2.3.7.7 1.4.9 2.1-.8-.3-1.5-.6-2.3-.8-.7-1.5-2.1-3.1-3.6-3.8-.2-.1-.3.2-.2.3.6.6 1.3 1 1.9 1.7.5.5.9 1.1 1.3 1.7-1-.3-1.9-.6-2.9-.8-.2-.8-.9-1.6-1.5-2.1-.4-.4-1-.8-1.5-1.1.9 0 1.9.1 2.8.3 3.8.8 7.6 1.9 11.4 2.8.8 1.2 1 2.5.7 3.9z" fill="#1b141c" stroke-width="none" opacity="1"></path></g></g></g><g id="svga-group-eyebrows-right-move" transform="matrix(1,0,0,1,0,0)"><g id="svga-group-eyebrows-right-rotate" transform="matrix(1,1.7453292519943295e-9,-1.7453292519943295e-9,1,1.4908349044162605e-7,-2.0828650804105564e-7)"><g id="svga-group-eyebrows-right"><path id="SvgjsPath16223" d="M131.2 86s-.1 0 0 0c-.1-.1-.1-.1-.1-.2-.3-.6-.9-1-1.4-1.3-.6-.4-1.3-.9-1.9-1.3h-.1c-1.5-1.1-4-1.3-6-.8-1.9.2-3.8.8-5 1.3-.1 0-.2.1-.4.1-1.6.3-3.3.6-4.8 1.2-1.5.3-3 .5-4.4 1h-.1c-.1-.1-.4 0-.4.2-.1.2-.1.4 0 .7-.2 0-.3.1-.3.3.1.5.3.9.6 1.3v.1c.3.8.9 1.1 1.8 1 .1 0 .2 0 .4-.1.1.1.2.1.3.1 1.6-.1 3.2-.8 4.6-1.4.9-.4 1.9-.8 2.8-1.3 1.4-.2 2.8-.6 4.2-.9 1.3-.3 2.8-.3 4-.8.4.1.9.1 1.3.2.3.1.6.2 1 .2 1 .3 2.2.8 3.2.9h.1c.1 0 .1.1.2.1.2.2.4.4.7.5.1 0 .3-.1.3-.2 0-.5-.3-.7-.6-.9z" fill="#2a232b" stroke-width="none" opacity="1"></path><path id="SvgjsPath16224" d="M110.1 85.4c-1.3.8-1.5 2.8-1.3 4.2 0 .3.5.3.6 0 .2-.7.2-1.4.3-2.1.2-.6.4-1.1.7-1.7.1-.3-.1-.6-.3-.4zm3.2-.9c-2.1.4-3.4 2.9-3.6 4.8 0 .2.3.2.3.1.2-1 .6-1.9 1.2-2.7.6-.8 1.4-1.3 2.2-2 .1-.1 0-.3-.1-.2zm5.7-1.4c-.9.2-1.9 1-2.6 1.7-.7.7-1.3 1.5-1.5 2.4 0 .2.2.3.3.2.5-.8.9-1.6 1.7-2.2.7-.6 1.6-1 2.2-1.8.1-.2.1-.3-.1-.3zm4.7-1.1c-2.3 0-4.7 2.1-5.4 4.2-.1.2.2.3.3.1.6-.9 1.2-1.8 2.1-2.5.9-.7 1.9-1 3-1.4.3-.1.3-.4 0-.4zm5.6 2.4c-2.1-2.7-6.2-1.8-7.9.8-.1.2.2.4.3.2 1-.9 2.1-1.9 3.5-2 1.5-.2 2.7.8 4 1.3.2.1.2-.2.1-.3z" fill="#3a353a" stroke-width="none" opacity="1"></path><path id="SvgjsPath16225" d="M111.1 89.8c1.5-.6 3.1-1.2 4.6-1.8 2.9-1 6.1-2.1 9.2-2.1 2.9-.1 5.5.9 7.9 2.4.4.2.8-.4.4-.6-.1-.1-.2-.2-.4-.2-2.7-3.3-5.7-6.2-10.3-5.7-2.5.3-4.9 1.1-7.3 1.7-2.8.8-5.6 1.4-8.3 2.4-.2.1-.1.3.1.3.6-.1 1.1-.2 1.7-.4-.8 1-1 2.5-.6 3.7-.4-.1-.8-.4-1.1-1-.3-.6-.4-1.2-.7-1.8-.1-.2-.5-.2-.5.1.1 1.4.5 3.2 2 3.7 1.2.1 2.3-.3 3.3-.7zm19.9-3.5c-3-1.4-6.2-1.7-9.5-1-.1 0-.2.1-.4.1.4-.5.8-1.1 1.3-1.6.7-.6 1.5-.9 2.3-1.4 1.1.1 2.1.5 3.1 1.1 1.3.8 2.3 1.8 3.2 2.8zm-21.6-.7c3.8-.9 7.6-2 11.4-2.8 1-.2 1.9-.3 2.8-.3-.6.3-1.1.7-1.5 1.1-.6.5-1.3 1.3-1.5 2.1-1 .2-2 .5-2.9.8.4-.6.8-1.2 1.3-1.7.6-.6 1.3-1.1 1.9-1.7.1-.1 0-.3-.2-.3-1.5.6-2.9 2.2-3.6 3.8-.8.2-1.6.5-2.3.8.2-.7.5-1.4.9-2.1.1-.2-.1-.3-.2-.2-.6.6-.9 1.6-.9 2.4-.2.1-.4.1-.6.2-1.2.5-2.4 1.1-3.6 1.5-.6.2-1.2.4-1.7.3-.4-1.4-.2-2.7.7-3.9z" fill="#1b141c" stroke-width="none" opacity="1"></path></g></g></g><g id="svga-group-nose-single-move" transform="matrix(1,0,0,1,0,0)"><g id="svga-group-nose-single"><path id="SvgjsPath15759" d="M104.93 107.57c-.14-.18-.45.05-.32.25.84 1.29 1.76 2.56 2.54 3.89.53.9 1.07 2.03.7 3.12-.61 1.79-2.18 1.68-3.45 1 .48-.61.75-1.33.69-2.12-.02-.19-.29-.37-.44-.18-1.26 1.59-2.06 3.25-4.41 3.34-2.48.1-4.08-1.91-4.73-4.07-.06-.19-.32-.14-.33.04-.07.99.25 1.95.79 2.76-.36.07-.73.14-1.09.16-1.15.07-1.34-.02-2.11-.98-.8-1.01-.81-1.27-.36-2.39.21-.53.52-.98.82-1.45.97-1.52 1.84-3.06 2.48-4.75 1.29-3.37 1.85-7.09 1.22-10.66-.03-.15-.26-.11-.27.04-.01 2.89-.19 5.74-1.04 8.52-.88 2.88-2.54 5.04-3.92 7.64-.72 1.35-1.02 3.12.21 4.28 1.22 1.15 3.1.78 4.52.24.85.92 2.02 1.56 3.26 1.67 1.4.12 3.23-.55 4.36-1.7 1.31 1.45 3.82.78 4.47-1.08 1.01-2.82-2.06-5.64-3.59-7.57z" fill="#c5796d" stroke-width="none" opacity="1" transform="translate(0 2)" stroke="none"></path><path id="SvgjsPath15760" d="M102 110.13c-.8-.75-2.07-.97-2.97-.27-.33.25-.52.57-.61.9-.16.05-.3.14-.44.27-.68.67-.39 1.71.19 2.34.5.53 1.31.78 2.02.75.88-.05 1.67-.46 2.16-1.2.57-.86.4-2.09-.35-2.79z" fill="#fbe5e2" stroke-width="none" opacity="1" transform="translate(0 2)" stroke="none"></path></g></g><g id="svga-group-hair-front"><path id="SvgjsPath16774" d="M143.1 79.3c-.9 7.7-2.8 15-4.8 18.6 0 0-.3-14.3-3.7-21.1S121.2 62.2 120 56.5c0 0 1.5 3.3 3.8 4.7s10.3 7.6 12.2 9.7 5 7.3 6.3 8c.1.1.5.2.8.4zm-76.2 56.4c0 .6-.2 2.2-.5 4.5-.7-6.6-2.1-13.9-2.1-13.9s-30.2 44.5-26.2 59.2c4 14.7 12.1 24.9 12.9 25.7.8.8 4 1.9 5.4 4.5.5 1 10.5-8.8 5.6-20.6-4.8-11.8-5.9-19.8-1.9-26 .7-1.1 1.3-2.3 1.9-3.5-.8 4.3-1.5 7.7-1.7 8.7-.9 3.5-.9 8.5 1.5 14s6.1 5.8 6.1 5.8c-1.7-2.7-1.8-7.3-.2-12.1s4.2-9.5 5.6-14.5c1.5-5.2 2.2-11.4-2.7-21.7-2.7-6.1-3.7-10.1-3.7-10.1z" fill="#221b23" stroke-width="none" opacity="1"></path><path id="SvgjsPath16775" d="M120 56.5s-18.2 6.8-32.8 1.7-24 15.1-22.8 27.1 9.4 27.7 4.6 47.1c-4.8 19.4-18.8 34.2-22.8 42.8s-4 17.4 0 23.7 6 10.8 7.1 17.4c0 0-1.5-3.6-7.4-8-9.3-6.9-13.1-15.1-12.5-27.9s6.2-22.8 11.1-33.1c4.8-10.3 7.3-23.3 3.9-31.9-3.4-8.6-7.3-20.5-5.9-41.7 1.4-21.1 13.1-32.4 27.7-41s35.7-7 49.1 1.3 11.4 15.7 11.4 15.7 4-2 10 7.1 2 33.4-2.3 41.1c0 0-.3-14.3-3.7-21.1S121.2 62.2 120 56.5z" fill="#2a232b" stroke-width="none" opacity="1"></path><path id="SvgjsPath16776" d="M127.6 50.2c-2.3 1.5-4.7 1.5-6.1.8-4.1-1.8-7.4-8-10.8-11.7-5.7-6.2-7.2-9.4-20.3-10.1-9.3-.5-16.7 1.9-21 3.8-14.2 8.5-25.5 19.8-26.9 40.6-1.4 21.1 2.4 33.1 5.9 41.7s.9 21.6-3.9 31.9c-4.8 10.3-10.5 20.3-11.1 33.1s3.3 21 12.5 27.9c5.9 4.4 7.4 8 7.4 8-1.6-4.5-4-6.3-8.7-10.6-4.8-4.3-9.4-16.4-8.4-25.6s9.7-25 13.8-31.4c4.1-6.4 7.4-17.4 8.8-23.3 1.4-5.9.2-10.8-3.9-20.9s-6.3-36.5-5.6-41c1.1-8.3 3.1-14 9.4-20.6 9.4-9.8 21.6-11.3 28.9-11.4 11.8-.1 20 7.7 21.5 9.9s10.5 11.9 12.8 12.3c2.3.4 8-3.4 8-3.4l.7-.6s.3-1 0-2.6c-.5.9-1.5 2.2-3 3.2zM102.2 60c.3 0 .7 0 1-.1.2 0 .5 0 .8-.1.4 0 .9-.1 1.3-.1.2 0 .5-.1.8-.1.3 0 .7-.1 1-.1.3 0 .6-.1.9-.1.3 0 .6-.1.9-.1.2 0 .4-.1.6-.1.4-.1.8-.2 1.2-.2.2 0 .4-.1.6-.1.4-.1.8-.2 1.1-.2.2 0 .3-.1.4-.1.3-.1.6-.2.9-.2.1 0 .2 0 .3-.1.4-.1.8-.2 1.1-.3.1 0 .2 0 .3-.1.4-.1.7-.2 1.1-.3 2.2-.6 3.5-1.1 3.5-1.1s-5 .6-10.9-5.5c-2.3-3.7-6.1-10.5-12-12.8-6.8-2.7-29.5-3.9-37.2 12.5s-2.7 30.5.6 37.4c3.3 6.9 8.5 20.1 8.3 28.7-.2 8.7-2.3 21-4.6 26.4-2.3 5.4-17.6 24.4-20.8 33.3-3.3 9.3-4.4 15.6 3.5 28.3 3 4.9 5 6.3 5.8 8.1-1.2-5-3.1-9-6.5-14.2-4-6.3-4-15.1 0-23.7s18-23.4 22.8-42.8-3.4-35.1-4.6-47.1S72.7 52.9 87.2 58c1.9.7 3.9 1.1 5.8 1.4h.1c.2 0 .4.1.7.1.4 0 .8.1 1.2.1.3 0 .6 0 .8.1.4 0 .8.1 1.3.1h4.1c.3.3.7.3 1 .2z" fill="#221b23" stroke-width="none" opacity="1"></path><path id="SvgjsPath16777" d="M63.3 148.6s-2.6 6.6-9.3 14.7c-8.9 10.7-10.7 17.4-7.4 25.8 3.3 8.4 7.8 12.8 9.3 16.5s1.1 7.6 1.1 7.6 1.9-4.1 1.1-7.2c-.7-3.1-7.4-13.9-8.4-20s.1-12.9 4.2-18.7c3.5-4.9 7.6-11.6 9.4-18.7zm1.9 1.5s-2.5 11.6-6 17.4c-3.5 5.8-4.6 13-2 19.1 2.6 6.1 7.6 14.1 7.2 19.4 0 0 3.4-6.4.2-13s-4.3-16.4-1.7-23.1c2.6-6.6 2.9-15.2 2.3-19.8z" fill="#2a232b" stroke-width="none" opacity="1"></path><path id="SvgjsPath16778" d="M93.1 59.7c.3 0 .5.1.7.1.4 0 .8.1 1.2.1.3 0 .6 0 .8.1.4 0 .8.1 1.3.1h1.5c-2.4-1-5.2-2.6-7.6-5.4-4.8-5.9-8.5-8.6-16.2-7.8S59 58.1 59.5 69c.5 10.8 4 17.7 6.2 23.6-.6-2.6-1.1-5-1.3-7.3-1.1-12 8.3-32.2 22.8-27.1 2 .7 3.9 1.1 5.9 1.5z" fill="#1b141c" stroke-width="none" opacity="1"></path></g><g id="svga-group-glasses-single-move" transform="matrix(1,0,0,1,0,0)"><g id="svga-group-glasses-single"></g></g></g></g></g><rect id="svga-credit-rect" width="200" height="15" x="0" y="185" fill="#ecf0f1" opacity="0.5" style="display: none;"></rect><text id="svga-credit-text" font-family="Avenir Next, Roboto, Helvetica, Arial, sans-serif" font-size="10px" text-anchor="start" font-weight="400" size="10px" anchor="start" weight="400" fill="#333333" x="33.40447998046875" y="182.60824704170227" style="display: none;"><tspan id="SvgjsTspan15588" dy="13" x="33.40447998046875">Created on AvatarMaker.com</tspan></text></g><defs id="SvgjsDefs15540"><linearGradient id="SvgjsLinearGradient16000" x1="82.14" y1="87.906" x2="82.14" y2="109.3074" gradientUnits="userSpaceOnUse" class="svga-on-canvas-glasses-gradient-single-0-null"><stop id="SvgjsStop16001" stop-opacity="1" stop-color="#9bc2cf" offset="0" ></stop><stop id="SvgjsStop16002" stop-opacity="0" stop-color="#6086c4" offset="1" ></stop></linearGradient><linearGradient id="SvgjsLinearGradient16004" x1="-17.86" y1="87.906" x2="-17.86" y2="109.3074" gradientTransform="matrix(-1 0 0 1 100 0)" gradientUnits="userSpaceOnUse" class="svga-on-canvas-glasses-gradient-single-1-null"><stop id="SvgjsStop16005" stop-opacity="1" stop-color="#9bc2cf" offset="0" ></stop><stop id="SvgjsStop16006" stop-opacity="0" stop-color="#6086c4" offset="1" ></stop></linearGradient><linearGradient id="SvgjsLinearGradient16048" x1="82.14" y1="87.906" x2="82.14" y2="109.3074" gradientUnits="userSpaceOnUse" class="svga-on-canvas-glasses-gradient-single-0-null"><stop id="SvgjsStop16049" stop-opacity="1" stop-color="#9bc2cf" offset="0" ></stop><stop id="SvgjsStop16050" stop-opacity="0" stop-color="#6086c4" offset="1" ></stop></linearGradient><linearGradient id="SvgjsLinearGradient16052" x1="-17.86" y1="87.906" x2="-17.86" y2="109.3074" gradientTransform="matrix(-1 0 0 1 100 0)" gradientUnits="userSpaceOnUse" class="svga-on-canvas-glasses-gradient-single-1-null"><stop id="SvgjsStop16053" stop-opacity="1" stop-color="#9bc2cf" offset="0" ></stop><stop id="SvgjsStop16054" stop-opacity="0" stop-color="#6086c4" offset="1" ></stop></linearGradient></defs></svg>