<?xml version="1.0" encoding="utf-8"?>
<!-- Generator: Adobe Illustrator 18.1.0, SVG Export Plug-In . SVG Version: 6.00 Build 0)  -->
<!DOCTYPE svg PUBLIC "-//W3C//DTD SVG 1.1//EN" "http://www.w3.org/Graphics/SVG/1.1/DTD/svg11.dtd">
<svg version="1.1" id="Layer_1" xmlns="http://www.w3.org/2000/svg" xmlns:xlink="http://www.w3.org/1999/xlink" x="0px" y="0px"
	 viewBox="-363 275 64 64" enable-background="new -363 275 64 64" xml:space="preserve">
<g id="Layer_1_1_">
	<g>
		<circle fill="#7EC9E4" cx="-331" cy="307" r="32"/>
	</g>
	<g opacity="0.2">
		<path fill="#231F20" d="M-319,327c0,1.1-0.9,2-2,2h-20c-1.1,0-2-0.9-2-2l0,0c0-1.1,0.9-2,2-2h20C-319.9,325-319,325.9-319,327
			L-319,327z"/>
	</g>
	<g>
		<path fill="#FFFFFF" d="M-319,325c0,1.1-0.9,2-2,2h-20c-1.1,0-2-0.9-2-2l0,0c0-1.1,0.9-2,2-2h20C-319.9,323-319,323.9-319,325
			L-319,325z"/>
	</g>
	<g>
		<path fill="#E0E0D1" d="M-326,317c0,0-1,6,3,6c0,0-20,0-16,0s3-6,3-6H-326z"/>
	</g>
	<g opacity="0.2">
		<g>
			<path fill="#231F20" d="M-311,315c0,2.2-1.8,4-4,4h-32c-2.2,0-4-1.8-4-4v-22c0-2.2,1.8-4,4-4h32c2.2,0,4,1.8,4,4V315z"/>
		</g>
	</g>
	<g>
		<g>
			<path fill="#6C6F8D" d="M-347,315.5c-1.4,0-2.5-1.1-2.5-2.5v-22c0-1.4,1.1-2.5,2.5-2.5h32c1.4,0,2.5,1.1,2.5,2.5v22
				c0,1.4-1.1,2.5-2.5,2.5H-347z"/>
		</g>
		<g>
			<path fill="#FFFFFF" d="M-315,290c0.6,0,1,0.4,1,1v22c0,0.6-0.4,1-1,1h-32c-0.6,0-1-0.4-1-1v-22c0-0.6,0.4-1,1-1H-315 M-315,287
				h-32c-2.2,0-4,1.8-4,4v22c0,2.2,1.8,4,4,4h32c2.2,0,4-1.8,4-4v-22C-311,288.8-312.8,287-315,287L-315,287z"/>
		</g>
	</g>
	<g opacity="0.2">
		<polygon fill="#FFFFFF" points="-313,314.9 -313,288.9 -336.8,288.9 -321.8,314.9 		"/>
	</g>
</g>
<g id="Layer_2">
</g>
</svg>
