<?xml version="1.0" encoding="utf-8"?>
<!-- Generator: Adobe Illustrator 18.1.0, SVG Export Plug-In . SVG Version: 6.00 Build 0)  -->
<!DOCTYPE svg PUBLIC "-//W3C//DTD SVG 1.1//EN" "http://www.w3.org/Graphics/SVG/1.1/DTD/svg11.dtd">
<svg version="1.1" id="Layer_1" xmlns="http://www.w3.org/2000/svg" xmlns:xlink="http://www.w3.org/1999/xlink" x="0px" y="0px"
	 viewBox="-363 275 64 64" enable-background="new -363 275 64 64" xml:space="preserve">
<circle fill="#7EC9E4" cx="-331" cy="307" r="32"/>
<g opacity="0.2">
	<path fill="#231F20" d="M-326.9,324c-0.3,0-0.6,0-0.8-0.1l-9.7-2.4c-1.9-0.5-3-2.4-2.6-4.2l1.4-5.8c0.4-1.6,1.8-2.7,3.4-2.7
		c0.3,0,0.6,0,0.8,0.1l9.7,2.4c1.9,0.5,3,2.4,2.6,4.2l-1.4,5.8C-323.9,322.9-325.3,324-326.9,324z M-335.2,311.8
		c-0.2,0-0.4,0.1-0.5,0.4l-1.4,5.8c-0.1,0.3,0.1,0.5,0.4,0.6l9.7,2.4c0.2,0.1,0.5,0,0.6-0.4l1.4-5.8c0.1-0.3-0.1-0.5-0.4-0.6
		l-9.7-2.4C-335.1,311.8-335.2,311.8-335.2,311.8z"/>
</g>
<g>
	<path fill="#6C6F8D" d="M-326.9,322c-0.3,0-0.6,0-0.8-0.1l-9.7-2.4c-1.9-0.5-3-2.4-2.6-4.2l1.4-5.8c0.4-1.6,1.8-2.7,3.4-2.7
		c0.3,0,0.6,0,0.8,0.1l9.7,2.4c1.9,0.5,3,2.4,2.6,4.2l-1.4,5.8C-323.9,320.9-325.3,322-326.9,322z M-335.2,309.8
		c-0.2,0-0.4,0.1-0.5,0.4l-1.4,5.8c-0.1,0.3,0.1,0.5,0.4,0.6l9.7,2.4c0.2,0.1,0.5,0,0.6-0.4l1.4-5.8c0.1-0.3-0.1-0.5-0.4-0.6
		l-9.7-2.4C-335.1,309.8-335.2,309.8-335.2,309.8z"/>
</g>
<path opacity="0.2" fill="#231F20" enable-background="new    " d="M-313,296c-1.1,0-2,0.9-2,2v-0.5l-34.3,7.4
	c-0.4-0.5-1-0.9-1.7-0.9c-1.1,0-2,0.9-2,2v6c0,1.1,0.9,2,2,2c0.7,0,1.3-0.4,1.7-0.9l34.3,7.4V320c0,1.1,0.9,2,2,2s2-0.9,2-2v-22
	C-311,296.9-311.9,296-313,296z"/>
<polygon fill="#FFFFFF" points="-315,318.5 -352,310.5 -352,303.5 -315,295.5 "/>
<path fill="#E0995E" d="M-349,310c0,1.1-0.9,2-2,2l0,0c-1.1,0-2-0.9-2-2v-6c0-1.1,0.9-2,2-2l0,0c1.1,0,2,0.9,2,2V310z"/>
<path fill="#E0995E" d="M-311,318c0,1.1-0.9,2-2,2l0,0c-1.1,0-2-0.9-2-2v-22c0-1.1,0.9-2,2-2l0,0c1.1,0,2,0.9,2,2V318z"/>
</svg>
