<?xml version="1.0" encoding="utf-8"?>
<!-- Generator: Adobe Illustrator 18.1.0, SVG Export Plug-In . SVG Version: 6.00 Build 0)  -->
<!DOCTYPE svg PUBLIC "-//W3C//DTD SVG 1.1//EN" "http://www.w3.org/Graphics/SVG/1.1/DTD/svg11.dtd">
<svg version="1.1" id="Layer_1" xmlns="http://www.w3.org/2000/svg" xmlns:xlink="http://www.w3.org/1999/xlink" x="0px" y="0px"
	 viewBox="-358 277 60 60" enable-background="new -358 277 60 60" xml:space="preserve">
<path fill="#007AB9" d="M-311.2,321.1v-11.7c0-6.3-3.4-9.2-7.8-9.2c-3.6,0-5.2,2-6.1,3.4v-2.9h-6.8c0.1,1.9,0,20.4,0,20.4h6.8v-11.4
	c0-0.6,0-1.2,0.2-1.7c0.5-1.2,1.6-2.5,3.5-2.5c2.5,0,3.4,1.9,3.4,4.6v10.9L-311.2,321.1L-311.2,321.1z M-339,297.9
	c2.4,0,3.8-1.6,3.8-3.5c0-2-1.5-3.5-3.8-3.5s-3.8,1.5-3.8,3.5C-342.8,296.4-341.4,297.9-339,297.9L-339,297.9z M-328,337
	c-16.6,0-30-13.4-30-30c0-16.6,13.4-30,30-30s30,13.4,30,30C-298,323.6-311.4,337-328,337z M-335.6,321.1v-20.4h-6.8v20.4H-335.6z"
	/>
</svg>
