<?xml version="1.0" encoding="utf-8"?>
<!-- Generator: Adobe Illustrator 18.1.0, SVG Export Plug-In . SVG Version: 6.00 Build 0)  -->
<!DOCTYPE svg PUBLIC "-//W3C//DTD SVG 1.1//EN" "http://www.w3.org/Graphics/SVG/1.1/DTD/svg11.dtd">
<svg version="1.1" id="Layer_1" xmlns="http://www.w3.org/2000/svg" xmlns:xlink="http://www.w3.org/1999/xlink" x="0px" y="0px"
	 viewBox="-358 277 60 60" enable-background="new -358 277 60 60" xml:space="preserve">
<path fill="#598DCA" d="M-323.8,295.3c-2.6,1-4.3,3.4-4.1,6.1l0.1,1l-1-0.1c-3.8-0.5-7.1-2.1-10-4.9l-1.4-1.4l-0.4,1
	c-0.8,2.3-0.3,4.7,1.3,6.3c0.8,0.9,0.6,1-0.8,0.5c-0.5-0.2-0.9-0.3-1-0.2c-0.1,0.1,0.4,2.1,0.8,2.8c0.5,1.1,1.7,2.1,2.9,2.7l1,0.5
	l-1.2,0c-1.2,0-1.2,0-1.1,0.5c0.4,1.4,2.1,2.8,3.9,3.5l1.3,0.4l-1.1,0.7c-1.7,1-3.6,1.5-5.6,1.6c-0.9,0-1.7,0.1-1.7,0.2
	c0,0.2,2.6,1.4,4,1.9c4.5,1.4,9.8,0.8,13.7-1.6c2.8-1.7,5.7-5,7-8.2c0.7-1.7,1.4-4.9,1.4-6.4c0-1,0.1-1.1,1.2-2.3
	c0.7-0.7,1.3-1.4,1.5-1.6c0.2-0.4,0.2-0.4-0.9,0c-1.8,0.6-2,0.6-1.2-0.4c0.6-0.7,1.4-1.9,1.4-2.3c0-0.1-0.3,0-0.7,0.2
	c-0.4,0.2-1.2,0.5-1.8,0.7l-1.1,0.4l-1-0.7c-0.6-0.4-1.4-0.8-1.8-0.9C-321.2,294.9-322.9,294.9-323.8,295.3z M-328,337
	c-16.6,0-30-13.4-30-30c0-16.6,13.4-30,30-30s30,13.4,30,30C-298,323.6-311.4,337-328,337z"/>
</svg>
